<?xml version="1.0" encoding="UTF-8"?>
<svg version="1.1" xmlns="http://www.w3.org/2000/svg" width="922" height="922">
<path d="M0 0 C304.26 0 608.52 0 922 0 C922 304.26 922 608.52 922 922 C617.74 922 313.48 922 0 922 C0 617.74 0 313.48 0 0 Z " fill="#0E577E" transform="translate(0,0)"/>
<path d="M0 0 C304.26 0 608.52 0 922 0 C922 304.26 922 608.52 922 922 C617.74 922 313.48 922 0 922 C0 617.74 0 313.48 0 0 Z M413 96 C412.15083008 96.10151367 411.30166016 96.20302734 410.42675781 96.30761719 C405.22974217 96.96502929 400.12550262 97.92448764 395 99 C393.77506836 99.25378418 392.55013672 99.50756836 391.28808594 99.76904297 C317.66844933 115.16474292 252.67650178 150.12978061 199.48608398 203.32861328 C197.94076934 204.8717353 196.38759554 206.40664306 194.83398438 207.94140625 C188.43730069 214.30226947 182.60747485 220.92090907 177 228 C176.0237042 229.17405555 175.04382385 230.34515046 174.05859375 231.51171875 C160.62770321 247.67005128 149.16859863 265.63299385 139 284 C138.32106689 285.20849609 138.32106689 285.20849609 137.62841797 286.44140625 C130.92437122 298.45839305 125.22798495 310.76127674 120.0625 323.5 C119.79327728 324.1621048 119.52405457 324.82420959 119.24667358 325.50637817 C110.56090011 346.97651094 104.17620903 368.93975257 99.8125 391.6875 C99.57474854 392.90107178 99.33699707 394.11464355 99.09204102 395.36499023 C95.18956983 416.46729242 93.49039279 437.60484412 93.60888672 459.05224609 C93.62500036 462.50007643 93.60889235 465.94673527 93.58984375 469.39453125 C93.5673086 492.75449008 96.15755264 515.41764376 101.36914062 538.17822266 C101.97007936 540.86616765 102.51698728 543.55898687 103.046875 546.26171875 C108.20623764 571.83837362 117.8738991 596.47917636 129 620 C129.62406738 621.32862061 129.62406738 621.32862061 130.26074219 622.68408203 C144.60225877 652.97641305 163.69788646 681.00991415 186 706 C186.71857178 706.8053418 186.71857178 706.8053418 187.45166016 707.62695312 C198.07786339 719.465011 209.0356458 731.19223576 221.5546875 741.046875 C223.80449449 742.84384544 225.8961786 744.72393336 228 746.6875 C272.89568045 786.93327069 333.48316936 812.53433665 392 824 C393.02480469 824.20109375 394.04960937 824.4021875 395.10546875 824.609375 C446.17575377 834.38738559 499.51614576 831.75075923 550 820 C551.17304687 819.72800781 552.34609375 819.45601562 553.5546875 819.17578125 C604.24824471 806.4736541 652.6603503 782.21378344 693 749 C693.54849609 748.54915039 694.09699219 748.09830078 694.66210938 747.63378906 C705.87264426 738.37491236 716.50946735 728.56876142 726.8125 718.3125 C727.51793945 717.6117334 728.22337891 716.9109668 728.95019531 716.18896484 C768.12746452 676.89151996 795.33407777 627.2085097 813 575 C813.32097656 574.0625293 813.64195312 573.12505859 813.97265625 572.15917969 C819.63073348 555.42760612 823.00291755 538.37488022 826 521 C826.26756104 519.50968262 826.26756104 519.50968262 826.54052734 517.98925781 C829.83455507 498.44277258 830.4429627 478.6563115 830.4375 458.875 C830.43823517 457.70356445 830.43897034 456.53212891 830.43972778 455.32519531 C830.37590292 416.32919513 823.85564934 378.86635817 811 342 C810.69433105 341.09781738 810.38866211 340.19563477 810.07373047 339.26611328 C801.20692846 313.2656139 788.89972117 288.07281211 774 265 C773.33226562 263.94296875 772.66453125 262.8859375 771.9765625 261.796875 C762.69659414 247.46578462 752.29683581 233.79485616 741 221 C740.26652344 220.16726562 739.53304687 219.33453125 738.77734375 218.4765625 C736.53833375 215.96529539 734.27345268 213.48013019 732 211 C731.49678223 210.44634766 730.99356445 209.89269531 730.47509766 209.32226562 C722.17192971 200.1302502 722.17192971 200.1302502 713.06640625 191.75390625 C710.94450205 189.95289493 708.91555802 188.06766218 706.88647461 186.16333008 C699.9247002 179.65360434 692.60337899 173.7406573 685 168 C684.02281006 167.25411621 684.02281006 167.25411621 683.02587891 166.49316406 C613.4365381 113.62994567 523.61026085 86.92772725 413 96 Z " fill="#0E577E" transform="translate(0,0)"/>
<path d="M0 0 C0.83797119 0.16040771 1.67594238 0.32081543 2.53930664 0.48608398 C33.44121476 6.48015916 63.41848807 17.31843549 91.625 31.1875 C92.51203613 31.62143066 93.39907227 32.05536133 94.31298828 32.50244141 C114.95980138 42.7011923 134.60278399 54.84148058 152.625 69.1875 C153.62950195 69.98003174 153.62950195 69.98003174 154.65429688 70.78857422 C163.11219439 77.47746078 171.26453736 84.39727174 179.12011719 91.78417969 C180.73578843 93.29081147 182.36961269 94.77572021 184.0078125 96.2578125 C189.22760725 100.99170043 194.32080839 105.6767777 198.84375 111.09765625 C201.05697645 113.69431448 203.40743775 116.14444199 205.75 118.625 C211.99093424 125.35182012 217.50470472 132.59278828 222.96777344 139.95654297 C224.05922492 141.42585406 225.15610881 142.89114775 226.25878906 144.35205078 C257.42307401 185.64519683 277.98317869 233.91323265 289.18847656 284.23046875 C289.58303742 285.99937246 289.99000417 287.76549781 290.3984375 289.53125 C291.06809846 292.61313054 291.66368435 295.69887358 292.20556641 298.80566406 C292.50485777 300.50524877 292.81863645 302.20230861 293.14208984 303.89746094 C296.5271836 322.13127883 297.00712205 340.11638 297 358.625 C297.00258316 360.33733322 297.00258316 360.33733322 297.00521851 362.08425903 C297.00183925 381.90146822 296.14508025 401.64859299 292.625 421.1875 C292.40972656 422.42983398 292.19445312 423.67216797 291.97265625 424.95214844 C286.48732376 456.15572145 277.27030309 485.08338903 264.625 514.1875 C264.27759766 514.9928418 263.93019531 515.79818359 263.57226562 516.62792969 C249.52657676 548.83614725 229.07578989 579.09146734 205.625 605.1875 C205.1594873 605.70940918 204.69397461 606.23131836 204.21435547 606.76904297 C193.05600354 619.23740634 181.47303381 631.77184592 168.2734375 642.09765625 C165.81946254 644.03405242 163.45870882 646.05255032 161.10400391 648.10766602 C98.15882197 702.7463833 11.75341397 730.49005107 -70.75 730.375 C-71.62484039 730.37406342 -72.49968079 730.37312683 -73.40103149 730.37216187 C-126.67444202 730.24920692 -179.16336825 719.08099715 -227.375 696.1875 C-228.2928125 695.75469727 -229.210625 695.32189453 -230.15625 694.87597656 C-261.66891275 679.89651986 -290.30960162 660.33821185 -316.375 637.1875 C-317.12958496 636.51968506 -317.12958496 636.51968506 -317.89941406 635.83837891 C-329.31259303 625.69124382 -340.67355574 615.00599671 -350.375 603.1875 C-350.81457031 602.66172363 -351.25414062 602.13594727 -351.70703125 601.59423828 C-381.74622631 565.64617055 -404.97796327 525.25995636 -420.39697266 480.98095703 C-421.19058173 478.71423835 -422.00997465 476.46247397 -422.85546875 474.21484375 C-429.05760862 457.05358295 -432.65787507 438.46548288 -435.6875 420.5 C-435.83453369 419.63125244 -435.98156738 418.76250488 -436.13305664 417.86743164 C-436.59202713 414.97868051 -436.99278094 412.08745562 -437.375 409.1875 C-437.50370483 408.23919312 -437.50370483 408.23919312 -437.63500977 407.27172852 C-439.55981666 392.71868547 -439.77480945 378.22651166 -439.75 363.5625 C-439.74945618 362.35095245 -439.74891235 361.13940491 -439.74835205 359.8911438 C-439.70808529 340.33486538 -438.76059132 321.47300305 -435.375 302.1875 C-435.05354004 300.29136963 -435.05354004 300.29136963 -434.72558594 298.35693359 C-424.61189623 239.91982835 -400.19309282 183.78889943 -363.375 137.1875 C-362.43720703 135.9809375 -362.43720703 135.9809375 -361.48046875 134.75 C-352.15763696 122.90183903 -342.2362025 111.70906521 -331.53833008 101.09008789 C-329.80245269 99.36501523 -328.0776491 97.62938009 -326.35351562 95.89257812 C-319.66794185 89.198867 -312.80514622 83.05509312 -305.375 77.1875 C-304.23549097 76.23534508 -303.09944645 75.27900967 -301.96875 74.31640625 C-259.36211382 38.67629041 -206.75876384 14.54360163 -152.875 2.125 C-152.13763611 1.95418915 -151.40027222 1.7833783 -150.64056396 1.60739136 C-134.35779385 -2.12316186 -117.99925704 -4.27527455 -101.375 -5.8125 C-99.74389282 -5.96501221 -99.74389282 -5.96501221 -98.07983398 -6.12060547 C-65.22449797 -8.93226644 -32.28930752 -6.24428042 0 0 Z M-258.375 56.1875 C-259.09655273 56.64833984 -259.81810547 57.10917969 -260.56152344 57.58398438 C-278.98074456 69.43112617 -296.39977534 82.57675894 -312.453125 97.484375 C-315.17193008 99.99963317 -317.92206969 102.47375299 -320.6875 104.9375 C-327.40272244 110.97690932 -333.49543604 117.33914425 -339.375 124.1875 C-340.27023112 125.20756008 -341.16611434 126.22704808 -342.0625 127.24609375 C-401.84129902 195.57888108 -430.93806035 283.01379782 -429.23046875 383.74273682 C-427.91353211 402.91267633 -425.22382647 421.93171437 -420.94238281 440.66552734 C-420.44128014 442.89288992 -419.98670028 445.12173644 -419.5546875 447.36328125 C-408.68920921 499.84459628 -380.72305731 550.5998485 -346.375 591.1875 C-345.59253906 592.15429688 -344.81007813 593.12109375 -344.00390625 594.1171875 C-337.24515539 602.36481161 -329.82849528 609.94907547 -322.3125 617.5 C-321.80588837 618.01178802 -321.29927673 618.52357605 -320.77731323 619.0508728 C-313.98129222 625.90155976 -306.95128701 632.19101666 -299.375 638.1875 C-298.15525728 639.18861682 -296.93749253 640.1921537 -295.72265625 641.19921875 C-224.96905249 699.13675514 -131.4439631 727.81756934 -40.37944031 719.23622131 C14.92342165 713.66373642 69.61442216 697.47854197 116.625 667.1875 C117.36492188 666.7121582 118.10484375 666.23681641 118.8671875 665.74707031 C128.39572082 659.58597132 137.67664158 653.16933127 146.625 646.1875 C147.84316406 645.24197266 147.84316406 645.24197266 149.0859375 644.27734375 C151.62433055 642.27702431 154.12652676 640.23743427 156.625 638.1875 C157.55570313 637.44371094 158.48640625 636.69992187 159.4453125 635.93359375 C168.1128577 628.85927679 176.01764762 621.0112183 183.9375 613.125 C184.77680054 612.29346405 184.77680054 612.29346405 185.63305664 611.44512939 C192.77091831 604.35931355 199.37928591 597.08783531 205.625 589.1875 C206.60118836 588.01335512 207.58107237 586.84226189 208.56640625 585.67578125 C233.51101521 555.66933765 251.95019937 520.56570703 265.625 484.1875 C266.13571045 482.82915039 266.13571045 482.82915039 266.65673828 481.44335938 C273.84911261 462.09511383 278.43092912 442.5205999 282.07958984 422.21923828 C282.42045645 420.32448379 282.77302415 418.4317537 283.14306641 416.54248047 C286.51154223 398.38813415 287.03450634 379.79160808 287 361.375 C287.00018127 359.8641835 287.00018127 359.8641835 287.00036621 358.32284546 C286.96884999 339.70134001 285.58532462 321.56530099 282.625 303.1875 C282.40070313 301.76026611 282.40070313 301.76026611 282.171875 300.30419922 C281.23178912 294.53420452 280.01063331 288.8657396 278.625 283.1875 C278.36235352 282.09614746 278.09970703 281.00479492 277.82910156 279.88037109 C266.40797033 233.11683322 246.53768865 188.80084524 217.625 150.1875 C217.22748535 149.65253906 216.8299707 149.11757812 216.42041016 148.56640625 C201.26086765 128.21540673 183.96298438 108.64321981 164.625 92.1875 C163.72652344 91.39988281 162.82804688 90.61226563 161.90234375 89.80078125 C106.1674047 41.28605021 36.53152067 13.75247928 -36.375 5.1875 C-37.11535995 5.09973801 -37.85571991 5.01197601 -38.61851501 4.92155457 C-44.87001024 4.23148921 -51.04550277 4.02686188 -57.33203125 4.01953125 C-58.35568283 4.01620285 -59.37933441 4.01287445 -60.43400574 4.00944519 C-62.5929622 4.00441012 -64.75192635 4.0020358 -66.91088867 4.00219727 C-70.14060059 4.00003145 -73.36995861 3.98189583 -76.59960938 3.96289062 C-139.88876824 3.7910484 -204.95345533 21.94089677 -258.375 56.1875 Z " fill="#F9B237" transform="translate(533.375,99.8125)"/>
<path d="M0 0 C1.28505936 -0.00960754 2.57011871 -0.01921509 3.89411926 -0.02911377 C5.30400414 -0.03396202 6.71389107 -0.03824079 8.1237793 -0.04199219 C9.56625877 -0.04774422 11.00873822 -0.05350195 12.45121765 -0.05926514 C15.47838701 -0.06977667 18.5055298 -0.07561805 21.53271484 -0.07910156 C25.40650507 -0.08458076 29.27994281 -0.10859544 33.15362263 -0.13707352 C36.13481155 -0.15572534 39.1159161 -0.16090688 42.09715843 -0.16243744 C43.52487295 -0.16545976 44.95258613 -0.17347413 46.3802433 -0.18662262 C48.38102865 -0.20373114 50.38195938 -0.19995111 52.3828125 -0.1953125 C53.52039505 -0.19895813 54.6579776 -0.20260376 55.83003235 -0.20635986 C60.22108144 0.32176859 62.80162555 2.07726032 65.88549805 5.16113281 C66.09977923 7.87468131 66.18960691 10.48743741 66.19189453 13.20336914 C66.20021805 14.0344368 66.20854156 14.86550446 66.21711731 15.72175598 C66.24128251 18.4789392 66.24999795 21.23588606 66.2565918 23.99316406 C66.26555422 25.90646945 66.27467599 27.8197741 66.28395081 29.733078 C66.30046181 33.74890854 66.30814457 37.76465551 66.31103516 41.78051758 C66.31641662 46.92570681 66.35407778 52.07011005 66.39977932 57.2150774 C66.42953007 61.16907106 66.43675831 65.12287518 66.43776131 69.07697105 C66.44196871 70.97360516 66.4544238 72.87023957 66.47527885 74.76676369 C66.50214837 77.42199945 66.49738128 80.0754104 66.48486328 82.73071289 C66.49969757 83.51375793 66.51453186 84.29680298 66.52981567 85.10357666 C66.4754071 89.15818028 66.066888 90.93824309 63.47303772 94.12553406 C59.61318777 97.16205011 57.66047295 97.29864466 52.78686523 97.35400391 C50.86411774 97.3780983 50.86411774 97.3780983 48.90252686 97.40267944 C47.49581566 97.41416754 46.08909705 97.42477597 44.68237305 97.43457031 C43.62068279 97.44255583 43.62068279 97.44255583 42.53754425 97.45070267 C38.78944481 97.47743284 35.04137863 97.49680601 31.29321289 97.51123047 C28.19493004 97.52455886 25.09730753 97.5523894 21.99926758 97.59326172 C18.25565463 97.64265027 14.51263972 97.66735913 10.7687149 97.67445755 C9.34457117 97.68115978 7.92044024 97.6963554 6.49648285 97.72034836 C-6.04107832 97.91950564 -6.04107832 97.91950564 -9.97290039 94.81591797 C-13.4442331 90.5127634 -13.27719294 86.67743862 -13.30737305 81.38842773 C-13.31555054 80.59783463 -13.32372803 79.80724152 -13.33215332 78.99269104 C-13.35697108 76.37566888 -13.37351345 73.7587008 -13.38793945 71.14160156 C-13.39326313 70.24717157 -13.39858681 69.35274158 -13.40407181 68.43120766 C-13.43078683 63.69755536 -13.45016756 58.9639293 -13.46459961 54.23022461 C-13.47794372 50.31429714 -13.50580707 46.39889017 -13.54663086 42.4831543 C-13.59594547 37.75286251 -13.62071902 33.02304315 -13.62782669 28.29250526 C-13.63453868 26.49157873 -13.64975947 24.69066272 -13.6737175 22.88988304 C-13.70537309 20.36670462 -13.70540593 17.84534672 -13.69799805 15.32202148 C-13.71440338 14.58154572 -13.73080872 13.84106995 -13.74771118 13.07815552 C-13.67900533 7.34716447 -12.03988846 5.03179502 -8.11450195 1.16113281 C-5.34921388 -0.22151123 -3.09460462 0.0186135 0 0 Z " fill="#1B5C7B" transform="translate(387.114501953125,349.8388671875)"/>
<path d="M0 0 C0.87315353 -0.00807175 1.74630707 -0.01614349 2.6459198 -0.02445984 C4.49610405 -0.03830239 6.34631387 -0.04902378 8.1965332 -0.05688477 C11.02149072 -0.07408795 13.84527496 -0.11797041 16.66992188 -0.16210938 C18.46743931 -0.17223722 20.2649667 -0.18075304 22.0625 -0.1875 C22.90537064 -0.20500809 23.74824127 -0.22251617 24.61665344 -0.24055481 C28.68775361 -0.2255544 30.71808951 -0.08536824 34.2409668 2.13989258 C37.4671357 5.54263177 37.37018302 7.63883054 37.42333984 12.24511719 C37.43940277 13.5069281 37.4554657 14.76873901 37.47201538 16.06878662 C37.48350357 17.45340298 37.49411199 18.83802687 37.50390625 20.22265625 C37.50922993 20.91941719 37.5145536 21.61617813 37.5200386 22.33405304 C37.54676826 26.0237976 37.56614152 29.7135084 37.58056641 33.40332031 C37.59389418 36.45310539 37.62172351 39.50221952 37.66259766 42.55175781 C37.7119916 46.23701758 37.7366957 49.92166976 37.74379349 53.6072464 C37.7504949 55.0090625 37.76568841 56.41086564 37.7896843 57.81249237 C37.98883747 70.15177287 37.98883747 70.15177287 34.88525391 74.08300781 C30.49332379 77.6485733 26.43543403 77.42515036 21.01953125 77.4765625 C20.2143808 77.48463425 19.40923035 77.49270599 18.5796814 77.50102234 C16.87671043 77.51484425 15.17371198 77.52557487 13.47070312 77.53344727 C10.87186081 77.5506726 8.27428705 77.59457512 5.67578125 77.63867188 C4.01954058 77.64879839 2.36328913 77.65731462 0.70703125 77.6640625 C-0.06708099 77.68157059 -0.84119324 77.69907867 -1.63876343 77.71711731 C-5.29866582 77.70246398 -7.52630283 77.3870435 -10.67431641 75.46166992 C-14.39962068 71.50847183 -15.02175882 68.58582842 -15.06005859 63.18798828 C-15.0728183 61.96636993 -15.085578 60.74475159 -15.09872437 59.4861145 C-15.10206284 57.51105423 -15.10206284 57.51105423 -15.10546875 55.49609375 C-15.11189946 54.12612774 -15.11862802 52.7561631 -15.12564087 51.38619995 C-15.13760456 48.51638608 -15.14132266 45.64669251 -15.14013672 42.77685547 C-15.13993362 39.10932032 -15.16722895 35.44256088 -15.20168114 31.77520943 C-15.22397964 28.94579566 -15.22797337 26.11656767 -15.22691727 23.28707504 C-15.23040841 21.28077199 -15.25205354 19.27452693 -15.27401733 17.26834106 C-15.21694096 5.87838096 -15.21694096 5.87838096 -10.76953125 1.23828125 C-7.42936142 -0.43180366 -3.67469975 0.03197476 0 0 Z " fill="#1F5D7A" transform="translate(508.76953125,370.76171875)"/>
<path d="M0 0 C14.52 0 29.04 0 44 0 C44 18.15 44 36.3 44 55 C29.48 55 14.96 55 0 55 C0 36.85 0 18.7 0 0 Z " fill="#10577E" transform="translate(392,367)"/>
<path d="M0 0 C6.93 0 13.86 0 21 0 C21 304.26 21 608.52 21 922 C-283.26 922 -587.52 922 -901 922 C-901 915.07 -901 908.14 -901 901 C-900.34 902.32 -899.68 903.64 -899 905 C-895.3538894 911.98131255 -890.6638213 917.4453929 -883 920 C-880.98907412 920.09431809 -878.97510005 920.1274513 -876.96196395 920.12880117 C-875.0520645 920.13370946 -875.0520645 920.13370946 -873.10358122 920.13871691 C-871.67966406 920.13730669 -870.255747 920.13580467 -868.83183002 920.13422108 C-867.32145015 920.13617307 -865.81107079 920.13856156 -864.30069223 920.14134905 C-860.12099443 920.14777124 -855.94131579 920.14790891 -851.761614 920.14707164 C-847.22541891 920.1472407 -842.68923079 920.15314191 -838.15303916 920.1583125 C-829.14292085 920.16765516 -820.13280745 920.17156334 -811.1226849 920.17383147 C-800.33584744 920.17678919 -789.54901654 920.18548401 -778.76218251 920.19424575 C-752.68759748 920.2151081 -726.6130113 920.22556248 -700.53841986 920.23437535 C-688.20927762 920.23857902 -675.88013587 920.24380136 -663.55099405 920.24905988 C-621.3670269 920.26695098 -579.18305962 920.2819484 -536.99908924 920.28938007 C-534.34987904 920.28985483 -531.70066884 920.29033072 -529.05145864 920.29080774 C-527.08075755 920.2911623 -527.08075755 920.2911623 -525.07024432 920.29152403 C-519.080554 920.2926049 -513.09086369 920.29369417 -507.10117337 920.29479821 C-505.76713302 920.29504344 -504.43309267 920.2952873 -503.09905231 920.29552978 C-459.58361639 920.3034415 -416.06820889 920.32672127 -372.5527852 920.35972196 C-327.27680989 920.39399527 -282.00085077 920.41372887 -236.72486228 920.41702431 C-231.75766765 920.41744187 -226.79047304 920.41792144 -221.82327843 920.41844749 C-219.98861449 920.41863228 -219.98861449 920.41863228 -218.11688664 920.4188208 C-198.40708443 920.42115588 -178.69731426 920.4368329 -158.98752348 920.45728934 C-139.18807432 920.47751334 -119.38866377 920.48304089 -99.5892062 920.47351871 C-87.81758557 920.46829048 -76.0460932 920.47424345 -64.27449095 920.49605338 C-56.41775794 920.50951346 -48.56111369 920.50852707 -40.7043799 920.49565142 C-36.22351381 920.48872278 -31.74289377 920.48819386 -27.26204918 920.50521151 C-23.18680147 920.52056312 -19.11199866 920.51755026 -15.03676446 920.49980123 C-13.57056916 920.49664765 -12.10434026 920.50021911 -10.63818339 920.51129298 C-1.48583076 920.57592535 5.12591251 920.27119513 12.2421875 914.03515625 C13.05042969 913.05869141 13.05042969 913.05869141 13.875 912.0625 C14.42929687 911.41410156 14.98359375 910.76570312 15.5546875 910.09765625 C18.56472217 905.72903837 19.2502174 901.97159697 19.25299966 896.71356696 C19.25851915 895.43580607 19.26403864 894.15804518 19.26972538 892.84156427 C19.26574966 891.4229538 19.26159072 890.00434383 19.25726891 888.58573437 C19.25996157 887.07302235 19.26352899 885.56031169 19.26789337 884.04760358 C19.27737826 879.87073541 19.27434206 875.69395414 19.26933783 871.51708161 C19.26607956 866.98049671 19.27434675 862.44393072 19.28115618 857.90735179 C19.29147973 849.94969477 19.2942959 841.99206209 19.29224396 834.03439903 C19.28920008 822.20115112 19.2975043 810.36793024 19.30799321 798.53468758 C19.32735979 776.17325707 19.33296241 753.81183572 19.33410732 731.45039781 C19.33502552 714.18561225 19.33913753 696.9208303 19.34550858 679.65604591 C19.34730359 674.69094891 19.34908322 669.7258519 19.35085833 664.76075488 C19.35130043 663.52650706 19.35174252 662.29225924 19.35219802 661.02060997 C19.3645106 626.29201581 19.37239872 591.5634229 19.37151146 556.83482647 C19.3714803 555.52482697 19.37144914 554.21482746 19.37141704 552.86513101 C19.37125082 546.22512273 19.37105274 539.58511445 19.37084763 532.94510617 C19.37080774 531.62631584 19.37076785 530.30752552 19.37072675 528.94877185 C19.3706661 526.94885817 19.37060545 524.94894449 19.37054053 522.94903081 C19.36917993 480.77988967 19.38381597 438.61078212 19.41162109 396.44165039 C19.44232199 349.84227056 19.4595548 303.24291219 19.45769465 256.64352161 C19.45754538 251.67748153 19.45744797 246.71144146 19.45738602 241.74540138 C19.45736271 240.52258509 19.4573394 239.2997688 19.45731538 238.03989747 C19.45725376 218.33578644 19.47004191 198.63170369 19.48725055 178.92760107 C19.50417923 159.13511455 19.50620258 139.34266955 19.4930319 119.5501798 C19.48562434 107.782995 19.48935449 96.01593608 19.50891658 84.24876454 C19.52087269 76.3950549 19.51837441 68.54143691 19.50397559 60.68773156 C19.49617552 56.20863116 19.49476674 51.72977524 19.51089029 47.25069162 C19.52542636 43.17706547 19.52160148 39.10388784 19.50304256 35.03028181 C19.49959567 33.5646808 19.50287072 32.09904486 19.51364497 30.6334794 C19.57533673 21.64061447 19.25277921 15.15396338 13.359375 8.01171875 C9.1293705 4.53120534 5.23151835 2.65205843 0 1 C0 0.67 0 0.34 0 0 Z " fill="#A9C4D3" transform="translate(901,0)"/>
<path d="M0 0 C1.28505936 -0.00960754 2.57011871 -0.01921509 3.89411926 -0.02911377 C5.30400414 -0.03396202 6.71389107 -0.03824079 8.1237793 -0.04199219 C9.56625877 -0.04774422 11.00873822 -0.05350195 12.45121765 -0.05926514 C15.47838701 -0.06977667 18.5055298 -0.07561805 21.53271484 -0.07910156 C25.40650507 -0.08458076 29.27994281 -0.10859544 33.15362263 -0.13707352 C36.13481155 -0.15572534 39.1159161 -0.16090688 42.09715843 -0.16243744 C43.52487295 -0.16545976 44.95258613 -0.17347413 46.3802433 -0.18662262 C48.38102865 -0.20373114 50.38195938 -0.19995111 52.3828125 -0.1953125 C53.52039505 -0.19895813 54.6579776 -0.20260376 55.83003235 -0.20635986 C60.22108144 0.32176859 62.80162555 2.07726032 65.88549805 5.16113281 C66.09977923 7.87468131 66.18960691 10.48743741 66.19189453 13.20336914 C66.20021805 14.0344368 66.20854156 14.86550446 66.21711731 15.72175598 C66.24128251 18.4789392 66.24999795 21.23588606 66.2565918 23.99316406 C66.26555422 25.90646945 66.27467599 27.8197741 66.28395081 29.733078 C66.30046181 33.74890854 66.30814457 37.76465551 66.31103516 41.78051758 C66.31641662 46.92570681 66.35407778 52.07011005 66.39977932 57.2150774 C66.42953007 61.16907106 66.43675831 65.12287518 66.43776131 69.07697105 C66.44196871 70.97360516 66.4544238 72.87023957 66.47527885 74.76676369 C66.50214837 77.42199945 66.49738128 80.0754104 66.48486328 82.73071289 C66.49969757 83.51375793 66.51453186 84.29680298 66.52981567 85.10357666 C66.4754071 89.15818028 66.066888 90.93824309 63.47303772 94.12553406 C59.61318777 97.16205011 57.66047295 97.29864466 52.78686523 97.35400391 C50.86411774 97.3780983 50.86411774 97.3780983 48.90252686 97.40267944 C47.49581566 97.41416754 46.08909705 97.42477597 44.68237305 97.43457031 C43.62068279 97.44255583 43.62068279 97.44255583 42.53754425 97.45070267 C38.78944481 97.47743284 35.04137863 97.49680601 31.29321289 97.51123047 C28.19493004 97.52455886 25.09730753 97.5523894 21.99926758 97.59326172 C18.25565463 97.64265027 14.51263972 97.66735913 10.7687149 97.67445755 C9.34457117 97.68115978 7.92044024 97.6963554 6.49648285 97.72034836 C-6.04107832 97.91950564 -6.04107832 97.91950564 -9.97290039 94.81591797 C-13.4442331 90.5127634 -13.27719294 86.67743862 -13.30737305 81.38842773 C-13.31555054 80.59783463 -13.32372803 79.80724152 -13.33215332 78.99269104 C-13.35697108 76.37566888 -13.37351345 73.7587008 -13.38793945 71.14160156 C-13.39326313 70.24717157 -13.39858681 69.35274158 -13.40407181 68.43120766 C-13.43078683 63.69755536 -13.45016756 58.9639293 -13.46459961 54.23022461 C-13.47794372 50.31429714 -13.50580707 46.39889017 -13.54663086 42.4831543 C-13.59594547 37.75286251 -13.62071902 33.02304315 -13.62782669 28.29250526 C-13.63453868 26.49157873 -13.64975947 24.69066272 -13.6737175 22.88988304 C-13.70537309 20.36670462 -13.70540593 17.84534672 -13.69799805 15.32202148 C-13.71440338 14.58154572 -13.73080872 13.84106995 -13.74771118 13.07815552 C-13.67900533 7.34716447 -12.03988846 5.03179502 -8.11450195 1.16113281 C-5.34921388 -0.22151123 -3.09460462 0.0186135 0 0 Z M-7.11450195 8.16113281 C-7.21484251 10.64539948 -7.25068137 13.10188233 -7.24389648 15.58666992 C-7.2456488 16.36388901 -7.24740112 17.14110809 -7.24920654 17.94187927 C-7.25362598 20.52410075 -7.25068647 23.10625433 -7.24731445 25.68847656 C-7.24798753 27.47587599 -7.2489576 29.26327533 -7.25021362 31.05067444 C-7.25169078 34.80259062 -7.24953574 38.55448305 -7.24487305 42.30639648 C-7.23917986 47.12313958 -7.24245205 51.93982691 -7.24844551 56.75656796 C-7.25205416 60.44963503 -7.25091106 64.14268883 -7.24831772 67.8357563 C-7.24764908 69.61202565 -7.24847468 71.38829618 -7.25079727 73.16456413 C-7.25332831 75.64514242 -7.2494766 78.12562969 -7.24389648 80.60620117 C-7.24592072 81.34549866 -7.24794495 82.08479614 -7.25003052 82.84649658 C-7.296027 86.62958906 -7.296027 86.62958906 -6.11450195 90.16113281 C2.34317139 90.18425941 10.80083161 90.20204951 19.25852871 90.21294498 C23.18538463 90.21817312 27.11221899 90.22526951 31.0390625 90.23657227 C34.82564062 90.24740362 38.61219795 90.25341017 42.39879036 90.25601006 C43.84654124 90.25786386 45.29429093 90.26148362 46.742033 90.26686287 C48.76306939 90.27407649 50.78412652 90.27454089 52.80517578 90.2746582 C53.95767319 90.27687881 55.11017059 90.27909943 56.29759216 90.28138733 C58.81562952 90.45550876 58.81562952 90.45550876 59.88549805 89.16113281 C59.98585621 86.6411083 60.02167517 84.14847081 60.01489258 81.62792969 C60.0166449 80.83935074 60.01839722 80.05077179 60.02020264 79.23829651 C60.02462163 76.61880321 60.021683 73.99937685 60.01831055 71.37988281 C60.01898357 69.56766751 60.01995359 67.7554523 60.02120972 65.9432373 C60.02268675 62.14004662 60.02053195 58.33687937 60.01586914 54.53369141 C60.01017185 49.64734786 60.01345082 44.76105924 60.0194416 39.87471771 C60.02304706 36.13107893 60.0219087 32.38745326 60.01931381 28.64381409 C60.0186445 26.84159845 60.01947311 25.03938163 60.02179337 23.23716736 C60.02431964 20.7228579 60.02047967 18.20863864 60.01489258 15.69433594 C60.01792892 14.56597069 60.01792892 14.56597069 60.02102661 13.41481018 C60.31289516 10.00004683 60.31289516 10.00004683 58.88549805 7.16113281 C56.86599596 7.06178133 54.8429889 7.03313773 52.82104492 7.03173828 C51.52299927 7.02858612 50.22495361 7.02543396 48.88757324 7.02218628 C47.45979783 7.02397606 46.03202273 7.02602701 44.60424805 7.02832031 C43.15075667 7.02764723 41.6972654 7.02667718 40.24377441 7.02542114 C37.19383678 7.02394435 34.14392838 7.02609811 31.09399414 7.03076172 C27.17619245 7.03645901 23.25845927 7.0331799 19.3406601 7.02718925 C16.33819051 7.02358313 13.33573728 7.02472246 10.33326721 7.02731705 C8.88831067 7.02798617 7.44335266 7.02715839 5.99839783 7.02483749 C3.98224921 7.02231016 1.96609542 7.0268423 -0.05004883 7.03173828 C-1.19953003 7.03253387 -2.34901123 7.03332947 -3.5333252 7.03414917 C-6.04535701 6.86815193 -6.04535701 6.86815193 -7.11450195 8.16113281 Z " fill="#EFAE3B" transform="translate(387.114501953125,349.8388671875)"/>
<path d="M0 0 C4.91143512 2.81109782 8.32996216 6.29905976 10.10546875 11.8203125 C11.74163524 20.6005327 10.42488334 27.10019295 5.875 34.625 C0.50721427 39.85152821 -5.16876068 41.21471102 -12.5625 41.5 C-20.36016538 41.26447181 -24.48413205 39.03487789 -29.8125 33.5625 C-33.46530899 27.88035269 -35.4488673 22.73554932 -34.5 15.9375 C-32.9736743 9.65471748 -30.07621776 4.67275444 -24.85546875 0.6796875 C-17.31029066 -3.86330394 -7.8799305 -3.55184927 0 0 Z " fill="#F9B137" transform="translate(277.5,580.0625)"/>
<path d="M0 0 C0.99384705 -0.0071553 1.98769409 -0.01431061 3.01165771 -0.02168274 C4.10104141 -0.02437164 5.19042511 -0.02706055 6.31282043 -0.02983093 C7.46108307 -0.03640213 8.6093457 -0.04297333 9.79240417 -0.04974365 C13.60104942 -0.06949064 17.4096552 -0.08114277 21.21833801 -0.09111023 C22.51847651 -0.09518576 23.818615 -0.09926128 25.15815163 -0.10346031 C31.33045683 -0.12217533 37.50274224 -0.13673914 43.67506999 -0.14507228 C50.78841427 -0.15483549 57.90144661 -0.18113197 65.01468104 -0.22157317 C70.51970685 -0.25179145 76.02464355 -0.26654665 81.52975065 -0.26985329 C84.81429702 -0.27219786 88.09843497 -0.28306956 91.38290977 -0.30631447 C95.05250709 -0.33066944 98.72129198 -0.32974682 102.39094543 -0.32279968 C103.47020798 -0.33560974 104.54947052 -0.3484198 105.66143799 -0.36161804 C112.00780744 -0.31789742 116.90368925 0.43926621 122.17536926 4.14717102 C126.41386353 8.60874393 128.43175223 12.30674788 128.40242004 18.46650696 C128.40219345 20.05770355 128.40219345 20.05770355 128.40196228 21.68104553 C128.39163971 22.81971069 128.38131714 23.95837585 128.37068176 25.13154602 C128.36785187 26.30227661 128.36502197 27.4730072 128.36210632 28.67921448 C128.35091082 32.41863727 128.32580702 36.15782061 128.30036926 39.89717102 C128.29033866 42.43232381 128.28121295 44.96748036 128.27302551 47.50263977 C128.25097352 53.71756523 128.21750202 59.93235102 128.17536926 66.14717102 C126.19536926 66.14717102 124.21536926 66.14717102 122.17536926 66.14717102 C122.16990082 65.2087587 122.16990082 65.2087587 122.1643219 64.25138855 C122.12245452 57.72962022 122.05307881 51.20855286 121.96784973 44.68721008 C121.93965476 42.25466427 121.91843295 39.8220271 121.90437317 37.38935852 C121.88292418 33.8888832 121.83626083 30.38950471 121.78474426 26.88935852 C121.78290131 25.26246597 121.78290131 25.26246597 121.78102112 23.60270691 C121.66361681 17.52604437 121.37899081 13.69135087 117.17536926 9.14717102 C114.13588567 7.26854042 111.83386939 6.89369149 108.28622437 6.87974548 C107.30349548 6.87121552 106.3207666 6.86268555 105.30825806 6.85389709 C103.70055794 6.85525665 103.70055794 6.85525665 102.06037903 6.85664368 C100.92665863 6.84992645 99.79293823 6.84320923 98.62486267 6.83628845 C94.87212254 6.81726934 91.11956085 6.81338241 87.36677551 6.81123352 C84.76130092 6.80480892 82.15582706 6.79808082 79.550354 6.7910614 C74.08704972 6.77827602 68.62379391 6.77529603 63.16047668 6.77656555 C56.84945631 6.77776736 50.5387777 6.75665628 44.22784382 6.72507823 C38.151629 6.69576018 32.07557806 6.68858978 25.99929619 6.689785 C23.41607707 6.68742204 20.83285553 6.67855965 18.24968147 6.66312027 C14.63941561 6.64356078 11.03003362 6.64925945 7.41975403 6.66133118 C6.34997818 6.65009216 5.28020233 6.63885315 4.17800903 6.62727356 C-1.68805676 6.66292526 -1.68805676 6.66292526 -6.94699097 9.06407166 C-10.77381157 13.30963979 -11.09370652 16.39748509 -11.23869324 22.10029602 C-11.25805939 22.76051758 -11.27742554 23.42073914 -11.29737854 24.10096741 C-11.35692423 26.19957255 -11.40345796 28.2982333 -11.44963074 30.39717102 C-11.48783368 31.82427762 -11.52688676 33.25136174 -11.56681824 34.67842102 C-11.66260404 38.16779793 -11.74672716 41.65734388 -11.82463074 45.14717102 C-13.80463074 45.14717102 -15.78463074 45.14717102 -17.82463074 45.14717102 C-17.94915139 40.73645803 -18.039396 36.32670245 -18.09928894 31.91474915 C-18.12428081 30.41717179 -18.15828701 28.91971452 -18.201828 27.42256165 C-18.62711248 12.41252111 -18.62711248 12.41252111 -14.16374207 6.55513 C-9.76776467 1.93314247 -6.35726175 0.0314298 0 0 Z " fill="#FDB336" transform="translate(404.8246307373047,299.8528289794922)"/>
<path d="M0 0 C0.87315353 -0.00807175 1.74630707 -0.01614349 2.6459198 -0.02445984 C4.49610405 -0.03830239 6.34631387 -0.04902378 8.1965332 -0.05688477 C11.02149072 -0.07408795 13.84527496 -0.11797041 16.66992188 -0.16210938 C18.46743931 -0.17223722 20.2649667 -0.18075304 22.0625 -0.1875 C22.90537064 -0.20500809 23.74824127 -0.22251617 24.61665344 -0.24055481 C28.68775361 -0.2255544 30.71808951 -0.08536824 34.2409668 2.13989258 C37.4671357 5.54263177 37.37018302 7.63883054 37.42333984 12.24511719 C37.43940277 13.5069281 37.4554657 14.76873901 37.47201538 16.06878662 C37.48350357 17.45340298 37.49411199 18.83802687 37.50390625 20.22265625 C37.50922993 20.91941719 37.5145536 21.61617813 37.5200386 22.33405304 C37.54676826 26.0237976 37.56614152 29.7135084 37.58056641 33.40332031 C37.59389418 36.45310539 37.62172351 39.50221952 37.66259766 42.55175781 C37.7119916 46.23701758 37.7366957 49.92166976 37.74379349 53.6072464 C37.7504949 55.0090625 37.76568841 56.41086564 37.7896843 57.81249237 C37.98883747 70.15177287 37.98883747 70.15177287 34.88525391 74.08300781 C30.49332379 77.6485733 26.43543403 77.42515036 21.01953125 77.4765625 C20.2143808 77.48463425 19.40923035 77.49270599 18.5796814 77.50102234 C16.87671043 77.51484425 15.17371198 77.52557487 13.47070312 77.53344727 C10.87186081 77.5506726 8.27428705 77.59457512 5.67578125 77.63867188 C4.01954058 77.64879839 2.36328913 77.65731462 0.70703125 77.6640625 C-0.06708099 77.68157059 -0.84119324 77.69907867 -1.63876343 77.71711731 C-5.29866582 77.70246398 -7.52630283 77.3870435 -10.67431641 75.46166992 C-14.39962068 71.50847183 -15.02175882 68.58582842 -15.06005859 63.18798828 C-15.0728183 61.96636993 -15.085578 60.74475159 -15.09872437 59.4861145 C-15.10206284 57.51105423 -15.10206284 57.51105423 -15.10546875 55.49609375 C-15.11189946 54.12612774 -15.11862802 52.7561631 -15.12564087 51.38619995 C-15.13760456 48.51638608 -15.14132266 45.64669251 -15.14013672 42.77685547 C-15.13993362 39.10932032 -15.16722895 35.44256088 -15.20168114 31.77520943 C-15.22397964 28.94579566 -15.22797337 26.11656767 -15.22691727 23.28707504 C-15.23040841 21.28077199 -15.25205354 19.27452693 -15.27401733 17.26834106 C-15.21694096 5.87838096 -15.21694096 5.87838096 -10.76953125 1.23828125 C-7.42936142 -0.43180366 -3.67469975 0.03197476 0 0 Z M-7.76953125 7.23828125 C-7.87398682 9.16045203 -7.90808262 11.08647944 -7.91479492 13.01147461 C-7.92117477 14.24623032 -7.92755463 15.48098602 -7.93412781 16.75315857 C-7.93565637 18.11148032 -7.93677039 19.46980259 -7.9375 20.828125 C-7.94071095 22.2119602 -7.9440749 23.59579505 -7.94758606 24.97962952 C-7.95358349 27.88413276 -7.95542534 30.78860623 -7.95483398 33.69311523 C-7.95473234 37.42030271 -7.96838397 41.14729978 -7.98560619 44.8744421 C-7.99670905 47.73369733 -7.99875372 50.59290628 -7.99822426 53.45218086 C-7.99940699 54.82654031 -8.00384513 56.20090086 -8.01155663 57.57523918 C-8.02132123 59.49536577 -8.0172234 61.41554787 -8.01245117 63.33569336 C-8.01387619 64.42965927 -8.01530121 65.52362518 -8.01676941 66.65074158 C-8.03102633 69.40121516 -8.03102633 69.40121516 -5.76953125 71.23828125 C-3.22379565 71.45012773 -0.78952487 71.54226933 1.7578125 71.5390625 C2.87489342 71.54549019 2.87489342 71.54549019 4.01454163 71.55204773 C5.59065738 71.55779407 7.16679965 71.55828905 8.74291992 71.55395508 C11.15524567 71.5507979 13.56634187 71.57423881 15.97851562 71.59960938 C17.50911303 71.60188262 19.03971375 71.60258574 20.5703125 71.6015625 C21.29226303 71.61077225 22.01421356 71.61998199 22.75804138 71.62947083 C26.55518682 71.63108562 26.55518682 71.63108562 29.92156982 70.07855225 C31.7712228 67.47799796 31.60468067 65.59661633 31.6027832 62.42163086 C31.60901199 61.22706772 31.61524078 60.03250458 31.62165833 58.80174255 C31.61244858 57.51107376 31.60323883 56.22040497 31.59375 54.890625 C31.59323135 53.55448914 31.59374925 52.21835251 31.59526062 50.88221741 C31.59517094 48.08371572 31.58474999 45.28550241 31.56665039 42.48706055 C31.54394109 38.89664862 31.54342343 35.30665721 31.55016804 31.7161932 C31.55350599 28.95813751 31.54688164 26.20017804 31.5370388 23.44214058 C31.53130899 21.47339294 31.53262378 19.5046289 31.53401184 17.53587341 C31.51971382 15.74875694 31.51971382 15.74875694 31.50512695 13.92553711 C31.50051956 12.87313339 31.49591217 11.82072968 31.49116516 10.73643494 C31.4775497 8.06543175 31.4775497 8.06543175 29.23046875 6.23828125 C26.51736226 6.05082615 23.9081779 5.98262719 21.1953125 6.0078125 C20.40145645 6.00827072 19.6076004 6.00872894 18.78968811 6.00920105 C17.11099758 6.0122236 15.43230985 6.02011 13.75366211 6.0324707 C11.17486717 6.0507324 8.59643098 6.05298038 6.01757812 6.05273438 C4.38931979 6.05764929 2.76106391 6.06347749 1.1328125 6.0703125 C0.35679184 6.07142532 -0.41922882 6.07253815 -1.21876526 6.07368469 C-4.79023668 5.77532216 -4.79023668 5.77532216 -7.76953125 7.23828125 Z " fill="#F1AE3A" transform="translate(508.76953125,370.76171875)"/>
<path d="M0 0 C28.05 0 56.1 0 85 0 C85 4.62 85 9.24 85 14 C56.95 14 28.9 14 0 14 C0 9.38 0 4.76 0 0 Z " fill="#F9B237" transform="translate(420,494)"/>
<path d="M0 0 C28.05 0 56.1 0 85 0 C85 4.62 85 9.24 85 14 C56.95 14 28.9 14 0 14 C0 9.38 0 4.76 0 0 Z " fill="#F8B138" transform="translate(420,239)"/>
<path d="M0 0 C14.97686593 -0.02254768 29.95372321 -0.04097956 44.93060207 -0.05181217 C51.88416081 -0.05697496 58.83770827 -0.06401734 65.79125977 -0.07543945 C72.49557209 -0.08644694 79.19987025 -0.09227621 85.90419197 -0.09487724 C88.46837613 -0.09673202 91.03255962 -0.10035364 93.59673882 -0.10573006 C97.17445158 -0.11293659 100.75211519 -0.11399111 104.32983398 -0.11352539 C105.40157364 -0.11712067 106.47331329 -0.12071594 107.57752991 -0.12442017 C108.54653229 -0.1230455 109.51553467 -0.12167084 110.51390076 -0.12025452 C111.36102851 -0.12117631 112.20815626 -0.1220981 113.08095455 -0.12304783 C115 0 115 0 116 1 C116.09326716 2.56547048 116.11745582 4.13512772 116.11352539 5.70336914 C116.11341209 7.20481224 116.11341209 7.20481224 116.11329651 8.73658752 C116.10813522 9.8251152 116.10297394 10.91364288 116.09765625 12.03515625 C116.0962413 13.14354355 116.09482635 14.25193085 116.09336853 15.39390564 C116.08775033 18.95013069 116.07519475 22.50629383 116.0625 26.0625 C116.05748734 28.46679597 116.05292403 30.87109292 116.04882812 33.27539062 C116.03777499 39.18361504 116.02101917 45.0918031 116 51 C114.02 51 112.04 51 110 51 C110 36.15 110 21.3 110 6 C75.68 6 41.36 6 6 6 C6 13.92 6 21.84 6 30 C4.02 30 2.04 30 0 30 C0 20.1 0 10.2 0 0 Z " fill="#FBB237" transform="translate(402,315)"/>
<path d="M0 0 C1.40897804 0.00333092 1.40897804 0.00333092 2.84642029 0.00672913 C4.4603064 0.0069104 4.4603064 0.0069104 6.10679626 0.00709534 C7.81567017 0.01476929 7.81567017 0.01476929 9.55906677 0.02259827 C11.1203833 0.02410889 11.1203833 0.02410889 12.71324158 0.02565002 C16.61889236 0.03090051 20.52452749 0.04486163 24.43016052 0.05775452 C37.51672302 0.08869202 37.51672302 0.08869202 50.86766052 0.12025452 C50.86766052 21.57025452 50.86766052 43.02025452 50.86766052 65.12025452 C42.14328552 65.14087952 33.41891052 65.16150452 24.43016052 65.18275452 C21.67229187 65.19185852 18.91442322 65.20096252 16.07298279 65.21034241 C13.90167795 65.21326136 11.73037256 65.21580996 9.55906677 65.21791077 C8.4198175 65.22302673 7.28056824 65.2281427 6.10679626 65.2334137 C5.03087219 65.23353455 3.95494812 65.2336554 2.84642029 65.23377991 C1.90710159 65.23600052 0.9677829 65.23822113 0 65.24050903 C-2.13233948 65.12025452 -2.13233948 65.12025452 -3.13233948 64.12025452 C-3.23159721 62.16200754 -3.26033362 60.20015555 -3.26173401 58.23939514 C-3.26488617 56.98139099 -3.26803833 55.72338684 -3.27128601 54.42726135 C-3.26949623 53.04367539 -3.26744528 51.66008974 -3.26515198 50.27650452 C-3.26582506 48.86785363 -3.26679513 47.45920286 -3.26805115 46.05055237 C-3.2695279 43.09477129 -3.26737431 40.13902038 -3.26271057 37.1832428 C-3.25701328 33.38650868 -3.26029241 29.58984523 -3.26628304 25.79311371 C-3.26988927 22.88329024 -3.26874978 19.97348364 -3.26615524 17.06365967 C-3.26548615 15.66336051 -3.2663138 14.26305984 -3.2686348 12.86276245 C-3.2711623 10.90887988 -3.26662981 8.95499197 -3.26173401 7.00111389 C-3.26093842 5.88716248 -3.26014282 4.77321106 -3.25932312 3.62550354 C-3.08437386 0.17394505 -3.08437386 0.17394505 0 0 Z M1.86766052 5.12025452 C1.86766052 23.27025452 1.86766052 41.42025452 1.86766052 60.12025452 C16.38766052 60.12025452 30.90766052 60.12025452 45.86766052 60.12025452 C45.86766052 41.97025452 45.86766052 23.82025452 45.86766052 5.12025452 C31.34766052 5.12025452 16.82766052 5.12025452 1.86766052 5.12025452 Z " fill="#FDB336" transform="translate(390.13233947753906,361.87974548339844)"/>
<path d="M0 0 C0.66 1.32 1.32 2.64 2 4 C5.6461106 10.98131255 10.3361787 16.4453929 18 19 C20.00542821 19.09484716 22.0139244 19.12861568 24.02159327 19.13061053 C25.29117571 19.13429124 26.56075814 19.13797195 27.86881277 19.14176419 C29.28855757 19.14081845 30.70830231 19.13978208 32.12804699 19.1386652 C33.63402627 19.14111123 35.1400049 19.14399468 36.64598259 19.14727798 C40.81340526 19.15508089 44.98081099 19.15662133 49.14824007 19.1572054 C53.67101329 19.15892862 58.19377743 19.16641067 62.7165454 19.17318195 C70.6528141 19.1842613 78.5890796 19.19161943 86.52535439 19.19658089 C98.32640795 19.20397513 110.12745034 19.21705551 121.92849735 19.23132664 C141.77726121 19.25516764 161.62602705 19.27435898 181.4747982 19.29092598 C201.13552815 19.30735113 220.79625439 19.32582718 240.45697975 19.34705925 C242.28872769 19.34903566 242.28872769 19.34903566 244.15748064 19.351052 C250.35883337 19.35775382 256.56018605 19.36449245 262.76153872 19.37124526 C306.71773121 19.41904396 350.67392715 19.46221872 394.63012695 19.50268555 C405.28812666 19.51250012 415.94612635 19.52232935 426.60412598 19.53222656 C427.59562171 19.53314726 427.59562171 19.53314726 428.60714766 19.53408656 C459.99176265 19.56325283 491.37637465 19.59516815 522.76098633 19.62768555 C524.73478935 19.62972934 524.73478935 19.62972934 526.74846718 19.63181442 C539.96262369 19.64549947 553.17678016 19.65922704 566.3909366 19.67298577 C593.31114599 19.70101442 620.23135568 19.7287592 647.15156555 19.7563324 C649.00830136 19.7582347 649.00830136 19.7582347 650.90254698 19.76017542 C733.60169334 19.84487139 816.30084621 19.92294928 899 20 C899 20.33 899 20.66 899 21 C602.33 21 305.66 21 0 21 C0 14.07 0 7.14 0 0 Z " fill="#A9C4D3" transform="translate(0,901)"/>
<path d="M0 0 C2.97 0 5.94 0 9 0 C9.33 0.99 9.66 1.98 10 3 C10.56074219 2.51660156 11.12148438 2.03320312 11.69921875 1.53515625 C15.58521387 -1.05770637 19.50365622 -0.87582156 24 0 C27.42949055 2.01698455 30.20893285 4.4178657 32 8 C32.50314949 14.4635357 32.9257518 20.53198856 29 26 C25.6182587 29.06470305 22.53017326 30.14460063 18 30.1875 C17.319375 30.20167969 16.63875 30.21585938 15.9375 30.23046875 C14 30 14 30 11 28 C10.67 32.95 10.34 37.9 10 43 C6.7 43 3.4 43 0 43 C0 28.81 0 14.62 0 0 Z " fill="#F7B138" transform="translate(567,591)"/>
<path d="M0 0 C2.97 0 5.94 0 9 0 C9.33 0.99 9.66 1.98 10 3 C10.55945313 2.5153125 11.11890625 2.030625 11.6953125 1.53125 C15.5697255 -1.04293626 19.51491313 -0.76402111 24 0 C27.89251609 2.00186542 30.38630755 4.95481621 32 9 C32.71784252 15.17158118 32.66083424 20.7702368 29 26 C25.6182587 29.06470305 22.53017326 30.14460063 18 30.1875 C17.319375 30.20167969 16.63875 30.21585938 15.9375 30.23046875 C14 30 14 30 11 28 C10.67 32.95 10.34 37.9 10 43 C6.7 43 3.4 43 0 43 C0 28.81 0 14.62 0 0 Z " fill="#F8B138" transform="translate(294,591)"/>
<path d="M0 0 C3.96605108 3.83316792 6.15513718 7.16556073 6.375 12.6875 C6.32830524 17.30361077 5.38231553 19.90919867 2.58203125 23.52734375 C-2.36750333 28.13468828 -6.57609191 28.52421937 -13.1171875 28.35546875 C-18.0159092 27.75142583 -20.64638012 25.54032607 -23.8125 21.9375 C-26.64066883 17.32311928 -26.95129405 12.2359843 -26 7 C-23.59189499 2.89604639 -20.56785991 -0.05928405 -16.5 -2.5 C-10.22418531 -3.75516294 -5.61490733 -3.11939296 0 0 Z " fill="#F7B138" transform="translate(630,593)"/>
<path d="M0 0 C6.6 0 13.2 0 20 0 C20 11.88 20 23.76 20 36 C13.4 36 6.8 36 0 36 C0 24.12 0 12.24 0 0 Z " fill="#0E577E" transform="translate(510,387)"/>
<path d="M0 0 C4.32088141 1.99060716 5.88713256 3.23492675 8.88671875 7.234375 C9.21671875 10.534375 9.54671875 13.834375 9.88671875 17.234375 C2.95671875 17.234375 -3.97328125 17.234375 -11.11328125 17.234375 C-9.61328125 21.234375 -9.61328125 21.234375 -7.11328125 22.234375 C-3.15765303 22.49235075 -0.51668432 22.32877689 2.88671875 20.234375 C4.86671875 21.554375 6.84671875 22.874375 8.88671875 24.234375 C3.42501681 29.99130407 3.42501681 29.99130407 -1.6015625 30.47265625 C-7.65164605 30.63164876 -11.40895059 30.46827259 -16.11328125 26.234375 C-20.0679328 21.73425427 -20.47125362 17.54582667 -20.38671875 11.73828125 C-19.97330686 7.95260948 -18.68481392 6.00371788 -16.11328125 3.234375 C-11.1420972 -0.70319652 -6.22876676 -2.25663269 0 0 Z " fill="#F9B137" transform="translate(351.11328125,590.765625)"/>
<path d="M0 0 C4.07735825 2.07574602 6.34293818 3.75146443 8 8 C8.22705078 10.47363281 8.22705078 10.47363281 8.1953125 13.203125 C8.18886719 14.1828125 8.18242187 15.1625 8.17578125 16.171875 C8.15902344 17.18765625 8.14226562 18.2034375 8.125 19.25 C8.11597656 20.28125 8.10695313 21.3125 8.09765625 22.375 C8.07412011 24.91690287 8.04124023 27.4583328 8 30 C5.36 30 2.72 30 0 30 C-0.33 29.34 -0.66 28.68 -1 28 C-1.680625 28.495 -2.36125 28.99 -3.0625 29.5 C-6.70247525 31.35871077 -8.95462873 31.43343264 -13 31 C-17.6 28.8 -17.6 28.8 -19 26 C-19.58656126 20.88853755 -19.58656126 20.88853755 -19 18 C-15.68214137 14.37350336 -12.92767522 12.3605616 -8 12 C-5.66698014 11.96175377 -3.33288492 11.95425716 -1 12 C-1.33 11.01 -1.66 10.02 -2 9 C-8.08408472 8.80185739 -8.08408472 8.80185739 -14 10 C-15.32 8.35 -16.64 6.7 -18 5 C-11.86849281 0.77607282 -7.41056701 -0.92315937 0 0 Z " fill="#F4B039" transform="translate(489,590)"/>
<path d="M0 0 C3.3 0 6.6 0 10 0 C10.33 0.66 10.66 1.32 11 2 C11.99 1.34 12.98 0.68 14 0 C17.06526351 -0.54531842 19.93408329 -0.54325893 23 0 C25.75569447 2.18159145 27.43588747 3.87177494 29 7 C29.08426094 8.6674606 29.10725143 10.33825187 29.09765625 12.0078125 C29.09443359 12.99394531 29.09121094 13.98007812 29.08789062 14.99609375 C29.07951172 16.02863281 29.07113281 17.06117188 29.0625 18.125 C29.05798828 19.16527344 29.05347656 20.20554687 29.04882812 21.27734375 C29.03701967 23.85158687 29.01908385 26.42580053 29 29 C25.7 29 22.4 29 19 29 C18.505 19.1 18.505 19.1 18 9 C15.525 8.505 15.525 8.505 13 8 C10.6031335 10.3968665 10.71718867 11.07028314 10.5859375 14.3515625 C10.52792969 15.62773438 10.52792969 15.62773438 10.46875 16.9296875 C10.42234375 18.26386719 10.42234375 18.26386719 10.375 19.625 C10.31699219 20.97078125 10.31699219 20.97078125 10.2578125 22.34375 C10.16341224 24.56215605 10.08061195 26.78105013 10 29 C6.7 29 3.4 29 0 29 C0 19.43 0 9.86 0 0 Z " fill="#F5B039" transform="translate(504,591)"/>
<path d="M0 0 C11.22 0 22.44 0 34 0 C34 2.97 34 5.94 34 9 C30.04 9 26.08 9 22 9 C22 19.56 22 30.12 22 41 C18.7 41 15.4 41 12 41 C12 30.44 12 19.88 12 9 C8.04 9 4.08 9 0 9 C0 6.03 0 3.06 0 0 Z " fill="#F8B138" transform="translate(413,579)"/>
<path d="M0 0 C2.97 0 5.94 0 9 0 C9.33 0.99 9.66 1.98 10 3 C10.39445312 2.51660156 10.78890625 2.03320312 11.1953125 1.53515625 C13.5105609 -0.4343083 14.86280458 -0.49383293 17.875 -0.5625 C18.71804688 -0.60503906 19.56109375 -0.64757812 20.4296875 -0.69140625 C23.47737617 0.12841274 25.14141258 1.42075442 27.04492188 3.9387207 C29.07342322 8.31669536 28.50138293 13.15583258 28.3125 17.875 C28.28994141 18.94492187 28.26738281 20.01484375 28.24414062 21.1171875 C28.18545633 23.74624407 28.1034118 26.37238582 28 29 C25.03 29 22.06 29 19 29 C18.95101563 27.65164063 18.90203125 26.30328125 18.8515625 24.9140625 C18.77653943 23.15102041 18.70099141 21.38800061 18.625 19.625 C18.5940625 18.73554687 18.563125 17.84609375 18.53125 16.9296875 C18.49257813 16.07890625 18.45390625 15.228125 18.4140625 14.3515625 C18.36693115 13.17327881 18.36693115 13.17327881 18.31884766 11.97119141 C18.1600535 9.76997061 18.1600535 9.76997061 16 8 C13.42459787 8.16507646 13.42459787 8.16507646 11 9 C9.88176185 11.23647631 9.80603939 12.64891529 9.68359375 15.1328125 C9.64169922 15.93847656 9.59980469 16.74414062 9.55664062 17.57421875 C9.49766602 18.83685547 9.49766602 18.83685547 9.4375 20.125 C9.39431641 20.97449219 9.35113281 21.82398438 9.30664062 22.69921875 C9.20045764 24.79928223 9.09971503 26.89961948 9 29 C6.03 29 3.06 29 0 29 C0 19.43 0 9.86 0 0 Z " fill="#FCB336" transform="translate(367,591)"/>
<path d="M0 0 C9.24 0 18.48 0 28 0 C28 14.52 28 29.04 28 44 C18.76 44 9.52 44 0 44 C0 29.48 0 14.96 0 0 Z M4 4 C4 15.88 4 27.76 4 40 C10.6 40 17.2 40 24 40 C24 28.12 24 16.24 24 4 C17.4 4 10.8 4 4 4 Z " fill="#F5B039" transform="translate(506,383)"/>
<path d="M0 0 C1.68156088 0.96723929 3.30778346 2.02940772 4.921875 3.10546875 C3.484375 5.66796875 3.484375 5.66796875 0.921875 8.10546875 C-2.17785749 8.25485345 -5.05357882 7.75820201 -8.078125 7.10546875 C-8.078125 8.09546875 -8.078125 9.08546875 -8.078125 10.10546875 C-7.47484375 10.275625 -6.8715625 10.44578125 -6.25 10.62109375 C2.38043854 13.23806544 2.38043854 13.23806544 4.921875 17.10546875 C5.44456243 20.61494146 5.13998059 22.60038212 3.734375 25.85546875 C1.10530929 29.11913653 -1.65286026 29.92705133 -5.76171875 30.44140625 C-11.89274663 30.52837118 -15.387187 30.16249621 -20.078125 26.10546875 C-18.428125 24.12546875 -16.778125 22.14546875 -15.078125 20.10546875 C-14.088125 20.76546875 -13.098125 21.42546875 -12.078125 22.10546875 C-9.74613112 22.18451939 -7.40979878 22.19345644 -5.078125 22.10546875 C-5.078125 21.44546875 -5.078125 20.78546875 -5.078125 20.10546875 C-5.76519531 19.85152344 -6.45226562 19.59757813 -7.16015625 19.3359375 C-8.06121094 18.99175781 -8.96226562 18.64757812 -9.890625 18.29296875 C-10.78394531 17.95652344 -11.67726563 17.62007812 -12.59765625 17.2734375 C-15.05780826 16.11503522 -16.45227273 15.26801012 -18.078125 13.10546875 C-18.47731736 10.01172793 -18.70726452 8.06646482 -18.078125 5.10546875 C-13.52153333 -0.68263419 -7.00458504 -3.01513153 0 0 Z " fill="#F5B038" transform="translate(557.078125,590.89453125)"/>
<path d="M0 0 C3.3 0 6.6 0 10 0 C10 2.64 10 5.28 10 8 C12.31 8 14.62 8 17 8 C17 10.64 17 13.28 17 16 C14.69 16 12.38 16 10 16 C10.33 20.62 10.66 25.24 11 30 C12.65 30.33 14.3 30.66 16 31 C16 32.98 16 34.96 16 37 C12.78070427 38.60964787 9.48112288 38.60686242 6 38 C2.78045355 35.46546343 1.29567565 33.88702695 0 30 C-0.06970052 27.60509014 -0.08448003 25.20832309 -0.0625 22.8125 C-0.05347656 21.54019531 -0.04445313 20.26789062 -0.03515625 18.95703125 C-0.02355469 17.98121094 -0.01195312 17.00539063 0 16 C-1.32 16 -2.64 16 -4 16 C-4 13.36 -4 10.72 -4 8 C-2.68 8 -1.36 8 0 8 C0 5.36 0 2.72 0 0 Z " fill="#ECAD3B" transform="translate(667,583)"/>
<path d="M0 0 C4.01813649 3.25794851 6.07544462 6.21561235 6.8125 11.375 C6.10305453 16.34111832 3.91521656 19.09420383 0.625 22.75 C-3.08136076 24.55309442 -6.65388476 24.52325959 -10.6875 23.875 C-13.77848636 22.09932699 -15.21700156 20.68156876 -17 17.625 C-18.36397938 12.1690825 -18.50283936 8.44744019 -15.9375 3.5 C-11.52237387 -1.65098049 -6.44129034 -2.6963541 0 0 Z " fill="#13597D" transform="translate(271.6875,588.125)"/>
<path d="M0 0 C0 2.97 0 5.94 0 9 C-2.05078125 9.45572917 -4.1015625 9.91145833 -6.15234375 10.3671875 C-8.20700294 10.82961523 -8.20700294 10.82961523 -9 13 C-9.23274209 15.87910588 -9.41972757 18.74146495 -9.5625 21.625 C-9.60568359 22.42679688 -9.64886719 23.22859375 -9.69335938 24.0546875 C-9.79951457 26.0362511 -9.90026855 28.01810271 -10 30 C-13.3 30 -16.6 30 -20 30 C-20 20.43 -20 10.86 -20 1 C-16.7 1 -13.4 1 -10 1 C-9.67 1.66 -9.34 2.32 -9 3 C-8.443125 2.505 -7.88625 2.01 -7.3125 1.5 C-4.61837017 -0.24754367 -3.14624993 -0.26218749 0 0 Z " fill="#ECAD3B" transform="translate(468,590)"/>
<path d="M0 0 C2.97 0 5.94 0 9 0 C9.33 0.99 9.66 1.98 10 3 C10.37125 2.505 10.7425 2.01 11.125 1.5 C13.74694393 -0.59755514 15.73842472 -0.21743835 19 0 C19 2.64 19 5.28 19 8 C17.2984375 8.4640625 17.2984375 8.4640625 15.5625 8.9375 C12.21224901 9.62924531 12.21224901 9.62924531 11 11 C10.84417697 12.34015221 10.74955858 13.68758903 10.68359375 15.03515625 C10.64169922 15.84404297 10.59980469 16.65292969 10.55664062 17.48632812 C10.51732422 18.33646484 10.47800781 19.18660156 10.4375 20.0625 C10.39431641 20.91650391 10.35113281 21.77050781 10.30664062 22.65039062 C10.20023298 24.76672037 10.09958269 26.88333813 10 29 C6.7 29 3.4 29 0 29 C0 19.43 0 9.86 0 0 Z " fill="#F6B038" transform="translate(640,591)"/>
<path d="M0 0 C11.55 0 23.1 0 35 0 C35 2.31 35 4.62 35 7 C23.45 7 11.9 7 0 7 C0 4.69 0 2.38 0 0 Z " fill="#E6AB3E" transform="translate(457,430)"/>
<path d="M0 0 C11.55 0 23.1 0 35 0 C35 2.31 35 4.62 35 7 C23.45 7 11.9 7 0 7 C0 4.69 0 2.38 0 0 Z " fill="#EAAC3C" transform="translate(457,398)"/>
<path d="M0 0 C5.61 0 11.22 0 17 0 C17 1.98 17 3.96 17 6 C13.37 6 9.74 6 6 6 C6 7.65 6 9.3 6 11 C9.63 11 13.26 11 17 11 C17 12.98 17 14.96 17 17 C11.39 17 5.78 17 0 17 C0 11.39 0 5.78 0 0 Z " fill="#F9B137" transform="translate(475,409)"/>
<path d="M0 0 C3.33334898 0.76923438 4.48952434 1.74875737 6.4375 4.5625 C7.00533945 8.53737617 7.06090519 10.62739221 4.8125 14 C1.7004338 16.04741197 0.09355504 16.24801032 -3.5625 15.5625 C-6.15630371 13.17347027 -7.34990381 11.50737194 -8.125 8.0625 C-7.13459807 3.66071366 -4.39850764 0.96552607 0 0 Z " fill="#195B7B" transform="translate(310.5625,597.4375)"/>
<path d="M0 0 C3.4375 1.0625 3.4375 1.0625 5.4375 2.6875 C6.89385054 6.14633253 6.35055869 8.47548371 5.4375 12.0625 C4.25 14 4.25 14 2.4375 15.0625 C-1.19281776 15.60318562 -2.88464079 15.52629841 -5.9375 13.4375 C-8.06220879 10.33215639 -8.16636292 8.7611604 -7.5625 5.0625 C-5.41953565 1.03372701 -4.64228372 0.08144357 0 0 Z " fill="#185B7C" transform="translate(620.5625,597.9375)"/>
<path d="M0 0 C3.40524375 0.68104875 4.52547983 1.6479153 6.5 4.5 C6.95674603 8.15396822 6.91282332 10.55293473 5.4375 13.9375 C3.5 15.5 3.5 15.5 0.0625 16.0625 C-3.5 15.5 -3.5 15.5 -6 13.375 C-7.5 10.5 -7.5 10.5 -7.5 7.4375 C-6.07351392 3.24719715 -4.46875428 0.89375086 0 0 Z " fill="#185B7C" transform="translate(583.5,597.5)"/>
<path d="M0 0 C0.33 0 0.66 0 1 0 C1 7.59 1 15.18 1 23 C-6.59 23 -14.18 23 -22 23 C-18 21 -18 21 -16.10546875 20.2109375 C-9.60272019 17.37674566 -4.77396973 13.05748396 -1.8984375 6.48046875 C-1.17445413 4.33220035 -0.53523835 2.20212351 0 0 Z " fill="#F9FBFC" transform="translate(921,899)"/>
<path d="M0 0 C0.66 1.32 1.32 2.64 2 4 C5.50245179 10.70624491 9.84912594 15.9785249 17.0703125 18.8125 C18.69300932 19.28551284 20.34529541 19.65526988 22 20 C22 20.33 22 20.66 22 21 C14.74 21 7.48 21 0 21 C0 14.07 0 7.14 0 0 Z " fill="#F8FAFB" transform="translate(0,901)"/>
<path d="M0 0 C6.93 0 13.86 0 21 0 C21 7.26 21 14.52 21 22 C19 18 19 18 18.17578125 16.0703125 C15.47945192 9.99442108 11.87154739 5.79677768 5.76953125 2.96484375 C3.87072119 2.24228771 1.93733804 1.61179096 0 1 C0 0.67 0 0.34 0 0 Z " fill="#F8FAFB" transform="translate(901,0)"/>
<path d="M0 0 C4.393125 -0.0309375 4.393125 -0.0309375 8.875 -0.0625 C9.79651855 -0.071604 10.71803711 -0.08070801 11.66748047 -0.09008789 C12.39338379 -0.09258545 13.11928711 -0.09508301 13.8671875 -0.09765625 C14.98262939 -0.10551147 14.98262939 -0.10551147 16.12060547 -0.11352539 C18 0 18 0 20 1 C20.02684312 3.81256281 20.04676188 6.62487241 20.0625 9.4375 C20.07087891 10.23994141 20.07925781 11.04238281 20.08789062 11.86914062 C20.0965143 13.91295221 20.0522815 15.95683902 20 18 C19 19 19 19 17.14233398 19.11352539 C16.35157471 19.10828857 15.56081543 19.10305176 14.74609375 19.09765625 C13.9770874 19.09515869 13.20808105 19.09266113 12.41577148 19.09008789 C11.43294189 19.08098389 10.4501123 19.07187988 9.4375 19.0625 C4.7659375 19.0315625 4.7659375 19.0315625 0 19 C0 12.73 0 6.46 0 0 Z M1 1 C1 6.61 1 12.22 1 18 C6.61 18 12.22 18 18 18 C18 16.02 18 14.04 18 12 C14.37 12 10.74 12 7 12 C7 10.35 7 8.7 7 7 C10.63 7 14.26 7 18 7 C18 5.02 18 3.04 18 1 C12.39 1 6.78 1 1 1 Z " fill="#306575" transform="translate(474,408)"/>
<path d="M0 0 C6.27 0 12.54 0 19 0 C17.32949879 1.11366747 15.64472804 2.20890523 13.9140625 3.2265625 C8.18881608 6.72423864 5.12251461 10.11863713 2 16 C1.34 16.99 0.68 17.98 0 19 C0 12.73 0 6.46 0 0 Z " fill="#FAFBFC" transform="translate(0,0)"/>
<path d="M0 0 C6.93 0 13.86 0 21 0 C21 0.33 21 0.66 21 1 C19.9275 1.0825 18.855 1.165 17.75 1.25 C13.97399843 1.64464519 13.97399843 1.64464519 11.9375 4.0625 C10 6 10 6 7 6.5 C3.37778249 5.89629708 2.20448728 4.88279106 0 2 C0 1.34 0 0.68 0 0 Z " fill="#316575" transform="translate(340,608)"/>
<path d="M0 0 C3.0625 0.25 3.0625 0.25 6.0625 2.25 C6.0625 3.57 6.0625 4.89 6.0625 6.25 C2.1025 6.25 -1.8575 6.25 -5.9375 6.25 C-4.4701087 0.38043478 -4.4701087 0.38043478 0 0 Z " fill="#306475" transform="translate(345.9375,596.75)"/>
<path d="M0 0 C-0.875 4.875 -0.875 4.875 -2 6 C-4.33297433 6.04092937 -6.66705225 6.04241723 -9 6 C-9 4.35 -9 2.7 -9 1 C-6.04335481 -0.4783226 -3.25770263 -0.06032783 0 0 Z " fill="#13597D" transform="translate(488,608)"/>
<path d="M0 0 C0.99 0.33 1.98 0.66 3 1 C3 2.32 3 3.64 3 5 C1.68 5 0.36 5 -1 5 C-0.67 3.35 -0.34 1.7 0 0 Z " fill="#E2A93F" transform="translate(413,433)"/>
<path d="M0 0 C0.99 0 1.98 0 3 0 C2.67 1.65 2.34 3.3 2 5 C1.01 4.67 0.02 4.34 -1 4 C-0.67 2.68 -0.34 1.36 0 0 Z " fill="#F4B039" transform="translate(519,432)"/>
</svg>
