<svg width="180" height="269" viewBox="0 0 180 269" fill="none" xmlns="http://www.w3.org/2000/svg">
<g clip-path="url(#clip0_10_73)">
<path d="M14.7277 111.202C16.1044 111.193 17.481 111.183 18.8994 111.174C20.4098 111.169 21.9202 111.165 23.4306 111.161C24.9759 111.155 26.5212 111.15 28.0665 111.144C31.3094 111.134 34.5524 111.128 37.7953 111.125C41.9453 111.119 46.0948 111.096 50.2446 111.068C53.4383 111.05 56.6319 111.045 59.8257 111.043C61.3552 111.04 62.8847 111.032 64.4141 111.019C66.5575 111.003 68.7011 111.006 70.8445 111.011C72.0632 111.007 73.2819 111.004 74.5375 111C79.2416 111.517 82.006 113.237 85.3097 116.258C85.5393 118.916 85.6355 121.476 85.638 124.136C85.6469 124.95 85.6558 125.764 85.665 126.603C85.6909 129.304 85.7002 132.005 85.7073 134.706C85.7169 136.58 85.7267 138.454 85.7366 140.329C85.7543 144.263 85.7625 148.196 85.7656 152.13C85.7714 157.171 85.8117 162.21 85.8607 167.25C85.8926 171.123 85.9003 174.997 85.9014 178.87C85.9059 180.728 85.9192 182.586 85.9416 184.444C85.9704 187.045 85.9652 189.644 85.9518 192.245C85.9677 193.012 85.9836 193.779 86 194.57C85.9417 198.542 85.5041 200.285 82.7253 203.408C78.5903 206.382 76.4984 206.516 71.2774 206.57C69.2176 206.594 69.2176 206.594 67.1162 206.618C65.6092 206.629 64.1022 206.64 62.5952 206.649C61.4578 206.657 61.4578 206.657 60.2975 206.665C56.2822 206.691 52.267 206.71 48.2516 206.724C44.9325 206.737 41.614 206.765 38.2952 206.805C34.2847 206.853 30.2748 206.877 26.264 206.884C24.7384 206.891 23.2127 206.906 21.6873 206.929C8.25599 207.124 8.25599 207.124 4.04389 204.084C0.325111 199.869 0.504058 196.111 0.471727 190.93C0.462967 190.156 0.454206 189.381 0.44518 188.583C0.418593 186.02 0.400872 183.456 0.385418 180.893C0.379714 180.016 0.374011 179.14 0.368135 178.237C0.339516 173.6 0.318754 168.963 0.303293 164.326C0.288997 160.49 0.259148 156.655 0.215414 152.819C0.162584 148.185 0.136045 143.552 0.12843 138.918C0.12124 137.153 0.104934 135.389 0.0792682 133.625C0.0453561 131.153 0.0453209 128.683 0.0532569 126.212C0.0356821 125.486 0.0181073 124.761 0 124.014C0.0736034 118.399 1.82956 116.131 6.03476 112.34C8.99717 110.985 11.4125 111.22 14.7277 111.202ZM7.10605 119.197C6.99855 121.63 6.96016 124.037 6.96743 126.471C6.96555 127.232 6.96368 127.994 6.96174 128.778C6.95701 131.308 6.96016 133.837 6.96377 136.367C6.96305 138.118 6.96201 139.868 6.96066 141.619C6.95908 145.295 6.96139 148.97 6.96638 152.646C6.97248 157.364 6.96898 162.082 6.96256 166.801C6.95869 170.419 6.95992 174.036 6.96269 177.654C6.96341 179.394 6.96253 181.134 6.96004 182.874C6.95733 185.304 6.96145 187.734 6.96743 190.164C6.96526 190.888 6.96309 191.612 6.96086 192.359C6.91158 196.065 6.91158 196.065 8.17733 199.524C17.2379 199.547 26.2985 199.564 35.359 199.575C39.5658 199.58 43.7726 199.587 47.9793 199.598C52.0358 199.609 56.0923 199.614 60.1488 199.617C61.6998 199.619 63.2507 199.622 64.8017 199.628C66.9668 199.635 69.1319 199.635 71.297 199.635C72.5317 199.637 73.7663 199.64 75.0384 199.642C77.7359 199.812 77.7359 199.812 78.882 198.544C78.9896 196.076 79.0279 193.634 79.0207 191.165C79.0225 190.392 79.0244 189.62 79.0264 188.824C79.0311 186.258 79.0279 183.692 79.0243 181.126C79.025 179.351 79.0261 177.575 79.0274 175.8C79.029 172.075 79.0267 168.349 79.0217 164.623C79.0156 159.837 79.0191 155.05 79.0255 150.263C79.0294 146.596 79.0282 142.929 79.0254 139.262C79.0247 137.496 79.0256 135.731 79.0281 133.965C79.0308 131.502 79.0267 129.039 79.0207 126.576C79.0239 125.471 79.0239 125.471 79.0272 124.343C79.3399 120.998 79.3399 120.998 77.8108 118.217C75.6473 118.12 73.4801 118.092 71.314 118.09C69.9234 118.087 68.5329 118.084 67.1002 118.081C65.5706 118.083 64.041 118.085 62.5115 118.087C60.9544 118.086 59.3973 118.085 57.8402 118.084C54.5728 118.083 51.3055 118.085 48.0382 118.089C43.8411 118.095 39.6441 118.092 35.447 118.086C32.2305 118.082 29.0141 118.084 25.7976 118.086C24.2496 118.087 22.7016 118.086 21.1537 118.084C18.9938 118.081 16.8339 118.086 14.6741 118.09C13.4427 118.091 12.2112 118.092 10.9425 118.093C8.25141 117.93 8.25141 117.93 7.10605 119.197Z" fill="#1F2937"/>
<path d="M33.9232 61.2267C34.9418 61.2196 35.9605 61.2125 37.01 61.2051C38.1265 61.2025 39.2431 61.1998 40.3935 61.197C41.5704 61.1905 42.7473 61.184 43.9599 61.1772C47.8635 61.1576 51.7671 61.146 55.6708 61.1361C57.0034 61.132 58.336 61.128 59.7089 61.1238C66.0352 61.1052 72.3615 61.0907 78.6878 61.0824C85.9786 61.0727 93.269 61.0465 100.56 61.0063C106.202 60.9763 111.844 60.9616 117.487 60.9583C120.853 60.956 124.219 60.9452 127.586 60.922C131.347 60.8978 135.107 60.8987 138.868 60.9056C139.975 60.8929 141.081 60.8802 142.221 60.867C148.725 60.9105 153.743 61.6636 159.146 65.3514C163.491 69.7888 165.559 73.4667 165.529 79.5931C165.529 81.1756 165.529 81.1756 165.528 82.7902C165.518 83.9227 165.507 85.0551 165.496 86.222C165.493 87.3863 165.49 88.5507 165.487 89.7504C165.476 93.4695 165.45 97.1884 165.424 100.908C165.414 103.429 165.405 105.95 165.396 108.472C165.374 114.653 165.339 120.834 165.296 127.015C163.267 127.015 161.237 127.015 159.146 127.015C159.141 126.082 159.141 126.082 159.135 125.13C159.092 118.643 159.021 112.158 158.934 105.672C158.905 103.252 158.883 100.833 158.869 98.4133C158.847 94.9318 158.799 91.4514 158.746 87.9702C158.744 86.3522 158.744 86.3522 158.742 84.7014C158.622 78.6577 158.33 74.8438 154.022 70.3243C150.906 68.4558 148.547 68.083 144.911 68.0691C143.904 68.0606 142.896 68.0522 141.859 68.0434C140.211 68.0448 140.211 68.0448 138.53 68.0462C137.368 68.0395 136.206 68.0328 135.008 68.0259C131.162 68.007 127.316 68.0031 123.469 68.001C120.799 67.9946 118.129 67.9879 115.458 67.9809C109.858 67.9682 104.259 67.9652 98.6593 67.9665C92.1908 67.9677 85.7227 67.9467 79.2543 67.9153C73.0265 67.8861 66.7989 67.879 60.5711 67.8802C57.9234 67.8778 55.2757 67.869 52.6281 67.8537C48.9278 67.8342 45.2284 67.8399 41.528 67.8519C40.4316 67.8407 39.3351 67.8295 38.2054 67.818C32.193 67.8535 32.193 67.8535 26.8029 70.2416C22.8806 74.4642 22.5527 77.5353 22.4041 83.2071C22.3843 83.8638 22.3644 84.5204 22.344 85.197C22.283 87.2842 22.2353 89.3715 22.1879 91.459C22.1488 92.8784 22.1088 94.2977 22.0678 95.7171C21.9697 99.1875 21.8834 102.658 21.8036 106.129C19.7742 106.129 17.7448 106.129 15.6539 106.129C15.5263 101.742 15.4338 97.3564 15.3724 92.9684C15.3468 91.4789 15.3119 89.9896 15.2673 88.5005C14.8314 73.5719 14.8314 73.5719 19.4061 67.7463C23.9118 63.1494 27.4073 61.258 33.9232 61.2267Z" fill="#1F2937"/>
<path d="M140.461 131.751C141.356 131.743 142.251 131.735 143.173 131.727C145.069 131.713 146.966 131.702 148.862 131.695C151.758 131.677 154.652 131.634 157.547 131.59C159.389 131.58 161.232 131.571 163.074 131.565C163.938 131.547 164.802 131.53 165.692 131.512C169.865 131.527 171.946 131.666 175.556 133.879C178.863 137.264 178.764 139.349 178.818 143.93C178.835 145.185 178.851 146.44 178.868 147.733C178.88 149.11 178.891 150.487 178.901 151.864C178.906 152.557 178.912 153.25 178.917 153.964C178.945 157.634 178.964 161.303 178.979 164.973C178.993 168.007 179.021 171.039 179.063 174.072C179.114 177.737 179.139 181.402 179.147 185.068C179.153 186.462 179.169 187.856 179.194 189.25C179.398 201.522 179.398 201.522 176.217 205.432C171.715 208.979 167.556 208.756 162.005 208.808C161.18 208.816 160.355 208.824 159.504 208.832C157.759 208.846 156.013 208.856 154.268 208.864C151.604 208.881 148.942 208.925 146.279 208.969C144.581 208.979 142.883 208.987 141.186 208.994C140.392 209.011 139.599 209.029 138.782 209.047C135.03 209.032 132.747 208.718 129.521 206.804C125.702 202.872 125.065 199.965 125.025 194.596C125.012 193.381 124.999 192.166 124.986 190.915C124.982 188.95 124.982 188.95 124.979 186.946C124.972 185.584 124.965 184.221 124.958 182.859C124.946 180.004 124.942 177.15 124.943 174.296C124.944 170.648 124.916 167.001 124.88 163.354C124.857 160.54 124.853 157.726 124.854 154.912C124.851 152.916 124.829 150.921 124.806 148.926C124.865 137.598 124.865 137.598 129.423 132.983C132.846 131.322 136.695 131.783 140.461 131.751ZM132.498 138.95C132.391 140.862 132.356 142.777 132.349 144.692C132.342 145.92 132.336 147.148 132.329 148.413C132.328 149.764 132.326 151.115 132.326 152.466C132.322 153.843 132.319 155.219 132.315 156.595C132.309 159.484 132.307 162.373 132.308 165.262C132.308 168.968 132.294 172.675 132.276 176.382C132.265 179.226 132.263 182.07 132.263 184.913C132.262 186.28 132.258 187.647 132.25 189.014C132.24 190.924 132.244 192.834 132.249 194.743C132.247 195.831 132.246 196.919 132.244 198.04C132.23 200.776 132.23 200.776 134.548 202.603C137.157 202.814 139.652 202.905 142.263 202.902C143.408 202.909 143.408 202.909 144.576 202.915C146.191 202.921 147.807 202.921 149.422 202.917C151.895 202.914 154.366 202.937 156.838 202.962C158.407 202.965 159.976 202.965 161.545 202.964C162.285 202.974 163.025 202.983 163.787 202.992C167.679 202.994 167.679 202.994 171.129 201.45C173.025 198.863 172.854 196.992 172.852 193.834C172.859 192.646 172.865 191.458 172.872 190.234C172.862 188.95 172.853 187.667 172.843 186.344C172.843 185.015 172.843 183.686 172.845 182.357C172.844 179.574 172.834 176.791 172.815 174.008C172.792 170.437 172.791 166.866 172.798 163.295C172.802 160.552 172.795 157.809 172.785 155.066C172.779 153.108 172.78 151.15 172.782 149.192C172.767 147.414 172.767 147.414 172.752 145.601C172.747 144.554 172.743 143.508 172.738 142.429C172.724 139.773 172.724 139.773 170.421 137.956C167.64 137.769 164.966 137.701 162.185 137.726C161.372 137.727 160.558 137.727 159.72 137.728C157.999 137.731 156.278 137.739 154.558 137.751C151.915 137.769 149.272 137.771 146.629 137.771C144.96 137.776 143.291 137.782 141.622 137.789C140.827 137.79 140.031 137.791 139.212 137.792C135.551 137.495 135.551 137.495 132.498 138.95Z" fill="#1F2937"/>
<path d="M49.4773 254.321C78.2271 254.321 106.977 254.321 136.598 254.321C136.598 258.916 136.598 263.511 136.598 268.245C107.848 268.245 79.0983 268.245 49.4773 268.245C49.4773 263.65 49.4773 259.055 49.4773 254.321Z" fill="#1F2937"/>
<path d="M49.4773 0.703918C78.2271 0.703918 106.977 0.703918 136.598 0.703918C136.598 5.29886 136.598 9.89381 136.598 14.628C107.848 14.628 79.0983 14.628 49.4773 14.628C49.4773 10.033 49.4773 5.4381 49.4773 0.703918Z" fill="#1F2937"/>
<path d="M31.0283 76.2918C46.3788 76.2693 61.7292 76.251 77.0797 76.2402C84.2067 76.2351 91.3338 76.2281 98.4608 76.2167C105.332 76.2058 112.204 76.2 119.075 76.1974C121.703 76.1956 124.332 76.192 126.96 76.1866C130.627 76.1795 134.294 76.1784 137.961 76.1789C139.059 76.1753 140.158 76.1717 141.289 76.168C142.283 76.1694 143.276 76.1708 144.299 76.1722C145.167 76.1713 146.035 76.1703 146.93 76.1694C148.897 76.2918 148.897 76.2918 149.922 77.2864C150.017 78.8433 150.042 80.4045 150.038 81.9642C150.038 83.4575 150.038 83.4575 150.038 84.981C150.033 86.0636 150.027 87.1462 150.022 88.2617C150.021 89.364 150.019 90.4664 150.018 91.6022C150.012 95.1391 149.999 98.676 149.986 102.213C149.981 104.604 149.976 106.995 149.972 109.387C149.961 115.263 149.943 121.139 149.922 127.015C147.893 127.015 145.863 127.015 143.772 127.015C143.772 112.246 143.772 97.4763 143.772 82.2592C108.596 82.2592 73.4201 82.2592 37.178 82.2592C37.178 90.1363 37.178 98.0133 37.178 106.129C35.1486 106.129 33.1192 106.129 31.0283 106.129C31.0283 96.2828 31.0283 86.4365 31.0283 76.2918Z" fill="#1F2937"/>
<path d="M18.8646 122.917C20.3087 122.921 20.3087 122.921 21.782 122.924C23.4362 122.924 23.4362 122.924 25.1237 122.924C26.8752 122.932 26.8752 122.932 28.6621 122.94C30.2624 122.941 30.2624 122.941 31.895 122.943C35.8981 122.948 39.9011 122.962 43.9042 122.975C57.3172 123.006 57.3172 123.006 71.0012 123.037C71.0012 144.371 71.0012 165.704 71.0012 187.684C62.0592 187.705 53.1172 187.725 43.9042 187.747C41.0775 187.756 38.2508 187.765 35.3385 187.774C33.1131 187.777 30.8876 187.779 28.6621 187.782C27.4944 187.787 26.3268 187.792 25.1237 187.797C24.021 187.797 22.9182 187.797 21.782 187.797C20.8193 187.8 19.8565 187.802 18.8646 187.804C16.6791 187.684 16.6791 187.684 15.6541 186.69C15.5524 184.742 15.5229 182.791 15.5215 180.841C15.5183 179.59 15.515 178.338 15.5117 177.049C15.5135 175.673 15.5156 174.297 15.518 172.921C15.5173 171.52 15.5163 170.119 15.515 168.718C15.5135 165.778 15.5157 162.839 15.5205 159.899C15.5263 156.123 15.523 152.347 15.5168 148.571C15.5131 145.676 15.5143 142.782 15.517 139.888C15.5176 138.496 15.5168 137.103 15.5144 135.71C15.5118 133.767 15.5165 131.824 15.5215 129.88C15.5223 128.773 15.5231 127.665 15.524 126.523C15.7033 123.09 15.7033 123.09 18.8646 122.917ZM20.7788 128.01C20.7788 146.061 20.7788 164.113 20.7788 182.712C35.6611 182.712 50.5433 182.712 65.8765 182.712C65.8765 164.66 65.8765 146.608 65.8765 128.01C50.9942 128.01 36.112 128.01 20.7788 128.01Z" fill="#1F2937"/>
<path d="M137.623 143.923C147.093 143.923 156.564 143.923 166.321 143.923C166.321 158.364 166.321 172.805 166.321 187.684C156.851 187.684 147.38 187.684 137.623 187.684C137.623 173.243 137.623 158.802 137.623 143.923ZM141.722 147.901C141.722 159.717 141.722 171.532 141.722 183.706C148.487 183.706 155.252 183.706 162.221 183.706C162.221 171.89 162.221 160.075 162.221 147.901C155.457 147.901 148.692 147.901 141.722 147.901Z" fill="#1F2937"/>
<path d="M87.4001 190.668C99.2383 190.668 111.076 190.668 123.273 190.668C123.273 192.966 123.273 195.263 123.273 197.63C111.435 197.63 99.597 197.63 87.4001 197.63C87.4001 195.333 87.4001 193.035 87.4001 190.668Z" fill="#1F2937"/>
<path d="M87.4001 158.842C99.2383 158.842 111.076 158.842 123.273 158.842C123.273 161.139 123.273 163.437 123.273 165.804C111.435 165.804 99.597 165.804 87.4001 165.804C87.4001 163.506 87.4001 161.209 87.4001 158.842Z" fill="#1F2937"/>
<path d="M105.849 169.782C111.599 169.782 117.349 169.782 123.273 169.782C123.273 171.751 123.273 173.721 123.273 175.749C119.553 175.749 115.832 175.749 111.999 175.749C111.999 177.391 111.999 179.032 111.999 180.722C115.719 180.722 119.44 180.722 123.273 180.722C123.273 182.692 123.273 184.661 123.273 186.69C117.523 186.69 111.773 186.69 105.849 186.69C105.849 181.11 105.849 175.531 105.849 169.782Z" fill="#1F2937"/>
<path d="M42.3026 193.652C43.3173 193.98 44.332 194.308 45.3774 194.646C45.3774 195.959 45.3774 197.272 45.3774 198.625C44.0245 198.625 42.6716 198.625 41.2776 198.625C41.6159 196.984 41.9541 195.343 42.3026 193.652Z" fill="#1F2937"/>
<path d="M150.947 192.657C151.962 192.657 152.976 192.657 154.022 192.657C153.683 194.298 153.345 195.939 152.997 197.63C151.982 197.302 150.967 196.974 149.922 196.636C150.26 195.323 150.598 194.01 150.947 192.657Z" fill="#1F2937"/>
</g>
<defs>
<clipPath id="clip0_10_73">
<rect width="180" height="269" fill="white"/>
</clipPath>
</defs>
</svg>
