<?xml version="1.0" encoding="utf-8"?>
<!-- Generator: Adobe Illustrator 19.2.1, SVG Export Plug-In . SVG Version: 6.00 Build 0)  -->
<svg version="1.1" id="layer" xmlns="http://www.w3.org/2000/svg" xmlns:xlink="http://www.w3.org/1999/xlink" x="0px" y="0px"
	 viewBox="0 0 652 652" style="enable-background:new 0 0 652 652;" xml:space="preserve">
<style type="text/css">
	.st0{fill:#00BECD;}
</style>
<g>
	<path class="st0" d="M340.7,414.9h-4v-3.1c-1.8,2.2-4.6,3.6-8.3,3.6c-6.6,0-11.7-5.1-11.7-12.2c0-7.1,5.1-12.2,11.7-12.2
		c3.7,0,6.4,1.4,8.3,3.6v-3.2h4V414.9z M320.8,403.2c0,4.7,3.3,8.4,8.1,8.4c4.7,0,8-3.6,8-8.4c0-4.8-3.3-8.4-8-8.4
		C324,394.8,320.8,398.5,320.8,403.2"/>
	<path class="st0" d="M444.8,394.7l-2.6,2.7c-1.7-1.7-3.7-2.6-6.2-2.6c-4.5,0-7.9,3.5-7.9,8.4c0,4.9,3.4,8.4,7.9,8.4
		c2.5,0,4.7-1.1,6.3-2.7l2.5,2.8c-2.1,2.4-5.2,3.7-8.7,3.7c-7.2,0-12.2-5.3-12.2-12.2c0-6.9,4.9-12.2,12.2-12.2
		C439.6,391,442.7,392.3,444.8,394.7"/>
	<path class="st0" d="M472.1,403.2c0,7-5.3,12.2-12.4,12.2c-7.1,0-12.4-5.3-12.4-12.2s5.3-12.2,12.4-12.2
		C466.8,391,472.1,396.2,472.1,403.2 M451.4,403.2c0,4.9,3.6,8.4,8.3,8.4c4.7,0,8.3-3.5,8.3-8.4s-3.6-8.4-8.3-8.4
		C455,394.8,451.4,398.3,451.4,403.2"/>
	<path class="st0" d="M515.2,400.4v14.5h-4v-13.2c0-4.3-2.4-6.9-6.4-6.9c-3.9,0-6.9,2.7-6.9,7v13.1h-4v-13.2c0-4.3-2.4-6.9-6.4-6.9
		c-3.8,0-6.9,2.6-6.9,7v13.1h-4v-23.4h4v3.1c1.9-2.6,5-3.5,7.7-3.5c4,0,7.1,1.8,8.7,4.7c1.9-3.5,5.5-4.7,8.7-4.7
		C511.2,391,515.2,394.7,515.2,400.4"/>
	<path class="st0" d="M544,403.2c0,7.1-5.2,12.2-11.7,12.2c-3.7,0-6.4-1.4-8.3-3.6v13h-4v-33.3h4v3.1c1.8-2.2,4.6-3.6,8.3-3.6
		C538.8,391,544,396.1,544,403.2 M523.8,403.2c0,4.8,3.3,8.4,8,8.4c4.9,0,8-3.8,8-8.4s-3.3-8.4-8-8.4
		C527.1,394.8,523.8,398.4,523.8,403.2"/>
	<path class="st0" d="M571.5,414.9h-4v-3.1c-1.8,2.2-4.6,3.6-8.3,3.6c-6.6,0-11.7-5.1-11.7-12.2c0-7.1,5.1-12.2,11.7-12.2
		c3.7,0,6.4,1.4,8.3,3.6v-3.2h4V414.9z M551.6,403.2c0,4.7,3.3,8.4,8.1,8.4c4.7,0,8-3.6,8-8.4c0-4.8-3.3-8.4-8-8.4
		C554.8,394.8,551.6,398.5,551.6,403.2"/>
	<path class="st0" d="M599,400.4v14.5h-4v-13.2c0-4.3-2.4-6.9-6.4-6.9c-3.8,0-6.9,2.6-6.9,7v13.1h-4v-23.4h4v3.1
		c1.9-2.6,5-3.5,7.7-3.5C595,391,599,394.7,599,400.4"/>
	<polygon class="st0" points="607.8,424.9 603.4,424.9 612,409.9 601.3,391.5 605.9,391.5 614.3,405.9 622.3,391.5 626.7,391.5 	"/>
	<path class="st0" d="M407.2,380.2h-49.8c-3.4,0-6.3,2.7-6.3,6.2v31.1c0,3.5,2.8,6.3,6.3,6.3h49.8c3.4,0,6.3-2.8,6.3-6.3v-31.1
		C413.4,382.9,410.6,380.2,407.2,380.2 M408.9,417.5c0,1-0.7,1.8-1.7,1.8h-49.8c-1,0-1.7-0.8-1.7-1.8v-31.1c0-1,0.7-1.8,1.7-1.8
		h49.8c1,0,1.7,0.8,1.7,1.8V417.5z"/>
	<path class="st0" d="M370.2,416.3h-10.5v-28.6h10.5c7.4,0,11.5,4.6,11.5,14.1C381.6,410.1,378.9,416.2,370.2,416.3 M374.7,402.5
		c0-5.7-0.6-10.2-6.8-10.2h-1.4v19.4h2.4C372.6,411.6,374.7,408.7,374.7,402.5"/>
	<path class="st0" d="M399.7,401.3c2-0.5,5-2.8,5-6.6c0-0.6-0.1-7-8.1-7h-11.9v28.5h10.1c2.7,0,11,0,11-8
		C405.7,406.2,404.9,402.5,399.7,401.3 M391.4,392.1h2.2c3.1,0,4.3,1.1,4.3,3.4c0,1.9-1.3,3.5-3.7,3.5h-2.7V392.1z M394.2,411.6
		h-2.8v-7.3h3c3.6,0,4.4,2.1,4.4,3.7C398.9,411.6,395.3,411.6,394.2,411.6"/>
	<path class="st0" d="M450.7,273l33.9,79.5c1.7,4.2,4.3,6.1,8.1,6.1c3.9,0,6.6-2,8.3-6.1l33.9-79.5h-14.3l-27.9,66.5L464.8,273
		H450.7z"/>
	<path class="st0" d="M401.2,271.1c-18.4,0-31.2,12.8-31.2,31.2v56.4c8.1-0.4,12.9-5.2,12.9-13v-44.2c0-10.9,7.5-18.5,18.3-18.5
		c5.3,0,8,1.4,11.5,4.6l7.7-9.2C414.7,273.2,409.1,271.1,401.2,271.1"/>
	<path class="st0" d="M348.1,271.1c-18.4,0-31.2,12.8-31.2,31.2v56.4c8.1-0.4,12.9-5.2,12.9-13v-44.2c0-10.9,7.5-18.5,18.3-18.5
		c5.3,0,8,1.4,11.5,4.6l7.7-9.2C361.6,273.2,356,271.1,348.1,271.1"/>
	<path class="st0" d="M579.6,271.1c-25.1,0-44.1,18.8-44.1,43.8c0,25,18.9,43.8,44.1,43.8c10.7,0,21.2-4,29.6-11.3l1.5-1.3l0.3,2
		c1,6.4,5.8,10.3,13,10.6v-43.8C623.9,290.3,604.4,271.1,579.6,271.1 M579.6,346.8c-17.4,0-31.1-14-31.1-31.9
		c0-17.9,13.7-31.9,31.1-31.9c17.6,0,31.4,14,31.4,31.9C611,332.8,597.2,346.8,579.6,346.8"/>
	<path class="st0" d="M255.6,271.1c-25.1,0-44.1,18.8-44.1,43.8c0,25,18.9,43.8,44.1,43.8c10.7,0,21.2-4,29.6-11.3l1.7-1.5l0.1,2.3
		c0.2,6.1,5.3,10.2,12.9,10.5v-43.8C299.9,290.3,280.4,271.1,255.6,271.1 M255.6,346.8c-17.4,0-31.1-14-31.1-31.9
		c0-17.9,13.7-31.9,31.1-31.9c17.6,0,31.4,14,31.4,31.9C287,332.8,273.2,346.8,255.6,346.8"/>
	<path class="st0" d="M428.8,273v85.6c8.1-0.4,12.9-5.2,12.9-13V273H428.8z"/>
	<path class="st0" d="M435.3,244.7c-4.7,0-8.5,3.8-8.5,8.5c0,4.5,3.9,8.2,8.5,8.2c4.5,0,8.2-3.8,8.2-8.2
		C443.6,248.6,439.8,244.7,435.3,244.7"/>
	<path class="st0" d="M122.7,317.5c7.3,1.9,13.9,3.9,19.9,5.9c2.4,4.7,4.6,9.2,6.8,13.7c4.1,0.1,8.2,0.1,12.3-0.2
		c-1.2-2.5-2.3-4.9-3.6-7.4c4.1,1.9,7.8,3.8,11.4,6.4c9.1-2,9-5,5.8-8c-12.5-11.5-44-20-59.6-23.4
		C117.3,307.4,121.7,315.5,122.7,317.5"/>
	<path class="st0" d="M43.7,309.8c2.3-0.5,4.9-0.9,8.5-1.1c2-3.7,4.1-7.4,6.1-11c-10.9,0.3-16.3,2.1-18.8,3.6
		C36.9,302.9,38.1,305.8,43.7,309.8"/>
	<path class="st0" d="M181.9,332.7c-3.7,17-66.3,5.6-76.9,3.5c-13.4-2.7-75.3-18.1-71.3-34.2c-1.2,2.6-2.1,8.3-2.4,10.7
		c-0.4,2.6,0.6,5.5,1.5,6.9c2.4,3.7,7.5,7.1,14,10.2c-4.7,9.8-18.9,40.6-19.4,56.3c-0.2,6.3,1.3,6.7,5.7,3.9c1.3-0.8,3.6-2.7,4.9-4
		c2.8-16.5,14.2-41.1,19.3-51.7c6.3,2.4,12.7,4.7,19.3,6.6c-5.9,10-23.1,37.9-36.6,49.7c-7.1,6.2-10.6,6.6-13.1,5.4
		c0.9,1.1,5.7,3.8,7.3,4.5c2.9,1.4,5.2,1.9,8,0.8c14-5.5,37-41.5,45.9-57.3c12,3.3,22.8,5.4,35.7,7c6.9,10.6,23.3,36.5,36.6,47.1
		c5.2,4.2,8.1,4.4,11.8,2.6c3.6-1.7,5.6-3.2,7.4-4.7c-1.3,0.3-3.4,0.4-7-1.8c-12.1-7.5-30.5-36.1-34.1-41.5
		c6.2,0.6,12.3,0.7,18.5,0.4c4.3,9.9,8.5,20.6,11,31.1c1.8,1.9,4.3,4.6,8.2,6.8c2.1,1.2,2.8,0.6,2.9-1.6c0.5-9.9-7.6-29.8-10.6-37.4
		c6.5-1.3,9.8-3.9,11.3-8C180.4,341.7,182,335.6,181.9,332.7"/>
	<path class="st0" d="M82.3,268.9c-10.7,14.8-19.9,30.4-28.4,46.6c3.4,1.6,7,3.1,10.5,4.5c2-3.8,3.9-7.3,6-11.1
		c5.4,0.4,11.1,0.9,17,1.8c1.7-3.5,3.4-6.9,5-10.4c-5.5-0.8-10.8-1.4-15.8-1.8c3.4-5.7,7-11.3,10.8-16.9c2.1,5.1,4.4,10.1,6.7,15
		c2.1-4.6,4.1-9.3,5.9-14c-5.2-12.1-12.2-27.8-14.6-42.1c-0.6-3.9-1.3-10,2.3-12.5c-2.5,0.9-7.1,3.6-9.1,5c-2.2,1.7-3.4,4.4-3.5,7
		C74.9,247.3,78.8,259,82.3,268.9"/>
	<path class="st0" d="M84.5,326.4c3.3,1,7.8,2.2,11.3,3c2.7-5,5.1-9.8,7.4-14.7c3.3,6.3,6.5,12.2,10,18.3c4.8,0.9,9.6,1.6,14.4,2.3
		c-3.8-6.4-15.2-26.7-18.4-33.6c3.1-7.1,6-14.2,8.5-21.6c4.6,7.1,9.4,15,14.3,23.8c5.2,1.4,10.3,3,15.4,4.8
		c-7.9-14.6-16.3-28.7-25.5-42.4c1.1-4.4,2-8.9,1.7-13.4c-0.2-2.7-1-5.6-3.3-7.3c-2.2-1.7-7-4.3-9.2-5.1c2.9,2.4,2.9,7,2.7,10.4
		C112.6,266.2,100.4,297.3,84.5,326.4"/>
	<path class="st0" d="M93.9,254.4c0.6,2,3.6,10.2,4.4,12.1c2-2.5,3.8-4.6,5.5-6.5c0.9,1.2,1.8,2.4,2.7,3.6c1-3.6,2.7-10.3,2.7-14.1
		c0.1-6.2-1.1-7.3-6.4-3.6C99.5,248.3,96.6,251.3,93.9,254.4"/>
	<path class="st0" d="M91,244.5c0.9,0.9,1.9,2,2.8,3.1c2.6-2.6,5.3-5.1,8.5-6.8c-2.6-2.8-5.4-5.7-8.7-7.8c-3.1-2-4.2-2.1-4.1,2.9
		C89.7,238.3,90.5,242.2,91,244.5"/>
</g>
</svg>
