<svg width="168" height="76" viewBox="0 0 168 76" fill="none" xmlns="http://www.w3.org/2000/svg">
<g clip-path="url(#clip0_2089_6003)">
<path d="M142.868 12.4114L153.419 40.6959L135.683 31.6768L142.868 12.4121V12.4114ZM142.868 0.635032L130.542 33.6808L160.965 49.1519L142.868 0.634277V0.635032Z" fill="#FF4713"/>
<path d="M11.643 48.764L10.5599 45.5598H4.40075L3.31686 48.764H0.0010376L5.9345 32.7441H8.98011L14.9596 48.764H11.6423H11.643ZM5.32614 42.8524H9.63528L7.49165 36.5574H7.44636L5.32538 42.8524H5.32614Z" fill="#131E29"/>
<path d="M27.8666 32.745H31.2738L25.3403 48.7648H22.5423L16.5854 32.745H20.0379L23.919 44.2519H23.9643L27.8674 32.745H27.8666Z" fill="#131E29"/>
<path d="M44.5401 48.764L43.457 45.5598H37.2978L36.214 48.764H32.8974L38.8308 32.7441H41.8764L47.856 48.764H44.5386H44.5401ZM38.2232 42.8524H42.5324L40.3887 36.5574H40.3435L38.2225 42.8524H38.2232Z" fill="#131E29"/>
<path d="M62.8848 32.745H66.0663V48.7648H62.8169L55.755 38.138H55.7097V48.7648H52.5509V32.745H55.7097L62.8622 43.5756H62.8848V32.745V32.745Z" fill="#131E29"/>
<path d="M75.4733 48.764V35.5875H71.0517V32.7441H83.0779V35.5875H78.6329V48.764H75.4733V48.764Z" fill="#131E29"/>
<path d="M88.1766 48.764V32.7441H91.3581V48.764H88.1766Z" fill="#131E29"/>
<path d="M19.7881 56.8984H21.8864L16.7651 72.9183H14.869L11.169 59.7871H11.1471L7.37917 72.9183H5.48388L0.361816 56.8984H2.46015L6.4085 69.6915H6.45379L10.064 56.8984H12.2076L15.8171 69.7368H15.8397L19.7873 56.8984H19.7881Z" fill="#131E29"/>
<path d="M26.8952 72.9175V56.8977H36.7099V58.7032H28.8811V64.0502H35.3112V65.8556H28.8811V71.1128H37.1839V72.9183H26.8952V72.9175Z" fill="#131E29"/>
<path d="M47.2234 73.0534C44.9817 73.0534 43.0864 72.2262 41.5375 70.5717L42.8011 69.0817C43.3574 69.7738 44.0344 70.2999 44.8315 70.6615C45.6285 71.023 46.4332 71.2034 47.2453 71.2034C48.2379 71.2034 49.0312 70.9853 49.6252 70.549C50.2192 70.1127 50.5174 69.5112 50.5174 68.7435C50.5174 68.3224 50.4449 67.9616 50.303 67.6604C50.1603 67.36 49.915 67.0928 49.5693 66.8588C49.2229 66.6256 48.8885 66.4376 48.5655 66.295C48.2417 66.1523 47.779 65.9674 47.1774 65.7425C47.0717 65.6972 46.9894 65.667 46.9298 65.6526C46.3433 65.4421 45.8656 65.2579 45.4972 65.1001C45.1289 64.9416 44.7077 64.7205 44.2337 64.4344C43.7597 64.1483 43.3913 63.8585 43.1279 63.5656C42.8645 63.2728 42.635 62.9037 42.4395 62.4598C42.244 62.0168 42.1459 61.5239 42.1459 60.982C42.1459 59.7947 42.6199 58.7938 43.5679 57.9809C44.5152 57.1687 45.6731 56.7551 47.043 56.74C48.8478 56.74 50.54 57.3642 52.1198 58.6119L50.9242 60.1464C49.675 59.0934 48.382 58.5666 47.043 58.5666C46.2603 58.5666 45.5908 58.7734 45.0345 59.187C44.4782 59.6007 44.2005 60.1683 44.2005 60.8906C44.2005 61.191 44.2601 61.4665 44.3809 61.7141C44.5009 61.9624 44.636 62.1655 44.7869 62.324C44.9364 62.4817 45.2006 62.6584 45.5765 62.8538C45.9524 63.0493 46.2497 63.1958 46.4679 63.2939C46.686 63.392 47.0657 63.546 47.6076 63.7558C49.2614 64.3876 50.3528 64.8843 50.8789 65.2458C52.0073 66.0127 52.5712 67.1109 52.5712 68.5397C52.5712 69.9535 52.0489 71.0593 51.0035 71.8563C49.9573 72.6541 48.6976 73.0527 47.2242 73.0527L47.2234 73.0534Z" fill="#131E29"/>
<path d="M61.0997 72.9175V58.7032H56.2939V56.8977H67.8906V58.7032H63.0629V72.9175H61.0997V72.9175Z" fill="#131E29"/>
<path d="M87.5666 73.0308C85.2947 73.0308 83.3964 72.3167 81.8694 70.8871C80.3424 69.4583 79.5793 67.4883 79.5793 64.9756C79.5793 62.5995 80.2896 60.6325 81.7116 59.0761C83.1329 57.5197 85.0848 56.7407 87.5666 56.7407C90.0937 56.7407 92.1762 57.7635 93.8163 59.809L92.3498 61.0272C91.0711 59.4172 89.4763 58.6126 87.5666 58.6126C85.7611 58.6126 84.321 59.2029 83.2454 60.3841C82.1698 61.5654 81.6316 63.0961 81.6316 64.9756C81.6316 66.855 82.1879 68.3563 83.302 69.4772C84.4153 70.5973 85.8359 71.1581 87.5659 71.1581C89.4755 71.1581 91.0704 70.361 92.349 68.7669L93.8156 70.0078C92.1913 72.0239 90.1073 73.0315 87.5659 73.0315L87.5666 73.0308Z" fill="#131E29"/>
<path d="M105.594 73.0534C103.217 73.0534 101.281 72.2828 99.7847 70.7407C98.2879 69.1994 97.5391 67.2551 97.5391 64.9084C97.5391 62.5617 98.2871 60.6143 99.7847 59.0647C101.281 57.5151 103.217 56.7407 105.594 56.7407C107.88 56.7407 109.783 57.4963 111.302 59.0081C112.821 60.52 113.582 62.4862 113.582 64.9084C113.582 67.3147 112.822 69.2741 111.302 70.7852C109.783 72.2971 107.88 73.0534 105.594 73.0534ZM105.594 71.1808C107.278 71.1808 108.689 70.5905 109.824 69.4092C110.959 68.228 111.528 66.7282 111.528 64.9084C111.528 63.0727 110.96 61.5646 109.824 60.3841C108.688 59.2036 107.278 58.6126 105.594 58.6126C103.834 58.6126 102.39 59.2187 101.263 60.4287C100.134 61.6394 99.5703 63.1331 99.5703 64.9084C99.5703 66.6837 100.134 68.1721 101.263 69.3753C102.39 70.5792 103.834 71.1808 105.594 71.1808V71.1808Z" fill="#131E29"/>
<path d="M128.021 72.9175L126.599 69.0137H119.447L118.025 72.9175H115.949L122.019 56.8977H123.982L130.096 72.9175H128.021ZM120.08 67.2996H125.968L123.035 59.2904H122.989L120.08 67.2996Z" fill="#131E29"/>
<path d="M138.468 73.0534C136.226 73.0534 134.331 72.2262 132.782 70.5717L134.046 69.0817C134.602 69.7738 135.279 70.2999 136.076 70.6615C136.873 71.023 137.678 71.2034 138.49 71.2034C139.482 71.2034 140.276 70.9853 140.87 70.549C141.464 70.1127 141.762 69.5112 141.762 68.7435C141.762 68.3224 141.689 67.9616 141.548 67.6604C141.405 67.36 141.16 67.0928 140.814 66.8588C140.467 66.6256 140.133 66.4376 139.81 66.295C139.486 66.1523 139.023 65.9674 138.422 65.7425C138.316 65.6972 138.234 65.667 138.174 65.6526C137.588 65.4421 137.11 65.2579 136.742 65.1001C136.373 64.9416 135.952 64.7205 135.478 64.4344C135.004 64.1483 134.636 63.8585 134.372 63.5656C134.109 63.2728 133.88 62.9037 133.684 62.4598C133.489 62.0168 133.39 61.5239 133.39 60.982C133.39 59.7947 133.864 58.7938 134.812 57.9809C135.76 57.1687 136.918 56.7551 138.288 56.74C140.092 56.74 141.785 57.3642 143.364 58.6119L142.169 60.1464C140.92 59.0934 139.627 58.5666 138.288 58.5666C137.505 58.5666 136.835 58.7734 136.279 59.187C135.723 59.6007 135.445 60.1683 135.445 60.8906C135.445 61.191 135.505 61.4665 135.625 61.7141C135.745 61.9624 135.881 62.1655 136.031 62.324C136.181 62.4817 136.445 62.6584 136.821 62.8538C137.197 63.0493 137.494 63.1958 137.712 63.2939C137.931 63.392 138.31 63.546 138.852 63.7558C140.506 64.3876 141.597 64.8843 142.123 65.2458C143.252 66.0127 143.816 67.1109 143.816 68.5397C143.816 69.9535 143.293 71.0593 142.248 71.8563C141.202 72.6541 139.942 73.0527 138.469 73.0527L138.468 73.0534Z" fill="#131E29"/>
<path d="M152.051 72.9175V58.7032H147.245V56.8977H158.842V58.7032H154.015V72.9175H152.051V72.9175Z" fill="#131E29"/>
</g>
<defs>
<clipPath id="clip0_2089_6003">
<rect width="162.61" height="72.7464" fill="white" transform="translate(0 0.634277)"/>
</clipPath>
</defs>
</svg>
