<?xml version="1.0" encoding="utf-8"?>
<!-- Generator: Adobe Illustrator 19.2.1, SVG Export Plug-In . SVG Version: 6.00 Build 0)  -->
<svg version="1.1" id="layer" xmlns="http://www.w3.org/2000/svg" xmlns:xlink="http://www.w3.org/1999/xlink" x="0px" y="0px"
	 viewBox="0 0 652 652" style="enable-background:new 0 0 652 652;" xml:space="preserve">
<path d="M583.9,324.8h-13.2l-3,14.6h-8.4l-2,8.8h8.6l-5.4,25.7c-0.4,1.7-0.6,3.4-0.6,4.6c-0.2,7.8,6.4,9.7,12.5,9.7
	c2.8,0,5.5-0.2,8.3-0.5l2.3-10.2c-1.6,0.2-3.1,0.2-4.7,0.2c-1.9,0-4.4-0.1-4.4-3.5c0-0.4,0.2-1.2,0.4-2.3l4.9-23.9h9.4l2-8.8H581
	L583.9,324.8L583.9,324.8z M514.9,387.4h13.2l4.4-21.2c1.8-8.2,5.4-15.8,15.5-15.8c1.8,0,3.7,0.5,5.5,0.8l2.7-12.8
	c-1.4-0.2-2.7-0.2-4.1-0.2c-7.1,0-13.5,3.5-16.5,10.1l-0.2-0.2l1.9-8.6h-12.5L514.9,387.4L514.9,387.4z M475.2,368
	c0-8,4.3-19.9,13.9-19.9c6.8,0,9.6,4.2,9.6,10.6c0,8-4.3,20.1-14.1,20.1C478.5,378.8,475.2,373.6,475.2,368 M462,368
	c0,13.7,8.6,20.7,22,20.7c17.4,0,27.9-13.3,27.9-30.2c0-13.8-9.2-20.3-22.3-20.3C472.5,338.1,462,351.7,462,368 M398.8,404.2H412
	l5-23.3h0.2c2,5.3,7.9,7.7,13.4,7.7c17.7,0,26-15.8,26-31.7c0-11.5-6.7-18.9-18.2-18.9c-5.9,0-11.4,2.3-14.4,7.4l-0.2-0.2l1.3-5.9
	h-12.7L398.8,404.2L398.8,404.2z M434.3,348.1c6.2,0,9.4,4.9,9.4,10.7c0,8.4-4.4,20-14.4,20c-6.4,0-9.5-4.3-9.5-10.4
	C419.8,360.1,424.4,348.1,434.3,348.1 M400.4,353.4c0.2-12.3-9.2-15.3-19.7-15.3c-9.2,0-21.2,3.9-21.2,15.2
	c0,7.5,3.8,10.1,10.4,12.2l10.1,3.2c2.9,1,4.7,1.9,4.7,5.3c0,4.3-4.3,5.8-8.4,5.8c-4.6,0-9.5-2.2-9.5-6.5v-1.6h-12.2v1.9
	c0,11.3,11,15,20.4,15c11,0,22.8-4.4,22.8-16.3c0-8-5.5-11.4-12.6-13.7l-6.6-2.2c-4.4-1.4-6-2.7-6-4.8c0-3.5,3.5-4.7,8-4.7
	c5,0,7.3,2.4,7.4,6.5L400.4,353.4L400.4,353.4z M298.5,387.4h13.2l5.4-25.5c1.4-6.7,5.5-13.3,13.4-13.3c3.1,0,6.3,2,6.3,4.9
	c0,1.3-0.5,4.4-0.8,5.9l-5.9,28.1h13.2l5.9-28.1c0.4-1.7,1.4-6.3,1.4-8.3c0-8.4-4.9-12.9-14-12.9c-6.8,0-12.5,2.7-16.8,8h-0.2
	l1.4-6.7h-12.6L298.5,387.4L298.5,387.4z M264.6,354c0.8-4.8,5-7.1,9.7-7.1c3.4,0,8.4,1.1,8.4,5.9c0,6.1-5.9,5.5-18.2,7
	c-11.4,1.4-18.4,7.2-18.4,16.3c0,6.7,5.1,12.6,15.6,12.6c5.4,0,11-1.9,14.6-6v4.7h13.2c-0.2-0.8-0.5-1.9-0.5-2.8
	c0-1.8,0.2-4.8,0.6-6.5l4.3-19.3c0.6-3,1-6,1-8c0.2-10.8-11.4-12.6-19.9-12.6c-10.9,0-21.1,3.8-22.7,15.8H264.6L264.6,354z
	 M278.9,369c-1.4,5.2-4.2,10.9-12.4,10.9c-3.8,0-7.2-1.8-7.2-5.4c0-6,4.7-7.2,9.7-7.8c3.8-0.2,7.8-0.4,11.1-2.3L278.9,369L278.9,369
	z M209,387.4h13.2l4.4-21.2c1.8-8.2,5.4-15.8,15.5-15.8c1.8,0,3.7,0.5,5.5,0.8l2.7-12.8c-1.4-0.2-2.7-0.2-4.1-0.2
	c-7.1,0-13.6,3.5-16.5,10.1l-0.2-0.2l1.9-8.6H219L209,387.4L209,387.4z M175.2,387.4h14.6l11.3-54H221l2.6-12.2h-55.3l-2.6,12.2
	h20.8L175.2,387.4L175.2,387.4z M562.5,302h13.2l14.1-66.2h-13.2L562.5,302z M524.1,282.6c0-8,4.3-19.9,13.9-19.9
	c6.8,0,9.6,4.2,9.6,10.6c0,8-4.3,20.1-14.1,20.1C527.3,293.4,524.1,288.3,524.1,282.6 M510.9,282.6c0,13.7,8.6,20.7,22,20.7
	c17.4,0,27.9-13.3,27.9-30.2c0-13.8-9.2-20.3-22.3-20.3C521.4,252.8,510.9,266.4,510.9,282.6 M470.4,282.6c0-8,4.3-19.9,13.9-19.9
	c6.8,0,9.6,4.2,9.6,10.6c0,8-4.3,20.1-14.1,20.1C473.6,293.4,470.4,288.3,470.4,282.6 M457.2,282.6c0,13.7,8.6,20.7,22,20.7
	c17.4,0,27.9-13.3,27.9-30.2c0-13.8-9.2-20.3-22.3-20.3C467.7,252.8,457.2,266.4,457.2,282.6 M395.3,318.9h13.2l5-23.3h0.2
	c2,5.3,7.9,7.7,13.4,7.7c17.7,0,26-15.8,26-31.7c0-11.5-6.7-18.9-18.2-18.9c-5.9,0-11.4,2.3-14.4,7.4l-0.2-0.2l1.3-5.9h-12.7
	L395.3,318.9L395.3,318.9z M430.8,262.7c6.2,0,9.4,4.9,9.4,10.7c0,8.4-4.4,20-14.4,20c-6.4,0-9.5-4.3-9.5-10.4
	C416.3,274.7,421,262.7,430.8,262.7 M349.4,302h13.2l3.2-15.6l6.8-5.9l7.9,21.5h14.5l-12.3-29.7l21.5-18.2H388L369.1,272l-0.2-0.2
	l7.6-36h-13.2L349.4,302L349.4,302z M349.4,270.6c-0.2-12.7-9.8-17.9-21.5-17.9c-17.3,0-27.1,13.7-27.1,30c0,14,8,20.6,21.3,20.6
	c12.5,0,20.8-6.8,24.8-18.8h-13.2c-1.4,4.7-4.8,8.9-10.7,8.9c-6.7,0-9.1-4.7-9.1-10.4c0-8.3,3.5-20.3,13.4-20.3c5.8,0,8.8,2.3,8.8,8
	H349.4L349.4,270.6z M266.3,268.6c0.8-4.8,5-7.1,9.7-7.1c3.4,0,8.4,1.1,8.4,5.9c0,6.1-5.9,5.5-18.2,7c-11.4,1.4-18.4,7.2-18.4,16.3
	c0,6.7,5.1,12.6,15.6,12.6c5.4,0,11-1.9,14.6-6v4.7h13.2c-0.2-0.8-0.5-1.9-0.5-2.8c0-1.8,0.2-4.8,0.6-6.5l4.3-19.3c0.6-3,1-6,1-8
	c0.2-10.8-11.4-12.6-19.9-12.6c-10.9,0-21.1,3.8-22.7,15.8H266.3L266.3,268.6z M280.6,283.7c-1.4,5.2-4.2,10.9-12.4,10.9
	c-3.8,0-7.2-1.8-7.2-5.4c0-6,4.7-7.2,9.7-7.8c3.8-0.2,7.8-0.4,11.1-2.3L280.6,283.7L280.6,283.7z M225.1,302h13.2l14.1-66.2h-13.2
	L225.1,302z M185.9,247.1h15.4c4.7,0,7.7,1.8,7.7,6.8c0,5.8-4.6,8.7-9.8,8.7h-16.5L185.9,247.1z M160.3,302h35.4
	c13.3,0,25.3-7.3,25.3-21.7c0-6.4-3.5-11.8-9.8-13.4v-0.2c7.8-1,12.5-7.9,12.5-15.4c0-12.6-8.3-15.5-21.5-15.5h-27.8L160.3,302
	L160.3,302z M180.6,272.5h14.3c5.3,0,11.5,0.6,11.5,7.5c0,7.1-4.8,10.7-11.4,10.7h-18.2L180.6,272.5L180.6,272.5z M126.9,144.7
	c-0.5,0-1,0.4-1,1v7.6c-0.4,1.8-1.2,4.2-1.2,5.6c0,2-4.3,7.1-4.3,8.6s0.1,6.7,0.1,8c0,1.3-3.6,2.2-3.6,4v6.9c0,1.7-3.5,1.5-3.5,3.4
	v7.6c0,1.4-4.2,1.8-4.2,4.4v12c0,1.4,4.3,4.9,4.3,10.5c0,50.6-4.3,104.4-10.1,135.1c-1.9,10.2,36.7,28.1,52.9,28.1
	c-8.9-30.4-16.2-103.5-16.2-163.2c0-5.5,4.3-9.1,4.3-10.5v-12c0-2.6-4.2-3.1-4.2-4.4v-7.6c0-1.8-3.5-1.7-3.5-3.4v-6.9
	c0-1.8-3.6-2.7-3.6-4s0.1-6.5,0.1-8s-4.3-6.6-4.3-8.6c0-1.4-0.8-3.9-1.2-5.6v-2.7c0.6,0.1,1.4-0.1,2.3-0.2c1.8-0.2,3.9-0.5,5.1,0.7
	l-0.1-4.9c-0.5-1.3-1.8-0.9-3.5-0.5c-1.4,0.3-2.8,0.6-3.9-0.2C127.8,145.2,127.3,144.7,126.9,144.7L126.9,144.7z"/>
<path d="M631.1,419.8C631.2,419.8,631.2,419.8,631.1,419.8C631.2,419.8,631.2,419.8,631.1,419.8
	C631.2,419.8,631.2,419.8,631.1,419.8C631.2,419.8,631.2,419.8,631.1,419.8c-1.2,0.1-496.3,34.2-546.2-44.8
	c-7.3-11.6-8.5-30.6,11.4-47.8c-27.7,2.3-74.9,20.3-63.4,60.2C64.1,495.8,624.3,420.8,631.1,419.8
	C631.1,419.8,631.2,419.8,631.1,419.8C631.2,419.8,631.1,419.8,631.1,419.8L631.1,419.8z"/>
</svg>
