<?xml version="1.0" encoding="utf-8"?>
<!-- Generator: Adobe Illustrator 21.1.0, SVG Export Plug-In . SVG Version: 6.00 Build 0)  -->
<svg version="1.1" id="Layer_1" xmlns="http://www.w3.org/2000/svg" xmlns:xlink="http://www.w3.org/1999/xlink" x="0px" y="0px"
	 viewBox="0 0 793.5 195.3" style="enable-background:new 0 0 793.5 195.3;" xml:space="preserve">
<style type="text/css">
	.st0{fill:#81C7ED;}
	.st1{fill:#0067B2;}
	.st2{fill:#109BD5;}
	.st3{fill:#1C2D47;}
</style>
<path class="st0" d="M50.9,69c-13,0-23.5-8.4-23.6-23.9c0.1-15.5,10.6-23.9,23.6-23.9c5.8,0,10.4,0.9,14.3,2.4
	c1.3-4.6,2.9-14.9-7.6-17.9c-4.1-1.1-5.7-1.5-12.1-1.5C20.2,4.2,3.9,20.5,3.9,45.1l0,0l0,0l0,0l0,0C3.9,69.6,20.2,86,45.5,86
	c6.4,0,8.1-0.4,12.1-1.5c10.5-2.9,8.9-13.3,7.6-17.9C61.3,68.1,56.7,69,50.9,69z"/>
<path class="st1" d="M45.4,4.2C26.1,4.2,11.8,15.1,11.8,34c0,0.5,0,1.1,0,1.7l0,0c0.1,2.5,0.4,4.9,1,7.2l0,0V43l0,0v0.1l0,0v0.1l0,0
	v0.1l0,0c0,0,0,0,0,0.1l0,0c0,0,0,0,0,0.1l0,0c0,0,0,0,0,0.1l0,0c0,0,0,0,0,0.1l0,0c0,0,0,0,0,0.1l0,0c0,0,0,0,0,0.1l0,0l0,0l0,0
	l0,0l0,0l0,0l0,0l0,0c0,0,0,0,0,0.1l0,0c0,0,0,0,0,0.1l0,0c0,0,0,0,0,0.1l0,0c0,0,0,0,0,0.1l0,0c0,0,0,0,0,0.1l0,0v0.1l0,0
	c3.6,12.1,13.4,21.1,31.7,23.9c-13.7-2.7-23.7-15.7-23.7-31.3C20.8,19.6,34,5.3,50.2,5.3c3.8,0,7.7,0.8,11.1,2.3
	C58.7,5.3,51.8,4,45.4,4.2"/>
<path class="st2" d="M65.1,66.6c-5.4,4.4-12.9,6.8-22.5,7c-18,0.5-34-11.2-38.7-27C4.6,70.3,20.6,86,45.5,86c6.4,0,8.1-0.4,12.1-1.5
	C68.1,81.5,66.4,71.2,65.1,66.6L65.1,66.6z"/>
<path class="st3" d="M50.7,5.3c-16.2,0-29.4,14.2-29.4,31.8c0,15.6,10,28.6,23.7,31.3c-10.1-2.2-17.6-10.2-17.7-23.3
	c0.1-15.5,10.6-23.9,23.6-23.9c5.8,0,10.4,0.9,14.3,2.4c1.1-3.9,2.4-11.7-3.3-15.9C58.3,6.1,54.5,5.3,50.7,5.3z"/>
<path class="st3" d="M707,131.1l14,33.6l14.1-33.6h7.2l-17.1,40.1c-0.9,2.1-2.2,3.1-4.2,3.1c-1.9,0-3.2-1-4.1-3.1l-17.1-40.1H707z
	 M674.9,130.2c-9.3,0-15.7,6.5-15.7,15.7v28.5c4.1-0.2,6.5-2.6,6.5-6.6v-22.3c0-5.5,3.8-9.3,9.2-9.3c2.7,0,4,0.7,5.8,2.3l3.9-4.6
	C681.7,131.2,678.9,130.2,674.9,130.2 M648.1,130.2c-9.3,0-15.7,6.5-15.7,15.7v28.5c4.1-0.2,6.5-2.6,6.5-6.6v-22.3
	c0-5.5,3.8-9.3,9.2-9.3c2.7,0,4,0.7,5.8,2.3l3.9-4.6C654.9,131.2,652.1,130.2,648.1,130.2 M764.9,130.2c12.5,0,22.4,9.7,22.4,22.1
	v22.1c-3.6-0.2-6-2.2-6.5-5.4l-0.2-1l-0.8,0.7c-4.2,3.7-9.5,5.7-14.9,5.7c-12.7,0-22.2-9.5-22.2-22.1
	C742.7,139.7,752.2,130.2,764.9,130.2 M764.9,168.3c8.9,0,15.8-7.1,15.8-16.1s-7-16.1-15.8-16.1s-15.7,7.1-15.7,16.1
	C749.2,161.3,756.1,168.3,764.9,168.3 M601.4,130.2c12.5,0,22.4,9.7,22.4,22.1v22.1c-3.9-0.2-6.4-2.2-6.5-5.3v-1.2l-0.9,0.8
	c-4.2,3.7-9.5,5.7-14.9,5.7c-12.7,0-22.2-9.5-22.2-22.1C579.2,139.7,588.7,130.2,601.4,130.2 M601.4,168.3c8.9,0,15.8-7.1,15.8-16.1
	s-7-16.1-15.8-16.1s-15.7,7.1-15.7,16.1C585.7,161.3,592.6,168.3,601.4,168.3 M688.8,131.1v43.2c4.1-0.2,6.5-2.6,6.5-6.6V131h-6.5
	V131.1z M692.1,116.8c-2.4,0-4.3,1.9-4.3,4.3c0,2.3,2,4.2,4.3,4.2s4.2-1.9,4.2-4.2C696.3,118.8,694.4,116.8,692.1,116.8
	 M516.8,152.2c0-12.6-9.2-21.8-21-21.8c-6.9,0-12,2.8-15.3,7v-28h-6.6v63.8h6.6V167c3.3,4.3,8.4,7,15.3,7
	C507.6,174,516.8,164.8,516.8,152.2 M480.1,152.2c0-8.9,6.2-15.6,14.9-15.6c8.9,0,15,7,15,15.6c0,8.7-6,15.6-15,15.6
	C486.3,167.8,480.1,161.1,480.1,152.2 M563.4,131.2h-7.3l-14.8,26.3l-15.6-26.3h-7.4l19.3,32.9l-15.6,27h7.3L563.4,131.2z"/>
<path class="st2" d="M506,14.1c0,4.7-3.8,8.4-8.4,8.4s-8.4-3.8-8.4-8.4c0-4.7,3.8-8.4,8.4-8.4S506,9.5,506,14.1z M489.5,32.5V79
	c0,3,2.3,5.4,5.3,5.6l0,0h0.4h10.7v-5.7v-4.6V32.4c0-3.1-2.5-5.7-5.7-5.7h-10.7V32.5L489.5,32.5z"/>
<path class="st2" d="M516.2,6h10.7c3.1,0,5.7,2.5,5.7,5.7v73.1h-10.7c-3.1,0-5.7-2.5-5.7-5.7V6z"/>
<circle class="st3" cx="145.2" cy="14.2" r="8.4"/>
<path class="st3" d="M107.7,25.9c-8.3,0-13.2,4.4-16.9,9.3V11.7c0-3.1-2.5-5.7-5.7-5.7H74.4v73.1c0,3.1,2.4,5.5,5.4,5.7l0,0H80h5.1
	h5.7V52.5c0-7.8,4-11.8,10.3-11.8s9.9,4,9.9,11.8v26.6c0,3.1,2.5,5.7,5.7,5.7h5.1h5.7V47.4C127.3,34.1,120.1,25.9,107.7,25.9z"/>
<path class="st3" d="M137.1,32.6v-5.7h10.7c3.1,0,5.7,2.5,5.7,5.7v41.9v4.6v5.7h-10.7h-0.4l0,0c-2.9-0.2-5.3-2.7-5.3-5.6L137.1,32.6
	L137.1,32.6z"/>
<path class="st3" d="M163.9,6.1h10.7c3.1,0,5.7,2.5,5.7,5.7v73.1h-10.7c-3.1,0-5.7-2.5-5.7-5.7V6.1z"/>
<path class="st3" d="M303.3,38.6v-6c0-3.1-2.5-5.6-5.5-5.7h-10.9v52.2c0,3.1,2.5,5.7,5.7,5.7h10.8l-0.1-21.4
	c0-13.8,6.7-20.4,17.6-20.4h0.9V25.8C312.1,25.4,306.7,30.6,303.3,38.6z"/>
<path class="st3" d="M361.9,25.9c-8.3,0-13.2,4.4-16.9,9.3v-2.5c0-3.1-2.5-5.7-5.7-5.7h-10.7v5.6v8.2v38.3c0,3.1,2.5,5.7,5.7,5.7
	l0,0H345V52.5c0-7.8,4-11.8,10.3-11.8s9.9,4,9.9,11.8v26.6l0,0c0,3.1,2.5,5.7,5.7,5.7l0,0h5h5.7V47.3
	C381.5,34.1,374.3,25.9,361.9,25.9z"/>
<path class="st3" d="M280.9,55.6c-0.5-15.9-9.4-30-28.2-30c-16.8,0-28.6,13.6-28.6,30.1v0.2c0,17.7,12.8,29.9,30.2,29.9
	c10.5,0,18.2-4.1,23.6-10.8l-9.4-8.3c-4.5,4.2-8.5,5.9-14,5.9c-7.3,0-12.5-3.9-14.1-11.3h33.9C274.4,61.3,280.6,61.4,280.9,55.6z
	 M240.2,51L240.2,51c0.6-3.7,2.1-6.8,4.2-8.9c0.4-0.4,0.9-0.8,1.3-1.1c0.2-0.2,0.5-0.3,0.7-0.5c1.8-1.1,3.9-1.7,6.3-1.7
	c2.6,0,4.8,0.7,6.6,2c0.9,0.6,1.7,1.4,2.4,2.3c0.5,0.6,0.9,1.2,1.3,1.9c0.4,0.7,0.7,1.5,1,2.2c0.4,1.2,0.7,2.5,0.9,3.9L240.2,51
	L240.2,51z"/>
<path class="st2" d="M406.9,38.6v-6c0-3.1-2.5-5.6-5.5-5.7h-10.9v52.2c0,3.1,2.5,5.7,5.7,5.7H407l-0.1-21.4
	c0-13.8,6.7-20.4,17.6-20.4h0.9V25.8C415.7,25.4,410.3,30.6,406.9,38.6z"/>
<path class="st2" d="M435.2,37.4c0,0,0,0.1,0.1,0.3L435.2,37.4z"/>
<path class="st2" d="M473.5,32.7c-4.1-4.1-10.6-6.5-19.5-6.5c-9.8,0-16.1,1.8-22.5,4.6l2.2,6.7l0,0l0,0l0.1,0.3
	c0.4,1.2,2.4,5.2,8.6,3.4c0.7-0.2,1.3-0.3,1.8-0.4c2.3-0.4,4.6-0.7,7.4-0.7c8.2,0,12.4,3.8,12.4,10.6v1c-4.1-1.4-8.3-2.4-14.1-2.4
	c-13.7,0-23.3,5.8-23.3,18.5V68c0,11.4,9,17.7,19.9,17.7c8,0,13.5-2.9,17.5-7.3c0,0,0.3,6.3,7.1,6.3h8.8V51.1
	C479.8,43.3,477.8,37,473.5,32.7z M464.2,64.3c0,5.9-5.2,10.1-12.8,10.1c-5.3,0-9-2.6-9-7v-0.2c0-5.2,4.3-8,11.3-8
	c4,0,7.7,0.9,10.5,2.2V64.3z"/>
<path class="st2" d="M435.2,37.4L435.2,37.4L435.2,37.4z"/>
<path class="st2" d="M673.3,32.7c-4.1-4.1-10.6-6.5-19.5-6.5c-9.8,0-16.1,1.8-22.5,4.6l2.2,6.7l0,0l0,0l0.1,0.3
	c0.4,1.2,2.4,5.2,8.6,3.4c0.7-0.2,1.3-0.3,1.8-0.4c2.3-0.4,4.6-0.7,7.4-0.7c8.2,0,12.4,3.8,12.4,10.6v1c-4.1-1.4-8.3-2.4-14.1-2.4
	c-13.7,0-23.3,5.8-23.3,18.5V68c0,11.4,9,17.7,19.9,17.7c8,0,13.5-2.9,17.5-7.3c0,0,0.3,6.3,7.1,6.3h8.8V51.1
	C679.6,43.3,677.6,37,673.3,32.7z M664,64.3c0,5.9-5.2,10.1-12.8,10.1c-5.3,0-9-2.6-9-7v-0.2c0-5.2,4.3-8,11.3-8
	c4,0,7.7,0.9,10.5,2.2V64.3z"/>
<path class="st2" d="M591.1,77.9V78V77.9z"/>
<path class="st2" d="M620.1,27.1h-10.3l-9.5,34.7l-9-28.7c-1.9-6.9-5.7-6.2-5.7-6.2h-10.5l-10.9,34.8l-7.5-28
	c-1.5-7-6.4-6.6-6.4-6.6h-12l15.6,50.5c0,0.1,2.2,7.1,7.4,7.1h9.5l11.3-35.1l8.9,28l0,0l0,0v0.1c0.3,0.9,2.4,6.9,7.3,6.9h9.7
	l16.1-51.5C626.6,26.9,620.1,27.1,620.1,27.1z"/>
<path class="st2" d="M591.1,77.9L591.1,77.9L591.1,77.9z"/>
<path class="st2" d="M735.2,27L735.2,27h-10.6L712,66.4l-11-32.8c-2.5-7.2-8.5-6.6-8.5-6.6h-11l22.7,58.1c-1.4,2.9-2.9,3.8-5.7,3.8
	c-2.2,0-4.9-1-7-2.3L686,98.5c4.2,2.5,8.6,4,14.6,4c9.8,0,14.6-4.4,19-16.2L739,34.7C741.3,27.5,735.2,27,735.2,27z"/>
<path class="st2" d="M743.6,77.4c-0.3-0.2-0.7-0.4-1-0.7C742.8,76.9,743.1,77.1,743.6,77.4C743.5,77.3,743.5,77.3,743.6,77.4z"/>
<path class="st2" d="M782.4,30.5c-5.6-2.9-12-4.5-18-4.5c-11.7,0-21.2,6.6-21.2,18.4v0.2c0,11.2,9.2,15,17.3,17.4
	c6.4,1.9,12,3.1,12,6.7v0.2c0,2.6-2.2,4.3-6.9,4.3c-5.4,0-12-2.4-18.2-6.9l-4.8,7.4c-0.5,0.8-1.9,3.6,1,5.7c0.3,0.2,0.7,0.4,1,0.7
	c0.1,0.1,0.2,0.1,0.3,0.2c6.6,3.9,13.7,5.6,20.3,5.6c12.5,0,22.1-5.8,22.1-18.7V67c0-10.6-9.4-14.5-17.5-17.2
	c-6.3-2.2-11.8-3.7-11.8-6.9v-0.2c0-2.3,2.1-4,6-4c4.2,0,9.9,2.1,15.7,5.4l4.4-7.9C786,32.6,782.6,30.7,782.4,30.5z"/>
<path class="st2" d="M743.9,77.6c-0.1-0.1-0.2-0.1-0.3-0.2C743.7,77.4,743.8,77.5,743.9,77.6z"/>
<path class="st3" d="M215.5,41c2.4-0.1,4.5-2.8,4.5-5.6v-8.5h-13.6v-8.7c0-6.1-5.6-6.1-5.6-6.1h-10.9v56.2
	c0,13.4,6.8,17.4,16.8,17.4c5.5,0,9.5-1.3,13-3.3V69.2c-2.4,1.3-5.1,2.1-8.1,2.1c-3.7,0-5.3-1.8-5.3-5.6V41
	C206.4,41,215.1,41,215.5,41z"/>
</svg>
