<svg xmlns="http://www.w3.org/2000/svg" width="278.158" height="48" viewBox="0 0 278.158 48"><defs><clipPath id="a"><path fill="none" d="M0 0h278.158v48H0z"/></clipPath></defs><g clip-path="url(#a)"><path d="M2.85 27.775a1.865 1.865 0 0 0 .522 1.365 1.809 1.809 0 0 0 1.344.529h5.308a2.7 2.7 0 0 0 .916-.128 1.447 1.447 0 0 0 .537-.322 1.077 1.077 0 0 0 .268-.434c.053-.158.1-.316.143-.465a.618.618 0 0 1 .695-.546H14.2a.558.558 0 0 1 .411.162.569.569 0 0 1 .156.417 6.856 6.856 0 0 1-.093.883 3.15 3.15 0 0 1-.524 1.27 3.782 3.782 0 0 1-1.35 1.157 5.294 5.294 0 0 1-2.559.514H4.429A4.325 4.325 0 0 1 1.2 30.959 4.46 4.46 0 0 1 0 27.682v-7.064a4.456 4.456 0 0 1 1.2-3.275 4.322 4.322 0 0 1 3.225-1.22h5.817a5.277 5.277 0 0 1 2.559.514 3.8 3.8 0 0 1 1.342 1.156 3.144 3.144 0 0 1 .524 1.285 7.246 7.246 0 0 1 .093.866.577.577 0 0 1-.156.419.557.557 0 0 1-.411.16h-1.61a.618.618 0 0 1-.695-.546c-.044-.15-.089-.3-.143-.465a1.078 1.078 0 0 0-.268-.432 1.437 1.437 0 0 0-.537-.322 2.7 2.7 0 0 0-.916-.129H4.716a1.812 1.812 0 0 0-1.344.529 1.865 1.865 0 0 0-.522 1.365Zm27.023-7.414a.549.549 0 0 1-.409.16h-1.613a.619.619 0 0 1-.695-.546c-.042-.15-.089-.3-.143-.465a1.078 1.078 0 0 0-.268-.432 1.453 1.453 0 0 0-.537-.322 2.7 2.7 0 0 0-.916-.129h-3.476a1.8 1.8 0 0 0-1.342.529 1.865 1.865 0 0 0-.522 1.365V31.6a.57.57 0 0 1-.158.417.554.554 0 0 1-.411.16h-1.71a.551.551 0 0 1-.411-.16.568.568 0 0 1-.16-.417V20.616a4.464 4.464 0 0 1 1.2-3.275 4.319 4.319 0 0 1 3.225-1.22h3.983a5.285 5.285 0 0 1 2.561.514 3.8 3.8 0 0 1 1.342 1.156 3.166 3.166 0 0 1 .522 1.285 7.246 7.246 0 0 1 .093.866.57.57 0 0 1-.158.419m17.141 7.319a4.474 4.474 0 0 1-1.2 3.277 4.322 4.322 0 0 1-3.225 1.219h-6.268a4.323 4.323 0 0 1-3.227-1.219 4.467 4.467 0 0 1-1.2-3.277v-7.064a4.462 4.462 0 0 1 1.2-3.275 4.317 4.317 0 0 1 3.227-1.22h6.264a4.313 4.313 0 0 1 3.225 1.22 4.464 4.464 0 0 1 1.2 3.275Zm16.454 3.307a4.128 4.128 0 0 1-3.149 1.188h-6.493a5.3 5.3 0 0 1-2.565-.514 3.8 3.8 0 0 1-1.346-1.156 3.182 3.182 0 0 1-.524-1.27 6.857 6.857 0 0 1-.093-.883.563.563 0 0 1 .158-.417.552.552 0 0 1 .411-.162h1.582a.618.618 0 0 1 .695.546 2.04 2.04 0 0 0 .126.465 1.459 1.459 0 0 0 .286.449 1.507 1.507 0 0 0 .539.354 2.413 2.413 0 0 0 .92.147h5.948a1.785 1.785 0 0 0 1.377-.5 2.7 2.7 0 0 0 .459-1.814 2.179 2.179 0 0 0-.522-1.715 2.315 2.315 0 0 0-1.438-.466l-6.1-.129a4.676 4.676 0 0 1-3.145-1.028 4.465 4.465 0 0 1-1.123-3.467 4.493 4.493 0 0 1 1.142-3.452 4.676 4.676 0 0 1 3.263-1.043h5.879a5.277 5.277 0 0 1 2.559.514 3.784 3.784 0 0 1 1.342 1.156 3.17 3.17 0 0 1 .524 1.285 7.384 7.384 0 0 1 .1.866.578.578 0 0 1-.158.419.555.555 0 0 1-.413.16h-1.585a.619.619 0 0 1-.695-.546c-.042-.15-.091-.3-.143-.465a1.266 1.266 0 0 0-.268-.449 1.5 1.5 0 0 0-.537-.354 2.416 2.416 0 0 0-.918-.147h-4.992a3 3 0 0 0-1.786.4 2.133 2.133 0 0 0-.522 1.719q0 1.282.472 1.62a2.574 2.574 0 0 0 1.394.371l6.2.128a7.44 7.44 0 0 1 1.8.255 3.191 3.191 0 0 1 1.342.756 3.3 3.3 0 0 1 .832 1.412 7.171 7.171 0 0 1 .284 2.167 5.057 5.057 0 0 1-1.123 3.6m17.273 0a4.119 4.119 0 0 1-3.145 1.188h-6.475a5.285 5.285 0 0 1-2.561-.514 3.807 3.807 0 0 1-1.344-1.156 3.145 3.145 0 0 1-.52-1.27 6.615 6.615 0 0 1-.1-.883.577.577 0 0 1 .156-.417.552.552 0 0 1 .411-.162h1.578a.619.619 0 0 1 .695.546 2.048 2.048 0 0 0 .128.465 1.394 1.394 0 0 0 .821.8 2.394 2.394 0 0 0 .914.147h5.937a1.784 1.784 0 0 0 1.373-.5 2.712 2.712 0 0 0 .459-1.814 2.187 2.187 0 0 0-.52-1.715 2.3 2.3 0 0 0-1.434-.466l-6.087-.126a4.659 4.659 0 0 1-3.138-1.028 4.472 4.472 0 0 1-1.12-3.467 4.486 4.486 0 0 1 1.144-3.452 4.674 4.674 0 0 1 3.262-1.043h5.879a5.29 5.29 0 0 1 2.561.514 3.818 3.818 0 0 1 1.342 1.156 3.171 3.171 0 0 1 .524 1.285 7.248 7.248 0 0 1 .093.866.578.578 0 0 1-.158.419.554.554 0 0 1-.411.16h-1.577a.619.619 0 0 1-.695-.546c-.042-.15-.089-.3-.143-.465a1.213 1.213 0 0 0-.268-.449 1.489 1.489 0 0 0-.535-.354 2.4 2.4 0 0 0-.916-.147h-4.995a3 3 0 0 0-1.786.4 2.134 2.134 0 0 0-.52 1.719q0 1.282.474 1.62a2.552 2.552 0 0 0 1.388.371l6.182.128a7.407 7.407 0 0 1 1.8.255 3.184 3.184 0 0 1 1.34.756 3.311 3.311 0 0 1 .836 1.411 7.166 7.166 0 0 1 .286 2.167 5.12 5.12 0 0 1-1.131 3.6m6.921-1.845a1.8 1.8 0 0 0 1.341.531h5.31a2.7 2.7 0 0 0 .918-.128 1.446 1.446 0 0 0 .537-.322 1.139 1.139 0 0 0 .27-.434c.051-.158.1-.316.141-.465a.619.619 0 0 1 .695-.546h1.613a.566.566 0 0 1 .413.162.578.578 0 0 1 .158.417 7.227 7.227 0 0 1-.093.883 3.143 3.143 0 0 1-.522 1.268 3.8 3.8 0 0 1-1.34 1.156 5.307 5.307 0 0 1-2.561.514h-5.818a4.32 4.32 0 0 1-3.227-1.22 4.465 4.465 0 0 1-1.2-3.275v-7.064a4.455 4.455 0 0 1 1.2-3.273 4.32 4.32 0 0 1 3.227-1.22h5.811a5.285 5.285 0 0 1 2.561.514 3.818 3.818 0 0 1 1.342 1.156 3.166 3.166 0 0 1 .522 1.285 7.685 7.685 0 0 1 .093.866.57.57 0 0 1-.158.417.558.558 0 0 1-.413.16h-1.612a.62.62 0 0 1-.695-.546c-.042-.15-.091-.307-.141-.465a1.118 1.118 0 0 0-.27-.432 1.422 1.422 0 0 0-.537-.322 2.692 2.692 0 0 0-.918-.129H89a1.8 1.8 0 0 0-1.342.529 1.858 1.858 0 0 0-.522 1.365v7.254a1.879 1.879 0 0 0 .525 1.365m28.822-1.462a4.467 4.467 0 0 1-1.2 3.275 4.322 4.322 0 0 1-3.227 1.22h-6.266a4.313 4.313 0 0 1-3.225-1.22 4.467 4.467 0 0 1-1.2-3.275v-7.064a4.456 4.456 0 0 1 1.2-3.273 4.316 4.316 0 0 1 3.225-1.22h6.266a4.32 4.32 0 0 1 3.227 1.22 4.462 4.462 0 0 1 1.2 3.273Zm16.576 3.275a4.325 4.325 0 0 1-3.223 1.22h-6.1a4.316 4.316 0 0 1-3.225-1.22 4.474 4.474 0 0 1-1.2-3.275V16.862a.568.568 0 0 1 .16-.419.551.551 0 0 1 .411-.162h1.71a.555.555 0 0 1 .413.162.575.575 0 0 1 .158.419v10.913a1.872 1.872 0 0 0 .52 1.365 1.809 1.809 0 0 0 1.344.529h5.527a1.8 1.8 0 0 0 1.342-.529 1.864 1.864 0 0 0 .52-1.365V16.862a.575.575 0 0 1 .158-.419.549.549 0 0 1 .413-.162h1.71a.541.541 0 0 1 .409.162.576.576 0 0 1 .16.419V27.68a4.45 4.45 0 0 1-1.2 3.275m19.12.644a.563.563 0 0 1-.158.417.554.554 0 0 1-.411.16H149.9a.552.552 0 0 1-.413-.16.56.56 0 0 1-.158-.417V20.521a1.864 1.864 0 0 0-.52-1.365 1.807 1.807 0 0 0-1.342-.529h-5.529a1.812 1.812 0 0 0-1.344.529 1.864 1.864 0 0 0-.52 1.365V31.6a.57.57 0 0 1-.158.417.554.554 0 0 1-.411.16h-1.71a.555.555 0 0 1-.413-.16.569.569 0 0 1-.16-.417V20.616a4.456 4.456 0 0 1 1.2-3.273 4.317 4.317 0 0 1 3.223-1.22h6.1a4.306 4.306 0 0 1 3.223 1.22 4.461 4.461 0 0 1 1.2 3.273Zm13.718 0a.564.564 0 0 1-.16.417.554.554 0 0 1-.411.16h-5.782a4.323 4.323 0 0 1-3.227-1.22 4.459 4.459 0 0 1-1.2-3.275V13.04a.563.563 0 0 1 .158-.417.544.544 0 0 1 .411-.16h1.71a.546.546 0 0 1 .411.16.57.57 0 0 1 .158.417v3.241h4.2a.551.551 0 0 1 .411.162.575.575 0 0 1 .158.419v1.346a.567.567 0 0 1-.158.419.558.558 0 0 1-.411.162h-4.2v8.989a1.865 1.865 0 0 0 .522 1.365 1.807 1.807 0 0 0 1.342.529h5.5a.548.548 0 0 1 .411.162.573.573 0 0 1 .16.419V31.6Zm14.736-11.238a.551.551 0 0 1-.411.16h-1.611a.622.622 0 0 1-.7-.546c-.044-.15-.089-.307-.139-.465a1.118 1.118 0 0 0-.27-.432 1.446 1.446 0 0 0-.539-.322 2.676 2.676 0 0 0-.914-.129h-3.476a1.8 1.8 0 0 0-1.342.529 1.865 1.865 0 0 0-.522 1.365V31.6a.57.57 0 0 1-.158.417.555.555 0 0 1-.413.16h-1.712a.557.557 0 0 1-.411-.16.566.566 0 0 1-.156-.417V20.616a4.448 4.448 0 0 1 1.2-3.273 4.32 4.32 0 0 1 3.227-1.22h3.981a5.285 5.285 0 0 1 2.561.514 3.793 3.793 0 0 1 1.34 1.156 3.2 3.2 0 0 1 .524 1.285 7.688 7.688 0 0 1 .093.866.56.56 0 0 1-.156.417m17.023 7.319a4.464 4.464 0 0 1-1.2 3.275 4.314 4.314 0 0 1-3.222 1.22H191.6v4.431a.576.576 0 0 1-.156.419.549.549 0 0 1-.411.16h-1.712a.558.558 0 0 1-.413-.16.575.575 0 0 1-.158-.419v-4.431h-1.641a4.313 4.313 0 0 1-3.225-1.22 4.472 4.472 0 0 1-1.2-3.275V16.862a.567.567 0 0 1 .158-.419.545.545 0 0 1 .411-.162h1.71a.558.558 0 0 1 .413.162.573.573 0 0 1 .156.419v10.913a1.865 1.865 0 0 0 .522 1.365 1.8 1.8 0 0 0 1.34.529h5.558a1.81 1.81 0 0 0 1.342-.529 1.858 1.858 0 0 0 .522-1.365V16.862a.574.574 0 0 1 .156-.419.548.548 0 0 1 .411-.162h1.712a.551.551 0 0 1 .411.162.573.573 0 0 1 .156.419V27.68Zm-85.9-9.053h-5.693a1.812 1.812 0 0 0-1.344.529 1.865 1.865 0 0 0-.522 1.365v7.254a1.865 1.865 0 0 0 .522 1.365 1.812 1.812 0 0 0 1.344.529h5.693a1.8 1.8 0 0 0 1.344-.529 1.865 1.865 0 0 0 .522-1.365v-7.254a1.865 1.865 0 0 0-.522-1.365 1.8 1.8 0 0 0-1.344-.529m-69.47 0H36.6a1.806 1.806 0 0 0-1.344.529 1.864 1.864 0 0 0-.52 1.365v7.254a1.864 1.864 0 0 0 .52 1.365 1.809 1.809 0 0 0 1.344.529h5.693a1.8 1.8 0 0 0 1.344-.529 1.858 1.858 0 0 0 .522-1.365v-7.254a1.868 1.868 0 0 0-.522-1.365 1.809 1.809 0 0 0-1.344-.529M233.7 9.309l10.807 3.039c.293.088.586.177.883.272a4.514 4.514 0 0 1 .882.4l4.221-11.106c.126-.341.232-.613.316-.815a1.386 1.386 0 0 0 .128-.5.487.487 0 0 0-.284-.444 1.494 1.494 0 0 0-.726-.155 8.053 8.053 0 0 0-.94.055l-9.64 1.152a4.362 4.362 0 0 0-.853.255 1.536 1.536 0 0 0-.758.7Zm3.876 28.51 8.286-22.277c.19-.533.152-.918-.11-1.152a2.688 2.688 0 0 0-1.024-.545l-30.559-8.864c-.358-.086-.689-.158-.992-.225a6.871 6.871 0 0 0-.916-.126c-.3-.021-.624-.027-.96-.017s-.714.038-1.135.08l-16.035 1.921c-.8.086-1.2.287-1.2.607q0 .417 1.1.737l34.749 9.954-15.91 28.006a2.044 2.044 0 0 0-.284.992.962.962 0 0 0 .329.767 1.615 1.615 0 0 0 .994.32 4.411 4.411 0 0 0 1.733-.385l19.282-7.233a5.673 5.673 0 0 0 1.575-.942 3.855 3.855 0 0 0 1.07-1.618m40.578-13.572c-.042-.3-.366-.533-.977-.7l-28.986-8.383a1.057 1.057 0 0 1 .046.447 1.777 1.777 0 0 1-.11.545l-2.42 6.974 18.933 5.377a7.19 7.19 0 0 0 1.938.27 4.662 4.662 0 0 0 1.529-.27l9.293-3.488c.55-.213.8-.47.758-.771" fill="#ca123f"/></g></svg>