<svg version="1.2" xmlns="http://www.w3.org/2000/svg" viewBox="0 0 1552 1354" width="1552" height="1354">
	<title>FGP</title>
	<defs>

	</defs>
	<style>
		.s0 { fill: #e50071 } 
	</style>
	<g id="Clip-Path: Page 1" clip-path="url(#cp1)">
		<g id="Page 1">
			<path id="Path 5" class="s0" d="m0.3 676.7c0-374 347.4-676.7 776-676.7 156.8 0 302.9 40.3 424.7 110.5-103.8 11.6-176.6 38.1-276.8 96.8-95.6 55.9-146 99.9-217.5 191.7h-293.1l-101.5 113.2h307.6l-450.3 586.3c-105.7-115.8-169.1-262.4-169.1-421.8zm1285.5-510.3c84 63.7 146.9 138 193.1 227.3h-476.2c18.9-48.4 58.7-89.3 73.7-108.2 43.9-55.1 119.6-102.7 209.4-119.1zm243.4 345.8c15 52.6 22.8 107.7 22.8 164.5 0 373.6-347.4 676.6-775.7 676.6-65.9 0-129.9-7.2-191.1-20.6l371.3-820.5z"/>
		</g>
	</g>
</svg>