<?xml version="1.0" encoding="UTF-8" standalone="no"?>
<!-- Created with Inkscape (http://www.inkscape.org/) -->

<svg
   xmlns:dc="http://purl.org/dc/elements/1.1/"
   xmlns:cc="http://creativecommons.org/ns#"
   xmlns:rdf="http://www.w3.org/1999/02/22-rdf-syntax-ns#"
   xmlns:svg="http://www.w3.org/2000/svg"
   xmlns="http://www.w3.org/2000/svg"
   xmlns:sodipodi="http://sodipodi.sourceforge.net/DTD/sodipodi-0.dtd"
   xmlns:inkscape="http://www.inkscape.org/namespaces/inkscape"
   width="587.82678"
   height="94.423882"
   viewBox="0 0 155.52916 24.982985"
   version="1.1"
   id="svg2431"
   inkscape:version="0.92.0 r15299"
   sodipodi:docname="go ahead.svg">
  <defs
     id="defs2425">
    <clipPath
       id="clipPath2291"
       clipPathUnits="userSpaceOnUse">
      <path
         inkscape:connector-curvature="0"
         id="path2289"
         d="M 422.614,51.646 H 569.182 V 28.443 H 422.614 v 23.203" />
    </clipPath>
  </defs>
  <sodipodi:namedview
     id="base"
     pagecolor="#ffffff"
     bordercolor="#666666"
     borderopacity="1.0"
     inkscape:pageopacity="0.0"
     inkscape:pageshadow="2"
     inkscape:zoom="1.5013555"
     inkscape:cx="287.09673"
     inkscape:cy="-2.5590652"
     inkscape:document-units="mm"
     inkscape:current-layer="layer1"
     showgrid="false"
     fit-margin-top="0"
     fit-margin-left="0"
     fit-margin-right="0"
     fit-margin-bottom="0"
     units="px"
     inkscape:window-width="1280"
     inkscape:window-height="744"
     inkscape:window-x="-4"
     inkscape:window-y="-4"
     inkscape:window-maximized="1" />
  <metadata
     id="metadata2428">
    <rdf:RDF>
      <cc:Work
         rdf:about="">
        <dc:format>image/svg+xml</dc:format>
        <dc:type
           rdf:resource="http://purl.org/dc/dcmitype/StillImage" />
        <dc:title></dc:title>
      </cc:Work>
    </rdf:RDF>
  </metadata>
  <g
     inkscape:label="Layer 1"
     inkscape:groupmode="layer"
     id="layer1"
     transform="translate(-115.45209,-204.31196)">
    <path
       d="m 172.31193,219.54733 h -12.46101 c -0.12676,1.61854 -0.63219,3.08589 -1.18827,4.37461 l 13.64928,-4.37461"
       style="fill:#de006e;fill-opacity:1;fill-rule:nonzero;stroke:none;stroke-width:0.35277775"
       id="path2283"
       inkscape:connector-curvature="0" />
    <g
       id="g2489"
       transform="translate(0.26458473,-0.26457612)">
      <path
         inkscape:connector-curvature="0"
         id="path2279"
         style="fill:#0078be;fill-opacity:1;fill-rule:nonzero;stroke:none;stroke-width:0.35277775"
         d="m 212.56708,215.96799 c 0,-2.27507 -1.3141,-3.74245 -4.22135,-3.74245 -2.72964,0 -5.10618,1.64392 -6.84947,3.7678 l 2.42622,-11.15222 -4.97933,1.31512 -4.95501,22.78443 h 4.70233 l 0.88488,-4.17165 c 0.80873,-3.81853 4.16954,-8.80103 6.67293,-8.80103 0.85949,0 1.3141,0.43027 1.3141,1.41662 0,0.3795 -0.0506,0.85949 -0.17651,1.41557 l -2.19895,10.14049 h 4.72667 l 2.45163,-11.27802 c 0.12677,-0.60684 0.20198,-1.16292 0.20198,-1.69466" />
      <path
         inkscape:connector-curvature="0"
         id="path2281"
         style="fill:#0078be;fill-opacity:1;fill-rule:nonzero;stroke:none;stroke-width:0.35277775"
         d="m 191.8653,228.94067 -1.64284,-8.97653 -4.49939,3.23603 0.98529,5.7405 h 5.15694" />
      <path
         inkscape:connector-curvature="0"
         id="path2293"
         style="fill:#0078be;fill-opacity:1;fill-rule:nonzero;stroke:none;stroke-width:0.35277775"
         d="m 138.45429,207.29485 c -2.0985,-0.55715 -4.37252,-0.93561 -6.92559,-0.93561 -9.47872,0 -16.07661,6.1951 -16.07661,14.46437 0,4.98253 3.03306,8.47121 10.36356,8.47121 2.78041,0 6.01644,-0.45457 8.64461,-1.31407 l 2.17461,-10.24199 -5.13155,1.31407 -1.28977,5.9435 c -1.01068,0.27809 -2.2243,0.42922 -3.5384,0.42922 -4.5501,0 -5.88955,-2.47806 -5.88955,-5.18337 0,-5.33561 3.84179,-9.96395 10.33818,-9.96395 2.07314,0 4.24671,0.45562 6.21836,1.18931 l 1.11215,-4.17269" />
      <path
         inkscape:connector-curvature="0"
         id="path2295"
         style="fill:#0078be;fill-opacity:1;fill-rule:nonzero;stroke:none;stroke-width:0.35277775"
         d="m 270.45209,204.84112 -4.97933,1.31512 -1.33945,6.19618 c -0.83411,-0.0761 -1.39022,-0.12676 -2.02241,-0.12676 -8.19,0 -12.00641,5.74052 -12.00641,11.96098 0,3.48976 1.54137,5.1083 4.39787,5.1083 3.71601,0 6.79981,-3.16096 8.3158,-5.58826 h 0.12676 c -0.9853,2.25073 -1.6936,3.96972 -2.27506,5.23411 h 4.62622 c 0.30237,-1.51704 0.80876,-4.09658 1.2126,-5.91707 z m -7.07678,10.92492 -0.22835,1.06141 c -0.73264,3.46546 -4.09447,8.82537 -6.74908,8.82537 -0.95991,0 -1.44092,-0.65649 -1.44092,-2.27506 0,-3.41362 1.997,-7.83899 6.31983,-7.83899 0.83411,0 1.49064,0.10039 2.09852,0.22715" />
      <path
         inkscape:connector-curvature="0"
         id="path2297"
         style="fill:#0078be;fill-opacity:1;fill-rule:nonzero;stroke:none;stroke-width:0.35277775"
         d="m 249.59915,212.73088 c -2.12388,-0.37846 -4.37356,-0.50534 -6.62324,-0.50534 -8.19001,0 -12.00644,5.74053 -12.00644,11.96098 0,3.48976 1.54137,5.1083 4.39786,5.1083 3.71602,0 6.79982,-3.16096 8.31581,-5.58826 h 0.12676 c -0.961,2.25073 -1.66826,3.96972 -2.27507,5.23411 h 4.62625 c 0.30339,-1.51704 0.80873,-4.09658 1.21257,-5.91707 z m -5.35991,3.03516 -0.22745,1.06141 c -0.73264,3.46546 -4.09448,8.82537 -6.74908,8.82537 -0.95992,0 -1.44092,-0.65649 -1.44092,-2.27506 0,-3.41362 1.99807,-7.83899 6.31982,-7.83899 0.83415,0 1.49169,0.10039 2.09748,0.22715" />
      <path
         inkscape:connector-curvature="0"
         id="path2299"
         style="fill:#0078be;fill-opacity:1;fill-rule:nonzero;stroke:none;stroke-width:0.35277775"
         d="m 230.48843,216.22064 c 0,-1.97164 -1.43987,-3.9951 -5.68658,-3.9951 -6.19403,0 -10.91965,4.65268 -10.91965,11.5064 0,3.64092 2.22433,5.56288 6.59682,5.56288 2.30045,0 5.1062,-0.73261 6.90026,-1.44092 v -3.23711 c -1.6672,0.73369 -3.6399,1.31515 -5.30812,1.31515 -2.27402,0 -3.46334,-0.50639 -3.46334,-2.37761 0,-0.37849 0.0761,-0.93562 0.10249,-1.28977 7.32946,-0.20198 11.77806,-2.12388 11.77806,-6.04392 z m -4.6759,0.55713 c 0,1.74437 -2.24969,2.5531 -6.57147,2.67995 0.758,-2.37653 2.22433,-4.19699 4.67594,-4.19699 1.18827,0 1.89553,0.60681 1.89553,1.51704" />
      <path
         inkscape:connector-curvature="0"
         id="path2301"
         style="fill:#0078be;fill-opacity:1;fill-rule:nonzero;stroke:none;stroke-width:0.35277775"
         d="m 190.19708,219.81191 -2.40192,-13.1239 h -5.40854 l -13.52351,22.25266 h 5.0047 l 2.85652,-4.82922 z m -5.03009,0 h -5.88955 l 2.65457,-4.5015 c 0.758,-1.28871 1.4399,-2.57953 1.99598,-3.74244 h 0.0506 c 0.0761,1.21364 0.20198,2.42834 0.40489,3.56588 l 0.78338,4.67806" />
      <path
         inkscape:connector-curvature="0"
         id="path2303"
         style="fill:#0078be;fill-opacity:1;fill-rule:nonzero;stroke:none;stroke-width:0.35277775"
         d="m 156.8567,218.67437 c 0,-4.19807 -2.40195,-6.44883 -7.81155,-6.44883 -6.09147,0 -10.59086,4.62834 -10.59086,10.49467 0,4.70342 3.23606,6.57461 7.75972,6.57461 6.04182,0 10.64269,-4.62729 10.64269,-10.62045 z m -4.90429,0.2781 c 0,3.28785 -1.97164,6.80191 -5.40959,6.80191 -2.1736,0 -3.18425,-1.13753 -3.18425,-2.95799 0,-3.26249 1.81941,-7.08103 5.56078,-7.08103 2.04776,0 3.03306,1.13858 3.03306,3.23711" />
    </g>
  </g>
</svg>
