<?xml version="1.0" encoding="UTF-8"?>
<svg id="vlpa" width="824.9" height="391.1" version="1.1" viewBox="0 0 824.9 391.1" xml:space="preserve" xmlns="http://www.w3.org/2000/svg"><title>London North Eastern Railway</title><g transform="translate(-8.5,-104.6)"><polygon class="st2" points="167.8 357.8 47.6 357.8 47.6 166.5 23.5 166.5 23.5 380.1 167.8 380.1" style="fill:#c82c30"/><polygon class="st2" points="243.8 244.3 387.2 432.6 387.2 166.5 340.8 166.5 340.8 298 197.4 109.6 197.4 380.1 243.8 380.1" style="fill:#c82c30"/><polygon class="st2" points="484.2 208.3 598.6 208.3 598.6 166.5 437.5 166.5 437.5 380.1 600.2 380.1 600.2 338.3 484.2 338.3 484.2 293.5 584.9 293.5 584.9 251.7 484.2 251.7" style="fill:#c82c30"/><path class="st2" d="m752.8 292.9c33.6-6.1 58-26.9 58-62.2v-0.7c0-16.8-6.1-31.7-16.5-42.1-13.4-13.4-34.5-21.4-60.7-21.4h-91.8v213.6h24.1v-83h61l61.9 83h29.6zm-87-17.4v-86.7h65.9c34.5 0 54.6 15.9 54.6 42.1v0.6c0 27.5-22.9 43.9-54.9 43.9h-65.6z" style="fill:#c82c30"/><polygon class="st2" points="41.8 476.2 26.6 476.2 26.6 452 23.5 452 23.5 479 41.8 479" style="fill:#c82c30"/><path class="st2" d="m60.5 451.5c-8.2 0-13.8 6.5-13.8 14v0.1c0 7.5 5.5 13.9 13.8 13.9 8.2 0 13.8-6.5 13.8-14v-0.1c0-7.4-5.5-13.9-13.8-13.9zm10.6 14.1c0 6.1-4.4 11.1-10.6 11.1s-10.7-5-10.7-11.2v-0.1c0-6.1 4.4-11.1 10.6-11.1s10.7 5.1 10.7 11.3z" style="fill:#c82c30"/><polygon class="st2" points="86.2 456.9 106.1 482.1 106.1 452 103.1 452 103.1 473.7 83.2 448.3 83.2 479 86.2 479" style="fill:#c82c30"/><path class="st2" d="m125.7 452h-9.4v27h9.4c8.5 0 14.4-5.9 14.4-13.5v-0.1c0-7.6-5.9-13.4-14.4-13.4zm11.2 13.6c0 6-4.4 10.6-11.2 10.6h-6.3v-21.4h6.3c6.8 0 11.2 4.7 11.2 10.8z" style="fill:#c82c30"/><path class="st2" d="m161.3 451.5c-8.2 0-13.8 6.5-13.8 14v0.1c0 7.5 5.5 13.9 13.8 13.9 8.2 0 13.8-6.5 13.8-14v-0.1c0-7.4-5.5-13.9-13.8-13.9zm10.6 14.1c0 6.1-4.4 11.1-10.6 11.1s-10.7-5-10.7-11.2v-0.1c0-6.1 4.4-11.1 10.6-11.1s10.7 5.1 10.7 11.3z" style="fill:#c82c30"/><polygon class="st2" points="186.9 456.9 206.8 482.1 206.8 452 203.9 452 203.9 473.7 183.9 448.3 183.9 479 186.9 479" style="fill:#c82c30"/><polygon class="st2" points="236.5 461.8 254.7 485.7 254.7 452 248.8 452 248.8 468.6 230.6 444.8 230.6 479 236.5 479" style="fill:#c82c30"/><path class="st2" d="m276.8 451.5c-8.4 0-14.4 6.3-14.4 14v0.1c0 7.7 6 13.9 14.3 13.9 8.4 0 14.4-6.3 14.4-14v-0.1c0.1-7.7-5.9-13.9-14.3-13.9zm8.1 14.1c0 4.6-3.3 8.4-8.1 8.4s-8.2-3.9-8.2-8.5v-0.1c0-4.6 3.3-8.4 8.1-8.4s8.2 3.9 8.2 8.6z" style="fill:#c82c30"/><path class="st2" d="m321.4 461c0-2.6-0.8-4.8-2.3-6.3-1.8-1.8-4.4-2.7-7.9-2.7h-12.4v27h6v-8.7h4.7l5.8 8.7h7l-6.6-9.7c3.4-1.2 5.7-3.9 5.7-8.3zm-6 0.3c0 2.3-1.7 3.8-4.6 3.8h-6v-7.8h5.9c2.9 0.1 4.7 1.4 4.7 4z" style="fill:#c82c30"/><polygon class="st2" points="341.3 457.5 349.6 457.5 349.6 452 327.1 452 327.1 457.5 335.4 457.5 335.4 479 341.3 479" style="fill:#c82c30"/><polygon class="st2" points="356.1 479 362 479 362 468.2 373 468.2 373 479 379 479 379 452 373 452 373 462.7 362 462.7 362 452 356.1 452" style="fill:#c82c30"/><polygon class="st2" points="408.1 457.3 422.6 457.3 422.6 452 402.2 452 402.2 479 422.8 479 422.8 473.8 408.1 473.8 408.1 468.1 420.8 468.1 420.8 462.8 408.1 462.8" style="fill:#c82c30"/><path class="st2" d="m440.1 451.8-11.6 27.2h6.1l2.5-6.1h11.4l2.5 6.1h6.2l-11.6-27.3h-5.5zm-0.9 15.9 3.6-8.8 3.6 8.8z" style="fill:#c82c30"/><path class="st2" d="m474.7 462.8c-4.7-1.2-5.8-1.8-5.8-3.6v-0.1c0-1.3 1.2-2.4 3.5-2.4s4.6 1 7 2.7l3.1-4.5c-2.7-2.2-6.1-3.4-10.1-3.4-5.5 0-9.5 3.2-9.5 8.2v0.1c0 5.4 3.5 6.9 9 8.3 4.5 1.2 5.5 1.9 5.5 3.4v0.1c0 1.6-1.5 2.6-3.9 2.6-3.1 0-5.6-1.3-8.1-3.3l-3.5 4.2c3.2 2.9 7.4 4.3 11.5 4.3 5.8 0 9.9-3 9.9-8.4 0-4.7-3.1-6.7-8.6-8.2z" style="fill:#c82c30"/><polygon class="st2" points="502.9 457.5 511.2 457.5 511.2 452 488.7 452 488.7 457.5 497 457.5 497 479 502.9 479" style="fill:#c82c30"/><polygon class="st2" points="523.6 457.3 538.1 457.3 538.1 452 517.7 452 517.7 479 538.3 479 538.3 473.8 523.6 473.8 523.6 468.1 536.3 468.1 536.3 462.8 523.6 462.8" style="fill:#c82c30"/><path class="st2" d="m568.9 461c0-2.6-0.8-4.8-2.3-6.3-1.8-1.8-4.4-2.7-7.9-2.7h-12.4v27h6v-8.7h4.7l5.8 8.7h7l-6.6-9.7c3.4-1.2 5.7-3.9 5.7-8.3zm-6 0.3c0 2.3-1.7 3.8-4.6 3.8h-6v-7.8h5.9c2.9 0.1 4.7 1.4 4.7 4z" style="fill:#c82c30"/><polygon class="st2" points="582.8 461.8 600.9 485.7 600.9 452 595.1 452 595.1 468.6 576.9 444.8 576.9 479 582.8 479" style="fill:#c82c30"/><path class="st2" d="m646.1 460.1c0-2.2-0.8-4.1-2.1-5.4-1.7-1.7-4.4-2.7-7.7-2.7h-11.6v27h3.1v-10.5h7.7l7.8 10.5h3.8l-8.3-11.1c4.2-0.7 7.3-3.3 7.3-7.8zm-18.3 5.7v-11h8.4c4.4 0 6.9 2 6.9 5.3v0.1c0 3.5-2.9 5.6-7 5.6z" style="fill:#c82c30"/><path class="st2" d="m653.5 479h3.1l3.2-7.2h14.7l3.2 7.2h3.3l-13.8-30.4zm7.6-9.8 6.2-13.8 6.1 13.8z" style="fill:#c82c30"/><rect class="st2" x="688.6" y="452" width="3.1" height="27.1" style="fill:#c82c30"/><polygon class="st2" points="720.2 476.2 705 476.2 705 452 701.9 452 701.9 479 720.2 479" style="fill:#c82c30"/><polygon class="st2" points="722.4 452 733.4 482.9 742.1 457.3 750.8 483 761.8 452 758.6 452 750.8 474.5 742.1 448.1 733.5 474.5 725.7 452" style="fill:#c82c30"/><path class="st2" d="m764.5 479h3.1l3.2-7.2h14.7l3.2 7.2h3.3l-13.8-30.4zm7.5-9.8 6.2-13.8 6.1 13.8z" style="fill:#c82c30"/><polygon class="st2" points="804 468.3 804 479 807.1 479 807.1 468.3 818.4 452 814.8 452 805.6 465.5 796.5 452 792.8 452" style="fill:#c82c30"/></g></svg>
