<?xml version="1.0" encoding="utf-8"?>
<!-- Generator: Adobe Illustrator 18.0.0, SVG Export Plug-In . SVG Version: 6.00 Build 0)  -->
<!DOCTYPE svg PUBLIC "-//W3C//DTD SVG 1.1//EN" "http://www.w3.org/Graphics/SVG/1.1/DTD/svg11.dtd">
<svg version="1.1" id="Layer_1" xmlns="http://www.w3.org/2000/svg" xmlns:xlink="http://www.w3.org/1999/xlink" x="0px" y="0px"
	 viewBox="0 0 461.8 124.4" enable-background="new 0 0 461.8 124.4" xml:space="preserve">
<polyline fill="#A1222A" points="314,30.5 327.6,30.5 327.6,35.7 307.7,35.7 307.7,1.7 314,1.7 "/>
<path fill="#A1222A" d="M340.2,31.6c2,0,3.5-0.7,4.4-2c1-1.3,1.4-3.3,1.4-5.9c0-2.6-0.5-4.6-1.4-5.9c-1-1.4-2.4-2-4.4-2
	c-2,0-3.5,0.7-4.5,2.1c-1,1.4-1.5,3.3-1.5,5.9s0.5,4.6,1.5,5.9C336.7,30.9,338.2,31.6,340.2,31.6 M340.2,11.2c1.8,0,3.4,0.3,4.9,0.9
	c1.5,0.6,2.7,1.4,3.7,2.5c1,1.1,1.8,2.4,2.4,3.9c0.6,1.5,0.8,3.3,0.8,5.1c0,1.9-0.3,3.6-0.8,5.2c-0.6,1.5-1.4,2.8-2.4,3.9
	c-1,1.1-2.3,1.9-3.7,2.5c-1.5,0.6-3.1,0.9-4.9,0.9c-1.8,0-3.4-0.3-4.9-0.9c-1.5-0.6-2.7-1.4-3.8-2.5c-1-1.1-1.8-2.4-2.4-3.9
	c-0.6-1.5-0.9-3.3-0.9-5.2c0-1.9,0.3-3.6,0.9-5.1c0.6-1.5,1.4-2.8,2.4-3.9c1.1-1.1,2.3-1.9,3.8-2.5
	C336.8,11.5,338.4,11.2,340.2,11.2"/>
<path fill="#A1222A" d="M363.1,36.1c-2.1,0-3.7-0.6-4.8-1.8c-1.1-1.2-1.7-2.8-1.7-4.9V15.9h-2.4l-0.8-0.3l-0.3-0.9v-2.3l3.9-0.6
	l1.2-6.6l0.4-0.7l0.9-0.3h3v7.6h6.3v4.1h-6.3V29c0,0.8,0.2,1.3,0.6,1.8c0.4,0.4,0.9,0.6,1.5,0.6l0.9-0.1L366,31l0.5-0.3l0.4-0.1
	l0.4,0.1l0.4,0.4l1.7,2.8c-0.8,0.7-1.8,1.2-2.9,1.6C365.4,35.9,364.3,36.1,363.1,36.1"/>
<path fill="#A1222A" d="M372,35.7V0.8h5.8v13.4c0.9-0.9,2-1.6,3.1-2.2c1.1-0.5,2.4-0.8,4-0.8c1.3,0,2.5,0.2,3.5,0.7
	c1,0.4,1.9,1.1,2.6,1.9c0.7,0.8,1.2,1.8,1.5,2.9c0.4,1.1,0.5,2.4,0.5,3.7v15.3h-5.8V20.4c0-1.5-0.3-2.6-1-3.4
	c-0.7-0.8-1.7-1.2-3.1-1.2c-1,0-2,0.2-2.8,0.7c-0.9,0.5-1.7,1.1-2.5,1.9v17.4"/>
<path fill="#A1222A" d="M403.5,35.7h-5.8V11.6h5.8V35.7z M404.4,4.6c0,0.5-0.1,1-0.3,1.4l-0.8,1.2c-0.3,0.3-0.7,0.6-1.2,0.8
	c-0.5,0.2-0.9,0.3-1.5,0.3c-0.5,0-1-0.1-1.4-0.3c-0.4-0.2-0.8-0.5-1.2-0.8L397.2,6c-0.2-0.4-0.3-0.9-0.3-1.4c0-0.5,0.1-1,0.3-1.4
	c0.2-0.5,0.5-0.8,0.8-1.2c0.3-0.3,0.7-0.6,1.2-0.8c0.4-0.2,0.9-0.3,1.4-0.3c0.5,0,1,0.1,1.5,0.3c0.4,0.2,0.9,0.4,1.2,0.8
	c0.3,0.3,0.6,0.7,0.8,1.2C404.2,3.6,404.4,4.1,404.4,4.6"/>
<path fill="#A1222A" d="M416.2,32.1c0.6,0,1.2-0.1,1.6-0.2c0.5-0.1,1-0.3,1.4-0.5c0.4-0.2,0.9-0.5,1.3-0.8l1.3-1.1v-4
	c-1.7,0-3.1,0.1-4.2,0.3c-1.1,0.2-2,0.5-2.7,0.8c-0.7,0.3-1.2,0.7-1.5,1.2c-0.3,0.4-0.4,0.9-0.4,1.4c0,1,0.3,1.8,0.9,2.2
	C414.5,31.8,415.3,32.1,416.2,32.1 M427.5,35.7h-2.6c-0.5,0-1-0.1-1.3-0.2c-0.3-0.2-0.6-0.5-0.7-1l-0.5-1.7c-0.6,0.5-1.2,1-1.8,1.4
	c-0.6,0.4-1.2,0.8-1.8,1c-0.6,0.3-1.3,0.5-2,0.6c-0.7,0.1-1.5,0.2-2.3,0.2c-1,0-2-0.1-2.8-0.4c-0.9-0.3-1.6-0.7-2.2-1.2
	c-0.6-0.5-1.1-1.2-1.4-2c-0.3-0.8-0.5-1.8-0.5-2.8c0-0.9,0.2-1.8,0.7-2.7c0.5-0.9,1.3-1.7,2.4-2.4c1.1-0.7,2.6-1.3,4.4-1.8
	c1.8-0.5,4.1-0.7,6.9-0.7v-1.4c0-1.6-0.3-2.8-1-3.6c-0.7-0.8-1.7-1.2-3-1.2c-0.9,0-1.7,0.1-2.3,0.3c-0.6,0.2-1.2,0.5-1.6,0.7
	c-0.5,0.3-0.9,0.5-1.3,0.7c-0.4,0.2-0.8,0.3-1.3,0.3l-1-0.3l-0.7-0.8l-1-1.9c2.8-2.5,6.1-3.8,10-3.8c1.4,0,2.7,0.2,3.8,0.7
	c1.1,0.5,2,1.1,2.8,1.9c0.8,0.8,1.3,1.8,1.7,3c0.4,1.1,0.6,2.4,0.6,3.8V35.7z"/>
<path fill="#A1222A" d="M431.8,35.7V11.6h3.5c0.7,0,1.2,0.4,1.5,1.1l0.4,1.9c0.5-0.5,1-1,1.5-1.4c0.5-0.4,1.1-0.8,1.7-1.1
	c0.6-0.3,1.3-0.5,1.9-0.7c0.7-0.2,1.4-0.2,2.3-0.2c1.3,0,2.5,0.2,3.5,0.7c1,0.4,1.9,1.1,2.5,1.9c0.7,0.8,1.2,1.8,1.6,2.9
	c0.4,1.1,0.5,2.4,0.5,3.7v15.3H447V20.4c0-1.5-0.3-2.6-1-3.4c-0.7-0.8-1.7-1.2-3.1-1.2c-1,0-1.9,0.2-2.8,0.7
	c-0.9,0.5-1.7,1.1-2.5,1.9v17.4"/>
<path fill="#A1222A" d="M178.5,74.8v26.5h17.5c3.2,0,5.9-0.4,8-1.2c2.2-0.8,3.9-1.8,5.2-3.1c1.3-1.3,2.3-2.8,2.8-4.5
	c0.6-1.7,0.9-3.5,0.9-5.4c0-2-0.3-3.2-1-4.8c-0.6-1.6-1.6-3-3-4.1c-1.4-1.1-3.1-2-5.2-2.6c-2.1-0.6-4.7-0.9-7.7-0.9 M178.5,62.3
	h13.7c5.8,0,10.3-1.1,13.3-3.2c3-2.1,4.6-5.5,4.6-10.2c0-4.8-1.4-8.3-4.1-10.3c-2.7-2.1-7-3.1-12.8-3.1h-14.7V62.3z M161.2,114.7
	V22.3h31.9c6.1,0,11.2,0.6,15.5,1.7c4.3,1.2,7.8,2.8,10.5,4.9c2.8,2.1,4.8,4.7,6.1,7.7c1.3,3,1.9,6.4,1.9,10.2c0,2.2-0.3,4.3-1,6.2
	c-0.6,2-1.6,3.8-3,5.6c-1.3,1.7-3,3.3-5.1,4.7c-2.1,1.4-4.5,2.6-7.4,3.6c12.7,2.9,19.1,9.7,19.1,20.6c0,3.9-0.7,7.5-2.2,10.9
	c-1.5,3.3-3.7,6.2-6.5,8.6c-2.9,2.4-6.4,4.3-10.5,5.7c-4.2,1.4-9,2-14.3,2H161.2z"/>
<path fill="#A1222A" d="M251.7,49.1v41.7c0,4,0.9,7.1,2.8,9.3c1.8,2.2,4.6,3.3,8.3,3.3c2.7,0,5.3-0.6,7.7-1.8c2.4-1.2,4.7-2.9,6.8-5
	V49.1h15.8v65.6h-9.7c-2.1,0-3.4-0.9-4-2.9l-1.1-5.2c-1.4,1.4-2.8,2.6-4.2,3.7c-1.5,1.1-3,2.1-4.6,2.9c-1.7,0.8-3.4,1.4-5.3,1.9
	c-1.9,0.4-3.9,0.7-6.1,0.7c-3.6,0-6.7-0.6-9.5-1.8c-2.8-1.2-5.1-2.9-7-5.2c-1.9-2.2-3.3-4.8-4.2-7.9c-1-3-1.4-6.4-1.4-10.1V49.1"/>
<path fill="#A1222A" d="M342.6,61.9c-0.4,0.7-0.9,1.2-1.3,1.4c-0.5,0.3-1.1,0.4-1.8,0.4c-0.8,0-1.6-0.2-2.5-0.6
	c-0.9-0.4-1.9-0.9-3-1.4c-1.2-0.5-2.5-1-3.9-1.4c-1.5-0.4-3.2-0.6-5.2-0.6c-3.1,0-5.6,0.7-7.3,2c-1.8,1.3-2.7,3-2.7,5.2
	c0,1.4,0.5,2.6,1.4,3.6c0.9,1,2.1,1.8,3.6,2.5c1.5,0.7,3.2,1.4,5.1,2c1.9,0.6,3.9,1.2,5.9,1.9c2,0.7,4,1.5,5.9,2.3
	c1.9,0.9,3.6,2,5.1,3.3c1.5,1.3,2.7,2.9,3.7,4.8c0.9,1.9,1.4,4.1,1.4,6.8c0,3.2-0.6,6.1-1.7,8.7c-1.1,2.7-2.8,5-5,6.9
	c-2.2,1.9-4.9,3.4-8.2,4.5c-3.2,1.1-7,1.6-11.2,1.6c-2.3,0-4.5-0.2-6.6-0.6c-2.2-0.4-4.2-1-6.2-1.7c-2-0.7-3.8-1.6-5.5-2.6
	c-1.7-1-3.2-2-4.4-3.2l3.6-6c0.5-0.7,1-1.3,1.7-1.7c0.7-0.4,1.5-0.6,2.4-0.6c1,0,1.9,0.3,2.8,0.8c0.9,0.5,1.9,1.1,3,1.8
	c1.1,0.6,2.5,1.2,4.1,1.8c1.6,0.6,3.5,0.8,5.9,0.8c1.9,0,3.5-0.2,4.8-0.7c1.3-0.4,2.5-1,3.3-1.8c0.9-0.7,1.5-1.6,1.9-2.5
	c0.4-1,0.6-1.9,0.6-3c0-1.5-0.5-2.8-1.4-3.8c-0.9-1-2.1-1.8-3.6-2.6c-1.5-0.7-3.2-1.4-5.2-2c-1.9-0.6-3.9-1.2-6-1.9
	c-2-0.7-4-1.5-5.9-2.4c-1.9-0.9-3.7-2.1-5.2-3.5c-1.5-1.4-2.7-3.1-3.6-5.2c-0.9-2-1.4-4.5-1.4-7.4c0-2.7,0.5-5.2,1.6-7.7
	c1.1-2.4,2.6-4.5,4.7-6.4c2.1-1.8,4.7-3.3,7.7-4.3c3.1-1.1,6.7-1.6,10.7-1.6c4.5,0,8.6,0.8,12.3,2.3c3.7,1.5,6.8,3.4,9.3,5.9"/>
<path fill="#A1222A" d="M381.5,59.4c-4.6,0-8.2,1.3-10.8,3.9c-2.6,2.6-4.3,6.3-5,11.1h29.7c0-2-0.3-4-0.8-5.8
	c-0.6-1.8-1.4-3.4-2.6-4.8c-1.2-1.4-2.6-2.4-4.4-3.2C385.9,59.8,383.9,59.4,381.5,59.4 M381.2,48.1c4.1,0,7.9,0.7,11.4,2
	c3.5,1.3,6.5,3.3,9,5.8c2.5,2.5,4.5,5.7,5.9,9.3c1.4,3.7,2.1,7.9,2.1,12.6c0,1.2,0,2.2-0.2,3c-0.1,0.8-0.3,1.4-0.6,1.9
	c-0.3,0.5-0.7,0.8-1.1,1c-0.5,0.2-1.1,0.3-1.8,0.3h-40.5c0.5,6.7,2.3,11.7,5.4,14.8c3.2,3.1,7.3,4.7,12.5,4.7c2.6,0,4.8-0.3,6.6-0.9
	c1.9-0.6,3.5-1.3,4.8-2c1.4-0.7,2.6-1.4,3.7-2c1-0.6,2.1-0.9,3-0.9c0.6,0,1.2,0.1,1.7,0.4c0.5,0.3,0.9,0.6,1.2,1.1l4.6,5.8
	c-1.8,2-3.7,3.8-5.9,5.1c-2.2,1.4-4.4,2.5-6.8,3.3c-2.4,0.8-4.8,1.4-7.2,1.8c-2.4,0.4-4.8,0.5-7.1,0.5c-4.6,0-8.8-0.8-12.7-2.3
	c-3.9-1.5-7.3-3.8-10.2-6.7c-2.9-3-5.2-6.6-6.8-11c-1.7-4.4-2.5-9.4-2.5-15.2c0-4.5,0.7-8.7,2.2-12.6c1.4-3.9,3.5-7.4,6.2-10.3
	c2.7-2.9,6-5.2,9.9-6.9C371.9,49,376.3,48.1,381.2,48.1"/>
<path fill="#A1222A" d="M457.5,61.9c-0.4,0.7-0.9,1.2-1.3,1.4c-0.5,0.3-1.1,0.4-1.8,0.4c-0.8,0-1.6-0.2-2.5-0.6
	c-0.9-0.4-1.9-0.9-3.1-1.4c-1.1-0.5-2.5-1-3.9-1.4c-1.5-0.4-3.2-0.6-5.2-0.6c-3.1,0-5.6,0.7-7.3,2c-1.8,1.3-2.7,3-2.7,5.2
	c0,1.4,0.5,2.6,1.4,3.6c0.9,1,2.1,1.8,3.6,2.5c1.5,0.7,3.2,1.4,5.2,2c1.9,0.6,3.9,1.2,5.9,1.9c2,0.7,4,1.5,5.9,2.3
	c1.9,0.9,3.6,2,5.2,3.3c1.5,1.3,2.7,2.9,3.6,4.8c0.9,1.9,1.4,4.1,1.4,6.8c0,3.2-0.6,6.1-1.7,8.7c-1.1,2.7-2.8,5-5.1,6.9
	c-2.2,1.9-4.9,3.4-8.2,4.5c-3.3,1.1-7,1.6-11.2,1.6c-2.3,0-4.5-0.2-6.6-0.6c-2.1-0.4-4.2-1-6.2-1.7c-2-0.7-3.8-1.6-5.5-2.6
	c-1.7-1-3.2-2-4.5-3.2l3.6-6c0.5-0.7,1-1.3,1.7-1.7c0.6-0.4,1.4-0.6,2.4-0.6c1,0,1.9,0.3,2.8,0.8c0.9,0.5,1.9,1.1,3,1.8
	c1.2,0.6,2.5,1.2,4.1,1.8c1.5,0.6,3.5,0.8,5.9,0.8c1.9,0,3.5-0.2,4.8-0.7c1.3-0.4,2.5-1,3.3-1.8c0.9-0.7,1.5-1.6,1.9-2.5
	c0.4-1,0.6-1.9,0.6-3c0-1.5-0.5-2.8-1.4-3.8c-0.9-1-2.1-1.8-3.6-2.6c-1.5-0.7-3.2-1.4-5.2-2c-1.9-0.6-3.9-1.2-5.9-1.9
	c-2-0.7-4-1.5-6-2.4c-1.9-0.9-3.7-2.1-5.2-3.5c-1.5-1.4-2.7-3.1-3.7-5.2c-0.9-2-1.4-4.5-1.4-7.4c0-2.7,0.5-5.2,1.6-7.7
	c1.1-2.4,2.6-4.5,4.7-6.4c2.1-1.8,4.7-3.3,7.8-4.3c3.1-1.1,6.7-1.6,10.7-1.6c4.5,0,8.6,0.8,12.3,2.3c3.7,1.5,6.8,3.4,9.3,5.9"/>
<path fill="#968460" d="M123.1,49.2c-17.1,0.3-23.2,2.2-34,13c10.8,10.8,16.9,12.7,34,13c0.9-4.2,1.4-8.5,1.4-13
	S124,53.4,123.1,49.2"/>
<path fill="#968460" d="M26.2,88.3c11,0,18.9,0,28-4.4c-17.8-16-35.3-17.3-40.6-17.3H0.1c0.5,7.7,2.5,15.1,5.6,21.8"/>
<path fill="#968460" d="M54.2,40.6c-9.2-4.4-17-4.4-28-4.4H5.7c-3.1,6.7-5.1,14.1-5.6,21.8h13.4C18.9,57.9,36.4,56.6,54.2,40.6"/>
<path fill="#968460" d="M101.4,78.2C95.7,76,91.1,72,85.2,66.3c-0.7,0.7-1.3,1.4-2,2.2C77.6,74.7,72,79.8,66.3,83.8l0.3,0.3
	c6.9,7.6,12.1,12.5,18.4,15c6,2.5,13,3,24.7,3h0.3c5.2-6.1,9.1-13.3,11.6-21.1C113.3,80.9,107,80.3,101.4,78.2"/>
<path fill="#968460" d="M66.6,40.3l-0.3,0.3c5.7,4,11.3,9.1,16.9,15.3c0.7,0.8,1.4,1.5,2,2.2c5.9-5.8,10.4-9.7,16.1-11.9
	c5.6-2.2,11.9-2.7,20.2-2.9c-2.5-7.8-6.5-15-11.6-21.1h-0.3C98,22.3,91,22.8,85,25.3C78.7,27.9,73.4,32.8,66.6,40.3"/>
<path fill="#968460" d="M78.9,64.5c0.8-0.8,1.5-1.5,2.2-2.2l0.1-0.1l-0.1-0.1c-0.7-0.7-1.5-1.5-2.2-2.2c-6.6-6.6-12.1-11.3-17-14.8
	c-9.2,8.8-18.4,14-26.5,17.1c8.1,3.1,17.3,8.3,26.5,17.1C66.8,75.8,72.3,71.1,78.9,64.5"/>
<path fill="#968460" d="M101.2,110.5c-7.1-0.3-12.3-1.1-16.6-2.5c-8-2.5-14.6-7.5-24.3-18.2c-0.5-0.5-0.9-1-1.4-1.5
	c-1.2,0.6-2.3,1.2-3.5,1.8c-8.6,4-20,4-29.2,4H8.8c10.9,18.1,30.7,30.3,53.4,30.3c14.9,0,28.5-5.2,39.2-13.9L101.2,110.5"/>
<path fill="#968460" d="M26.2,30.3c9.1,0,20.5,0,29.2,4c1.2,0.6,2.4,1.2,3.5,1.8c0.4-0.5,0.9-1,1.4-1.5C70,23.9,76.6,18.9,84.6,16.4
	c4.4-1.4,9.5-2.2,16.6-2.5l0.3,0C90.8,5.2,77.2,0,62.3,0C39.6,0,19.8,12.1,8.9,30.3"/>
<path fill="#A1222A" d="M54.2,83.8c2.4-1.2,5-2.7,7.6-4.6c-9.2-8.8-18.4-14-26.5-17.1c9.5-3.6,20.5-10.1,31.2-21.9
	c6.9-7.6,12.1-12.4,18.4-15c6-2.4,13-3,24.7-3h0.3c-2.5-3-5.4-5.8-8.4-8.3l-0.3,0C94,14.2,88.9,15,84.6,16.4
	c-8,2.5-14.6,7.5-24.3,18.2C40.6,56.3,19.5,57.9,13.6,57.9H0.2C0.1,59.4,0,60.8,0,62.2c0,1.4,0.1,2.9,0.1,4.3h13.4
	C18.9,66.5,36.4,67.8,54.2,83.8"/>
<path fill="#A1222A" d="M109.9,102.2h-0.3c-11.6-0.1-18.7-0.6-24.7-3c-6.3-2.6-11.5-7.5-18.4-15l-0.3-0.3c-2.4,1.7-4.9,3.3-7.4,4.6
	c0.5,0.5,0.9,1,1.4,1.5c9.7,10.7,16.3,15.6,24.3,18.2c4.4,1.4,9.5,2.2,16.6,2.5l0.3,0C104.5,108,107.3,105.2,109.9,102.2"/>
<path fill="#FFFFFF" d="M54.2,40.6c1.6-1.4,3.1-2.9,4.7-4.5c-1.2-0.6-2.3-1.2-3.5-1.8c-8.6-4-20-4-29.2-4H8.9
	c-1.1,1.9-2.2,3.9-3.1,5.9h20.5C37.2,36.1,45.1,36.2,54.2,40.6"/>
<path fill="#FFFFFF" d="M89.1,62.2c10.8-10.8,16.9-12.7,34-13c-0.4-2-0.9-4-1.5-5.9c-8.2,0.2-14.5,0.7-20.2,2.9
	c-5.7,2.2-10.3,6.1-16.1,11.9c-0.7-0.7-1.3-1.4-2-2.2c-5.7-6.2-11.3-11.3-16.9-15.3c-1.5,1.6-2.9,3.1-4.4,4.5
	c4.9,3.4,10.4,8.2,17,14.8c0.8,0.8,1.5,1.5,2.2,2.2l0.1,0.1l-0.1,0.1c-0.7,0.7-1.5,1.5-2.2,2.2C55.1,88.3,45.4,88.3,26.2,88.3H5.7
	c0.9,2,2,4,3.1,5.9h17.4c9.2,0,20.5,0,29.2-4c9.5-4.4,18.6-11.5,27.8-21.7c0.7-0.8,1.4-1.5,2-2.2c5.9,5.8,10.4,9.7,16.1,11.9
	c5.6,2.1,11.9,2.7,20.2,2.9c0.6-1.9,1.1-3.9,1.5-5.9C106,74.9,99.9,73.1,89.1,62.2"/>
</svg>
