<?xml version="1.0" encoding="utf-8"?>
<!-- Generator: Adobe Illustrator 16.0.0, SVG Export Plug-In . SVG Version: 6.00 Build 0)  -->
<!DOCTYPE svg PUBLIC "-//W3C//DTD SVG 1.1//EN" "http://www.w3.org/Graphics/SVG/1.1/DTD/svg11.dtd">
<svg version="1.1" id="Layer_1" xmlns="http://www.w3.org/2000/svg" xmlns:xlink="http://www.w3.org/1999/xlink" x="0px" y="0px"
	 width="448.378px" height="92.355px" viewBox="0 0 448.378 92.355" enable-background="new 0 0 448.378 92.355"
	 xml:space="preserve">
<g>
	<defs>
		<rect id="SVGID_1_" width="442.604" height="92.355"/>
	</defs>
	<clipPath id="SVGID_2_">
		<use xlink:href="#SVGID_1_"  overflow="visible"/>
	</clipPath>
	<path clip-path="url(#SVGID_2_)" fill="#EF3E33" d="M401.299,51.515h21.524c1.004-5.517-2.233-10.034-8.084-10.034
		C408.044,41.481,403.524,45.108,401.299,51.515 M330.347,28.539h21.141l-0.56,2.286c2.065-2.18,9.26-3.796,13.281-3.796
		c10.426,0,17.563,9.374,17.563,18.855l-0.058,1.004c6.417-11.711,18.634-20.026,32.967-20.026
		c23.479,0,31.118,13.276,26.827,36.537h-43.275c-0.734,6.802,2.281,11.656,9.308,11.656c3.679,0,9.478-1.225,11.546-6.642h21.029
		c-7.417,15.399-21.699,21.257-35.139,21.257c-15.061,0-25.826-7.145-27.774-20.139l-2.96,17.629h-21.029l5.638-33.744
		c0.833-3.074-1.118-7.7-5.638-7.418c-3.005,0.221-5.188,2.229-5.463,3.957l-6.643,37.205h-21.52L330.347,28.539"/>
</g>
<path fill="#EF3E33" d="M308.522,14.62c0-5.904,4.786-10.693,10.697-10.693c5.904,0,10.689,4.79,10.689,10.693
	c0,5.9-4.785,10.69-10.689,10.69C313.309,25.31,308.522,20.52,308.522,14.62"/>
<polyline fill="#EF3E33" points="305.868,28.596 326.22,28.596 315.232,87.273 294.873,87.273 305.868,28.596 "/>
<path fill="#EF3E33" d="M232.127,58.271c-1.503,7.524,3.127,13.604,10.317,13.604c7.251,0,14.281-6.079,15.841-13.604
	c1.506-7.532-3.124-13.664-10.317-13.664C240.716,44.606,233.634,50.738,232.127,58.271 M106.802,51.515h21.526
	c1.06-5.517-2.227-10.034-8.032-10.034C113.549,41.481,109.029,45.108,106.802,51.515 M286.062,3.941h20.532L290.97,87.273h-20.527
	l2.961-15.84c-6.75,10.651-19.246,18.07-32.572,18.07c-18.298,0-31.181-14-28.78-31.232c0.557-3.85,1.787-7.532,3.629-10.933
	c-0.899-0.334-1.842-0.555-2.848-0.555c-4.015,0-8.534,4.291-9.148,8.141L197.38,87.16h-20.638l7.864-41.725h-7.14l-7.808,41.725
	h-21.805l7.806-41.725h-8.032c0.892,5.021,0.669,11.047-0.612,17.963h-43.283c-0.666,6.802,2.287,11.656,9.371,11.656
	c3.625,0,9.483-1.225,11.486-6.642h21.031c-7.417,15.399-21.696,21.257-35.142,21.257c-12.103,0-21.417-4.632-25.596-13.162
	L84.823,87.16H63.294l0.283-30.457L44.167,76.736l-9.875-19.805L25.982,87.16H3.334L26.54,3.941h3.178l19.525,37.429L81.311,3.941
	h3.68L84.932,51.91c5.356-14.279,18.968-25.048,35.256-25.048c13.384,0,21.637,4.298,25.487,12.386l1.952-10.484h11.155
	l2.844-15.338h21.811l-2.847,15.338h25.769l1.339,3.568c0,0,2.178-2.841,6.861-4.017c5.074-1.278,11.881,1.396,11.881,1.396
	l-2.178,6.969c6.859-5.969,15.898-9.644,25.326-9.644c14.338,0,25.377,8.582,28.28,20.575L286.062,3.941"/>
</svg>
