<?xml version="1.0" encoding="utf-8"?>
<!-- Generator: Adobe Illustrator 24.2.1, SVG Export Plug-In . SVG Version: 6.00 Build 0)  -->
<svg version="1.1" id="Layer_1" xmlns="http://www.w3.org/2000/svg" xmlns:xlink="http://www.w3.org/1999/xlink" x="0px" y="0px"
	 viewBox="0 0 576.12 171.21" style="enable-background:new 0 0 576.12 171.21;" xml:space="preserve">
<style type="text/css">
	.st0{fill:#223261;}
</style>
<path class="st0" d="M171.22,85.61c0,47.28-38.33,85.6-85.61,85.6C38.33,171.21,0,132.89,0,85.61C0,38.33,38.33,0,85.61,0
	C132.89,0,171.22,38.33,171.22,85.61 M127.57,121.75V75.52c0-23.06-18.76-41.83-41.83-41.83c-23.07,0-41.84,18.77-41.84,41.83v46.24
	c0,3.04,2.46,5.51,5.5,5.51c3.04,0,5.51-2.46,5.51-5.51V75.52c0-16.99,13.83-30.82,30.83-30.82c17,0,30.83,13.83,30.83,30.82v46.24
	c0,3.04,2.46,5.51,5.5,5.51C125.1,127.26,127.57,124.8,127.57,121.75"/>
<path class="st0" d="M539.55,69.76h0.17l28.42,40.78c2.1,3.02,2.94,3.61,4.79,3.61c2.18,0,3.19-1.25,3.19-4.11V60.76
	c0-2.27-1.34-3.69-3.44-3.69c-2.1,0-3.44,1.42-3.44,3.69v40.7h-0.17l-28.42-40.78c-2.1-3.02-2.94-3.61-4.87-3.61
	c-2.1,0-3.1,1.25-3.1,4.11v49.27c0,2.27,1.34,3.69,3.44,3.69c2.1,0,3.44-1.42,3.44-3.69L539.55,69.76"/>
<path class="st0" d="M494.27,57.58c-2.35,0-3.69,1.34-3.69,3.78v49.1c0,2.27,1.34,3.69,3.44,3.69c2.1,0,3.44-1.42,3.44-3.69
	l0.01-21.36l21.44,23.46c1.01,1.09,1.93,1.59,3.11,1.59c1.85,0,3.19-1.17,3.19-2.76c0-1.18-0.33-2.02-1.34-3.11l-17.9-19.59
	l3.03-0.09c9.42-0.25,15.21-6.05,15.21-15.39c0-9-7.3-15.63-17.15-15.63H494.27z M497.46,63.53h9.25c6.31,0,10.6,4.04,10.6,10.01
	c0,6.81-3.28,9.92-10.43,9.92h-9.42V63.53z"/>
<path class="st0" d="M462.5,88.84h15.22c2.1,0,3.36-1.18,3.36-3.27c0-2.01-1.26-3.19-3.36-3.19H462.5V64.04h16.73
	c2.1,0,3.36-1.17,3.36-3.27c0-2.02-1.26-3.19-3.36-3.19h-19.92c-2.35,0-3.69,1.34-3.69,3.78v48.51c0,2.43,1.34,3.78,3.69,3.78h19.92
	c2.1,0,3.36-1.18,3.36-3.19c0-2.1-1.26-3.27-3.36-3.27H462.5L462.5,88.84z"/>
<path class="st0" d="M408.15,88.51h29.6v21.45c0,2.69,1.26,4.19,3.44,4.19c2.18,0,3.44-1.5,3.44-4.19V61.27
	c0-2.69-1.26-4.19-3.44-4.19c-2.18,0-3.44,1.5-3.44,4.19v21.28h-29.6V61.27c0-2.69-1.26-4.19-3.44-4.19c-2.18,0-3.44,1.5-3.44,4.19
	v48.68c0,2.69,1.26,4.19,3.44,4.19s3.44-1.5,3.44-4.19L408.15,88.51z"/>
<path class="st0" d="M381.74,64.04h10.51c2.1,0,3.36-1.17,3.36-3.27c0-2.02-1.26-3.19-3.36-3.19h-27.9c-2.1,0-3.36,1.17-3.36,3.19
	c0,2.1,1.26,3.27,3.36,3.27h10.51v46.42c0,2.27,1.34,3.69,3.44,3.69c2.1,0,3.44-1.42,3.44-3.69L381.74,64.04z"/>
<path class="st0" d="M327.89,57.58c-2.35,0-3.69,1.34-3.69,3.78v49.1c0,2.27,1.34,3.69,3.44,3.69c2.1,0,3.44-1.42,3.44-3.69V89.1
	l21.45,23.46c1.01,1.09,1.93,1.59,3.11,1.59c1.85,0,3.19-1.17,3.19-2.76c0-1.18-0.33-2.02-1.34-3.11l-17.9-19.59l3.03-0.09
	c9.42-0.25,15.21-6.05,15.21-15.39c0-9-7.3-15.63-17.15-15.63H327.89z M331.08,63.53h9.26c6.31,0,10.6,4.04,10.6,10.01
	c0,6.81-3.28,9.92-10.43,9.92h-9.42V63.53z"/>
<path class="st0" d="M291.26,57.07c-14.38,0-24.55,11.93-24.55,28.75c0,16.4,10.34,28.33,24.55,28.33
	c14.29,0,24.54-11.93,24.54-28.58C315.8,69,305.55,57.07,291.26,57.07z M291.26,63.03c10.43,0,17.15,8.83,17.15,22.54
	c0,13.79-6.72,22.62-17.15,22.62c-10.51,0-17.16-8.74-17.16-22.7C274.1,71.86,280.83,63.03,291.26,63.03z"/>
<path class="st0" d="M221.7,69.76h0.17l28.42,40.78c2.1,3.02,2.94,3.61,4.79,3.61c2.18,0,3.19-1.25,3.19-4.11V60.76
	c0-2.27-1.34-3.69-3.44-3.69c-2.1,0-3.44,1.42-3.44,3.69v40.7h-0.17l-28.42-40.78c-2.1-3.02-2.94-3.61-4.87-3.61
	c-2.1,0-3.11,1.25-3.11,4.11v49.27c0,2.27,1.34,3.69,3.44,3.69c2.1,0,3.44-1.42,3.44-3.69L221.7,69.76z"/>
</svg>
