<svg width="719" height="181" viewBox="0 0 719 181" fill="none" xmlns="http://www.w3.org/2000/svg">
<path d="M12.6387 69.3848C13.2849 69.3792 13.9311 69.3737 14.5969 69.368C16.7216 69.3562 18.8442 69.3804 20.9688 69.4063C22.4518 69.408 23.9349 69.4079 25.4179 69.4061C28.5216 69.4078 31.6245 69.4264 34.7281 69.458C38.6994 69.4977 42.6698 69.5021 46.6413 69.4945C49.7023 69.4915 52.7632 69.5036 55.8242 69.5207C57.2881 69.5277 58.7521 69.5308 60.2161 69.53C62.265 69.5318 64.3127 69.5532 66.3614 69.5801C68.1075 69.5927 68.1075 69.5927 69.8888 69.6056C73.3588 70.0455 75.219 70.9095 78 73C80.478 76.717 80.2888 79.5787 80.2747 83.8804C80.2798 84.6823 80.2849 85.4843 80.2902 86.3105C80.3041 88.9649 80.3031 91.619 80.3008 94.2734C80.3047 96.1181 80.309 97.9627 80.3138 99.8073C80.3213 103.676 80.321 107.544 80.3157 111.413C80.3099 116.369 80.3268 121.324 80.3501 126.279C80.3648 130.09 80.3657 133.901 80.3625 137.711C80.3631 139.538 80.3683 141.365 80.3784 143.192C80.3907 145.748 80.3839 148.304 80.3724 150.861C80.38 151.614 80.3876 152.368 80.3955 153.144C80.3509 157.607 79.7778 160.468 77 164C73.4105 166.393 71.7652 166.268 67.4966 166.306C66.841 166.315 66.1853 166.323 65.5098 166.332C63.3424 166.356 61.1753 166.364 59.0079 166.371C57.4995 166.38 55.9912 166.389 54.4829 166.398C51.3205 166.415 48.1581 166.423 44.9956 166.426C40.9479 166.431 36.9011 166.469 32.8536 166.514C29.7377 166.544 26.622 166.551 23.506 166.552C22.014 166.556 20.5221 166.569 19.0303 166.59C16.9402 166.617 14.8524 166.612 12.7622 166.599C11.5744 166.604 10.3865 166.61 9.16266 166.615C4.90993 165.788 3.49757 164.522 1.00004 161C0.505277 158.014 0.314295 155.599 0.353064 152.617C0.344302 151.786 0.335541 150.954 0.326514 150.097C0.304554 147.356 0.31906 144.616 0.335974 141.875C0.332605 139.966 0.327752 138.057 0.321478 136.148C0.314112 132.15 0.324806 128.152 0.348181 124.154C0.376669 119.033 0.360264 113.912 0.330319 108.791C0.31224 104.849 0.318007 100.909 0.330958 96.9674C0.33429 95.0791 0.33021 93.1909 0.31856 91.3027C0.305842 88.662 0.32524 86.0234 0.353064 83.3828C0.342943 82.6045 0.332822 81.8262 0.322394 81.0242C0.397265 77.1835 0.879453 75.1694 3.12556 72.0145C6.5979 69.581 8.42593 69.3773 12.6387 69.3848ZM7.00004 77C6.89966 79.5505 6.86386 82.074 6.87064 84.625C6.86889 85.4233 6.86714 86.2217 6.86533 87.0442C6.86091 89.6962 6.86385 92.348 6.86722 95C6.86655 96.8346 6.86558 98.6693 6.86433 100.504C6.86285 104.354 6.865 108.204 6.86967 112.055C6.87536 117.002 6.87208 121.948 6.86609 126.895C6.86249 130.685 6.86363 134.475 6.86622 138.265C6.86689 140.09 6.86606 141.914 6.86374 143.739C6.86122 146.284 6.86506 148.83 6.87064 151.375C6.86862 152.137 6.86659 152.898 6.86451 153.683C6.56685 157.131 6.56685 157.131 8.00004 160C9.98347 160.105 11.9706 160.139 13.9568 160.145C15.2316 160.152 16.5064 160.158 17.8198 160.165C19.2224 160.166 20.6249 160.167 22.0274 160.168C23.4561 160.171 24.8847 160.175 26.3134 160.178C29.3121 160.184 32.3107 160.186 35.3094 160.185C39.1576 160.185 43.0057 160.199 46.8539 160.216C49.8058 160.227 52.7577 160.229 55.7096 160.229C57.1286 160.23 58.5476 160.234 59.9666 160.242C61.949 160.252 63.9314 160.248 65.9139 160.243C67.0434 160.244 68.1728 160.246 69.3366 160.247C72.1542 160.272 72.1542 160.272 74 158C74.1984 155.451 74.2728 153.011 74.2588 150.461C74.2623 149.684 74.2658 148.906 74.2694 148.105C74.2783 145.528 74.2724 142.952 74.2657 140.375C74.267 138.589 74.269 136.803 74.2715 135.017C74.2744 131.271 74.2701 127.525 74.2608 123.779C74.2494 118.97 74.2559 114.162 74.2679 109.353C74.2751 105.664 74.2729 101.975 74.2677 98.2864C74.2663 96.513 74.268 94.7395 74.2726 92.966C74.2777 90.4902 74.27 88.0148 74.2588 85.5391C74.2629 84.8013 74.2669 84.0636 74.2711 83.3035C74.3617 79.1993 74.3617 79.1993 72 76C69.2144 75.6995 69.2144 75.6995 65.9139 75.7571C64.6359 75.754 63.358 75.7509 62.0413 75.7478C60.6408 75.7547 59.2403 75.7619 57.8399 75.7695C56.4102 75.7707 54.9806 75.7712 53.551 75.7709C50.554 75.7725 47.5572 75.7808 44.5603 75.7942C40.7109 75.8112 36.8617 75.815 33.0122 75.8142C30.0604 75.8145 27.1085 75.82 24.1567 75.8272C22.7369 75.8304 21.317 75.8324 19.8972 75.8331C17.917 75.8353 15.9369 75.8448 13.9568 75.8547C12.2638 75.8605 12.2638 75.8605 10.5365 75.8663C8.064 75.7131 8.064 75.7131 7.00004 77Z" fill="#1F2937"/>
<path d="M36.9805 19.2395C38.1587 19.2306 39.337 19.2217 40.551 19.2125C44.4304 19.1913 48.3081 19.2135 52.1875 19.2383C54.8922 19.2396 57.5969 19.2334 60.3015 19.2281C65.9639 19.2217 71.6258 19.2399 77.2881 19.2727C83.8186 19.3102 90.3481 19.3084 96.8786 19.2857C103.181 19.2647 109.484 19.272 115.786 19.292C118.459 19.2999 121.132 19.2965 123.805 19.288C127.544 19.2799 131.281 19.3043 135.02 19.3372C136.119 19.3286 137.218 19.3201 138.351 19.3112C145.12 19.4138 149.814 20.4881 155 25C159.937 31.0459 159.527 36.9243 159.391 44.4961C159.385 45.6848 159.379 46.8735 159.373 48.0982C159.351 51.8784 159.301 55.6576 159.25 59.4375C159.23 62.0071 159.212 64.5768 159.195 67.1465C159.151 73.4313 159.084 79.7156 159 86C157.02 86 155.04 86 153 86C152.999 85.3471 152.997 84.6942 152.996 84.0216C152.976 77.2242 152.922 70.4276 152.847 63.6306C152.824 61.0942 152.81 58.5577 152.804 56.0212C152.795 52.3742 152.754 48.7287 152.707 45.082C152.713 43.3818 152.713 43.3818 152.719 41.6472C152.775 35.155 152.775 35.155 149.581 29.8074C146.126 27.3879 144.47 26.8734 140.313 26.8528C139.325 26.8457 138.337 26.8385 137.318 26.8311C136.23 26.8285 135.142 26.8258 134.02 26.823C132.877 26.8164 131.734 26.8099 130.556 26.8031C126.76 26.7833 122.964 26.7717 119.168 26.7617C117.874 26.7576 116.58 26.7536 115.247 26.7494C109.108 26.7306 102.968 26.7161 96.8283 26.7078C89.7415 26.698 82.655 26.6717 75.5684 26.6313C69.4302 26.5975 63.2922 26.5856 57.154 26.5816C54.5429 26.5767 51.9317 26.565 49.3207 26.5465C45.6695 26.5222 42.0192 26.5231 38.3679 26.53C37.2857 26.5172 36.2034 26.5044 35.0883 26.4912C29.1718 26.5181 29.1718 26.5181 23.852 28.9044C20.6555 32.5214 20.7959 35.5634 20.6836 40.1953C20.6628 40.9028 20.6421 41.6102 20.6206 42.3391C20.5552 44.601 20.4963 46.8629 20.4375 49.125C20.3943 50.6576 20.3507 52.1901 20.3067 53.7227C20.1995 57.4817 20.0982 61.2408 20 65C17.69 65 15.38 65 13 65C12.9004 60.7317 12.8282 56.464 12.7803 52.1948C12.7603 50.7458 12.7331 49.2969 12.6983 47.8481C12.3239 31.8706 12.3239 31.8706 17 26C23.0672 19.7632 28.5485 19.1343 36.9805 19.2395Z" fill="#1F2937"/>
<path d="M136.113 89.7969C136.92 89.7912 137.726 89.7855 138.557 89.7796C140.266 89.7701 141.975 89.7636 143.684 89.7598C146.292 89.7501 148.899 89.7191 151.506 89.6875C153.167 89.681 154.827 89.6757 156.488 89.6719C157.266 89.6595 158.043 89.6472 158.844 89.6345C163.418 89.6532 166.389 90.1242 170 93C172.363 96.5445 172.253 98.0425 172.259 102.244C172.265 103.532 172.271 104.82 172.278 106.148C172.274 107.555 172.27 108.963 172.266 110.371C172.267 111.815 172.269 113.258 172.271 114.701C172.274 117.727 172.27 120.752 172.261 123.778C172.249 127.653 172.256 131.527 172.268 135.402C172.275 138.383 172.273 141.364 172.268 144.345C172.266 145.774 172.268 147.203 172.273 148.631C172.278 150.63 172.269 152.628 172.259 154.627C172.257 155.763 172.256 156.9 172.254 158.072C172.001 160.983 171.629 162.599 170 165C166.972 167.019 166.359 167.254 162.959 167.291C162.151 167.303 161.344 167.316 160.512 167.329C159.643 167.331 158.774 167.334 157.879 167.336C156.534 167.346 156.534 167.346 155.163 167.356C153.267 167.366 151.372 167.371 149.476 167.371C146.577 167.375 143.679 167.411 140.779 167.449C138.937 167.455 137.096 167.459 135.254 167.461C133.954 167.482 133.954 167.482 132.627 167.504C126.606 167.459 126.606 167.459 123.484 165.096C120.932 161.491 120.857 159.296 120.807 154.885C120.791 153.6 120.775 152.315 120.758 150.991C120.747 149.581 120.736 148.172 120.727 146.762C120.721 146.053 120.716 145.344 120.71 144.613C120.684 140.86 120.664 137.106 120.65 133.353C120.633 129.479 120.588 125.606 120.538 121.732C120.504 118.751 120.492 115.77 120.487 112.788C120.48 111.361 120.465 109.933 120.441 108.505C120.409 106.505 120.412 104.504 120.416 102.503C120.408 101.365 120.4 100.228 120.392 99.0555C121.189 95.052 122.911 93.5726 126 91C129.18 89.4099 132.62 89.8158 136.113 89.7969ZM127 98C126.901 99.9276 126.872 101.859 126.871 103.789C126.867 105.027 126.864 106.265 126.861 107.541C126.863 108.902 126.865 110.264 126.867 111.625C126.866 113.011 126.866 114.397 126.864 115.784C126.863 118.692 126.865 121.601 126.87 124.51C126.875 128.246 126.872 131.982 126.866 135.718C126.862 138.582 126.864 141.445 126.866 144.309C126.867 145.687 126.866 147.065 126.864 148.443C126.861 150.365 126.866 152.288 126.871 154.211C126.871 155.307 126.872 156.403 126.873 157.533C126.721 159.944 126.721 159.944 128 161C130.727 161.101 133.429 161.14 136.156 161.133C137.382 161.134 137.382 161.134 138.633 161.136C140.365 161.136 142.097 161.135 143.829 161.13C146.489 161.125 149.149 161.13 151.809 161.137C153.487 161.136 155.165 161.135 156.844 161.133C157.645 161.135 158.446 161.137 159.271 161.139C162.936 161.472 162.936 161.472 166 160C166.099 158.072 166.128 156.141 166.129 154.211C166.134 152.354 166.134 152.354 166.139 150.459C166.137 149.098 166.135 147.736 166.133 146.375C166.133 144.989 166.134 143.603 166.136 142.216C166.137 139.308 166.135 136.399 166.13 133.49C166.125 129.754 166.128 126.018 166.134 122.282C166.138 119.418 166.136 116.555 166.134 113.691C166.133 112.313 166.134 110.935 166.136 109.557C166.139 107.635 166.134 105.712 166.129 103.789C166.129 102.693 166.128 101.597 166.127 100.467C166.279 98.0558 166.279 98.0558 165 97C162.273 96.899 159.571 96.8603 156.844 96.8672C156.026 96.8662 155.209 96.8653 154.367 96.8643C152.635 96.8636 150.903 96.8655 149.171 96.8696C146.511 96.875 143.851 96.8697 141.191 96.8633C139.513 96.8639 137.835 96.8652 136.156 96.8672C135.355 96.8652 134.554 96.8631 133.729 96.8611C130.064 96.5279 130.064 96.5279 127 98Z" fill="#1F2937"/>
<path d="M17.2079 80.7527C18.5824 80.7549 18.5824 80.7549 19.9846 80.7571C21.0223 80.754 22.06 80.7509 23.1292 80.7477C24.8151 80.7585 24.8151 80.7585 26.5352 80.7695C28.2586 80.7702 28.2586 80.7702 30.017 80.7709C32.4489 80.7739 34.8808 80.7818 37.3127 80.7942C41.0504 80.8124 44.7877 80.8147 48.5254 80.8144C50.8828 80.8194 53.2402 80.8252 55.5977 80.832C57.2867 80.8337 57.2867 80.8337 59.0098 80.8354C60.0443 80.8418 61.0789 80.8481 62.1448 80.8547C63.5181 80.8604 63.5181 80.8604 64.9191 80.8663C67 81 67 81 68 82C68.0993 83.9889 68.128 85.9813 68.1294 87.9726C68.1326 89.2507 68.1357 90.5287 68.139 91.8454C68.1372 93.2511 68.1351 94.6568 68.1328 96.0625C68.1335 97.4936 68.1345 98.9246 68.1357 100.356C68.1372 103.359 68.135 106.361 68.1304 109.364C68.1247 113.222 68.128 117.079 68.1339 120.936C68.1376 123.892 68.1364 126.848 68.1338 129.804C68.1332 131.227 68.134 132.65 68.1363 134.072C68.1388 136.057 68.1343 138.042 68.1294 140.027C68.1286 141.159 68.1278 142.291 68.127 143.457C68 146 68 146 67 147C65.3481 147.099 63.692 147.128 62.0371 147.129C60.9793 147.133 59.9215 147.136 58.8317 147.139C57.6807 147.137 56.5296 147.135 55.3438 147.133C53.5848 147.134 53.5848 147.134 51.7904 147.136C49.3054 147.136 46.8204 147.135 44.3355 147.13C40.5166 147.125 36.6978 147.13 32.8789 147.137C30.4714 147.136 28.0638 147.135 25.6563 147.133C23.9297 147.136 23.9297 147.136 22.1683 147.139C21.1105 147.136 20.0527 147.133 18.9629 147.129C17.5584 147.128 17.5584 147.128 16.1256 147.127C14 147 14 147 13 146C12.8955 144.047 12.8614 142.091 12.8547 140.135C12.8484 138.88 12.842 137.625 12.8354 136.333C12.8339 134.952 12.8328 133.572 12.832 132.191C12.8288 130.785 12.8255 129.379 12.8219 127.973C12.8159 125.021 12.8141 122.069 12.8147 119.118C12.8148 115.33 12.8011 111.543 12.7839 107.755C12.7728 104.849 12.7708 101.944 12.7713 99.0383C12.7701 97.6416 12.7657 96.2449 12.758 94.8482C12.7482 92.897 12.7523 90.9456 12.7571 88.9944C12.7557 87.8826 12.7542 86.7709 12.7528 85.6255C13.0681 82.2766 13.7868 81.1358 17.2079 80.7527ZM19 87C19 104.82 19 122.64 19 141C33.19 141 47.38 141 62 141C62 123.18 62 105.36 62 87C47.81 87 33.62 87 19 87Z" fill="#1F2937"/>
<path d="M34.517 33.746C35.4676 33.7404 36.4183 33.7348 37.3978 33.7289C38.4441 33.733 39.4904 33.737 40.5684 33.7412C41.6676 33.7377 42.7668 33.7342 43.8994 33.7306C47.5476 33.7218 51.1956 33.7276 54.8438 33.7344C57.3696 33.733 59.8954 33.7311 62.4213 33.7286C67.7208 33.7256 73.0203 33.7297 78.3198 33.7393C84.4513 33.7501 90.5826 33.7466 96.714 33.7356C102.607 33.7255 108.499 33.7265 114.392 33.7324C116.902 33.7337 119.412 33.7321 121.923 33.7274C125.426 33.7224 128.929 33.73 132.432 33.7412C134.001 33.7351 134.001 33.7351 135.602 33.7289C136.553 33.7346 137.504 33.7402 138.483 33.746C139.312 33.7468 140.141 33.7475 140.995 33.7483C143 34 143 34 145 36C145.241 38.1387 145.241 38.1387 145.227 40.8169C145.227 41.8178 145.227 42.8187 145.227 43.8499C145.216 44.9333 145.206 46.0166 145.195 47.1328C145.192 48.2398 145.19 49.3468 145.187 50.4873C145.176 54.0333 145.15 57.5791 145.125 61.125C145.115 63.5247 145.106 65.9245 145.098 68.3242C145.076 74.2162 145.042 80.1081 145 86C142.69 86 140.38 86 138 86C138 71.15 138 56.3 138 41C103.68 41 69.36 41 34 41C34 48.92 34 56.84 34 65C32.02 65 30.04 65 28 65C27.9506 60.9066 27.9143 56.8133 27.8901 52.7197C27.8801 51.3268 27.8664 49.9339 27.8491 48.541C27.8249 46.5405 27.8146 44.5398 27.8047 42.5391C27.7942 41.3346 27.7837 40.1301 27.7729 38.8892C28.1528 34.0551 30.1783 33.75 34.517 33.746Z" fill="#1F2937"/>
<path d="M511 0C539.38 0 567.76 0 597 0C597 4.62 597 9.24 597 14C568.62 14 540.24 14 511 14C511 9.38 511 4.76 511 0Z" fill="#1F2937"/>
<path d="M389 0C417.38 0 445.76 0 475 0C475 4.62 475 9.24 475 14C446.62 14 418.24 14 389 14C389 9.38 389 4.76 389 0Z" fill="#1F2937"/>
<path d="M634 0C662.05 0 690.1 0 719 0C719 4.62 719 9.24 719 14C690.95 14 662.9 14 634 14C634 9.38 634 4.76 634 0Z" fill="#1F2937"/>
<path d="M271 0C299.05 0 327.1 0 356 0C356 4.62 356 9.24 356 14C327.95 14 299.9 14 271 14C271 9.38 271 4.76 271 0Z" fill="#1F2937"/>
<path d="M634 168C662.05 168 690.1 168 719 168C719 172.29 719 176.58 719 181C690.95 181 662.9 181 634 181C634 176.71 634 172.42 634 168Z" fill="#1F2937"/>
<path d="M271 168C299.05 168 327.1 168 356 168C356 172.29 356 176.58 356 181C327.95 181 299.9 181 271 181C271 176.71 271 172.42 271 168Z" fill="#1F2937"/>
<path d="M512 168C539.72 168 567.44 168 596 168C596 172.29 596 176.58 596 181C568.28 181 540.56 181 512 181C512 176.71 512 172.42 512 168Z" fill="#1F2937"/>
<path d="M390 168C417.72 168 445.44 168 474 168C474 172.29 474 176.58 474 181C446.28 181 418.56 181 390 181C390 176.71 390 172.42 390 168Z" fill="#1F2937"/>
<path d="M398 75C401.3 75 404.6 75 408 75C408.33 75.66 408.66 76.32 409 77C409.99 76.34 410.98 75.68 412 75C416.593 74.2603 420.025 74.3904 424 76.875C427.046 80.111 427.122 81.8813 427.098 86.2266C427.094 87.2578 427.091 88.2891 427.088 89.3516C427.08 90.4318 427.071 91.512 427.062 92.625C427.058 93.713 427.053 94.8009 427.049 95.9219C427.037 98.6146 427.019 101.307 427 104C423.7 104 420.4 104 417 104C416.505 94.1 416.505 94.1 416 84C413.525 83.505 413.525 83.505 411 83C408.603 85.3969 408.717 86.0703 408.586 89.3516C408.528 90.6277 408.528 90.6277 408.469 91.9297C408.422 93.2639 408.422 93.2639 408.375 94.625C408.317 95.9708 408.317 95.9708 408.258 97.3437C408.163 99.5622 408.081 101.781 408 104C404.7 104 401.4 104 398 104C398 94.43 398 84.86 398 75Z" fill="#1F2937"/>
<path d="M445 63C455.89 63 466.78 63 478 63C478 65.97 478 68.94 478 72C474.37 72 470.74 72 467 72C467 82.56 467 93.12 467 104C463.7 104 460.4 104 457 104C457 93.11 457 82.22 457 71C453.04 71 449.08 71 445 71C445 68.36 445 65.72 445 63Z" fill="#1F2937"/>
<path d="M536 75C538.97 75 541.94 75 545 75C545.33 75.66 545.66 76.32 546 77C546.99 76.34 547.98 75.68 549 75C551.305 74.6289 551.305 74.6289 553.875 74.5625C554.718 74.5225 555.561 74.4826 556.43 74.4414C560.454 75.316 561.68 76.5791 564 80C564.608 84.122 564.47 88.1576 564.312 92.3125C564.29 93.4346 564.267 94.5568 564.244 95.7129C564.185 98.4766 564.103 101.238 564 104C561.03 104 558.06 104 555 104C554.951 102.652 554.902 101.303 554.852 99.9141C554.777 98.151 554.701 96.388 554.625 94.625C554.594 93.7355 554.563 92.8461 554.531 91.9297C554.493 91.0789 554.454 90.2281 554.414 89.3516C554.367 88.1733 554.367 88.1733 554.319 86.9712C554.16 84.77 554.16 84.77 552 83C549.425 83.1651 549.425 83.1651 547 84C545.882 86.2365 545.806 87.6489 545.684 90.1328C545.642 90.9385 545.6 91.7441 545.557 92.5742C545.498 93.8369 545.498 93.8369 545.438 95.125C545.394 95.9745 545.351 96.824 545.307 97.6992C545.2 99.7993 545.1 101.9 545 104C542.03 104 539.06 104 536 104C536 94.43 536 84.86 536 75Z" fill="#1F2937"/>
<path d="M132 102C141.57 102 151.14 102 161 102C161 116.85 161 131.7 161 147C151.43 147 141.86 147 132 147C132 132.15 132 117.3 132 102ZM136 106C136 118.21 136 130.42 136 143C142.93 143 149.86 143 157 143C157 130.79 157 118.58 157 106C150.07 106 143.14 106 136 106Z" fill="#1F2937"/>
<path d="M587 74C589.613 75.0968 591.639 76.3923 594 78C592.35 79.98 590.7 81.96 589 84C588.443 83.67 587.886 83.34 587.312 83C584.697 81.869 582.819 81.8434 580 82C580 82.99 580 83.98 580 85C580.687 85.1817 581.374 85.3635 582.082 85.5508C582.983 85.8021 583.884 86.0535 584.812 86.3125C585.706 86.5561 586.599 86.7997 587.52 87.0508C590.13 88.0496 591.366 88.7494 593 91C593.747 94.0932 593.637 96.8902 593 100C590.836 102.945 590.233 103.761 587 105C580.405 105.928 574.611 105.741 569 102C569.398 99.1142 569.79 98.1781 572.062 96.25C572.702 95.8375 573.341 95.425 574 95C574.99 95.66 575.98 96.32 577 97C580.125 97.167 580.125 97.167 583 97C583.33 96.01 583.66 95.02 584 94C583.095 93.8356 583.095 93.8356 582.172 93.668C573.331 91.9141 573.331 91.9141 571 89C570.102 86.2821 569.76 83.856 570 81C573.98 74.2187 579.582 72.9296 587 74Z" fill="#1F2937"/>
<path d="M699 68C701.97 68 704.94 68 708 68C708 70.31 708 72.62 708 75C710.31 75 712.62 75 715 75C715 77.31 715 79.62 715 82C712.69 82 710.38 82 708 82C708.33 86.62 708.66 91.24 709 96C710.98 96.33 712.96 96.66 715 97C715.042 99.3329 715.041 101.667 715 104C713.44 105.56 711.911 105.245 709.75 105.312C706.251 105.279 705.103 105.062 702 103.188C698.329 99.172 698.879 94.9479 698.938 89.8125C698.942 89.0629 698.947 88.3133 698.951 87.541C698.963 85.694 698.981 83.847 699 82C697.35 82 695.7 82 694 82C694 79.69 694 77.38 694 75C695.65 75 697.3 75 699 75C699 72.69 699 70.38 699 68Z" fill="#1F2937"/>
<path d="M499 74C499 76.97 499 79.94 499 83C497.298 83.4641 497.298 83.4641 495.562 83.9375C492.212 84.6292 492.212 84.6292 491 86C490.844 87.3402 490.75 88.6876 490.684 90.0352C490.642 90.844 490.6 91.6529 490.557 92.4863C490.517 93.3365 490.478 94.1866 490.438 95.0625C490.394 95.9165 490.351 96.7705 490.307 97.6504C490.2 99.7667 490.1 101.883 490 104C486.7 104 483.4 104 480 104C480 94.43 480 84.86 480 75C482.97 75 485.94 75 489 75C489.33 75.99 489.66 76.98 490 78C490.743 77.34 491.485 76.68 492.25 76C495 74 495 74 499 74Z" fill="#1F2937"/>
<path d="M672 75C674.97 75 677.94 75 681 75C681.33 75.66 681.66 76.32 682 77C682.99 76.34 683.98 75.68 685 75C688.188 74.875 688.188 74.875 691 75C691 77.64 691 80.28 691 83C690.434 83.1212 689.868 83.2423 689.285 83.3672C688.185 83.6186 688.185 83.6186 687.062 83.875C685.966 84.1186 685.966 84.1186 684.848 84.3672C682.793 84.8296 682.793 84.8296 682 87C681.767 89.8791 681.58 92.7415 681.438 95.625C681.394 96.4268 681.351 97.2286 681.307 98.0547C681.2 100.036 681.1 102.018 681 104C678.03 104 675.06 104 672 104C672 94.43 672 84.86 672 75Z" fill="#1F2937"/>
<path d="M101 128C106.94 128 112.88 128 119 128C119 129.98 119 131.96 119 134C118 135 118 135 115.715 135.098C114.34 135.08 114.34 135.08 112.938 135.062C112.018 135.053 111.099 135.044 110.152 135.035C109.442 135.024 108.732 135.012 108 135C108 136.65 108 138.3 108 140C111.63 140 115.26 140 119 140C119 141.98 119 143.96 119 146C113.06 146 107.12 146 101 146C101 140.06 101 134.12 101 128Z" fill="#1F2937"/>
<path d="M84 150C95.22 150 106.44 150 118 150C118 151.98 118 153.96 118 156C106.78 156 95.56 156 84 156C84 154.02 84 152.04 84 150Z" fill="#1F2937"/>
<path d="M84 118C95.22 118 106.44 118 118 118C118 119.98 118 121.96 118 124C106.78 124 95.56 124 84 124C84 122.02 84 120.04 84 118Z" fill="#1F2937"/>
<path d="M282.816 65.5238C290.84 60.7059 302.069 59.8583 310.25 64.6645C314.689 68.0532 318.715 72.4756 320 78.0004C320.798 85.0707 319.944 90.9863 316 97.0004C311.929 101.411 307.728 104.667 301.679 105.407C293.142 105.617 286.589 104.999 280 99.0004C275.439 93.3295 274.518 87.0372 274.594 79.9574C275.385 74.1966 278.297 69.1977 282.816 65.5238ZM301 71.0004C297.513 70.5273 294.215 70.3929 291 72.0004C287.832 74.8668 286.197 76.4794 285.64 80.7738C285.64 80.8968 285.639 81.0186 285.638 81.1391C285.608 86.5436 285.591 89.5216 289.5 93.6254C292.877 96.3973 295.69 96.4965 299.949 96.3715C303.354 95.7553 304.994 94.0074 307.187 91.4379C309.438 87.1701 309.741 83.7422 309 79.0004C307.298 74.7757 305.062 73.107 301 71.0004Z" fill="#1F2937"/>
<path d="M339 75.0004C344.005 74.3341 348.514 74.1956 353 76.6254C357.101 81.4954 358.522 85.5328 358.289 91.8247C357.599 97.0201 354.927 100.687 351 104C347.357 105.215 343.792 105.612 340 105L336 102L335 118H326V75.0004H335L336 77.0004L339 75.0004ZM342.562 82.0004C338.27 82.0004 337.261 82.3826 335 86.0004C334.432 89.975 334.377 92.0654 336.625 95.4379C339.681 97.4485 341.407 97.5356 345 97.0004C346.812 95.938 346.813 95.9376 348 94.0004C348.913 90.4135 349.456 88.0841 348 84.6254C346 83.0004 346 83.0004 342.562 82.0004Z" fill="#1F2937"/>
<path d="M641 77.0003C646.299 73.3871 652.288 72.3762 658.25 74.9847C661.921 77.1714 664.802 79.2665 667 83.0003C667.864 88.1268 668.204 93.6001 665.828 98.3363C662.386 102.542 659.128 104.669 653.676 105.246C646.799 105.586 643.408 103.938 638.188 99.4378C635.074 95.6687 635.612 90.576 635.656 85.9535C636.188 81.3832 637.508 79.9611 641 77.0003ZM651.5 81.5003C649 82.0003 649 82.0004 646.688 83.5628C645 86.0001 645 86.0005 644.563 89.5003C645.018 93.1456 645.144 94.6974 648 97.0003C651.42 97.4279 653.831 97.6034 656.938 96.0003C658.658 92.7611 658.639 89.5266 658 86.0003C656.032 83.0851 654.943 82.1889 651.5 81.5003Z" fill="#1F2937"/>
<path d="M612 75C616.981 74.3369 621.501 74.2193 626 76.5625C630.102 81.5614 631.576 86.4851 631.359 92.8555C630.599 97.3947 627.486 101.12 624 104C620.357 105.214 616.792 105.611 613 105L609 102L608 118H599V75H608L609 77L612 75ZM619 83C615.651 82.103 613.282 81.3161 610.125 83C608.397 86.0714 608.061 88.4855 608 92C609.562 94.9375 609.563 94.9375 612 97C615.181 97.5194 617.009 97.5809 619.812 95.9375C621.632 92.9686 621.879 90.4511 622 87C621 84.625 621 84.625 619 83Z" fill="#1F2937"/>
<path d="M503 78C509.657 74.0342 514.63 72.4873 522.25 75.125C525.468 77.3192 527.512 79.4195 529 83C529.473 86.6415 529.379 90.2109 529.25 93.875L529.195 96.8281C529.148 99.2197 529.083 101.609 529 104H517L516 105C511.385 105.582 507.999 105.624 504 103.125C501.64 100.617 501.08 99.598 500.625 96.1875C501.13 91.8965 502.676 90.6595 506 88C510.444 85.4078 515.009 85.8042 520 86L518 83C513.823 82.7348 510.957 82.6811 507 84C505.624 82.7103 504.292 81.3731 503 80V78ZM513.945 91.8047C512 92 512 92 510 94C510.375 96.125 510.375 96.125 511 98C513.333 98.0424 515.667 98.0409 518 98C519.125 96.875 519.125 96.8749 520 92L513.945 91.8047Z" fill="#1F2937"/>
<path d="M363.125 82.875C368.371 74.8315 376.152 71.5323 385.25 75.6875C388.718 77.623 390.63 79.1459 392 83V92H372L374 96C377.734 96.9863 380.032 97.415 383.625 95.875L386 95C388.813 96.3749 388.813 96.375 391 98C390.002 100.896 389.039 101.973 386.5 103.75C381.289 105.611 376.295 105.994 370.942 104.379C366.641 102.298 364.526 99.4248 362.657 95.082C361.249 90.6165 361.558 87.229 363.125 82.875ZM377.938 80.8125C374.484 81.033 374.484 81.0331 372 86H383V83C381 81 381 81 377.938 80.8125Z" fill="#1F2937"/>
<path d="M39 153C39.99 153 40.98 153 42 153C42 154.65 42 156.3 42 158C40.68 157.67 39.36 157.34 38 157C38.33 155.68 38.66 154.36 39 153Z" fill="#1F2937"/>
</svg>
