<?xml version="1.0" encoding="utf-8"?>
<!-- Generator: Adobe Illustrator 26.5.3, SVG Export Plug-In . SVG Version: 6.00 Build 0)  -->
<svg version="1.1" xmlns="http://www.w3.org/2000/svg" xmlns:xlink="http://www.w3.org/1999/xlink" x="0px" y="0px"
	 width="243.7792969px" height="99.2128983px" viewBox="0 0 243.7792969 99.2128983"
	 style="enable-background:new 0 0 243.7792969 99.2128983;" xml:space="preserve">
<style type="text/css">
	.st0{fill:#AD1525;}
	.st1{fill:#F1CB13;}
	.st2{fill:#986224;}
	.st3{fill:#A10F78;}
	.st4{fill:#177B3B;}
	.st5{fill:#1488C8;}
	.st6{fill:#781931;}
	.st7{fill:#6B5B9A;}
	.st8{fill:#A1BD32;}
	.st9{fill:#4E3A86;}
	.st10{fill:#020202;}
	.st11{fill:#A8A69D;}
</style>
<g id="Guides_For_Artboard_1_">
</g>
<g id="Guides_For_Artboard">
</g>
<g id="Layer_1">
</g>
<g id="backgrounds">
</g>
<g id="logo__x2F__bar">
	<g>
		<rect x="191.2021027" y="73.6076508" class="st0" width="32.3974991" height="6.2744002"/>
		<rect x="143.1338043" y="73.6076508" class="st1" width="48.3964005" height="6.2744002"/>
		<rect x="101.3515015" y="73.6069031" class="st2" width="41.7402992" height="6.2768998"/>
		<rect x="19.3495998" y="73.6069031" class="st3" width="54.0536995" height="6.2744002"/>
		<rect x="73.3983994" y="73.6069031" class="st4" width="28.0137005" height="6.2744002"/>
		<rect x="180.8847046" y="67.3335037" class="st5" width="42.714901" height="6.2758498"/>
		<rect x="149.7402039" y="67.3335037" class="st6" width="31.1445007" height="6.2758498"/>
		<rect x="95.0643997" y="67.3324966" class="st7" width="54.6758003" height="6.2758999"/>
		<rect x="53.4043007" y="67.3324966" class="st8" width="41.660099" height="6.2758999"/>
		<rect x="19.3525009" y="67.3324966" class="st9" width="34.0517998" height="6.2759013"/>
	</g>
	<g>
		<path class="st10" d="M28.3232002,36.7490005h-3.8574009v10.7436981c0,1.2363014-1.0712986,2.2168007-2.2714996,2.2168007
			c-1.2432003,0-2.2714996-0.9804993-2.2714996-2.2168007V22.1259995c0-1.4921989,1.2422009-2.7285004,2.7852001-2.7285004h7.972599
			c2.5293007,0,4.714901,0.8100014,6.3008003,2.3872013c1.6288986,1.6201,2.4863014,3.8374004,2.4863014,6.3950005
			c0,2.5580997-0.8574028,4.7324009-2.4433022,6.2670994c-1.0282974,0.9804001-2.2714996,1.6200981-3.7294998,2.0038986
			l5.9580002,9.9336014c0.2148018,0.3408012,0.3428001,0.7671013,0.3428001,1.150898
			c0,1.1084023-1.0282974,2.1743011-2.2285004,2.1743011c-0.7714996,0-1.5-0.3838005-1.8857994-1.0658989L28.3232002,36.7490005z
			 M30.6805992,32.4434013c1.9717026,0,4.2432022-0.8101006,4.2432022-4.2637005c0-2.5576-1.5-4.4761009-4.2432022-4.4761009
			h-6.2147999v8.7398014H30.6805992z"/>
		<path class="st10" d="M44.5262985,40.543499c0,1.7480011,0.2998009,2.8989029,0.857502,3.6665001
			c0.7285004,0.9379005,1.842701,1.4491997,3.2998009,1.4491997c1.6288986,0,3.1717987-0.4687996,4.6288986-1.1083984
			c0.3008003-0.1280022,0.6006012-0.2129021,0.9003983-0.2129021c1.0713005,0,2.1006012,0.8950005,2.1006012,2.0034027
			c0,0.8101006-0.3428001,1.5351982-1.1142998,1.9189987c-2.0575981,0.9804001-4.2440987,1.4491997-6.5155983,1.4491997
			c-2.4854012,0-4.6289024-0.8101006-6.214901-2.3871994c-1.5429001-1.5351982-2.357399-3.6665001-2.357399-6.1822014v-5.3714981
			c0-2.472702,0.8144989-4.6044998,2.357399-6.1392002c1.5859985-1.5776005,3.7294998-2.387701,6.214901-2.387701
			c2.5292969,0,4.6717987,0.8101006,6.214798,2.387701c1.5429993,1.5347004,2.4004021,3.6664982,2.4004021,6.1392002v2.0038986
			c0,1.5345993-1.2432022,2.7709999-2.7861023,2.7709999H44.5262985z M52.8838005,36.4931984
			c0-3.5385971-1.4570999-5.2011986-4.2001991-5.2011986c-2.7002029,0-4.1573029,1.6201019-4.1573029,5.2011986H52.8838005z"/>
		<path class="st10" d="M75.3886032,46.0004997c0,1.1938019-0.7714005,2.2168007-1.885704,2.6006012
			c-2.1006012,0.7245979-4.5429993,1.1083984-6.9433975,1.1083984c-2.6152,0-4.6718025-0.639698-6.1298027-1.8759995
			c-1.4570999-1.2363014-2.2285995-2.9844017-2.2285995-5.0732002c0-2.0889015,0.7714996-3.7089996,2.2285995-4.9029007
			c1.4580002-1.2362976,3.5146027-1.8754997,6.1298027-1.8754997h4.4141006v-1.4921989
			c0-1.7910004-1.3281021-3.1977005-3.5566025-3.1977005c-2.0147018,0-3.1288986,0.2558002-4.6298981,1.1514015
			c-0.3428001,0.2127991-0.8145027,0.383297-1.2002029,0.383297c-1.1571999,0-2.0995979-0.8525982-2.0995979-1.918499
			c0-0.7670994,0.3428001-1.5346985,1.0713005-1.9608994c2.3143997-1.3218002,4.3291016-1.7056007,7.4150009-1.7056007
			c4.8007965,0,7.4150009,3.4535999,7.4150009,7.2480011V46.0004997z M70.9736023,40.0317001h-4.4141006
			c-3.7294006,0-3.9433022,2.0038986-3.9433022,2.7285995c0,0.7675018,0.2139015,2.8988991,3.9433022,2.8988991
			c1.4570999,0,3.0429993-0.2128983,4.4141006-0.5541992V40.0317001z"/>
		<path class="st10" d="M77.2753983,35.7686005c0-2.472702,0.7714996-4.6470013,2.3143997-6.1816998
			c1.5859985-1.5776005,3.7724991-2.3452015,6.2578049-2.3452015c1.4570999,0,3.0429993,0.5117016,4.2001953,1.1089001
			c0-2.7714996,0-7.1625996,0-7.1625996c0-1.2362995,0.9434052-2.2167988,2.1865997-2.2167988
			c1.243103,0,2.2285004,0.9804993,2.2285004,2.2167988v24.8125c0,1.1938019-0.7714996,2.2168007-1.8857956,2.6006012
			c-2.142601,0.7245979-4.4150009,1.1083984-6.7294998,1.1083984c-2.4853058,0-4.6289062-0.8101006-6.2148056-2.3871994
			c-1.5429993-1.5351982-2.357399-3.6665001-2.357399-6.1822014V35.7686005z M90.0477982,32.8266983
			c-1.157196-0.9804974-2.657196-1.5346985-4.2001953-1.5346985c-2.6142044,0-4.1572037,1.5346985-4.1572037,4.1352005v6.0966988
			c0,2.6436005,1.5429993,4.1352997,4.1572037,4.1352997c1.4570999,0,2.8721008-0.1703987,4.2001953-0.5541992V32.8266983z"/>
		<path class="st10" d="M99.7792969,23.9165001c-1.3720932,0-2.4863968-1.1084003-2.4863968-2.4727001
			c0-1.3642006,1.1143036-2.472599,2.4863968-2.472599c1.3711014,0,2.4853058,1.1083984,2.4853058,2.472599
			C102.2646027,22.8080997,101.1503983,23.9165001,99.7792969,23.9165001z M97.5497971,29.4589996
			c0-1.2362995,1.0293045-2.2173004,2.2294998-2.2173004c1.243103,0,2.1855011,0.9810009,2.1855011,2.2173004v18.033699
			c0,1.2363014-0.9423981,2.2168007-2.1855011,2.2168007c-1.2001953,0-2.2294998-0.9804993-2.2294998-2.2168007V29.4589996z"/>
		<path class="st10" d="M117.868103,35.4272003c0-2.600502-1.5438995-4.1352005-4.2011032-4.1352005
			c-1.4141006,0-2.8291016,0.2133999-4.1573029,0.5542011v15.6464977c0,1.2363014-0.9862976,2.2168007-2.1865005,2.2168007
			c-1.2421951,0-2.2284927-0.9804993-2.2284927-2.2168007V30.9512005c0-1.1939011,0.7284927-2.2173004,1.8856964-2.6006012
			c2.1006012-0.7250996,4.3721008-1.1089001,6.6865997-1.1089001c2.5292969,0,4.6717987,0.8101006,6.214798,2.387701
			c1.5429993,1.5347004,2.4004059,3.6664982,2.4004059,6.1392002v11.7240982c0,1.2363014-0.9853058,2.2168007-2.2285004,2.2168007
			c-1.2432022,0-2.1856003-0.9804993-2.1856003-2.2168007V35.4272003z"/>
		<path class="st10" d="M136.9423981,48.6011009c-1.285202,0.6395988-2.7431946,1.1083984-4.2001953,1.1083984
			c-2.4853973,0-4.6289062-0.8101006-6.2149048-2.3871994c-1.5429001-1.5351982-2.357399-3.6665001-2.357399-6.1822014v-5.3714981
			c0-2.472702,0.8144989-4.6044998,2.357399-6.1392002c1.5859985-1.5776005,3.7295074-2.387701,6.2149048-2.387701
			c2.3573914,0,4.5868988,0.3838005,6.7294922,1.1089001c1.114212,0.3833008,1.8857117,1.4067001,1.8857117,2.6006012v19.3124981
			c0,2.4726028-0.8574066,4.6044998-2.4004059,6.1391029c-1.5429993,1.5776978-3.6855011,2.3876991-6.214798,2.3876991
			c-2.1426086,0-4.2432098-0.4262009-6.2149048-1.3218002c-0.8143997-0.3837013-1.3291016-1.1084023-1.3291016-1.9608994
			c0-1.108902,0.9434052-2.046402,2.1436005-2.046402c0.2998047,0,0.6855011,0.1280022,0.9853058,0.2559013
			c1.4151001,0.5966988,2.8721008,1.0228996,4.4151001,1.0228996c2.657196,0,4.2001953-1.8759003,4.2001953-4.4765015V48.6011009z
			 M136.9423981,31.8462009c-1.3282013-0.3408012-2.7431946-0.5542011-4.2001953-0.5542011
			c-2.6143036,0-4.1573029,1.5346985-4.1573029,4.1352005v6.0966988c0,2.6436005,1.5429993,4.1352997,4.1573029,4.1352997
			c1.5428925,0,3.0428925-0.5541992,4.2001953-1.5346985V31.8462009z"/>
		<path class="st11" d="M159.1963043,42.5474014c0,2.0887985-0.6856079,3.9217987-1.9717102,5.2010994
			c-1.2870941,1.278801-3.0878906,1.9609985-5.2314911,1.9609985c-2.1865082,0-4.2880096-0.2984009-6.2597046-1.0229988
			c-0.5576019-0.2134018-0.9434052-0.7251015-0.9434052-1.3218002V19.8237c0-0.4687004,0.3858032-0.852499,0.8145142-0.852499
			c0.4715881,0,0.8573914,0.3837986,0.8573914,0.852499v9.7632008c1.5868988-1.1514015,3.5155945-1.7905006,5.5312042-1.7905006
			c2.1436005,0,3.944397,0.6816006,5.2314911,1.9608994c1.2861023,1.278801,1.9717102,3.0693989,1.9717102,5.2012005V42.5474014z
			 M157.5243988,34.8306007c0-3.4106998-2.1006012-5.4995003-5.5312958-5.4995003
			c-2.0576019,0-4.0301971,0.7670002-5.5312042,2.2166996V47.3223c1.7577972,0.5541992,3.6016083,0.8525009,5.5312042,0.8525009
			c3.4306946,0,5.5312958-2.1318016,5.5312958-5.4995003V34.8306007z"/>
		<path class="st11" d="M175.4013062,28.6488991c0-0.4691982,0.385788-0.852499,0.8574982-0.852499
			c0.4286957,0,0.8143921,0.3833008,0.8143921,0.852499v18.7583008c0,0.5541992-0.3856964,1.1083984-0.9432983,1.2793007
			c-1.972702,0.6391983-4.0733032,1.0229988-6.2597961,1.0229988c-2.1445007,0-3.9882965-0.639698-5.2743988-1.918499
			c-1.2862091-1.278801-1.9297028-3.1123009-1.9297028-5.2435989V28.6488991c0-0.4691982,0.3856964-0.852499,0.8153992-0.852499
			c0.4716949,0,0.8574066,0.3833008,0.8574066,0.852499v14.0264015c0,3.4105988,2.1006012,5.4995003,5.5312958,5.4995003
			c1.9286957,0,3.8153992-0.2983017,5.5312042-0.8525009V28.6488991z"/>
		<path class="st11" d="M183.8876953,38.0278015c-1.972702-0.9804001-3.5596008-2.2168007-3.5596008-4.9878006
			c0-3.0268002,2.8730011-5.2436008,6.0028992-5.2436008c1.8008118,0,3.6446075,0.3833008,5.3174133,1.0228996
			c0.3427887,0.1280003,0.5146942,0.4263,0.5146942,0.767601c0,0.4263-0.3437958,0.8100986-0.8583984,0.8100986
			c-0.0850067,0-0.2998047-0.0429993-0.3858032-0.0854988c-1.4579926-0.5967007-3.0010071-0.9804001-4.5879059-0.9804001
			c-1.9296875,0-4.3299866,1.2362995-4.3299866,3.7943993c0,2.0889015,1.5428925,2.9413986,2.7440948,3.4956017l3.6445007,1.7055969
			c2.3583984,1.1084023,4.1591949,2.9843025,4.1591949,5.4140015c0,3.3681984-2.7012024,5.9687996-6.3457031,5.9687996
			c-1.9296875,0-3.6024933-0.3838005-5.3603973-1.150898c-0.2998047-0.127903-0.5146027-0.4263-0.5146027-0.7251015
			c0-0.3833008,0.343811-0.8525009,0.8153992-0.8525009c0.128006,0,0.213913,0.0424004,0.342804,0.0853996
			c1.585907,0.6821022,3.0010071,1.1509018,4.7167969,1.1509018c2.5293121,0,4.6729126-1.4491997,4.6729126-4.0073013
			c0-2.2598-1.1573029-3.3256989-3.343811-4.3911972L183.8876953,38.0278015z"/>
		<path class="st11" d="M196.4902039,38.8809013v3.6665001c0,3.3675995,2.101593,5.6273994,5.5312958,5.6273994
			c1.800705,0,3.5155945-0.5541992,5.1884003-1.2363014c0.128006-0.0424995,0.256897-0.0854988,0.3858032-0.0854988
			c0.3856964,0,0.8143921,0.341301,0.8143921,0.767601c0,0.3407974-0.2137909,0.639698-0.5146027,0.7670975
			c-1.8437958,0.8101006-3.8153992,1.3218002-5.8739929,1.3218002c-2.1436005,0-3.944397-0.6821976-5.2304993-1.9609985
			c-1.2870941-1.2793007-1.972702-3.1123009-1.972702-5.2010994v-7.5889015c0-2.1318016,0.6856079-3.9223995,1.972702-5.2012005
			c1.2861023-1.2792988,3.0868988-1.9608994,5.2304993-1.9608994c2.1434937,0,3.9443054,0.6816006,5.2313995,1.9608994
			c1.2861023,1.278801,1.9716949,3.0693989,1.9716949,5.2012005v2.5581017c0,0.7670975-0.5995941,1.3642998-1.3721008,1.3642998
			H196.4902039z M207.5527039,34.8306007c0-3.4106998-2.1006012-5.4995003-5.5312042-5.4995003
			c-3.4297028,0-5.5312958,2.0888004-5.5312958,5.4995003v2.5155983h11.0625V34.8306007z"/>
		<path class="st11" d="M215.0966949,38.0278015c-1.972702-0.9804001-3.5596008-2.2168007-3.5596008-4.9878006
			c0-3.0268002,2.8730011-5.2436008,6.0028992-5.2436008c1.8008118,0,3.6445007,0.3833008,5.3174133,1.0228996
			c0.3427887,0.1280003,0.5145874,0.4263,0.5145874,0.767601c0,0.4263-0.343689,0.8100986-0.8583984,0.8100986
			c-0.0848999,0-0.2997894-0.0429993-0.3856964-0.0854988c-1.4579926-0.5967007-3.0009918-0.9804001-4.5879059-0.9804001
			c-1.9296875,0-4.3300934,1.2362995-4.3300934,3.7943993c0,2.0889015,1.5429993,2.9413986,2.7442017,3.4956017l3.6445007,1.7055969
			c2.3583984,1.1084023,4.1591949,2.9843025,4.1591949,5.4140015c0,3.3681984-2.7012024,5.9687996-6.3457031,5.9687996
			c-1.9296875,0-3.6026001-0.3838005-5.3603973-1.150898c-0.2997894-0.127903-0.5146027-0.4263-0.5146027-0.7251015
			c0-0.3833008,0.3437042-0.8525009,0.8153992-0.8525009c0.1278992,0,0.213913,0.0424004,0.342804,0.0853996
			c1.585907,0.6821022,3.0010071,1.1509018,4.7167969,1.1509018c2.5293121,0,4.6728058-1.4491997,4.6728058-4.0073013
			c0-2.2598-1.157196-3.3256989-3.3437042-4.3911972L215.0966949,38.0278015z"/>
	</g>
</g>
</svg>
