<?xml version="1.0" encoding="utf-8"?>
<!-- Generator: Adobe Illustrator 18.0.0, SVG Export Plug-In . SVG Version: 6.00 Build 0)  -->
<!DOCTYPE svg PUBLIC "-//W3C//DTD SVG 1.1//EN" "http://www.w3.org/Graphics/SVG/1.1/DTD/svg11.dtd">
<svg version="1.1" id="Layer_1" xmlns="http://www.w3.org/2000/svg" xmlns:xlink="http://www.w3.org/1999/xlink" x="0px" y="0px"
	 viewBox="0 0 472.3 163.3" enable-background="new 0 0 472.3 163.3" xml:space="preserve">
<path fill="#15397F" d="M75.9,115.8c0.8,1.1,2.5,1.1,3.8,0c1.3-1,1.6-2.8,0.8-3.8c-0.8-1.1-2.6-1.1-3.8,0
	C75.4,113.1,75,114.8,75.9,115.8"/>
<path fill="#15397F" d="M84,109.1c0.9,1.2,2.8,1.2,4.1,0c1.4-1.1,1.7-3,0.8-4.2c-0.9-1.2-2.8-1.2-4.2,0
	C83.4,106.1,83.1,107.9,84,109.1"/>
<path fill="#15397F" d="M97.1,102.4c1.5-1.2,1.9-3.3,0.9-4.5c-1-1.3-3-1.3-4.5,0c-1.5,1.2-1.9,3.2-0.9,4.5
	C93.7,103.6,95.7,103.6,97.1,102.4"/>
<path fill="#15397F" d="M88.5,87.6c1,1.2,3,1.3,4.5,0c1.5-1.2,1.9-3.3,0.9-4.5c-1-1.3-3-1.3-4.5,0C87.9,84.4,87.5,86.4,88.5,87.6"/>
<path fill="#15397F" d="M82.2,83.1c-1.5,1.2-1.9,3.2-0.9,4.5c1,1.2,3,1.3,4.5,0c1.5-1.2,1.9-3.2,0.9-4.5
	C85.7,81.9,83.7,81.9,82.2,83.1"/>
<path fill="#15397F" d="M74.6,87.5c0.9,1.1,2.8,1.2,4.1,0c1.4-1.1,1.7-3,0.8-4.2c-0.9-1.2-2.8-1.2-4.2,0
	C74.1,84.4,73.7,86.3,74.6,87.5"/>
<path fill="#15397F" d="M80,94.9c0.9,1.2,2.8,1.2,4.1,0c1.4-1.2,1.7-3,0.8-4.2c-0.9-1.2-2.8-1.2-4.2,0C79.4,91.9,79,93.8,80,94.9"/>
<path fill="#15397F" d="M67.8,122.6c0.8,1,2.3,1,3.5,0c1.1-1,1.5-2.5,0.7-3.5c-0.8-1-2.3-1-3.5,0C67.3,120,67,121.6,67.8,122.6"/>
<path fill="#15397F" d="M73,94.9c0.9,1.1,2.8,1.2,4.2,0c1.4-1.1,1.7-3,0.8-4.2c-0.9-1.1-2.8-1.2-4.2,0C72.5,91.9,72.1,93.8,73,94.9"
	/>
<path fill="#15397F" d="M69.4,98.2c-0.8-1.1-2.5-1.1-3.8,0c-1.3,1-1.6,2.7-0.7,3.8c0.8,1.1,2.5,1.1,3.8,0
	C69.9,101,70.2,99.3,69.4,98.2"/>
<path fill="#15397F" d="M66.3,94.8c0.8,1.1,2.5,1.1,3.8,0c1.3-1,1.6-2.7,0.8-3.8c-0.8-1.1-2.5-1.1-3.8,0
	C65.8,92,65.5,93.7,66.3,94.8"/>
<path fill="#15397F" d="M71.7,102c0.8,1.1,2.5,1.1,3.8,0c1.3-1,1.6-2.7,0.8-3.8c-0.8-1.1-2.6-1.1-3.8,0C71.2,99.3,70.9,101,71.7,102
	"/>
<path fill="#15397F" d="M90.3,98.1c-0.9-1.2-2.8-1.2-4.2,0c-1.4,1.1-1.7,3-0.8,4.1c0.9,1.2,2.8,1.2,4.1,0
	C90.9,101.1,91.2,99.2,90.3,98.1"/>
<path fill="#15397F" d="M68.5,83.3c-1.4,1.1-1.7,3-0.8,4.2c0.9,1.1,2.8,1.2,4.2,0c1.4-1.1,1.7-3,0.8-4.2
	C71.8,82.2,69.9,82.1,68.5,83.3"/>
<path fill="#15397F" d="M64,91c-0.8-1.1-2.5-1.1-3.8,0c-1.3,1.1-1.6,2.8-0.8,3.8c0.8,1.1,2.5,1.1,3.8,0C64.5,93.7,64.8,92,64,91"/>
<path fill="#15397F" d="M58.1,101.9c0.8,1,2.3,1,3.5,0c1.1-0.9,1.4-2.5,0.7-3.5c-0.8-1-2.3-1-3.5,0C57.6,99.3,57.3,100.9,58.1,101.9
	"/>
<path fill="#15397F" d="M73.3,112.2c-0.8-1-2.3-1-3.5,0c-1.1,1-1.5,2.5-0.7,3.5c0.8,1,2.3,1,3.5,0C73.8,114.7,74.1,113.2,73.3,112.2
	"/>
<path fill="#15397F" d="M63.6,108.8c0.8,1,2.3,1,3.5,0c1.1-0.9,1.5-2.5,0.7-3.5c-0.8-1-2.3-1-3.5,0
	C63.2,106.2,62.9,107.8,63.6,108.8"/>
<path fill="#15397F" d="M82.5,102.2c1.4-1.1,1.7-3,0.8-4.2c-0.9-1.2-2.8-1.2-4.2,0c-1.4,1.1-1.7,3-0.8,4.2
	C79.2,103.3,81.1,103.4,82.5,102.2"/>
<path fill="#15397F" d="M81.8,105.1c-0.8-1.1-2.5-1.1-3.8,0c-1.3,1-1.6,2.8-0.8,3.8c0.8,1.1,2.5,1.1,3.8,0
	C82.3,107.9,82.7,106.2,81.8,105.1"/>
<path fill="#15397F" d="M91.2,95.1c1.5-1.2,1.9-3.3,0.9-4.5c-1-1.3-3-1.3-4.5,0c-1.5,1.2-1.9,3.2-0.9,4.5
	C87.7,96.4,89.7,96.4,91.2,95.1"/>
<path fill="#15397F" d="M74.9,105.1c-0.8-1.1-2.5-1.1-3.8,0c-1.3,1.1-1.6,2.8-0.8,3.8c0.8,1.1,2.5,1.1,3.8,0
	C75.4,107.9,75.7,106.2,74.9,105.1"/>
<path fill="#15397F" d="M59.7,129.3c0.7,0.9,2.1,0.9,3.1,0c1-0.9,1.3-2.3,0.6-3.1c-0.7-0.9-2.1-0.9-3.1,0
	C59.3,127,59,128.4,59.7,129.3"/>
<path fill="#15397F" d="M21.8,149.3c0.4,0.5,1.2,0.5,1.7,0c0.6-0.5,0.7-1.2,0.3-1.7c-0.4-0.5-1.2-0.5-1.7,0
	C21.6,148.1,21.4,148.8,21.8,149.3"/>
<path fill="#15397F" d="M10.7,135.5c0.4,0.5,1.2,0.5,1.7,0c0.6-0.5,0.7-1.2,0.3-1.7c-0.4-0.5-1.2-0.5-1.7,0
	C10.5,134.2,10.3,135,10.7,135.5"/>
<path fill="#15397F" d="M16.3,142.4c0.4,0.5,1.2,0.5,1.7,0c0.6-0.5,0.7-1.2,0.3-1.7c-0.4-0.5-1.2-0.5-1.7,0
	C16,141.1,15.9,141.9,16.3,142.4"/>
<path fill="#15397F" d="M20.6,156c0.3,0.4,0.9,0.4,1.4,0c0.5-0.4,0.6-1,0.3-1.4c-0.3-0.4-0.9-0.4-1.4,0
	C20.5,155,20.3,155.7,20.6,156"/>
<path fill="#15397F" d="M19.3,163c0.3,0.4,0.9,0.4,1.4,0c0.5-0.4,0.6-1,0.3-1.4c-0.3-0.4-0.9-0.4-1.4,0
	C19.1,162,18.9,162.6,19.3,163"/>
<path fill="#15397F" d="M15.1,149.1c0.3,0.4,0.9,0.4,1.4,0c0.5-0.4,0.6-1,0.3-1.4c-0.3-0.4-0.9-0.4-1.4,0
	C14.9,148.1,14.8,148.7,15.1,149.1"/>
<path fill="#15397F" d="M9.5,142.2c0.3,0.4,0.9,0.4,1.4,0c0.5-0.4,0.6-1,0.3-1.4c-0.3-0.4-0.9-0.4-1.4,0
	C9.4,141.2,9.2,141.8,9.5,142.2"/>
<path fill="#15397F" d="M18.8,128.8c0.5,0.6,1.4,0.6,2.1,0c0.7-0.6,0.9-1.5,0.4-2.1c-0.5-0.6-1.4-0.6-2.1,0
	C18.5,127.3,18.3,128.2,18.8,128.8"/>
<path fill="#15397F" d="M27.4,156.2c0.4,0.5,1.2,0.5,1.7,0c0.6-0.5,0.7-1.2,0.3-1.7c-0.4-0.5-1.2-0.5-1.7,0
	C27.1,155,27,155.7,27.4,156.2"/>
<path fill="#15397F" d="M62.3,115.7c0.8,1,2.3,1,3.5,0c1.1-1,1.5-2.5,0.7-3.5c-0.8-1-2.3-1-3.5,0C61.8,113.1,61.5,114.7,62.3,115.7"
	/>
<path fill="#15397F" d="M24.4,135.7c0.4,0.6,1.4,0.6,2.1,0c0.7-0.6,0.9-1.5,0.4-2.1c-0.5-0.6-1.4-0.6-2.1,0
	C24.1,134.2,23.9,135.1,24.4,135.7"/>
<path fill="#15397F" d="M17.6,135.5c0.4,0.5,1.2,0.5,1.7,0c0.6-0.5,0.7-1.2,0.3-1.7c-0.4-0.5-1.2-0.5-1.7,0
	C17.4,134.2,17.3,135,17.6,135.5"/>
<path fill="#15397F" d="M23.2,142.4c0.4,0.5,1.2,0.5,1.7,0c0.6-0.5,0.7-1.2,0.3-1.7c-0.4-0.5-1.2-0.5-1.7,0
	C23,141.1,22.8,141.9,23.2,142.4"/>
<path fill="#15397F" d="M29.9,142.6c0.5,0.6,1.4,0.6,2.1,0c0.7-0.6,0.9-1.5,0.4-2.1c-0.5-0.6-1.4-0.6-2.1,0
	C29.6,141.1,29.4,142,29.9,142.6"/>
<path fill="#15397F" d="M0.1,155.8c0.2,0.3,0.7,0.3,1,0c0.3-0.3,0.4-0.7,0.2-0.9c-0.2-0.3-0.7-0.3-1,0C0,155.1-0.1,155.6,0.1,155.8"
	/>
<path fill="#15397F" d="M5.7,162.7c0.2,0.3,0.7,0.3,1,0c0.3-0.3,0.4-0.7,0.2-0.9c-0.2-0.3-0.7-0.3-1,0
	C5.5,162.1,5.4,162.5,5.7,162.7"/>
<path fill="#15397F" d="M13.7,156c0.3,0.4,0.9,0.4,1.4,0c0.5-0.4,0.6-1,0.3-1.4c-0.3-0.4-0.9-0.4-1.4,0
	C13.5,155,13.4,155.7,13.7,156"/>
<path fill="#15397F" d="M2.6,142.2c0.3,0.4,0.9,0.4,1.4,0s0.6-1,0.3-1.4c-0.3-0.4-0.9-0.4-1.4,0C2.4,141.2,2.3,141.8,2.6,142.2"/>
<path fill="#15397F" d="M8.2,149.1c0.3,0.4,0.9,0.4,1.4,0c0.5-0.4,0.6-1,0.3-1.4c-0.3-0.4-0.9-0.4-1.4,0
	C8,148.1,7.9,148.8,8.2,149.1"/>
<path fill="#15397F" d="M1.5,148.9c0.2,0.3,0.6,0.3,1,0c0.3-0.3,0.4-0.7,0.2-0.9c-0.2-0.3-0.7-0.3-1,0
	C1.4,148.2,1.3,148.6,1.5,148.9"/>
<path fill="#15397F" d="M7,155.8c0.2,0.3,0.7,0.3,1,0c0.3-0.3,0.4-0.7,0.2-0.9c-0.2-0.3-0.7-0.3-1,0C6.9,155.1,6.8,155.6,7,155.8"/>
<path fill="#15397F" d="M12.6,162.7c0.2,0.3,0.7,0.3,1,0c0.3-0.3,0.4-0.7,0.2-0.9c-0.2-0.3-0.7-0.3-1,0
	C12.5,162.1,12.4,162.5,12.6,162.7"/>
<path fill="#15397F" d="M28.7,149.3c0.4,0.5,1.2,0.5,1.7,0c0.6-0.5,0.7-1.2,0.3-1.7c-0.4-0.5-1.2-0.5-1.7,0
	C28.5,148.1,28.4,148.8,28.7,149.3"/>
<path fill="#15397F" d="M47.4,122.2c0.6,0.8,1.8,0.8,2.8,0c0.9-0.8,1.2-2,0.6-2.8c-0.6-0.8-1.8-0.8-2.8,0
	C47.1,120.2,46.8,121.4,47.4,122.2"/>
<path fill="#15397F" d="M48.6,115.5c0.7,0.9,2.1,0.9,3.1,0c1-0.9,1.3-2.3,0.6-3.1c-0.7-0.9-2.1-0.9-3.1,0
	C48.2,113.2,47.9,114.6,48.6,115.5"/>
<path fill="#15397F" d="M43.1,108.6c0.7,0.9,2.1,0.9,3.1,0c1-0.9,1.3-2.3,0.6-3.1c-0.7-0.9-2.1-0.9-3.1,0
	C42.7,106.3,42.4,107.7,43.1,108.6"/>
<path fill="#15397F" d="M53,129.1c0.6,0.8,1.8,0.8,2.8,0c0.9-0.8,1.2-2,0.6-2.8c-0.6-0.8-1.9-0.8-2.8,0
	C52.6,127.1,52.4,128.3,53,129.1"/>
<path fill="#15397F" d="M41.9,115.3c0.6,0.8,1.8,0.8,2.8,0c0.9-0.8,1.2-2,0.6-2.8c-0.6-0.8-1.9-0.8-2.8,0
	C41.5,113.3,41.3,114.5,41.9,115.3"/>
<path fill="#15397F" d="M51.6,136c0.6,0.8,1.9,0.8,2.8,0c0.9-0.8,1.2-2,0.5-2.8c-0.6-0.8-1.9-0.8-2.8,0C51.3,134,51,135.2,51.6,136"
	/>
<path fill="#15397F" d="M46.1,129.1c0.6,0.8,1.9,0.8,2.8,0c0.9-0.8,1.2-2,0.5-2.8c-0.6-0.8-1.8-0.8-2.8,0
	C45.7,127.1,45.5,128.3,46.1,129.1"/>
<path fill="#15397F" d="M51.2,101.9c0.8,1,2.3,1,3.5,0c1.1-0.9,1.5-2.5,0.7-3.5c-0.8-1-2.3-1-3.5,0C50.7,99.3,50.4,100.9,51.2,101.9
	"/>
<path fill="#15397F" d="M61.1,122.4c0.7,0.9,2.1,0.9,3.1,0c1-0.9,1.3-2.3,0.6-3.1c-0.7-0.9-2.1-0.9-3.1,0
	C60.7,120.1,60.4,121.5,61.1,122.4"/>
<path fill="#15397F" d="M56.7,108.8c0.8,1,2.3,1,3.5,0c1.1-0.9,1.5-2.5,0.7-3.5c-0.8-1-2.3-1-3.5,0
	C56.2,106.2,55.9,107.8,56.7,108.8"/>
<path fill="#15397F" d="M54.2,122.4c0.7,0.9,2.1,0.9,3.1,0c1-0.9,1.3-2.3,0.6-3.1c-0.7-0.9-2.1-0.9-3.1,0
	C53.8,120.1,53.5,121.5,54.2,122.4"/>
<path fill="#15397F" d="M55.5,115.5c0.7,0.9,2.1,0.9,3.1,0c1-0.9,1.3-2.3,0.6-3.1c-0.7-0.9-2.1-0.9-3.1,0
	C55.1,113.2,54.8,114.6,55.5,115.5"/>
<path fill="#15397F" d="M50,108.6c0.7,0.9,2.1,0.9,3.1,0c1-0.9,1.3-2.2,0.6-3.1c-0.7-0.9-2.1-0.9-3.1,0
	C49.6,106.3,49.3,107.7,50,108.6"/>
<path fill="#15397F" d="M32.4,128.9c0.5,0.7,1.6,0.7,2.4,0c0.8-0.7,1-1.8,0.5-2.4c-0.5-0.7-1.6-0.7-2.4,0
	C32.1,127.2,31.9,128.3,32.4,128.9"/>
<path fill="#15397F" d="M36.8,142.6c0.5,0.6,1.4,0.6,2.1,0c0.7-0.6,0.9-1.5,0.4-2.1c-0.5-0.6-1.4-0.6-2.1,0
	C36.5,141.1,36.4,142,36.8,142.6"/>
<path fill="#15397F" d="M38,135.8c0.5,0.7,1.6,0.7,2.4,0c0.8-0.7,1-1.8,0.5-2.4c-0.5-0.7-1.6-0.7-2.4,0
	C37.7,134.1,37.4,135.2,38,135.8"/>
<path fill="#15397F" d="M26.9,122c0.5,0.7,1.6,0.7,2.4,0c0.8-0.7,1-1.8,0.5-2.4c-0.5-0.7-1.6-0.7-2.4,0
	C26.6,120.3,26.4,121.4,26.9,122"/>
<path fill="#15397F" d="M35.4,149.5c0.5,0.6,1.4,0.6,2.1,0c0.7-0.6,0.9-1.5,0.4-2.1c-0.5-0.6-1.4-0.6-2.1,0
	C35.2,148,35,148.9,35.4,149.5"/>
<path fill="#15397F" d="M31.3,135.7c0.5,0.6,1.4,0.6,2.1,0c0.7-0.6,0.9-1.5,0.4-2.1c-0.5-0.6-1.4-0.6-2.1,0
	C31,134.2,30.8,135.1,31.3,135.7"/>
<path fill="#15397F" d="M25.7,128.8c0.4,0.6,1.4,0.6,2.1,0c0.7-0.6,0.9-1.5,0.4-2.1c-0.5-0.6-1.4-0.6-2.1,0
	C25.4,127.3,25.3,128.2,25.7,128.8"/>
<path fill="#15397F" d="M33.8,122c0.5,0.7,1.6,0.7,2.4,0c0.8-0.7,1-1.8,0.5-2.4c-0.5-0.7-1.6-0.7-2.4,0
	C33.5,120.3,33.3,121.4,33.8,122"/>
<path fill="#15397F" d="M43.5,142.7c0.5,0.7,1.6,0.7,2.4,0c0.8-0.7,1-1.8,0.5-2.4c-0.5-0.7-1.6-0.7-2.4,0
	C43.2,141,43,142.1,43.5,142.7"/>
<path fill="#15397F" d="M35,115.3c0.6,0.8,1.9,0.8,2.8,0c0.9-0.8,1.2-2,0.6-2.8c-0.6-0.8-1.9-0.8-2.8,0
	C34.6,113.3,34.4,114.5,35,115.3"/>
<path fill="#15397F" d="M44.9,135.8c0.5,0.7,1.6,0.7,2.4,0c0.8-0.7,1-1.7,0.5-2.4c-0.5-0.7-1.6-0.7-2.4,0
	C44.6,134.1,44.4,135.2,44.9,135.8"/>
<path fill="#15397F" d="M40.5,122.2c0.6,0.8,1.8,0.8,2.8,0c0.9-0.8,1.2-2,0.6-2.8c-0.6-0.8-1.9-0.8-2.8,0
	C40.2,120.2,39.9,121.4,40.5,122.2"/>
<path fill="#15397F" d="M39.4,128.9c0.5,0.7,1.6,0.7,2.4,0c0.8-0.7,1-1.8,0.5-2.4c-0.5-0.7-1.6-0.7-2.4,0
	C39,127.2,38.8,128.3,39.4,128.9"/>
<path fill="#15397F" d="M88.9,51.2c0.8,1,2.5,1,3.8,0c1.2-1.1,1.6-2.8,0.7-3.8c-0.8-1.1-2.5-1-3.8,0C88.3,48.5,88,50.2,88.9,51.2"/>
<path fill="#15397F" d="M94.5,58.3c0.9,1.1,2.8,1.1,4.2,0c1.4-1.1,1.7-3,0.8-4.2c-0.9-1.1-2.8-1.1-4.2,0
	C93.9,55.3,93.6,57.2,94.5,58.3"/>
<path fill="#15397F" d="M101.3,60.9c-1.5,1.2-1.9,3.3-0.9,4.5c1,1.2,3,1.2,4.5,0c1.5-1.2,1.9-3.3,0.9-4.5
	C104.8,59.6,102.8,59.6,101.3,60.9"/>
<path fill="#15397F" d="M90,80.1c1,1.2,3,1.2,4.5,0c1.5-1.2,1.9-3.3,0.9-4.5c-1-1.2-3-1.2-4.5,0C89.4,76.9,89,78.9,90,80.1"/>
<path fill="#15397F" d="M87.3,80.1c1.5-1.3,1.9-3.3,0.9-4.5c-1-1.2-3-1.2-4.5,0c-1.5,1.2-1.9,3.3-0.9,4.5
	C83.8,81.4,85.8,81.4,87.3,80.1"/>
<path fill="#15397F" d="M76,80c0.9,1.1,2.8,1.1,4.2,0c1.4-1.1,1.7-3,0.8-4.2c-0.9-1.1-2.8-1.1-4.1,0C75.5,77,75.1,78.8,76,80"/>
<path fill="#15397F" d="M84.6,72.5c0.9,1.2,2.8,1.1,4.2,0c1.4-1.2,1.7-3,0.8-4.2c-0.9-1.1-2.8-1.1-4.1,0
	C84,69.5,83.6,71.4,84.6,72.5"/>
<path fill="#15397F" d="M83.4,44.2c0.8,0.9,2.3,0.9,3.5,0c1.1-1,1.4-2.5,0.7-3.5c-0.8-1-2.3-0.9-3.5,0
	C82.9,41.7,82.7,43.2,83.4,44.2"/>
<path fill="#15397F" d="M77.6,72.5c0.9,1.1,2.8,1.1,4.2,0c1.4-1.1,1.7-3,0.8-4.2c-0.9-1.1-2.8-1.1-4.2,0
	C77.1,69.5,76.7,71.4,77.6,72.5"/>
<path fill="#15397F" d="M76.9,61.2c-0.9-1-2.6-1-3.8,0c-1.3,1.1-1.6,2.8-0.7,3.8c0.9,1,2.6,1,3.8,0C77.4,64,77.7,62.3,76.9,61.2"/>
<path fill="#15397F" d="M70.9,72.3c0.9,1,2.6,1,3.8,0c1.3-1.1,1.6-2.8,0.7-3.8c-0.9-1.1-2.6-1-3.8,0C70.4,69.6,70.1,71.3,70.9,72.3"
	/>
<path fill="#15397F" d="M79.3,65c0.9,1,2.6,1,3.8,0c1.3-1.1,1.6-2.8,0.7-3.8c-0.9-1.1-2.6-1-3.8,0C78.7,62.3,78.4,64,79.3,65"/>
<path fill="#15397F" d="M98.1,61c-0.9-1.1-2.8-1.1-4.2,0c-1.4,1.1-1.7,3-0.8,4.1c0.9,1.2,2.8,1.1,4.2,0C98.7,64,99.1,62.2,98.1,61"
	/>
<path fill="#15397F" d="M73.3,80c1.4-1.2,1.7-3,0.8-4.2c-0.9-1.1-2.8-1.1-4.2,0c-1.4,1.1-1.7,3-0.8,4.2C70,81.1,71.9,81.1,73.3,80"
	/>
<path fill="#15397F" d="M68.5,68.5c-0.8-1.1-2.6-1-3.8,0c-1.3,1.1-1.6,2.8-0.7,3.8c0.9,1,2.6,1,3.8,0C69,71.2,69.4,69.5,68.5,68.5"
	/>
<path fill="#15397F" d="M65.6,64.9c0.8,1,2.3,1,3.5,0c1.1-1,1.4-2.5,0.7-3.5c-0.8-0.9-2.3-0.9-3.5,0C65.1,62.4,64.8,63.9,65.6,64.9"
	/>
<path fill="#15397F" d="M86.2,47.6c-0.8-1-2.3-0.9-3.5,0c-1.1,1-1.4,2.5-0.7,3.5c0.8,1,2.3,0.9,3.5,0C86.7,50.1,87,48.5,86.2,47.6"
	/>
<path fill="#15397F" d="M73.9,58c0.8,1,2.3,0.9,3.5,0c1.1-1,1.4-2.5,0.7-3.5c-0.8-1-2.3-0.9-3.5,0C73.4,55.5,73.1,57,73.9,58"/>
<path fill="#15397F" d="M86.8,61.1c-1.4,1.2-1.7,3-0.8,4.2c0.9,1.1,2.8,1.1,4.2,0c1.4-1.1,1.7-3,0.8-4.2
	C90,59.9,88.1,59.9,86.8,61.1"/>
<path fill="#15397F" d="M92.1,54.3c-0.9-1.1-2.6-1-3.8,0c-1.3,1.1-1.6,2.8-0.7,3.8c0.9,1,2.6,1,3.8,0C92.6,57.1,92.9,55.4,92.1,54.3
	"/>
<path fill="#15397F" d="M92.3,68.2c-1.5,1.2-1.9,3.3-0.9,4.5c1,1.2,3,1.2,4.5,0c1.5-1.2,1.9-3.3,0.9-4.5
	C95.8,66.9,93.8,66.9,92.3,68.2"/>
<path fill="#15397F" d="M85.1,54.3c-0.8-1-2.6-1-3.8,0c-1.3,1.1-1.6,2.8-0.7,3.8c0.9,1,2.6,1,3.8,0C85.7,57.1,86,55.4,85.1,54.3"/>
<path fill="#15397F" d="M78,37.1c0.7,0.9,2.1,0.9,3.1,0c1-0.9,1.3-2.3,0.6-3.1c-0.7-0.9-2.1-0.9-3.1,0C77.6,34.8,77.3,36.2,78,37.1"
	/>
<path fill="#15397F" d="M48.1,15.7c0.4,0.5,1.2,0.5,1.7,0c0.6-0.5,0.7-1.2,0.3-1.7c-0.4-0.5-1.2-0.5-1.7,0
	C47.9,14.4,47.8,15.2,48.1,15.7"/>
<path fill="#15397F" d="M31.6,29.5c0.4,0.5,1.2,0.5,1.7,0c0.6-0.5,0.7-1.3,0.3-1.7c-0.4-0.5-1.2-0.5-1.7,0
	C31.4,28.2,31.3,29,31.6,29.5"/>
<path fill="#15397F" d="M39.9,22.6c0.4,0.5,1.2,0.5,1.7,0c0.6-0.5,0.7-1.2,0.3-1.7c-0.4-0.5-1.2-0.5-1.7,0
	C39.7,21.4,39.5,22.1,39.9,22.6"/>
<path fill="#15397F" d="M49.7,8.6C50,9,50.6,9,51.1,8.6c0.5-0.4,0.6-1,0.3-1.4c-0.3-0.4-0.9-0.4-1.4,0C49.5,7.6,49.4,8.2,49.7,8.6"
	/>
<path fill="#15397F" d="M51,1.7c0.3,0.4,0.9,0.4,1.4,0c0.5-0.4,0.6-1,0.3-1.4c-0.3-0.4-0.9-0.4-1.4,0C50.8,0.7,50.7,1.3,51,1.7"/>
<path fill="#15397F" d="M41.4,15.5c0.3,0.4,0.9,0.4,1.4,0c0.5-0.4,0.6-1,0.3-1.4c-0.3-0.4-0.9-0.4-1.4,0
	C41.2,14.5,41.1,15.1,41.4,15.5"/>
<path fill="#15397F" d="M33.2,22.4c0.3,0.4,1,0.4,1.4,0c0.5-0.4,0.6-1,0.3-1.4c-0.3-0.4-0.9-0.4-1.4,0C33,21.4,32.8,22,33.2,22.4"/>
<path fill="#15397F" d="M37,36.6c0.5,0.6,1.4,0.6,2.1,0c0.7-0.6,0.9-1.5,0.4-2.1c-0.5-0.6-1.4-0.6-2.1,0C36.8,35.1,36.6,36,37,36.6"
	/>
<path fill="#15397F" d="M56.4,8.8c0.4,0.5,1.2,0.5,1.7,0c0.6-0.5,0.7-1.2,0.3-1.7c-0.4-0.5-1.2-0.5-1.7,0C56.2,7.5,56,8.3,56.4,8.8"
	/>
<path fill="#15397F" d="M75.2,51.1c0.8,1,2.3,1,3.5,0c1.1-1,1.4-2.5,0.7-3.5c-0.8-1-2.3-0.9-3.5,0C74.7,48.6,74.4,50.1,75.2,51.1"/>
<path fill="#15397F" d="M45.3,29.7c0.5,0.6,1.4,0.6,2.1,0c0.7-0.6,0.9-1.5,0.4-2.1c-0.5-0.6-1.4-0.6-2.1,0
	C45,28.2,44.8,29.1,45.3,29.7"/>
<path fill="#15397F" d="M38.6,29.5c0.4,0.5,1.2,0.5,1.7,0c0.6-0.5,0.7-1.2,0.3-1.7c-0.4-0.5-1.2-0.5-1.7,0
	C38.3,28.3,38.2,29,38.6,29.5"/>
<path fill="#15397F" d="M46.8,22.6c0.4,0.5,1.2,0.5,1.7,0c0.6-0.5,0.7-1.2,0.3-1.7c-0.4-0.5-1.2-0.5-1.7,0
	C46.6,21.4,46.5,22.1,46.8,22.6"/>
<path fill="#15397F" d="M53.6,22.8c0.5,0.6,1.4,0.6,2.1,0c0.7-0.6,0.9-1.5,0.4-2.1c-0.5-0.6-1.4-0.6-2.1,0
	C53.3,21.3,53.1,22.2,53.6,22.8"/>
<path fill="#15397F" d="M29.1,8.4c0.2,0.3,0.7,0.3,1,0c0.3-0.3,0.4-0.7,0.2-0.9c-0.2-0.3-0.7-0.3-1,0C29,7.7,28.9,8.1,29.1,8.4"/>
<path fill="#15397F" d="M37.4,1.4c0.2,0.3,0.7,0.3,1,0c0.3-0.3,0.4-0.7,0.2-0.9c-0.2-0.3-0.7-0.3-1,0C37.2,0.8,37.1,1.2,37.4,1.4"/>
<path fill="#15397F" d="M42.7,8.6c0.3,0.4,0.9,0.4,1.4,0c0.5-0.4,0.6-1,0.3-1.4c-0.3-0.4-0.9-0.4-1.4,0C42.5,7.6,42.4,8.2,42.7,8.6"
	/>
<path fill="#15397F" d="M26.2,22.4c0.3,0.4,0.9,0.4,1.4,0c0.5-0.4,0.6-1,0.3-1.4c-0.3-0.4-1-0.4-1.4,0C26,21.4,25.9,22,26.2,22.4"/>
<path fill="#15397F" d="M34.5,15.5c0.3,0.4,0.9,0.4,1.4,0c0.5-0.4,0.6-1,0.3-1.4c-0.3-0.4-0.9-0.4-1.4,0
	C34.3,14.5,34.2,15.1,34.5,15.5"/>
<path fill="#15397F" d="M27.8,15.3c0.2,0.3,0.7,0.3,1,0c0.3-0.3,0.4-0.7,0.2-0.9c-0.2-0.3-0.7-0.2-1,0C27.7,14.6,27.6,15,27.8,15.3"
	/>
<path fill="#15397F" d="M36,8.4c0.2,0.3,0.7,0.3,1,0c0.3-0.2,0.4-0.7,0.2-0.9c-0.2-0.3-0.7-0.3-1,0C35.9,7.7,35.8,8.1,36,8.4"/>
<path fill="#15397F" d="M44.3,1.5c0.2,0.2,0.7,0.3,1,0c0.3-0.3,0.4-0.7,0.2-0.9c-0.2-0.3-0.7-0.3-1,0C44.2,0.8,44.1,1.2,44.3,1.5"/>
<path fill="#15397F" d="M55.1,15.7c0.4,0.5,1.2,0.5,1.7,0c0.6-0.5,0.7-1.3,0.3-1.7c-0.4-0.5-1.2-0.5-1.7,0
	C54.8,14.4,54.7,15.2,55.1,15.7"/>
<path fill="#15397F" d="M63,43.8c0.6,0.8,1.9,0.8,2.8,0c0.9-0.8,1.1-2,0.5-2.8c-0.6-0.8-1.9-0.8-2.8,0C62.7,41.8,62.4,43.1,63,43.8"
	/>
<path fill="#15397F" d="M61.5,50.9c0.7,0.9,2.1,0.9,3.1,0c1-0.9,1.3-2.3,0.6-3.1c-0.7-0.9-2.1-0.9-3.1,0
	C61.1,48.6,60.8,50,61.5,50.9"/>
<path fill="#15397F" d="M53.3,57.8c0.7,0.9,2.1,0.9,3.1,0c1-0.9,1.3-2.3,0.6-3.1c-0.7-0.9-2.1-0.8-3.1,0
	C52.8,55.5,52.6,56.9,53.3,57.8"/>
<path fill="#15397F" d="M71.3,36.9c0.6,0.8,1.9,0.8,2.8,0c0.9-0.8,1.1-2,0.5-2.8c-0.6-0.8-1.9-0.8-2.8,0
	C70.9,34.9,70.7,36.2,71.3,36.9"/>
<path fill="#15397F" d="M54.8,50.7c0.6,0.8,1.9,0.8,2.8,0c0.9-0.8,1.1-2,0.5-2.8c-0.6-0.8-1.9-0.7-2.8,0
	C54.4,48.7,54.2,50,54.8,50.7"/>
<path fill="#15397F" d="M72.6,30c0.6,0.8,1.9,0.8,2.8,0c0.9-0.8,1.1-2,0.5-2.8c-0.6-0.8-1.9-0.7-2.8,0C72.2,28,72,29.3,72.6,30"/>
<path fill="#15397F" d="M64.4,36.9c0.6,0.8,1.9,0.8,2.8,0c0.9-0.8,1.1-2,0.5-2.8c-0.6-0.8-1.9-0.8-2.8,0
	C64,34.9,63.8,36.2,64.4,36.9"/>
<path fill="#15397F" d="M58.7,64.9c0.8,1,2.3,1,3.5,0c1.1-1,1.4-2.5,0.7-3.5c-0.8-1-2.3-1-3.5,0C58.2,62.4,57.9,63.9,58.7,64.9"/>
<path fill="#15397F" d="M76.7,44c0.7,0.9,2.1,0.8,3.1,0c1-0.9,1.3-2.3,0.6-3.1c-0.7-0.9-2.1-0.9-3.1,0C76.3,41.7,76,43.1,76.7,44"/>
<path fill="#15397F" d="M66.9,58c0.8,1,2.3,1,3.5,0c1.1-1,1.4-2.5,0.7-3.5c-0.8-1-2.3-0.9-3.5,0C66.4,55.5,66.2,57,66.9,58"/>
<path fill="#15397F" d="M69.8,44c0.7,0.9,2.1,0.9,3.1,0c1-0.9,1.3-2.3,0.6-3.1c-0.7-0.9-2.1-0.9-3.1,0C69.3,41.7,69.1,43.1,69.8,44"
	/>
<path fill="#15397F" d="M68.5,50.9c0.7,0.9,2.1,0.9,3.1,0c1-0.9,1.3-2.3,0.6-3.1c-0.7-0.9-2.1-0.9-3.1,0C68,48.6,67.8,50,68.5,50.9"
	/>
<path fill="#15397F" d="M60.2,57.8c0.7,0.9,2.1,0.8,3.1,0c1-0.9,1.3-2.3,0.6-3.1c-0.7-0.9-2.1-0.9-3.1,0
	C59.8,55.5,59.5,56.9,60.2,57.8"/>
<path fill="#15397F" d="M50.7,36.7c0.5,0.7,1.6,0.7,2.4,0c0.8-0.7,1-1.8,0.5-2.4c-0.5-0.7-1.6-0.7-2.4,0
	C50.4,35,50.2,36.1,50.7,36.7"/>
<path fill="#15397F" d="M60.5,22.8c0.5,0.6,1.4,0.6,2.1,0c0.7-0.6,0.9-1.5,0.4-2.1c-0.5-0.6-1.4-0.6-2.1,0
	C60.2,21.3,60,22.2,60.5,22.8"/>
<path fill="#15397F" d="M59,29.9c0.5,0.7,1.6,0.7,2.4,0c0.8-0.7,1-1.8,0.5-2.4c-0.5-0.7-1.6-0.7-2.4,0C58.6,28.1,58.4,29.2,59,29.9"
	/>
<path fill="#15397F" d="M42.5,43.6c0.5,0.7,1.6,0.7,2.4,0c0.8-0.7,1-1.8,0.5-2.4c-0.5-0.7-1.6-0.7-2.4,0
	C42.1,41.9,41.9,43,42.5,43.6"/>
<path fill="#15397F" d="M61.8,15.9c0.5,0.6,1.4,0.6,2.1,0c0.7-0.6,0.9-1.5,0.4-2.1c-0.5-0.6-1.4-0.6-2.1,0
	C61.5,14.4,61.3,15.3,61.8,15.9"/>
<path fill="#15397F" d="M52.2,29.7c0.5,0.6,1.4,0.6,2.1,0c0.7-0.6,0.9-1.5,0.4-2.1c-0.5-0.6-1.4-0.6-2.1,0
	C51.9,28.2,51.8,29.1,52.2,29.7"/>
<path fill="#15397F" d="M44,36.6c0.5,0.6,1.4,0.6,2.1,0c0.7-0.6,0.9-1.5,0.4-2.1c-0.5-0.6-1.4-0.6-2.1,0C43.7,35.1,43.5,36,44,36.6"
	/>
<path fill="#15397F" d="M49.4,43.6c0.5,0.7,1.6,0.7,2.4,0c0.8-0.7,1-1.8,0.5-2.4c-0.5-0.7-1.6-0.7-2.4,0
	C49.1,41.9,48.8,43,49.4,43.6"/>
<path fill="#15397F" d="M67.2,23c0.5,0.7,1.6,0.7,2.4,0c0.8-0.7,1-1.8,0.5-2.4c-0.5-0.7-1.6-0.7-2.4,0C66.9,21.2,66.7,22.3,67.2,23"
	/>
<path fill="#15397F" d="M47.9,50.7c0.6,0.8,1.9,0.8,2.8,0c0.9-0.8,1.1-2,0.5-2.8c-0.6-0.8-1.9-0.8-2.8,0
	C47.5,48.7,47.2,50,47.9,50.7"/>
<path fill="#15397F" d="M65.9,29.8c0.5,0.7,1.6,0.7,2.4,0c0.8-0.7,1-1.8,0.5-2.4c-0.6-0.7-1.6-0.7-2.4,0
	C65.6,28.1,65.4,29.2,65.9,29.8"/>
<path fill="#15397F" d="M56.1,43.8c0.6,0.8,1.9,0.8,2.8,0c0.9-0.8,1.1-2,0.5-2.8c-0.6-0.8-1.9-0.8-2.8,0
	C55.7,41.8,55.5,43.1,56.1,43.8"/>
<path fill="#15397F" d="M57.6,36.8c0.5,0.7,1.6,0.7,2.4,0c0.8-0.7,1-1.8,0.5-2.4c-0.5-0.7-1.6-0.7-2.4,0
	C57.3,35,57.1,36.1,57.6,36.8"/>
<path fill="#15397F" d="M106.8,68c-1.6,1.3-2,3.5-1,4.9c1.1,1.3,3.2,1.3,4.8,0c1.6-1.3,2-3.5,1-4.9C110.6,66.6,108.4,66.6,106.8,68"
	/>
<path fill="#15397F" d="M106.1,95.3c1.6-1.3,2-3.5,0.9-4.9c-1.1-1.3-3.3-1.3-4.9,0c-1.6,1.3-2,3.5-0.9,4.9
	C102.3,96.6,104.5,96.6,106.1,95.3"/>
<path fill="#15397F" d="M103.7,83c-1.6,1.3-2,3.5-0.9,4.8c1.1,1.3,3.3,1.3,4.8,0c1.6-1.3,2-3.5,0.9-4.9
	C107.5,81.6,105.3,81.6,103.7,83"/>
<path fill="#15397F" d="M105.2,75.5c-1.6,1.3-2,3.5-0.9,4.9c1.1,1.3,3.3,1.3,4.8,0c1.6-1.3,2-3.5,0.9-4.9
	C109,74.1,106.8,74.1,105.2,75.5"/>
<path fill="#15397F" d="M96.5,83c-1.6,1.3-2,3.5-0.9,4.8c1.1,1.3,3.3,1.3,4.9,0c1.6-1.3,2-3.5,0.9-4.9C100.3,81.6,98.1,81.6,96.5,83
	"/>
<path fill="#15397F" d="M98.1,75.5c-1.6,1.3-2,3.5-0.9,4.9c1.1,1.3,3.3,1.3,4.9,0c1.6-1.3,2-3.5,0.9-4.9
	C101.9,74.1,99.7,74.1,98.1,75.5"/>
<path fill="#15397F" d="M99.7,68c-1.6,1.3-2,3.5-0.9,4.8c1.1,1.3,3.3,1.3,4.9,0c1.6-1.4,2-3.5,0.9-4.9
	C103.4,66.6,101.3,66.6,99.7,68"/>
<path fill="#15397F" d="M95,90.4c-1.6,1.3-2,3.5-0.9,4.8c1.1,1.3,3.3,1.3,4.9,0c1.6-1.4,2-3.5,0.9-4.9C98.8,89.1,96.6,89.1,95,90.4"
	/>
<path fill="#BBC2DB" d="M137.1,47.4c-0.8-1.1-2.5-1.1-3.8,0c-1.3,1-1.6,2.8-0.8,3.8c0.8,1.1,2.5,1.1,3.8,0
	C137.6,50.2,137.9,48.5,137.1,47.4"/>
<path fill="#BBC2DB" d="M128.7,54.2c-0.9-1.1-2.8-1.2-4.2,0c-1.4,1.1-1.7,3-0.8,4.2c0.9,1.1,2.8,1.2,4.2,0
	C129.3,57.2,129.6,55.3,128.7,54.2"/>
<path fill="#BBC2DB" d="M124.4,75.6c-1-1.2-3-1.3-4.5,0c-1.5,1.2-1.9,3.2-0.9,4.5c1,1.3,3,1.3,4.5,0C125,78.9,125.4,76.9,124.4,75.6
	"/>
<path fill="#BBC2DB" d="M130.7,80.1c1.5-1.2,1.9-3.3,0.9-4.5c-1-1.2-3-1.3-4.5,0c-1.5,1.2-1.9,3.2-0.9,4.5S129.2,81.4,130.7,80.1"/>
<path fill="#BBC2DB" d="M138.3,75.8c-0.9-1.1-2.8-1.1-4.1,0c-1.4,1.1-1.7,3-0.8,4.2c0.9,1.2,2.8,1.2,4.2,0
	C138.9,78.8,139.2,77,138.3,75.8"/>
<path fill="#BBC2DB" d="M133,68.3c-0.9-1.2-2.8-1.2-4.2,0c-1.4,1.1-1.7,3-0.8,4.2c0.9,1.1,2.8,1.2,4.2,0
	C133.5,71.4,133.9,69.5,133,68.3"/>
<path fill="#BBC2DB" d="M145.1,40.7c-0.8-1-2.3-1-3.5,0c-1.2,1-1.5,2.5-0.7,3.5c0.8,1,2.3,1,3.5,0C145.6,43.2,145.9,41.7,145.1,40.7
	"/>
<path fill="#BBC2DB" d="M139.9,68.3c-0.9-1.1-2.8-1.2-4.2,0c-1.4,1.1-1.7,3-0.8,4.2c0.9,1.1,2.8,1.2,4.2,0
	C140.4,71.4,140.8,69.5,139.9,68.3"/>
<path fill="#BBC2DB" d="M143.6,65c0.8,1.1,2.5,1.1,3.8,0c1.3-1,1.6-2.8,0.8-3.8c-0.8-1.1-2.6-1.1-3.8,0
	C143.1,62.3,142.7,64,143.6,65"/>
<path fill="#BBC2DB" d="M146.6,68.5c-0.8-1.1-2.5-1.1-3.8,0c-1.3,1-1.6,2.7-0.8,3.8c0.8,1.1,2.6,1.1,3.8,0
	C147.1,71.3,147.4,69.6,146.6,68.5"/>
<path fill="#BBC2DB" d="M141.2,61.2c-0.8-1.1-2.5-1.1-3.8,0c-1.3,1-1.6,2.7-0.8,3.8c0.8,1.1,2.5,1.1,3.8,0
	C141.7,64,142.1,62.3,141.2,61.2"/>
<path fill="#BBC2DB" d="M122.4,65.2c0.9,1.2,2.8,1.2,4.2,0c1.4-1.1,1.7-3,0.8-4.1c-0.9-1.1-2.8-1.2-4.1,0
	C121.8,62.2,121.5,64,122.4,65.2"/>
<path fill="#BBC2DB" d="M144.4,80c1.4-1.1,1.7-3,0.8-4.2c-0.9-1.2-2.8-1.2-4.2,0c-1.4,1.1-1.7,3-0.8,4.2
	C141.2,81.1,143,81.1,144.4,80"/>
<path fill="#BBC2DB" d="M149,72.3c0.8,1.1,2.5,1.1,3.8,0c1.3-1.1,1.6-2.8,0.8-3.8c-0.8-1.1-2.5-1.1-3.8,0
	C148.5,69.5,148.1,71.2,149,72.3"/>
<path fill="#BBC2DB" d="M154.9,61.4c-0.8-1-2.3-1-3.5,0c-1.1,1-1.5,2.5-0.7,3.5c0.8,1,2.3,1,3.5,0C155.3,63.9,155.6,62.4,154.9,61.4
	"/>
<path fill="#BBC2DB" d="M139.6,51.1c0.8,1,2.3,1,3.5,0c1.1-1,1.4-2.5,0.7-3.5c-0.8-1-2.3-1-3.5,0C139.2,48.5,138.9,50.1,139.6,51.1"
	/>
<path fill="#BBC2DB" d="M149.3,54.5c-0.8-1-2.3-1-3.5,0c-1.1,1-1.5,2.5-0.7,3.5c0.8,1,2.3,1,3.5,0C149.8,57,150.1,55.5,149.3,54.5"
	/>
<path fill="#BBC2DB" d="M130.4,61c-1.4,1.1-1.7,3-0.8,4.2c0.9,1.2,2.8,1.2,4.2,0c1.4-1.1,1.7-3,0.8-4.2
	C133.6,59.9,131.7,59.9,130.4,61"/>
<path fill="#BBC2DB" d="M131.1,58.1c0.8,1.1,2.5,1.1,3.8,0c1.3-1.1,1.6-2.7,0.8-3.8c-0.8-1.1-2.5-1.1-3.8,0
	C130.6,55.4,130.3,57.1,131.1,58.1"/>
<path fill="#BBC2DB" d="M121.5,68.1c-1.5,1.2-1.9,3.3-0.9,4.5c1,1.2,3,1.3,4.5,0c1.5-1.2,1.9-3.2,0.9-4.5
	C125,66.9,123,66.9,121.5,68.1"/>
<path fill="#BBC2DB" d="M138,58.1c0.8,1.1,2.5,1.1,3.8,0c1.3-1.1,1.6-2.8,0.7-3.8c-0.8-1.1-2.5-1.1-3.8,0
	C137.5,55.4,137.2,57.1,138,58.1"/>
<path fill="#BBC2DB" d="M153.2,34c-0.7-0.9-2.1-0.9-3.1,0c-1,0.9-1.3,2.3-0.6,3.1c0.7,0.9,2.1,0.9,3.1,0
	C153.6,36.2,153.9,34.8,153.2,34"/>
<path fill="#BBC2DB" d="M191.1,14c-0.4-0.5-1.2-0.5-1.7,0c-0.6,0.5-0.7,1.2-0.3,1.7c0.4,0.5,1.2,0.5,1.7,0
	C191.4,15.2,191.5,14.4,191.1,14"/>
<path fill="#BBC2DB" d="M202.2,27.8c-0.4-0.5-1.2-0.5-1.7,0c-0.6,0.5-0.7,1.2-0.3,1.7c0.4,0.5,1.2,0.5,1.7,0
	C202.5,29,202.6,28.2,202.2,27.8"/>
<path fill="#BBC2DB" d="M196.7,20.9c-0.4-0.5-1.2-0.5-1.7,0c-0.6,0.5-0.7,1.2-0.3,1.7c0.4,0.5,1.2,0.5,1.7,0
	C196.9,22.1,197.1,21.4,196.7,20.9"/>
<path fill="#BBC2DB" d="M192.3,7.2c-0.3-0.4-0.9-0.4-1.4,0c-0.5,0.4-0.6,1-0.3,1.4c0.3,0.4,0.9,0.4,1.4,0
	C192.5,8.2,192.6,7.6,192.3,7.2"/>
<path fill="#BBC2DB" d="M193.7,0.3c-0.3-0.4-0.9-0.4-1.4,0c-0.5,0.4-0.6,1-0.3,1.4c0.3,0.4,0.9,0.4,1.4,0
	C193.9,1.3,194,0.7,193.7,0.3"/>
<path fill="#BBC2DB" d="M197.9,14.1c-0.3-0.4-0.9-0.4-1.4,0c-0.5,0.4-0.6,1-0.3,1.4c0.3,0.4,0.9,0.4,1.4,0
	C198,15.1,198.2,14.5,197.9,14.1"/>
<path fill="#BBC2DB" d="M203.4,21c-0.3-0.4-0.9-0.4-1.4,0c-0.5,0.4-0.6,1-0.3,1.4c0.3,0.4,0.9,0.4,1.4,0
	C203.6,22,203.7,21.4,203.4,21"/>
<path fill="#BBC2DB" d="M194.1,34.5c-0.5-0.6-1.4-0.6-2.1,0c-0.7,0.6-0.9,1.5-0.4,2.1c0.5,0.6,1.4,0.6,2.1,0
	C194.4,36,194.6,35.1,194.1,34.5"/>
<path fill="#BBC2DB" d="M185.6,7c-0.4-0.5-1.1-0.5-1.7,0c-0.6,0.5-0.7,1.2-0.4,1.7c0.4,0.5,1.2,0.5,1.7,0C185.8,8.3,186,7.5,185.6,7
	"/>
<path fill="#BBC2DB" d="M150.7,47.6c-0.8-1-2.3-1-3.5,0c-1.1,1-1.5,2.5-0.7,3.5c0.8,1,2.3,1,3.5,0C151.2,50.1,151.5,48.6,150.7,47.6
	"/>
<path fill="#BBC2DB" d="M188.6,27.6c-0.5-0.6-1.4-0.6-2.1,0c-0.7,0.6-0.9,1.5-0.4,2.1c0.5,0.6,1.4,0.6,2.1,0
	C188.9,29.1,189.1,28.2,188.6,27.6"/>
<path fill="#BBC2DB" d="M195.3,27.8c-0.4-0.5-1.2-0.5-1.7,0c-0.6,0.5-0.7,1.2-0.3,1.7c0.4,0.5,1.2,0.5,1.7,0
	C195.5,29,195.7,28.3,195.3,27.8"/>
<path fill="#BBC2DB" d="M189.8,20.9c-0.4-0.5-1.2-0.5-1.7,0c-0.6,0.5-0.7,1.2-0.3,1.7c0.4,0.5,1.2,0.5,1.7,0
	C190,22.1,190.1,21.4,189.8,20.9"/>
<path fill="#BBC2DB" d="M183,20.7c-0.5-0.6-1.4-0.6-2.1,0c-0.7,0.6-0.9,1.5-0.4,2.1c0.5,0.6,1.4,0.6,2.1,0
	C183.3,22.2,183.5,21.3,183,20.7"/>
<path fill="#BBC2DB" d="M212.8,7.4c-0.2-0.3-0.7-0.3-1,0c-0.3,0.3-0.4,0.7-0.2,0.9c0.2,0.3,0.7,0.3,1,0C213,8.1,213,7.7,212.8,7.4"
	/>
<path fill="#BBC2DB" d="M207.3,0.5c-0.2-0.3-0.7-0.3-1,0c-0.3,0.3-0.4,0.7-0.2,0.9c0.2,0.3,0.7,0.3,1,0
	C207.4,1.2,207.5,0.8,207.3,0.5"/>
<path fill="#BBC2DB" d="M199.2,7.2c-0.3-0.4-0.9-0.4-1.4,0c-0.5,0.4-0.6,1-0.3,1.4c0.3,0.4,0.9,0.4,1.4,0
	C199.4,8.2,199.5,7.6,199.2,7.2"/>
<path fill="#BBC2DB" d="M210.3,21c-0.3-0.4-0.9-0.4-1.4,0c-0.5,0.4-0.6,1-0.3,1.4c0.3,0.4,0.9,0.4,1.4,0
	C210.5,22,210.6,21.4,210.3,21"/>
<path fill="#BBC2DB" d="M204.8,14.1c-0.3-0.4-0.9-0.4-1.4,0c-0.5,0.4-0.6,1-0.3,1.4c0.3,0.4,0.9,0.4,1.4,0
	C205,15.1,205.1,14.5,204.8,14.1"/>
<path fill="#BBC2DB" d="M211.4,14.4c-0.2-0.3-0.6-0.3-1,0c-0.3,0.3-0.4,0.7-0.2,0.9c0.2,0.3,0.7,0.3,1,0
	C211.6,15,211.7,14.6,211.4,14.4"/>
<path fill="#BBC2DB" d="M205.9,7.4c-0.2-0.3-0.6-0.3-1,0c-0.3,0.2-0.4,0.7-0.2,0.9c0.2,0.3,0.7,0.3,1,0C206,8.1,206.1,7.7,205.9,7.4
	"/>
<path fill="#BBC2DB" d="M200.4,0.5c-0.2-0.3-0.7-0.3-1,0c-0.3,0.3-0.4,0.7-0.2,0.9c0.2,0.3,0.7,0.2,1,0
	C200.5,1.2,200.6,0.8,200.4,0.5"/>
<path fill="#BBC2DB" d="M184.2,14c-0.4-0.5-1.2-0.5-1.7,0c-0.6,0.5-0.7,1.2-0.3,1.7c0.4,0.5,1.2,0.5,1.7,0
	C184.4,15.2,184.6,14.4,184.2,14"/>
<path fill="#BBC2DB" d="M165.5,41c-0.6-0.8-1.9-0.8-2.8,0c-0.9,0.8-1.2,2-0.6,2.8c0.6,0.8,1.9,0.8,2.8,0
	C165.9,43.1,166.1,41.8,165.5,41"/>
<path fill="#BBC2DB" d="M164.3,47.8c-0.7-0.9-2.1-0.9-3.1,0c-1,0.9-1.3,2.3-0.6,3.1c0.7,0.9,2.1,0.9,3.1,0
	C164.7,50,165,48.6,164.3,47.8"/>
<path fill="#BBC2DB" d="M169.9,54.7c-0.7-0.9-2.1-0.9-3.1,0c-1,0.9-1.3,2.3-0.6,3.1c0.7,0.9,2.1,0.9,3.1,0
	C170.3,56.9,170.6,55.5,169.9,54.7"/>
<path fill="#BBC2DB" d="M159.9,34.2c-0.6-0.8-1.8-0.8-2.8,0c-0.9,0.8-1.2,2-0.5,2.8c0.6,0.8,1.8,0.8,2.8,0
	C160.3,36.2,160.6,34.9,159.9,34.2"/>
<path fill="#BBC2DB" d="M171,47.9c-0.6-0.8-1.9-0.8-2.8,0c-0.9,0.8-1.2,2-0.6,2.8c0.6,0.8,1.8,0.8,2.8,0
	C171.4,50,171.7,48.7,171,47.9"/>
<path fill="#BBC2DB" d="M161.3,27.2c-0.6-0.8-1.9-0.8-2.8,0c-0.9,0.8-1.2,2-0.6,2.8c0.6,0.8,1.9,0.8,2.8,0
	C161.7,29.3,161.9,28,161.3,27.2"/>
<path fill="#BBC2DB" d="M166.9,34.2c-0.6-0.8-1.8-0.8-2.8,0c-0.9,0.8-1.2,2-0.6,2.8c0.6,0.8,1.9,0.8,2.8,0
	C167.2,36.2,167.5,34.9,166.9,34.2"/>
<path fill="#BBC2DB" d="M161.8,61.4c-0.8-1-2.3-1-3.5,0c-1.1,0.9-1.5,2.5-0.7,3.5c0.8,1,2.3,1,3.5,0
	C162.3,63.9,162.6,62.4,161.8,61.4"/>
<path fill="#BBC2DB" d="M151.9,40.9c-0.7-0.9-2.1-0.9-3.1,0c-1,0.9-1.3,2.3-0.6,3.1c0.7,0.9,2.1,0.9,3.1,0
	C152.3,43.1,152.5,41.7,151.9,40.9"/>
<path fill="#BBC2DB" d="M156.2,54.5c-0.8-1-2.3-1-3.5,0c-1.1,1-1.5,2.5-0.7,3.5c0.8,1,2.3,1,3.5,0C156.7,57,157,55.5,156.2,54.5"/>
<path fill="#BBC2DB" d="M158.8,40.9c-0.7-0.9-2.1-0.9-3.1,0c-1,0.9-1.3,2.3-0.6,3.1c0.7,0.9,2.1,0.9,3.1,0
	C159.2,43.1,159.5,41.7,158.8,40.9"/>
<path fill="#BBC2DB" d="M157.4,47.8c-0.7-0.9-2.1-0.9-3.1,0c-1,0.9-1.3,2.2-0.6,3.1c0.7,0.9,2.1,0.9,3.1,0
	C157.8,50,158.1,48.6,157.4,47.8"/>
<path fill="#BBC2DB" d="M162.9,54.7c-0.7-0.9-2.1-0.9-3.1,0c-1,0.9-1.3,2.2-0.6,3.1c0.7,0.9,2.1,0.9,3.1,0
	C163.4,56.9,163.6,55.5,162.9,54.7"/>
<path fill="#BBC2DB" d="M180.5,34.3c-0.5-0.7-1.6-0.7-2.4,0c-0.8,0.7-1,1.8-0.5,2.4c0.5,0.7,1.6,0.7,2.4,0
	C180.8,36.1,181,35,180.5,34.3"/>
<path fill="#BBC2DB" d="M176.1,20.7c-0.5-0.6-1.4-0.6-2.1,0c-0.7,0.6-0.9,1.5-0.4,2.1c0.5,0.6,1.4,0.6,2.1,0
	C176.4,22.2,176.6,21.3,176.1,20.7"/>
<path fill="#BBC2DB" d="M175,27.4c-0.5-0.7-1.6-0.7-2.4,0c-0.8,0.7-1,1.8-0.5,2.4c0.5,0.7,1.6,0.7,2.4,0
	C175.3,29.2,175.5,28.1,175,27.4"/>
<path fill="#BBC2DB" d="M186.1,41.2c-0.5-0.7-1.6-0.7-2.4,0c-0.8,0.7-1,1.8-0.5,2.4c0.5,0.7,1.6,0.7,2.4,0
	C186.4,43,186.6,41.9,186.1,41.2"/>
<path fill="#BBC2DB" d="M177.5,13.8c-0.5-0.6-1.4-0.6-2.1,0c-0.7,0.6-0.9,1.5-0.4,2.1c0.5,0.6,1.4,0.6,2.1,0
	C177.8,15.3,178,14.4,177.5,13.8"/>
<path fill="#BBC2DB" d="M181.7,27.6c-0.5-0.6-1.4-0.6-2.1,0c-0.7,0.6-0.9,1.5-0.4,2.1c0.5,0.6,1.4,0.6,2.1,0
	C181.9,29.1,182.1,28.2,181.7,27.6"/>
<path fill="#BBC2DB" d="M187.2,34.5c-0.5-0.6-1.4-0.6-2.1,0c-0.7,0.6-0.9,1.5-0.4,2.1c0.5,0.6,1.4,0.6,2.1,0
	C187.5,36,187.7,35.1,187.2,34.5"/>
<path fill="#BBC2DB" d="M179.1,41.2c-0.5-0.7-1.6-0.7-2.4,0c-0.8,0.7-1,1.8-0.5,2.4c0.5,0.7,1.6,0.7,2.4,0
	C179.5,43,179.7,41.9,179.1,41.2"/>
<path fill="#BBC2DB" d="M169.4,20.5c-0.5-0.7-1.6-0.7-2.4,0c-0.8,0.7-1,1.8-0.5,2.4c0.5,0.7,1.6,0.7,2.4,0
	C169.7,22.3,169.9,21.2,169.4,20.5"/>
<path fill="#BBC2DB" d="M178,47.9c-0.6-0.8-1.8-0.8-2.8,0c-0.9,0.8-1.2,2-0.6,2.8c0.6,0.8,1.9,0.8,2.8,0
	C178.3,50,178.6,48.7,178,47.9"/>
<path fill="#BBC2DB" d="M168,27.4c-0.5-0.7-1.6-0.7-2.4,0c-0.8,0.7-1,1.8-0.5,2.4c0.5,0.7,1.6,0.7,2.4,0
	C168.4,29.2,168.6,28.1,168,27.4"/>
<path fill="#BBC2DB" d="M172.4,41c-0.6-0.8-1.8-0.8-2.8,0c-0.9,0.8-1.2,2-0.6,2.8c0.6,0.8,1.9,0.8,2.8,0
	C172.8,43.1,173,41.8,172.4,41"/>
<path fill="#BBC2DB" d="M173.6,34.3c-0.5-0.7-1.6-0.7-2.4,0c-0.8,0.7-1,1.8-0.5,2.4c0.5,0.7,1.6,0.7,2.4,0
	C173.9,36.1,174.1,35,173.6,34.3"/>
<path fill="#BBC2DB" d="M124,112c-0.9-1-2.6-1-3.8,0c-1.3,1-1.6,2.8-0.7,3.8c0.9,1.1,2.6,1,3.8,0C124.6,114.8,124.9,113.1,124,112"
	/>
<path fill="#BBC2DB" d="M118.4,104.9c-0.9-1.1-2.8-1.1-4.2,0c-1.4,1.2-1.7,3-0.8,4.2c0.9,1.1,2.8,1.1,4.1,0
	C119,107.9,119.3,106.1,118.4,104.9"/>
<path fill="#BBC2DB" d="M122.9,83.1c-1-1.2-3-1.2-4.5,0c-1.5,1.2-1.9,3.3-0.9,4.5c1,1.2,3,1.2,4.5,0
	C123.5,86.4,123.9,84.4,122.9,83.1"/>
<path fill="#BBC2DB" d="M125.5,83.1c-1.5,1.3-1.9,3.3-0.8,4.5c1,1.2,3,1.2,4.5,0c1.5-1.3,1.9-3.3,0.9-4.5
	C129,81.9,127,81.9,125.5,83.1"/>
<path fill="#BBC2DB" d="M136.8,83.3c-0.9-1.2-2.8-1.1-4.2,0c-1.4,1.1-1.7,3-0.8,4.2c0.9,1.1,2.8,1.1,4.2,0
	C137.4,86.3,137.7,84.4,136.8,83.3"/>
<path fill="#15397F" d="M116.3,80.3c1.6-1.3,2-3.5,1-4.9c-1.1-1.3-3.2-1.3-4.8,0c-1.6,1.3-2,3.5-1,4.8
	C112.5,81.7,114.7,81.7,116.3,80.3"/>
<path fill="#15397F" d="M110.8,83c-1.6,1.3-2,3.5-0.9,4.8c1.1,1.3,3.2,1.3,4.8,0c1.6-1.3,2-3.5,0.9-4.9
	C114.6,81.6,112.4,81.6,110.8,83"/>
<path fill="#BBC2DB" d="M115.7,60.9c-1.5,1.2-1.9,3.3-0.9,4.5c1,1.3,3,1.3,4.5,0c1.5-1.2,1.9-3.3,0.9-4.5
	C119.2,59.6,117.1,59.6,115.7,60.9"/>
<path fill="#BBC2DB" d="M113,72.8c1.1,1.3,3.2,1.4,4.8,0c1.6-1.3,2-3.5,1-4.9c-1.1-1.3-3.2-1.4-4.9,0
	C112.4,69.3,111.9,71.5,113,72.8"/>
<path fill="#BBC2DB" d="M111.6,102.4c1.5-1.2,1.9-3.3,0.9-4.5c-1-1.2-3-1.2-4.5,0c-1.5,1.2-1.9,3.3-0.9,4.5
	C108.1,103.6,110.2,103.6,111.6,102.4"/>
<path fill="#BBC2DB" d="M108.3,95.3c1.1,1.3,3.3,1.3,4.9,0c1.6-1.3,2-3.5,0.9-4.9c-1.1-1.3-3.3-1.3-4.9,0
	C107.7,91.8,107.3,94,108.3,95.3"/>
<path fill="#BBC2DB" d="M128.3,90.8c-0.9-1.1-2.8-1.1-4.2,0c-1.4,1.1-1.7,3-0.8,4.2c0.9,1.1,2.8,1.1,4.2,0
	C128.9,93.8,129.2,91.9,128.3,90.8"/>
<path fill="#BBC2DB" d="M129.4,119.1c-0.8-1-2.3-1-3.5,0c-1.1,1-1.4,2.5-0.7,3.5c0.8,1,2.3,0.9,3.5,0
	C129.9,121.6,130.2,120,129.4,119.1"/>
<path fill="#BBC2DB" d="M135.2,90.8c-0.9-1.1-2.8-1.1-4.2,0c-1.4,1.1-1.7,3-0.8,4.2c0.9,1.1,2.8,1.1,4.2,0
	C135.8,93.8,136.2,91.9,135.2,90.8"/>
<path fill="#BBC2DB" d="M136,102c0.9,1,2.6,1,3.8,0c1.3-1.1,1.6-2.8,0.7-3.8c-0.9-1.1-2.6-1-3.8,0C135.5,99.3,135.1,101,136,102"/>
<path fill="#BBC2DB" d="M142,91c-0.8-1.1-2.6-1-3.8,0c-1.2,1.1-1.6,2.8-0.7,3.8c0.9,1.1,2.6,1.1,3.8,0C142.5,93.7,142.8,92,142,91"
	/>
<path fill="#BBC2DB" d="M133.6,98.2c-0.9-1-2.6-1-3.8,0c-1.3,1.1-1.6,2.8-0.7,3.8c0.9,1.1,2.6,1,3.8,0
	C134.1,101,134.5,99.3,133.6,98.2"/>
<path fill="#BBC2DB" d="M114.8,102.2c0.9,1.1,2.8,1.1,4.2,0c1.4-1.1,1.7-3,0.8-4.1c-0.9-1.2-2.8-1.1-4.2,0S113.8,101.1,114.8,102.2"
	/>
<path fill="#BBC2DB" d="M139.6,83.3c-1.4,1.2-1.7,3-0.8,4.2c0.9,1.1,2.8,1.1,4.2,0c1.4-1.1,1.7-3,0.8-4.2
	C142.8,82.1,140.9,82.2,139.6,83.3"/>
<path fill="#BBC2DB" d="M144.4,94.8c0.9,1,2.6,1,3.8,0c1.3-1.1,1.6-2.8,0.7-3.8c-0.9-1-2.6-1-3.8,0C143.8,92,143.5,93.7,144.4,94.8"
	/>
<path fill="#BBC2DB" d="M147.3,98.4c-0.8-1-2.3-0.9-3.5,0c-1.1,1-1.4,2.5-0.7,3.5c0.8,1,2.3,1,3.5,0
	C147.7,100.9,148,99.3,147.3,98.4"/>
<path fill="#BBC2DB" d="M126.6,115.7c0.8,1,2.3,0.9,3.5,0c1.1-1,1.4-2.5,0.7-3.5c-0.8-1-2.3-0.9-3.5,0
	C126.2,113.2,125.9,114.7,126.6,115.7"/>
<path fill="#BBC2DB" d="M139,105.3c-0.8-1-2.3-1-3.5,0c-1.1,1-1.4,2.5-0.7,3.5c0.8,1,2.3,1,3.5,0C139.5,107.8,139.8,106.2,139,105.3
	"/>
<path fill="#BBC2DB" d="M126.1,102.2c1.4-1.2,1.7-3,0.8-4.2c-0.9-1.1-2.8-1.1-4.2,0c-1.4,1.1-1.7,3-0.8,4.2
	C122.9,103.4,124.7,103.4,126.1,102.2"/>
<path fill="#BBC2DB" d="M120.8,108.9c0.9,1.1,2.6,1.1,3.8,0c1.3-1.1,1.6-2.8,0.7-3.8c-0.9-1-2.6-1-3.8,0
	C120.3,106.2,120,107.9,120.8,108.9"/>
<path fill="#BBC2DB" d="M120.5,95.1c1.5-1.2,1.9-3.3,0.9-4.5c-1-1.2-3-1.2-4.5,0c-1.5,1.2-1.9,3.3-0.9,4.5
	C117,96.4,119,96.4,120.5,95.1"/>
<path fill="#BBC2DB" d="M127.7,108.9c0.9,1,2.6,1,3.8,0c1.2-1.1,1.6-2.8,0.7-3.8c-0.9-1-2.6-1-3.8,0
	C127.2,106.2,126.9,107.9,127.7,108.9"/>
<path fill="#BBC2DB" d="M134.8,126.2c-0.7-0.9-2.1-0.9-3.1,0c-1,0.9-1.3,2.3-0.6,3.1c0.7,0.9,2.1,0.9,3.1,0
	C135.3,128.4,135.5,127,134.8,126.2"/>
<path fill="#BBC2DB" d="M164.7,147.6c-0.4-0.5-1.2-0.5-1.7,0c-0.6,0.5-0.7,1.2-0.3,1.7c0.4,0.5,1.2,0.5,1.7,0
	C165,148.8,165.1,148.1,164.7,147.6"/>
<path fill="#BBC2DB" d="M181.2,133.8c-0.4-0.5-1.2-0.5-1.7,0c-0.6,0.5-0.7,1.3-0.3,1.7c0.4,0.5,1.2,0.5,1.7,0
	C181.5,135,181.6,134.2,181.2,133.8"/>
<path fill="#BBC2DB" d="M173,140.7c-0.4-0.5-1.2-0.5-1.7,0c-0.6,0.5-0.7,1.3-0.3,1.7c0.4,0.5,1.2,0.5,1.7,0
	C173.2,141.9,173.4,141.1,173,140.7"/>
<path fill="#BBC2DB" d="M163.2,154.7c-0.3-0.4-0.9-0.4-1.4,0c-0.5,0.4-0.6,1-0.3,1.4c0.3,0.4,0.9,0.4,1.4,0
	C163.4,155.7,163.5,155,163.2,154.7"/>
<path fill="#BBC2DB" d="M161.9,161.6c-0.3-0.4-0.9-0.4-1.4,0c-0.5,0.4-0.6,1-0.3,1.4c0.3,0.4,1,0.4,1.4,0
	C162.1,162.6,162.2,162,161.9,161.6"/>
<path fill="#BBC2DB" d="M171.5,147.7c-0.3-0.4-0.9-0.4-1.4,0c-0.5,0.4-0.6,1-0.3,1.4c0.3,0.4,0.9,0.4,1.4,0
	C171.7,148.7,171.8,148.1,171.5,147.7"/>
<path fill="#BBC2DB" d="M179.7,140.8c-0.3-0.4-0.9-0.4-1.4,0c-0.4,0.4-0.6,1-0.3,1.4c0.3,0.4,0.9,0.4,1.4,0
	C179.9,141.8,180,141.2,179.7,140.8"/>
<path fill="#BBC2DB" d="M175.8,126.7c-0.5-0.6-1.4-0.6-2.1,0c-0.7,0.6-0.9,1.5-0.4,2.1c0.5,0.6,1.4,0.6,2.1,0
	C176.1,128.2,176.3,127.3,175.8,126.7"/>
<path fill="#BBC2DB" d="M156.5,154.5c-0.4-0.5-1.2-0.5-1.7,0c-0.6,0.5-0.7,1.3-0.3,1.7c0.4,0.5,1.2,0.5,1.7,0
	C156.7,155.7,156.9,155,156.5,154.5"/>
<path fill="#BBC2DB" d="M137.7,112.2c-0.8-1-2.3-0.9-3.5,0c-1.1,1-1.4,2.5-0.7,3.5c0.8,0.9,2.3,0.9,3.5,0
	C138.2,114.7,138.5,113.1,137.7,112.2"/>
<path fill="#BBC2DB" d="M167.6,133.6c-0.5-0.6-1.4-0.6-2.1,0c-0.7,0.6-0.9,1.5-0.4,2.1c0.5,0.6,1.4,0.6,2.1,0
	C167.9,135.1,168,134.2,167.6,133.6"/>
<path fill="#BBC2DB" d="M174.3,133.8c-0.4-0.5-1.2-0.5-1.7,0c-0.6,0.5-0.7,1.2-0.3,1.7c0.4,0.5,1.2,0.5,1.7,0
	C174.5,135,174.7,134.2,174.3,133.8"/>
<path fill="#BBC2DB" d="M166,140.7c-0.4-0.5-1.2-0.5-1.7,0c-0.6,0.5-0.7,1.2-0.3,1.7c0.4,0.5,1.2,0.5,1.7,0
	C166.3,141.9,166.4,141.1,166,140.7"/>
<path fill="#BBC2DB" d="M159.3,140.5c-0.5-0.6-1.4-0.6-2.1,0c-0.7,0.6-0.9,1.5-0.4,2.1c0.5,0.6,1.4,0.6,2.1,0
	C159.6,142,159.8,141.1,159.3,140.5"/>
<path fill="#BBC2DB" d="M183.8,154.9c-0.2-0.3-0.7-0.3-1,0c-0.3,0.3-0.4,0.7-0.2,0.9c0.2,0.3,0.7,0.3,1,0
	C183.9,155.6,184,155.1,183.8,154.9"/>
<path fill="#BBC2DB" d="M175.5,161.8c-0.2-0.3-0.7-0.3-1,0c-0.3,0.3-0.4,0.7-0.2,0.9c0.2,0.3,0.7,0.3,1,0
	C175.6,162.5,175.7,162.1,175.5,161.8"/>
<path fill="#BBC2DB" d="M170.1,154.7c-0.3-0.4-0.9-0.4-1.4,0c-0.5,0.4-0.6,1-0.3,1.4c0.3,0.4,0.9,0.4,1.4,0
	C170.3,155.7,170.5,155,170.1,154.7"/>
<path fill="#BBC2DB" d="M186.6,140.8c-0.3-0.4-0.9-0.4-1.4,0c-0.5,0.4-0.6,1-0.3,1.4c0.3,0.4,1,0.4,1.4,0
	C186.8,141.8,187,141.2,186.6,140.8"/>
<path fill="#BBC2DB" d="M178.4,147.7c-0.3-0.4-0.9-0.4-1.4,0c-0.5,0.4-0.6,1-0.3,1.4c0.3,0.4,1,0.4,1.4,0
	C178.6,148.8,178.7,148.1,178.4,147.7"/>
<path fill="#BBC2DB" d="M185.1,148c-0.2-0.3-0.7-0.3-1,0c-0.3,0.3-0.4,0.7-0.2,0.9c0.2,0.3,0.7,0.3,1,0
	C185.2,148.6,185.3,148.2,185.1,148"/>
<path fill="#BBC2DB" d="M176.8,154.9c-0.2-0.3-0.7-0.3-1,0c-0.3,0.3-0.4,0.7-0.2,0.9c0.2,0.3,0.7,0.3,1,0
	C177,155.6,177,155.1,176.8,154.9"/>
<path fill="#BBC2DB" d="M168.6,161.8c-0.2-0.3-0.7-0.3-1,0c-0.3,0.3-0.4,0.7-0.2,0.9c0.2,0.3,0.7,0.3,1,0
	C168.7,162.5,168.8,162.1,168.6,161.8"/>
<path fill="#BBC2DB" d="M157.8,147.6c-0.4-0.5-1.2-0.5-1.7,0c-0.6,0.5-0.7,1.2-0.3,1.7c0.4,0.5,1.2,0.5,1.7,0
	C158,148.8,158.2,148.1,157.8,147.6"/>
<path fill="#BBC2DB" d="M149.8,119.4c-0.6-0.8-1.9-0.8-2.8,0c-0.9,0.8-1.1,2-0.5,2.8c0.6,0.8,1.9,0.8,2.8,0
	C150.2,121.4,150.4,120.2,149.8,119.4"/>
<path fill="#BBC2DB" d="M151.4,112.4c-0.7-0.9-2.1-0.9-3.1,0c-1,0.9-1.3,2.3-0.6,3.1c0.7,0.9,2.1,0.9,3.1,0
	C151.8,114.6,152,113.2,151.4,112.4"/>
<path fill="#BBC2DB" d="M159.6,105.5c-0.7-0.9-2.1-0.9-3.1,0c-1,0.9-1.3,2.3-0.6,3.1c0.7,0.9,2.1,0.9,3.1,0
	C160,107.7,160.3,106.3,159.6,105.5"/>
<path fill="#BBC2DB" d="M141.6,126.3c-0.6-0.8-1.9-0.8-2.8,0c-0.9,0.8-1.1,2-0.5,2.8c0.6,0.8,1.9,0.8,2.8,0
	C142,128.3,142.2,127.1,141.6,126.3"/>
<path fill="#BBC2DB" d="M158.1,112.5c-0.6-0.8-1.9-0.8-2.8,0c-0.9,0.8-1.1,2-0.5,2.8c0.6,0.8,1.9,0.7,2.8,0
	C158.5,114.5,158.7,113.3,158.1,112.5"/>
<path fill="#BBC2DB" d="M140.2,133.2c-0.6-0.8-1.9-0.8-2.8,0c-0.9,0.8-1.1,2-0.5,2.8c0.6,0.8,1.9,0.8,2.8,0
	C140.6,135.2,140.9,134,140.2,133.2"/>
<path fill="#BBC2DB" d="M148.5,126.3c-0.6-0.8-1.9-0.8-2.8,0c-0.9,0.8-1.2,2-0.5,2.8c0.6,0.8,1.9,0.8,2.8,0
	C148.9,128.3,149.1,127.1,148.5,126.3"/>
<path fill="#BBC2DB" d="M154.2,98.4c-0.8-0.9-2.3-0.9-3.5,0c-1.1,1-1.4,2.5-0.7,3.5c0.8,1,2.3,1,3.5,0
	C154.7,100.9,155,99.3,154.2,98.4"/>
<path fill="#BBC2DB" d="M136.2,119.3c-0.7-0.9-2.1-0.8-3.1,0c-1,0.9-1.3,2.3-0.6,3.1c0.7,0.9,2.1,0.9,3.1,0
	C136.6,121.5,136.9,120.1,136.2,119.3"/>
<path fill="#BBC2DB" d="M145.9,105.3c-0.8-1-2.3-1-3.5,0c-1.1,1-1.4,2.5-0.7,3.5c0.8,1,2.3,0.9,3.5,0
	C146.4,107.8,146.7,106.2,145.9,105.3"/>
<path fill="#BBC2DB" d="M143.1,119.3c-0.7-0.9-2.1-0.9-3.1,0c-1,0.9-1.3,2.3-0.6,3.1c0.7,0.9,2.1,0.9,3.1,0
	C143.5,121.5,143.8,120.1,143.1,119.3"/>
<path fill="#BBC2DB" d="M144.4,112.4c-0.7-0.9-2.1-0.8-3.1,0c-1,0.9-1.3,2.3-0.6,3.1c0.7,0.9,2.1,0.9,3.1,0
	C144.9,114.6,145.1,113.2,144.4,112.4"/>
<path fill="#BBC2DB" d="M152.7,105.5c-0.7-0.9-2.1-0.9-3.1,0c-1,0.9-1.3,2.3-0.6,3.1c0.7,0.9,2.1,0.9,3.1,0
	C153.1,107.7,153.4,106.3,152.7,105.5"/>
<path fill="#BBC2DB" d="M162.2,126.5c-0.5-0.7-1.6-0.7-2.4,0c-0.8,0.7-1,1.8-0.5,2.4c0.5,0.7,1.6,0.7,2.4,0
	C162.5,128.3,162.7,127.2,162.2,126.5"/>
<path fill="#BBC2DB" d="M152.4,140.5c-0.5-0.6-1.4-0.6-2.1,0c-0.7,0.6-0.9,1.5-0.4,2.1c0.5,0.6,1.4,0.6,2.1,0
	C152.7,142,152.9,141.1,152.4,140.5"/>
<path fill="#BBC2DB" d="M153.9,133.4c-0.5-0.7-1.6-0.7-2.4,0c-0.8,0.7-1,1.8-0.5,2.4c0.5,0.7,1.6,0.7,2.4,0
	C154.2,135.2,154.5,134.1,153.9,133.4"/>
<path fill="#BBC2DB" d="M170.4,119.6c-0.5-0.7-1.6-0.7-2.4,0c-0.8,0.7-1,1.8-0.5,2.4c0.5,0.7,1.6,0.7,2.4,0
	C170.7,121.4,171,120.3,170.4,119.6"/>
<path fill="#BBC2DB" d="M151.1,147.4c-0.5-0.6-1.4-0.6-2.1,0c-0.7,0.6-0.9,1.5-0.4,2.1c0.5,0.6,1.4,0.6,2.1,0
	C151.4,148.9,151.5,148,151.1,147.4"/>
<path fill="#BBC2DB" d="M160.6,133.6c-0.5-0.6-1.4-0.6-2.1,0c-0.7,0.6-0.9,1.5-0.4,2.1c0.5,0.6,1.4,0.6,2.1,0
	C160.9,135.1,161.1,134.2,160.6,133.6"/>
<path fill="#BBC2DB" d="M168.9,126.7c-0.5-0.6-1.4-0.6-2.1,0c-0.7,0.6-0.9,1.5-0.4,2.1c0.5,0.6,1.4,0.6,2.1,0
	C169.2,128.2,169.4,127.3,168.9,126.7"/>
<path fill="#BBC2DB" d="M163.5,119.6c-0.5-0.7-1.6-0.7-2.4,0c-0.8,0.7-1,1.8-0.5,2.4c0.5,0.7,1.6,0.7,2.4,0
	C163.8,121.4,164,120.3,163.5,119.6"/>
<path fill="#BBC2DB" d="M145.7,140.3c-0.5-0.7-1.6-0.7-2.4,0c-0.8,0.7-1,1.8-0.5,2.4c0.5,0.7,1.6,0.7,2.4,0
	C146,142.1,146.2,141,145.7,140.3"/>
<path fill="#BBC2DB" d="M165,112.5c-0.6-0.8-1.9-0.8-2.8,0c-0.9,0.8-1.1,2-0.5,2.8c0.6,0.8,1.9,0.8,2.8,0
	C165.4,114.5,165.6,113.3,165,112.5"/>
<path fill="#BBC2DB" d="M147,133.4c-0.5-0.7-1.6-0.7-2.4,0c-0.8,0.7-1,1.8-0.5,2.4c0.5,0.7,1.6,0.7,2.4,0
	C147.3,135.2,147.5,134.1,147,133.4"/>
<path fill="#BBC2DB" d="M156.8,119.4c-0.6-0.8-1.9-0.8-2.8,0c-0.9,0.8-1.1,2-0.5,2.8c0.6,0.8,1.9,0.8,2.8,0
	C157.1,121.4,157.4,120.2,156.8,119.4"/>
<path fill="#BBC2DB" d="M155.2,126.5c-0.5-0.7-1.6-0.7-2.4,0c-0.8,0.7-1,1.8-0.5,2.4c0.6,0.7,1.6,0.7,2.4,0
	C155.6,128.3,155.8,127.2,155.2,126.5"/>
<path fill="#15397F" d="M244.6,110.2c-10.1,0-15.9-8.1-13.7-21.5c2.3-13.7,11.1-21.8,22.5-21.8c3.8,0,8.7,0.9,15.2,2.9l-3.1,7.4
	c-4.2-1-6.4-1.3-9.1-1.3c-6,0-10.3,4.2-11.7,12.5c-1.4,8.2,1.2,12.2,6.7,12.2c2.6,0,6.1-0.6,11-1.7l1.1,7
	C255.3,108.8,249.1,110.2,244.6,110.2"/>
<path fill="#15397F" d="M283.7,110.1c-13.7,0-20.4-7.8-18.1-21.4c2.3-13.5,11.6-21.7,25.2-21.7c13.8,0,20.4,7.8,18.1,21.5
	C306.7,102.2,297.5,110.1,283.7,110.1 M289.4,75.4c-5.4,0-8.6,4.1-10.1,12.8c-1.6,9.6,0.2,13.5,5.9,13.5c5.4,0,8.4-3.8,9.9-13
	C296.7,79.3,295.1,75.4,289.4,75.4z"/>
<path fill="#15397F" d="M324.4,110.3c-5.5,0-9.4-1.9-10.6-5.3c-0.9-2.4-0.9-5.2,0.3-12.4l2.8-16.6h-7.3l1.1-6.9l7.5-1.2l1.9-11.2
	l13.2-1.5l-1.9,12.6H343l-1.4,8.2h-11.5l-2.5,15.2c-1.1,6.5-1.1,7-0.5,8.2c0.5,1.3,2,1.9,4.4,1.9c1.6,0,3.2-0.3,6.6-0.9l-1.3,7.9
	C331.2,109.8,328,110.3,324.4,110.3"/>
<path fill="#BBC2DB" d="M373.9,109.3l-2.8-14.1c-1-5.2-2.2-8.1-5.7-8.9c-1.4-0.3-3.3-0.4-6.1-0.4h-1.7l-3.9,23.4h-13.8l9.1-55.8
	l21.5-2.1c8.2,0,11.3,0.4,14.2,1.9c4.6,2.3,6.6,6.9,5.5,13.5c-1.4,8.4-6.6,13.4-16,14.8c6,0.7,9.1,3.6,11.1,13.7l2.9,14.1
	L373.9,109.3 M374,61.6c-1.7-1-4.1-1.3-8.4-1.3h-3.7L359,77.4h2.5c8.6,0,13.4-1.1,14.7-8.7C376.7,65.2,376.1,62.9,374,61.6z"/>
<path fill="#BBC2DB" d="M412.6,109.3l0.7-4c-6,3.1-10.6,4.9-14.1,4.9c-6.8,0-10.7-4.5-9.3-12.9c0.7-4.2,2-7.1,4.6-9.2
	c4.5-3.6,12.5-4.2,21.7-4.2l0.2-1c0.9-5.2,0.1-6.8-6.4-6.8c-3.2,0-6.6,0.3-12.6,1.4l1.4-7.6c5.1-1.3,11.2-3,19-3
	c6,0,9.4,1.5,10.9,4.7c1.2,2.8,1.1,5.7-0.2,13.7l-4,24L412.6,109.3 M415.2,89.7c-8.3,0.3-11.7,2-12.5,6.3c-0.7,3.9,1.2,5.5,4.2,5.5
	c2.6,0,6.5-1.1,6.5-1.1L415.2,89.7z"/>
<polyline fill="#BBC2DB" points="448.8,109.3 459.1,50.2 472.3,47.7 462.1,109.3 448.8,109.3 "/>
<path fill="#15397F" d="M214.5,60.3c4.5,0,12.8,1.5,14.3,1.7l3.5-8.7c-8.7-2-13.7-2.8-18.9-2.8c-13.5,0-22.8,6.7-24.6,17.5
	c-2.1,12.8,6.1,15.2,17.4,18.1c6.9,1.8,8.5,3.4,7.9,6.9c-1,5.8-8.8,7.4-13.9,7.4c-4.3,0-9.5-0.9-15.1-2l-0.1,0.2l-1.7,9.1
	c6.9,1.6,11.8,2.4,17.2,2.4c15.6,0,25.7-6.9,27.7-19.2c2.1-12.3-6.3-14.9-17.9-17.3c-6.2-1.2-8.4-2.7-7.8-6.5
	C203.5,61.7,209.9,60.3,214.5,60.3"/>
<polyline fill="#BBC2DB" points="430.3,109.3 437.2,67.8 450.4,67.8 443.5,109.3 430.3,109.3 "/>
<path fill="#BBC2DB" d="M444,65.3c-4,0-6.7-3-6.1-6.9c0.6-3.8,4.4-6.9,8.4-6.9c4,0,6.7,3.1,6.1,6.9C451.7,62.2,448,65.3,444,65.3"/>
<path fill="#15397F" d="M225.2,138c-1.7,0-3.3-0.3-5.7-0.9l1-2.8c1.7,0.4,3.2,0.6,4.5,0.6c1.5,0,3.9-0.5,4.2-2.3
	c0.2-1.1-0.3-1.6-2.4-2.2c-3.4-0.9-5.8-1.7-5.2-5.7c0.5-3.4,3.3-5.5,7.3-5.5c1.6,0,3,0.2,5.6,0.9l-1,2.7c-0.4-0.1-2.9-0.5-4.3-0.5
	c-1.4,0-3.3,0.5-3.6,2.2c-0.2,1.2,0.5,1.7,2.3,2c3.5,0.7,6,1.6,5.3,5.4C232.8,135.8,229.8,138,225.2,138"/>
<path fill="#15397F" d="M240.8,138c-3.8,0-5.8-2.8-5.1-7.3c0.7-4.7,3.7-7.5,7.9-7.5c1.3,0,2.1,0.1,4.2,0.6l-1,2.6
	c-0.4-0.1-1.9-0.3-2.9-0.3c-2.6,0-3.7,1.8-4.2,4.5c-0.5,3.1,0.4,4.5,2.3,4.5c0.8,0,1.5-0.1,3.7-0.6l0.4,2.5
	C243.7,137.7,242.3,138,240.8,138"/>
<path fill="#15397F" d="M253.9,138c-4.4,0-6.4-2.7-5.7-7.4c0.7-4.7,3.6-7.4,8.1-7.4c4.4,0,6.5,2.7,5.7,7.4
	C261.3,135.3,258.4,138,253.9,138 M255.9,125.9c-1.8,0-3.1,1.4-3.6,4.7c-0.5,3.2,0.1,4.7,2.1,4.7c1.8,0,3-1.3,3.6-4.7
	C258.5,127.3,257.7,125.9,255.9,125.9z"/>
<polyline fill="#15397F" points="271.7,126.1 269.8,137.7 265.9,137.7 267.8,126.1 263.3,126.1 263.7,123.4 276.6,123.4 
	276.1,126.1 271.7,126.1 "/>
<polyline fill="#15397F" points="276.4,137.7 278.7,123.4 282.5,123.4 280.7,135 287.1,135 286.6,137.7 276.4,137.7 "/>
<path fill="#15397F" d="M298.2,137.7l-0.6-3.1h-5.4l-1.5,3.1H287l7.7-14.3h4.2l3.4,14.3H298.2 M296.1,126.6l-2.7,5.6h3.7
	L296.1,126.6z"/>
<polyline fill="#15397F" points="312.3,137.7 309,127.5 307.5,137.7 304.3,137.7 306.6,123.4 311.4,123.4 314.7,133.6 316.1,123.4 
	319.3,123.4 317,137.7 312.3,137.7 "/>
<path fill="#15397F" d="M331.7,136c-2,1.6-4,1.7-6.5,1.7h-4.4l2.3-14.3h5.2c2.7,0,4.2,0.4,5.2,1.4c1.2,1.2,1.6,3.3,1.2,5.6
	C334.3,132.9,333.3,134.8,331.7,136 M330.2,126.9c-0.5-0.7-1.4-0.9-3.1-0.9h-0.6l-1.4,9h0.6c1.8,0,2.8-0.4,3.5-1.1
	c0.7-0.8,1.2-1.9,1.4-3.4C330.9,128.8,330.8,127.6,330.2,126.9z"/>
<polyline fill="#15397F" points="339.3,126.1 336.7,125 340,119.5 344.3,119.5 339.3,126.1 "/>
<path fill="#15397F" d="M345.7,137.9c-1.5,0-2.8-0.2-5-0.7l1-2.5c1.6,0.3,2.9,0.5,3.9,0.5c1.3,0,2.9-0.3,3.1-1.6
	c0.1-0.8-0.5-1.1-1.5-1.4c-2.1-0.6-5.4-0.9-4.8-4.6c0.4-2.8,2.9-4.4,6.3-4.4c1.3,0,2.5,0.2,4.9,0.7l-0.9,2.5
	c-0.4-0.1-2.7-0.5-3.7-0.5c-1.3,0-2.5,0.4-2.6,1.5c-0.1,0.8,0.3,1.1,1.7,1.4c2.8,0.6,5.1,1.3,4.6,4.3
	C352.3,136.2,349.7,137.9,345.7,137.9"/>
<path fill="#15397F" d="M372.3,137.7l-0.8-4.4c-0.3-1.6-0.7-2.5-1.7-2.8c-0.4-0.1-1-0.1-1.8-0.1h-0.5l-1.2,7.3h-4.1l2.9-18.2h6.3
	c2.5,0,3.4,0.1,4.2,0.6c1.4,0.7,2,2.1,1.6,4.2c-0.4,2.6-2,4.2-4.8,4.6c1.8,0.2,2.7,1.1,3.3,4.3l0.9,4.4H372.3 M372.3,122.8
	c-0.5-0.3-1.2-0.4-2.5-0.4h-1.1l-0.9,5.4h0.7c2.6,0,4-0.4,4.4-2.7C373.1,123.9,372.9,123.2,372.3,122.8z"/>
<path fill="#15397F" d="M388.2,137.7l-0.6-3.1h-5.4l-1.5,3.1h-3.6l7.7-14.3h4.2l3.4,14.3H388.2 M386.2,126.6l-2.7,5.6h3.7
	L386.2,126.6z"/>
<polyline fill="#15397F" points="394.4,137.7 396.6,123.4 400.5,123.4 398.3,137.7 394.4,137.7 "/>
<polyline fill="#15397F" points="402,137.7 404.3,123.4 408.2,123.4 406.3,135 412.7,135 412.3,137.7 402,137.7 "/>
<polyline fill="#15397F" points="428.2,137.7 423.9,137.7 423.4,126.6 419.5,137.7 415.2,137.7 414.2,123.4 417.9,123.4 
	418.2,134.3 422.2,123.4 426.4,123.4 426.7,134.3 430.7,123.4 433.8,123.4 428.2,137.7 "/>
<path fill="#15397F" d="M442.3,137.7l-0.6-3.1h-5.4l-1.5,3.1h-3.6l7.7-14.3h4.2l3.4,14.3H442.3 M440.3,126.6l-2.7,5.6h3.7
	L440.3,126.6z"/>
<polyline fill="#15397F" points="454.9,131.5 453.9,137.7 450,137.7 451,131.4 447,123.4 451.6,123.4 453.7,128.7 457.7,123.4 
	461.5,123.4 454.9,131.5 "/>
</svg>
