<?xml version="1.0" encoding="UTF-8" ?>
<!--Vectorized by Wikimedia Commons Contributors 2024 - public domain image, Trademark rights might apply-->
<!DOCTYPE svg PUBLIC "-//W3C//DTD SVG 1.1//EN" "http://www.w3.org/Graphics/SVG/1.1/DTD/svg11.dtd">
<svg width="920pt" height="911pt" viewBox="0 0 320 311" version="1.1" xmlns="http://www.w3.org/2000/svg">
  <g>
    <path fill="#2b5a51" opacity="1.00" d=" M 151.99 0.00 L 163.39 0.00 C 193.43 1.15 222.89 13.52 244.56 34.38 C 265.48 54.16 279.23 81.34 282.71 109.93 C 286.48 139.23 279.64 169.77 263.49 194.52 C 244.15 224.64 211.37 246.01 175.74 250.44 C 223.82 250.80 271.91 250.49 320.00 250.60 L 320.00 256.42 C 213.33 256.46 106.67 256.43 0.00 256.44 L 0.00 250.59 C 42.34 250.60 84.67 250.59 127.01 250.60 C 131.84 250.65 136.66 250.64 141.48 250.36 C 106.28 246.05 73.92 224.99 54.54 195.46 C 38.53 171.37 31.33 141.65 34.37 112.89 C 37.39 81.69 52.71 51.92 76.26 31.24 C 97.04 12.65 124.21 1.75 151.99 0.00 M 140.55 6.77 C 111.89 11.12 85.17 26.50 66.81 48.90 C 49.00 70.34 39.04 98.12 39.22 126.00 C 39.10 154.33 49.46 182.54 67.87 204.08 C 87.09 226.91 115.13 242.15 144.82 245.52 C 170.35 248.61 196.84 243.12 218.99 230.04 C 243.43 215.77 262.51 192.59 271.77 165.84 C 281.27 138.80 280.73 108.38 270.23 81.71 C 259.75 54.71 239.15 31.79 213.37 18.58 C 191.17 7.02 165.26 2.92 140.55 6.77 Z"/>
    <path fill="#2b5a51" opacity="1.00" d=" M 145.19 10.22 C 146.38 10.22 147.57 10.22 148.77 10.23 C 151.13 14.36 153.41 18.53 155.72 22.69 C 155.73 18.52 155.71 14.36 155.72 10.19 C 156.50 10.20 158.07 10.23 158.86 10.25 C 158.81 16.31 158.88 22.37 158.80 28.43 C 157.94 28.21 156.23 27.75 155.37 27.52 C 152.61 23.70 150.71 19.34 148.33 15.28 C 148.30 19.57 148.32 23.85 148.31 28.13 C 147.53 28.13 145.98 28.13 145.20 28.13 C 145.19 22.16 145.20 16.19 145.19 10.22 Z"/>
    <path fill="#2b5a51" opacity="1.00" d=" M 125.50 14.33 C 129.09 13.87 133.02 11.84 136.53 13.47 C 139.65 15.52 138.80 19.86 136.38 22.10 C 138.82 24.10 141.07 26.33 143.21 28.64 C 141.83 28.96 140.45 29.28 139.08 29.60 C 136.90 27.16 134.81 24.39 131.51 23.44 C 131.88 25.94 132.37 28.43 132.87 30.91 C 131.99 31.12 130.24 31.54 129.36 31.75 C 128.03 25.96 126.79 20.14 125.50 14.33 M 129.62 16.38 C 130.07 18.15 130.53 19.93 130.99 21.70 C 132.67 20.85 135.80 19.91 134.65 17.39 C 133.99 15.17 131.26 16.26 129.62 16.38 Z"/>
    <path fill="#2b5a51" opacity="1.00" d=" M 181.83 12.08 C 185.27 13.48 189.91 13.63 192.06 17.08 C 193.42 20.37 190.46 23.11 187.54 23.92 C 188.65 26.79 189.54 29.73 190.33 32.70 C 188.96 32.29 187.60 31.87 186.24 31.46 C 185.53 28.35 184.86 25.14 182.82 22.59 C 181.81 24.89 180.94 27.26 180.12 29.64 C 178.97 29.24 177.82 28.84 176.67 28.43 C 178.45 23.00 180.11 17.53 181.83 12.08 M 184.58 15.69 C 184.04 17.41 183.50 19.13 183.00 20.86 C 184.84 20.99 187.57 21.86 188.26 19.43 C 189.09 17.12 186.02 16.62 184.58 15.69 Z"/>
    <path fill="#2b5a51" opacity="1.00" d=" M 109.15 20.90 C 112.17 19.64 115.18 18.37 118.18 17.06 C 118.58 17.99 118.99 18.93 119.40 19.87 C 117.52 20.67 115.63 21.47 113.75 22.28 C 114.30 23.50 114.84 24.72 115.39 25.93 C 117.05 25.20 118.71 24.46 120.38 23.71 C 120.75 24.38 121.48 25.72 121.85 26.39 C 120.06 27.18 118.26 27.96 116.46 28.74 C 117.02 29.98 117.57 31.21 118.13 32.45 C 120.11 31.62 122.09 30.78 124.07 29.94 C 124.48 30.87 124.89 31.79 125.30 32.72 C 122.16 34.05 119.02 35.38 115.88 36.72 C 113.64 31.45 111.44 26.15 109.15 20.90 Z"/>
    <path fill="#2b5a51" opacity="1.00" d=" M 190.34 32.81 C 194.61 28.43 198.93 24.09 203.21 19.72 C 204.52 20.36 205.84 21.00 207.16 21.64 C 206.56 27.67 206.19 33.73 205.63 39.77 C 204.42 39.19 203.21 38.62 202.01 38.04 C 202.14 36.69 202.28 35.33 202.42 33.98 C 200.55 33.11 198.67 32.25 196.80 31.38 C 195.86 32.41 194.92 33.44 193.98 34.47 C 192.77 33.91 191.55 33.36 190.34 32.81 M 198.69 29.15 C 200.06 29.76 201.42 30.37 202.79 30.98 C 203.08 28.51 203.37 26.05 203.65 23.59 C 202.02 25.46 200.36 27.31 198.69 29.15 Z"/>
    <path fill="#2b5a51" opacity="1.00" d=" M 99.94 25.87 C 100.98 25.19 102.03 24.52 103.07 23.84 C 106.10 28.72 109.17 33.57 112.16 38.47 C 111.12 39.12 110.08 39.77 109.04 40.43 C 107.79 38.41 106.53 36.39 105.27 34.38 C 103.22 35.68 101.18 36.97 99.13 38.25 C 100.38 40.24 101.63 42.22 102.89 44.20 C 101.84 44.87 100.80 45.54 99.75 46.21 C 96.69 41.36 93.69 36.47 90.62 31.62 C 91.67 30.96 92.72 30.30 93.78 29.64 C 94.99 31.60 96.21 33.56 97.42 35.51 C 99.48 34.25 101.54 32.97 103.60 31.70 C 102.39 29.75 101.17 27.81 99.94 25.87 Z"/>
    <path fill="#2b5a51" opacity="1.00" d=" M 208.17 41.10 C 211.43 36.38 214.60 31.59 217.83 26.85 C 218.85 27.55 219.87 28.25 220.90 28.95 C 217.65 33.68 214.47 38.47 211.24 43.20 C 210.21 42.50 209.19 41.80 208.17 41.10 Z"/>
    <path fill="#2b5a51" opacity="1.00" d=" M 146.51 33.80 C 164.04 31.45 182.25 34.18 198.22 41.84 C 217.16 50.79 232.82 66.42 241.87 85.31 C 251.67 105.45 253.73 129.17 247.76 150.74 C 242.78 168.93 232.07 185.49 217.55 197.51 C 201.83 210.68 181.57 218.31 161.06 218.70 C 142.26 219.22 123.36 213.71 107.77 203.19 C 91.27 192.17 78.49 175.69 71.93 156.96 C 64.26 135.38 64.94 110.97 73.81 89.86 C 85.96 60.12 114.57 37.83 146.51 33.80 M 147.52 37.70 C 129.85 39.98 112.96 47.86 99.82 59.90 C 86.41 72.05 76.85 88.38 72.91 106.05 C 68.50 125.28 70.71 145.96 79.13 163.80 C 87.59 181.91 102.34 197.00 120.31 205.77 C 136.50 213.81 155.22 216.52 173.05 213.62 C 191.10 210.75 208.15 201.99 221.05 189.04 C 233.83 176.40 242.58 159.76 245.79 142.08 C 248.88 125.45 247.11 107.95 240.74 92.28 C 233.44 74.16 219.95 58.62 203.05 48.83 C 186.45 39.10 166.59 35.17 147.52 37.70 Z"/>
    <path fill="#2b5a51" opacity="1.00" d=" M 228.18 33.86 C 229.13 34.65 230.09 35.44 231.05 36.23 C 227.99 39.84 224.90 43.42 221.82 47.02 C 223.46 48.40 225.09 49.78 226.73 51.16 C 226.23 51.74 225.23 52.89 224.74 53.47 C 222.18 51.28 219.61 49.11 217.02 46.95 C 220.74 42.59 224.49 38.25 228.18 33.86 Z"/>
    <path fill="#2b5a51" opacity="1.00" d=" M 86.33 34.73 C 87.04 35.47 87.76 36.20 88.47 36.94 C 87.26 38.04 86.04 39.14 84.83 40.23 C 88.01 43.72 91.23 47.17 94.47 50.59 C 93.58 51.45 92.69 52.31 91.80 53.17 C 88.57 49.71 85.32 46.27 82.10 42.80 C 80.92 43.90 79.74 45.01 78.56 46.11 C 78.02 45.56 76.95 44.46 76.41 43.91 C 79.74 40.87 83.05 37.82 86.33 34.73 Z"/>
    <path fill="#2b5a51" opacity="1.00" d=" M 239.52 43.61 C 240.39 44.67 241.25 45.73 242.12 46.79 C 239.38 50.30 236.69 53.84 233.96 57.35 C 238.01 55.33 242.14 53.46 246.22 51.51 C 247.08 52.54 247.94 53.58 248.80 54.62 C 246.12 58.19 243.51 61.81 240.90 65.43 C 244.77 63.23 248.70 61.14 252.63 59.05 C 253.44 60.01 254.25 60.97 255.07 61.93 C 249.70 64.46 244.32 66.97 238.98 69.55 C 238.09 68.48 237.20 67.42 236.31 66.36 C 238.81 62.88 241.27 59.37 243.77 55.89 C 239.90 57.79 236.00 59.62 232.11 61.46 C 231.18 60.37 230.25 59.28 229.32 58.19 C 232.77 53.37 236.11 48.46 239.52 43.61 Z"/>
    <path fill="#2b5a51" opacity="1.00" d=" M 72.61 48.83 C 75.92 51.38 79.59 53.49 82.55 56.46 C 87.16 60.94 81.08 69.95 75.19 67.57 C 71.15 65.70 67.87 62.58 64.22 60.10 C 65.00 59.12 65.79 58.14 66.57 57.16 C 69.74 59.44 72.70 62.05 76.15 63.92 C 78.84 65.71 82.33 61.28 79.96 59.08 C 77.10 56.26 73.57 54.25 70.40 51.82 C 71.13 50.82 71.87 49.83 72.61 48.83 Z"/>
    <path fill="#2b5a51" opacity="1.00" d=" M 121.69 69.69 C 131.72 63.03 143.53 57.72 155.82 58.57 C 155.55 73.57 156.17 88.60 155.53 103.57 C 148.87 104.52 141.94 104.29 135.24 103.71 C 135.01 103.47 134.54 102.98 134.31 102.74 C 133.72 97.58 134.31 92.36 133.97 87.18 C 127.85 91.54 122.50 97.05 118.42 103.37 C 116.51 106.18 115.65 109.50 115.36 112.84 C 129.04 112.86 142.72 112.87 156.41 112.84 C 156.89 117.89 156.69 122.97 156.70 128.04 C 156.58 149.24 156.95 170.46 156.53 191.64 C 152.70 192.06 148.89 191.12 145.17 190.35 C 130.81 187.09 116.96 179.98 107.35 168.63 C 102.47 163.01 98.99 156.31 96.41 149.36 C 104.14 148.44 112.06 148.58 119.80 149.15 C 124.47 153.65 127.69 160.13 134.19 162.39 C 134.87 155.61 134.43 148.78 134.57 141.98 C 134.38 140.89 134.94 138.43 133.08 138.68 C 120.43 138.32 107.75 138.80 95.10 138.49 C 93.40 138.58 92.62 136.85 92.38 135.44 C 87.77 110.25 100.08 83.26 121.69 69.69 Z"/>
    <path fill="#2b5a51" opacity="1.00" d=" M 160.25 63.04 C 160.48 61.55 159.78 59.63 160.97 58.46 C 173.79 57.97 186.25 63.09 196.56 70.43 C 208.42 79.02 218.43 90.90 222.62 105.12 C 225.77 115.96 226.35 127.78 223.12 138.66 C 217.17 138.65 211.22 138.54 205.28 138.79 C 208.31 145.34 212.00 151.56 215.00 158.12 C 216.22 160.32 213.91 162.15 212.81 163.83 C 209.08 168.09 205.89 172.95 201.29 176.37 C 194.70 164.35 189.20 151.76 182.60 139.75 C 181.66 154.82 182.58 169.96 182.15 185.05 C 182.24 187.85 178.98 188.32 176.95 189.02 C 171.77 190.21 166.50 192.55 161.11 191.32 C 160.65 148.57 160.65 105.80 160.25 63.04 M 181.70 87.08 C 181.65 95.51 181.64 103.95 181.71 112.39 C 188.34 113.00 195.00 112.59 201.65 112.70 C 198.56 102.05 191.86 92.07 181.70 87.08 Z"/>
    <path fill="#2b5a51" opacity="1.00" d=" M 61.19 68.22 C 65.84 66.44 71.36 69.33 73.53 73.58 C 75.55 77.41 73.07 82.68 68.90 83.69 C 64.29 84.74 59.27 81.90 57.37 77.66 C 55.78 74.16 57.74 69.73 61.19 68.22 M 62.40 71.33 C 59.87 72.26 59.38 75.85 61.34 77.60 C 63.47 80.15 68.53 82.11 70.56 78.45 C 72.34 73.99 66.27 70.36 62.40 71.33 Z"/>
    <path fill="#2b5a51" opacity="1.00" d=" M 241.66 73.03 C 247.73 72.50 253.78 71.74 259.85 71.12 C 260.50 72.41 261.15 73.69 261.81 74.98 C 257.57 79.36 253.32 83.73 249.08 88.12 C 248.48 86.93 247.88 85.75 247.29 84.56 C 248.28 83.58 249.27 82.60 250.27 81.62 C 249.35 79.79 248.44 77.96 247.52 76.12 C 246.10 76.29 244.68 76.45 243.26 76.61 C 242.73 75.41 242.19 74.22 241.66 73.03 M 250.39 75.56 C 251.07 76.88 251.75 78.21 252.44 79.53 C 254.21 77.81 255.99 76.10 257.79 74.40 C 255.32 74.80 252.86 75.18 250.39 75.56 Z"/>
    <path fill="#2b5a51" opacity="1.00" d=" M 49.33 92.92 C 48.65 89.89 50.27 87.07 51.48 84.42 C 52.27 84.68 53.86 85.20 54.66 85.46 C 53.41 87.53 50.57 91.16 53.87 92.85 C 55.77 91.44 57.35 89.66 59.23 88.23 C 61.72 86.09 66.18 87.93 66.59 91.15 C 67.11 94.32 65.38 97.20 63.98 99.89 C 62.80 99.58 61.62 99.27 60.44 98.96 C 61.56 97.36 63.04 95.88 63.47 93.91 C 64.05 92.65 62.85 90.67 61.38 91.38 C 59.38 92.74 57.90 94.72 55.86 96.02 C 53.38 97.42 49.83 95.71 49.33 92.92 Z"/>
    <path fill="#2b5a51" opacity="1.00" d=" M 251.03 93.57 C 257.45 92.88 261.73 87.86 266.36 83.94 C 266.73 85.31 267.10 86.68 267.48 88.05 C 265.28 89.77 263.07 91.46 260.83 93.12 C 263.57 93.54 266.31 94.00 269.05 94.48 C 269.37 95.76 269.69 97.03 270.02 98.31 C 264.07 97.07 257.94 94.49 251.95 96.99 C 251.64 95.85 251.33 94.71 251.03 93.57 Z"/>
    <path fill="#2b5a51" opacity="1.00" d=" M 252.37 154.53 C 257.86 156.31 263.34 158.14 268.82 159.93 C 268.53 160.75 267.96 162.39 267.67 163.21 C 265.42 162.48 263.18 161.74 260.95 161.01 C 260.25 163.17 259.56 165.34 258.87 167.51 C 261.12 168.24 263.37 168.98 265.63 169.71 C 265.32 170.54 264.69 172.18 264.38 173.01 C 258.97 171.14 253.51 169.41 248.09 167.59 C 248.46 166.50 248.84 165.41 249.22 164.32 C 251.41 165.03 253.60 165.76 255.80 166.47 C 256.51 164.31 257.22 162.15 257.93 159.99 C 255.75 159.29 253.58 158.58 251.40 157.89 C 251.64 157.05 252.13 155.37 252.37 154.53 Z"/>
    <path fill="#2b5a51" opacity="1.00" d=" M 55.08 167.19 C 57.85 163.89 55.81 157.08 61.22 156.31 C 65.95 156.03 67.12 161.69 68.04 165.22 C 67.25 165.59 65.68 166.33 64.90 166.70 C 64.57 164.56 64.65 159.12 61.21 160.34 C 60.39 162.42 60.25 164.69 59.67 166.84 C 59.14 169.79 54.95 171.26 52.73 169.23 C 50.05 167.05 49.72 163.39 49.24 160.21 C 50.32 159.79 51.40 159.36 52.47 158.94 C 52.20 161.99 52.63 165.08 55.08 167.19 Z"/>
    <path fill="#2b5a51" opacity="1.00" d=" M 55.66 178.36 C 60.83 175.52 66.00 172.68 71.15 169.79 C 72.74 172.65 74.34 175.51 75.94 178.37 C 75.02 178.87 74.10 179.37 73.18 179.88 C 72.18 178.08 71.18 176.29 70.18 174.50 C 68.99 175.20 67.81 175.89 66.63 176.59 C 67.54 178.21 68.47 179.82 69.38 181.44 C 68.49 181.98 67.60 182.51 66.71 183.05 C 65.77 181.39 64.84 179.72 63.90 178.06 C 62.67 178.73 61.43 179.40 60.20 180.07 C 61.25 181.96 62.30 183.85 63.36 185.74 C 62.69 186.13 61.35 186.92 60.68 187.31 C 58.99 184.34 57.32 181.35 55.66 178.36 Z"/>
    <path fill="#2b5a51" opacity="1.00" d=" M 239.51 181.62 C 241.96 177.83 244.39 174.04 246.85 170.26 C 247.47 170.70 248.73 171.59 249.36 172.03 C 248.46 173.37 247.56 174.71 246.67 176.06 C 250.68 178.63 254.70 181.19 258.71 183.79 C 257.97 184.80 257.25 185.81 256.52 186.82 C 252.60 184.25 248.64 181.75 244.73 179.17 C 243.82 180.56 242.92 181.96 242.01 183.35 C 241.17 182.77 240.34 182.19 239.51 181.62 Z"/>
    <path fill="#2b5a51" opacity="1.00" d=" M 64.17 192.65 C 68.75 189.15 73.37 185.71 77.96 182.23 C 80.01 185.31 83.39 188.06 83.46 192.03 C 82.63 195.50 78.69 196.36 75.75 195.07 C 74.95 198.06 73.94 201.00 72.88 203.91 C 71.99 202.79 71.10 201.68 70.21 200.56 C 71.45 197.61 73.00 194.60 72.47 191.29 C 70.41 192.62 68.41 194.05 66.43 195.49 C 65.87 194.78 64.74 193.36 64.17 192.65 M 73.85 189.93 C 74.73 190.76 75.59 191.63 76.56 192.37 C 78.20 192.98 79.24 191.21 80.33 190.35 C 79.55 189.19 78.76 188.03 77.98 186.87 C 76.60 187.89 75.22 188.91 73.85 189.93 Z"/>
    <path fill="#2b5a51" opacity="1.00" d=" M 238.52 184.68 C 241.59 187.53 245.10 189.95 247.79 193.19 C 251.97 198.10 244.92 206.64 239.32 203.54 C 235.54 201.28 232.56 197.95 229.18 195.18 C 230.02 194.26 230.87 193.34 231.72 192.43 C 234.87 195.03 237.62 198.17 241.17 200.25 C 243.28 201.45 245.46 199.03 245.72 197.05 C 243.55 192.95 239.26 190.62 236.06 187.41 C 236.88 186.49 237.69 185.58 238.52 184.68 Z"/>
    <path fill="#2b5a51" opacity="1.00" d=" M 85.95 192.01 C 86.95 192.93 87.95 193.86 88.95 194.79 C 86.93 199.01 84.97 203.25 82.98 207.48 C 86.96 204.97 91.01 202.58 95.03 200.13 C 95.98 201.01 96.93 201.89 97.88 202.78 C 92.56 205.68 87.25 208.60 81.97 211.58 C 80.93 210.64 79.89 209.71 78.86 208.78 C 81.23 203.19 83.62 197.61 85.95 192.01 Z"/>
    <path fill="#2b5a51" opacity="1.00" d=" M 222.28 200.36 C 230.10 196.86 238.31 209.10 232.03 214.98 C 228.32 218.99 221.66 217.09 219.33 212.56 C 216.36 208.62 217.52 202.27 222.28 200.36 M 223.38 203.43 C 219.19 205.52 221.65 211.31 224.84 213.12 C 227.48 215.24 231.73 212.40 230.78 209.15 C 230.04 206.04 226.95 202.08 223.38 203.43 Z"/>
    <path fill="#2b5a51" opacity="1.00" d=" M 99.68 204.01 C 102.36 205.92 105.05 207.82 107.74 209.73 C 107.27 210.34 106.32 211.56 105.85 212.18 C 104.21 211.00 102.57 209.83 100.94 208.66 C 100.13 209.76 99.33 210.86 98.53 211.96 C 100.09 213.06 101.66 214.15 103.23 215.25 C 102.60 216.09 101.98 216.93 101.36 217.78 C 99.85 216.67 98.34 215.56 96.84 214.45 C 96.02 215.59 95.20 216.74 94.39 217.88 C 96.18 219.15 97.98 220.42 99.78 221.69 C 99.31 222.31 98.37 223.53 97.90 224.14 C 95.12 222.17 92.34 220.22 89.56 218.26 C 92.96 213.53 96.29 208.75 99.68 204.01 Z"/>
    <path fill="#2b5a51" opacity="1.00" d=" M 204.05 213.16 C 205.74 210.54 208.96 209.78 211.72 208.82 C 212.24 209.81 212.76 210.81 213.29 211.81 C 210.97 212.40 206.75 212.63 207.08 215.98 C 209.78 217.14 212.88 216.44 215.63 217.46 C 217.87 218.75 219.06 222.09 217.32 224.26 C 215.39 226.94 211.96 227.63 208.98 228.51 C 208.42 227.41 207.85 226.32 207.29 225.23 C 210.34 225.30 213.27 224.43 215.17 221.91 C 212.75 220.22 209.77 220.48 207.00 220.06 C 203.96 219.67 202.27 215.65 204.05 213.16 Z"/>
    <path fill="#2b5a51" opacity="1.00" d=" M 108.55 218.96 C 107.99 216.30 110.24 213.43 112.98 213.47 C 116.01 213.35 118.47 215.36 120.88 216.91 C 120.37 217.91 119.87 218.92 119.37 219.93 C 117.60 218.54 114.15 214.76 112.31 217.98 C 113.36 220.49 115.28 222.50 116.35 224.99 C 116.93 227.67 114.74 230.73 111.93 230.73 C 108.68 230.81 106.07 228.59 103.57 226.84 C 104.07 225.70 104.57 224.57 105.07 223.45 C 106.80 225.30 110.46 229.67 112.65 226.04 C 111.45 223.58 109.54 221.52 108.55 218.96 Z"/>
    <path fill="#2b5a51" opacity="1.00" d=" M 136.75 221.76 C 141.09 222.37 145.49 222.61 149.81 223.44 C 149.88 224.18 150.02 225.67 150.08 226.41 C 148.36 226.20 146.63 225.98 144.91 225.77 C 144.38 230.46 143.79 235.15 143.23 239.84 C 142.31 239.72 140.46 239.49 139.53 239.37 C 140.13 234.70 140.66 230.03 141.26 225.36 C 139.64 225.17 138.01 224.98 136.40 224.79 C 136.48 224.03 136.66 222.51 136.75 221.76 Z"/>
    <path fill="#2b5a51" opacity="1.00" d=" M 172.50 223.25 C 175.71 222.66 178.93 222.06 182.14 221.45 C 182.34 222.43 182.54 223.42 182.75 224.41 C 180.72 224.80 178.69 225.19 176.66 225.59 C 176.93 226.89 177.20 228.19 177.48 229.50 C 179.33 229.14 181.19 228.78 183.04 228.43 C 183.18 229.16 183.46 230.64 183.60 231.37 C 181.73 231.74 179.85 232.10 177.98 232.48 C 178.18 233.48 178.57 235.49 178.77 236.49 C 180.89 236.07 183.01 235.66 185.13 235.25 C 185.29 235.99 185.61 237.48 185.76 238.22 C 182.42 238.85 179.09 239.49 175.76 240.18 C 174.59 234.55 173.57 228.89 172.50 223.25 Z"/>
    <path fill="#2b5a51" opacity="1.00" d=" M 153.62 224.06 C 154.51 224.09 156.27 224.14 157.16 224.16 C 157.16 226.42 157.16 228.68 157.16 230.94 C 159.48 230.93 161.80 230.91 164.13 230.90 C 164.12 228.65 164.12 226.39 164.12 224.14 C 165.27 224.12 166.43 224.09 167.59 224.08 C 167.61 229.81 167.60 235.54 167.60 241.28 C 166.73 241.27 164.98 241.25 164.11 241.24 C 164.12 238.90 164.13 236.56 164.13 234.23 C 161.80 234.21 159.47 234.20 157.14 234.20 C 157.15 236.55 157.15 238.89 157.16 241.24 C 156.27 241.25 154.49 241.26 153.61 241.27 C 153.61 235.53 153.60 229.80 153.62 224.06 Z"/>
    <path fill="#2b5a51" opacity="1.00" d=" M 164.31 270.74 C 165.60 270.75 166.90 270.75 168.19 270.76 C 168.19 276.12 168.19 281.49 168.18 286.85 C 170.40 286.84 172.62 286.84 174.84 286.84 C 174.86 287.70 174.90 289.43 174.92 290.30 C 171.38 290.30 167.83 290.31 164.29 290.30 C 164.33 283.78 164.31 277.26 164.31 270.74 Z"/>
    <path fill="#2b5a51" opacity="1.00" d=" M 280.05 270.77 C 281.26 270.76 282.47 270.75 283.69 270.74 C 283.47 275.86 284.28 281.11 283.07 286.13 C 281.38 291.86 271.53 291.86 270.15 285.91 C 269.11 280.93 269.83 275.80 269.66 270.75 C 270.59 270.75 272.45 270.75 273.38 270.75 C 273.50 275.33 272.95 279.97 273.69 284.51 C 274.25 287.38 278.99 287.60 279.62 284.70 C 280.53 280.12 279.95 275.40 280.05 270.77 Z"/>
    <path fill="#2b5a51" opacity="1.00" d=" M 302.29 270.78 C 303.52 270.75 304.74 270.72 305.97 270.69 C 305.96 273.30 305.95 275.90 305.96 278.51 C 308.40 278.53 310.84 278.54 313.28 278.55 C 313.28 275.96 313.27 273.37 313.27 270.79 C 314.46 270.74 315.66 270.71 316.87 270.67 C 316.95 277.13 316.93 283.60 316.88 290.07 C 315.99 290.07 314.20 290.07 313.31 290.07 C 313.28 287.41 313.27 284.76 313.27 282.11 C 310.87 282.11 308.46 282.12 306.07 282.12 C 306.07 284.70 306.07 287.27 306.07 289.85 C 304.82 289.90 303.57 289.95 302.32 290.01 C 302.28 283.60 302.31 277.19 302.29 270.78 Z"/>
    <path fill="#2b5a51" opacity="1.00" d=" M 136.36 271.23 C 140.56 271.45 145.96 270.25 148.89 274.15 C 151.61 278.62 151.22 285.54 146.84 288.86 C 143.78 291.00 139.83 290.19 136.34 290.36 C 136.38 283.98 136.36 277.61 136.36 271.23 M 139.83 274.34 C 139.80 278.63 139.80 282.93 139.83 287.23 C 141.70 286.74 144.11 287.06 145.42 285.37 C 147.23 283.06 147.35 279.57 146.04 277.00 C 144.85 274.70 142.04 274.72 139.83 274.34 Z"/>
    <path fill="#2b5a51" opacity="1.00" d=" M 181.34 271.34 C 184.90 269.35 189.90 270.67 191.73 274.39 C 193.90 278.73 193.73 284.69 190.34 288.37 C 187.23 291.76 181.04 291.27 178.58 287.36 C 175.37 282.48 176.09 274.53 181.34 271.34 M 183.36 274.41 C 179.43 276.94 179.42 284.12 183.32 286.68 C 187.41 288.35 189.95 283.47 189.36 280.02 C 189.61 276.83 186.94 272.77 183.36 274.41 Z"/>
    <path fill="#2b5a51" opacity="1.00" d=" M 199.25 271.22 C 202.87 269.33 207.71 270.87 209.46 274.59 C 211.73 279.19 211.28 285.69 207.13 289.10 C 203.54 292.02 197.59 290.62 195.63 286.42 C 193.20 281.47 194.00 274.03 199.25 271.22 M 201.25 274.31 C 197.41 276.34 197.35 282.21 199.55 285.50 C 201.73 288.56 206.63 286.44 206.75 282.92 C 207.75 279.32 206.22 272.78 201.25 274.31 Z"/>
    <path fill="#2b5a51" opacity="1.00" d=" M 213.07 270.76 C 214.35 270.76 215.62 270.75 216.91 270.76 C 216.89 273.80 216.87 276.84 216.84 279.88 C 218.77 276.81 220.70 273.75 222.68 270.72 C 224.20 270.73 225.73 270.75 227.26 270.76 C 225.10 273.86 222.94 276.98 220.79 280.09 C 223.12 283.50 225.45 286.92 227.82 290.30 C 226.17 290.30 224.53 290.31 222.88 290.32 C 220.86 287.19 218.85 284.05 216.85 280.91 C 216.87 284.04 216.89 287.17 216.91 290.30 C 215.63 290.30 214.34 290.30 213.06 290.30 C 213.10 283.78 213.09 277.27 213.07 270.76 Z"/>
    <path fill="#2b5a51" opacity="1.00" d=" M 239.58 271.66 C 242.13 269.88 245.37 270.64 248.25 270.79 C 248.30 271.76 248.39 273.70 248.43 274.67 C 245.63 273.66 242.47 273.19 240.55 275.95 C 242.91 277.82 245.64 279.19 247.92 281.15 C 249.99 283.61 249.40 287.94 246.47 289.46 C 243.67 291.00 240.42 290.12 237.48 289.60 C 237.45 288.18 237.42 286.77 237.38 285.37 C 239.83 286.71 244.01 288.56 245.49 285.00 C 243.89 282.01 239.87 281.66 238.07 278.84 C 236.80 276.53 237.27 273.16 239.58 271.66 Z"/>
    <path fill="#2b5a51" opacity="1.00" d=" M 255.38 271.44 C 258.88 269.43 263.88 270.44 265.98 274.01 C 268.76 278.57 268.25 285.49 263.87 288.91 C 260.28 291.57 254.57 290.49 252.36 286.56 C 249.55 281.79 250.42 274.46 255.38 271.44 M 257.38 274.51 C 254.25 276.63 254.06 281.33 255.62 284.47 C 256.66 286.78 259.90 287.55 261.82 285.89 C 264.18 283.58 264.14 279.76 263.16 276.82 C 262.44 274.45 259.53 273.30 257.38 274.51 Z"/>
    <path fill="#2b5a51" opacity="1.00" d=" M 285.91 270.77 C 290.43 270.75 294.95 270.75 299.47 270.75 C 299.47 271.62 299.46 273.34 299.45 274.20 C 297.83 274.18 296.21 274.16 294.59 274.15 C 294.58 279.45 294.59 284.76 294.56 290.06 C 293.32 290.06 292.09 290.06 290.85 290.07 C 290.84 284.77 290.84 279.48 290.85 274.18 C 289.20 274.18 287.56 274.17 285.92 274.17 C 285.92 273.32 285.91 271.62 285.91 270.77 Z"/>
    <path fill="#2b5a51" opacity="1.00" d=" M 3.22 272.20 C 4.45 272.20 5.67 272.21 6.89 272.22 C 6.87 277.20 6.88 282.18 6.88 287.16 C 9.04 287.15 11.20 287.15 13.36 287.15 C 13.36 288.21 13.36 289.28 13.36 290.34 C 9.98 290.34 6.59 290.34 3.21 290.34 C 3.25 284.29 3.23 278.24 3.22 272.20 Z"/>
    <path fill="#2b5a51" opacity="1.00" d=" M 20.26 272.40 C 23.83 270.89 28.23 272.70 29.72 276.26 C 31.50 280.49 31.05 286.27 27.22 289.25 C 23.77 291.88 18.14 290.66 16.26 286.70 C 13.85 281.95 14.89 274.61 20.26 272.40 M 21.44 275.59 C 17.47 277.92 17.54 285.54 22.05 287.23 C 29.33 288.24 28.71 273.24 21.44 275.59 Z"/>
    <path fill="#2b5a51" opacity="1.00" d=" M 37.23 272.34 C 40.57 271.04 44.68 272.52 46.28 275.76 C 48.45 280.00 48.00 286.05 44.10 289.17 C 40.72 291.88 35.12 290.72 33.14 286.83 C 30.61 282.05 31.67 274.47 37.23 272.34 M 38.39 275.53 C 34.19 277.69 34.35 285.85 39.07 287.24 C 46.04 287.92 45.48 273.49 38.39 275.53 Z"/>
    <path fill="#2b5a51" opacity="1.00" d=" M 49.67 272.19 C 50.59 272.19 52.44 272.19 53.37 272.19 C 53.37 275.01 53.37 277.83 53.38 280.66 C 55.18 277.79 57.01 274.93 58.91 272.12 C 60.35 272.17 61.79 272.22 63.24 272.27 C 61.16 275.12 59.11 278.00 57.06 280.87 C 59.31 284.03 61.53 287.20 63.79 290.34 C 62.21 290.34 60.63 290.34 59.05 290.34 C 57.15 287.46 55.28 284.57 53.38 281.69 C 53.36 284.58 53.37 287.46 53.38 290.35 C 52.45 290.35 50.59 290.35 49.66 290.35 C 49.65 284.29 49.64 278.24 49.67 272.19 Z"/>
    <path fill="#2b5a51" opacity="1.00" d=" M 78.54 272.18 C 79.98 272.20 81.42 272.22 82.86 272.24 C 84.92 278.27 86.95 284.31 89.06 290.33 C 87.70 290.32 86.35 290.33 84.99 290.33 C 84.56 288.96 84.14 287.59 83.71 286.22 C 81.65 286.20 79.59 286.19 77.53 286.18 C 77.09 287.56 76.65 288.96 76.22 290.35 C 75.21 290.35 73.19 290.34 72.19 290.33 C 74.34 284.30 76.41 278.23 78.54 272.18 M 78.27 283.19 C 79.79 283.20 81.30 283.20 82.82 283.20 C 82.07 280.76 81.35 278.31 80.65 275.85 C 79.87 278.30 79.07 280.75 78.27 283.19 Z"/>
    <path fill="#2b5a51" opacity="1.00" d=" M 90.24 271.88 C 91.35 271.89 92.46 271.89 93.57 271.91 C 93.57 274.38 93.57 276.86 93.57 279.34 C 95.78 279.33 98.00 279.33 100.21 279.33 C 100.21 276.84 100.22 274.36 100.23 271.89 C 101.34 271.89 102.45 271.89 103.55 271.90 C 103.57 278.05 103.55 284.21 103.57 290.36 C 102.73 290.35 101.04 290.34 100.19 290.33 C 100.21 287.80 100.21 285.28 100.22 282.75 C 98.01 282.75 95.79 282.74 93.57 282.74 C 93.58 285.28 93.58 287.82 93.59 290.36 C 92.74 290.35 91.04 290.33 90.19 290.32 C 90.26 284.17 90.21 278.03 90.24 271.88 Z"/>
    <path fill="#2b5a51" opacity="1.00" d=" M 106.84 271.89 C 110.29 271.89 113.74 271.89 117.19 271.89 C 117.19 272.72 117.20 274.36 117.21 275.19 C 115.04 275.19 112.87 275.21 110.70 275.22 C 110.72 276.64 110.74 278.06 110.76 279.48 C 112.76 279.48 114.76 279.47 116.76 279.47 C 116.75 280.54 116.73 281.61 116.72 282.69 C 114.73 282.69 112.73 282.68 110.73 282.68 C 110.74 284.16 110.75 285.65 110.76 287.15 C 113.02 287.13 115.29 287.11 117.56 287.10 C 117.59 287.91 117.64 289.53 117.66 290.34 C 114.05 290.34 110.44 290.34 106.83 290.34 C 106.83 284.19 106.82 278.04 106.84 271.89 Z"/>
    <path fill="#2b5a51" opacity="1.00" d=" M 124.81 272.15 C 126.07 272.17 127.34 272.20 128.61 272.23 C 130.44 278.25 132.22 284.29 134.09 290.31 C 133.21 290.33 131.45 290.37 130.56 290.39 C 130.13 288.97 129.69 287.56 129.26 286.15 C 127.45 286.17 125.65 286.19 123.86 286.22 C 123.49 287.58 123.13 288.94 122.77 290.32 C 121.86 290.33 120.04 290.34 119.13 290.35 C 121.07 284.30 122.87 278.20 124.81 272.15 M 126.68 275.84 C 125.96 278.29 125.25 280.74 124.53 283.20 C 125.87 283.20 127.22 283.20 128.56 283.21 C 127.91 280.76 127.27 278.30 126.68 275.84 Z"/>
    <path fill="#2b5a51" opacity="1.00" d=" M 153.98 281.46 C 156.02 281.45 158.05 281.45 160.09 281.45 C 160.09 282.06 160.10 283.29 160.10 283.91 C 158.04 283.90 155.98 283.89 153.92 283.88 C 153.93 283.27 153.97 282.07 153.98 281.46 Z"/>
    <path fill="#2b5a51" opacity="1.00" d=" M 0.00 305.10 C 106.67 305.09 213.33 305.13 320.00 305.08 L 320.00 311.00 L 0.00 311.00 L 0.00 305.10 Z"/>
  </g>
  <g>
    <path fill="#f2be1d" opacity="1.00" d=" M 140.55 6.77 C 165.26 2.92 191.17 7.02 213.37 18.58 C 239.15 31.79 259.75 54.71 270.23 81.71 C 280.73 108.38 281.27 138.80 271.77 165.84 C 262.51 192.59 243.43 215.77 218.99 230.04 C 196.84 243.12 170.35 248.61 144.82 245.52 C 115.13 242.15 87.09 226.91 67.87 204.08 C 49.46 182.54 39.10 154.33 39.22 126.00 C 39.04 98.12 49.00 70.34 66.81 48.90 C 85.17 26.50 111.89 11.12 140.55 6.77 M 145.19 10.22 C 145.20 16.19 145.19 22.16 145.20 28.13 C 145.98 28.13 147.53 28.13 148.31 28.13 C 148.32 23.85 148.30 19.57 148.33 15.28 C 150.71 19.34 152.61 23.70 155.37 27.52 C 156.23 27.75 157.94 28.21 158.80 28.43 C 158.88 22.37 158.81 16.31 158.86 10.25 C 158.07 10.23 156.50 10.20 155.72 10.19 C 155.71 14.36 155.73 18.52 155.72 22.69 C 153.41 18.53 151.13 14.36 148.77 10.23 C 147.57 10.22 146.38 10.22 145.19 10.22 M 125.50 14.33 C 126.79 20.14 128.03 25.96 129.36 31.75 C 130.24 31.54 131.99 31.12 132.87 30.91 C 132.37 28.43 131.88 25.94 131.51 23.44 C 134.81 24.39 136.90 27.16 139.08 29.60 C 140.45 29.28 141.83 28.96 143.21 28.64 C 141.07 26.33 138.82 24.10 136.38 22.10 C 138.80 19.86 139.65 15.52 136.53 13.47 C 133.02 11.84 129.09 13.87 125.50 14.33 M 181.83 12.08 C 180.11 17.53 178.45 23.00 176.67 28.43 C 177.82 28.84 178.97 29.24 180.12 29.64 C 180.94 27.26 181.81 24.89 182.82 22.59 C 184.86 25.14 185.53 28.35 186.24 31.46 C 187.60 31.87 188.96 32.29 190.33 32.70 C 189.54 29.73 188.65 26.79 187.54 23.92 C 190.46 23.11 193.42 20.37 192.06 17.08 C 189.91 13.63 185.27 13.48 181.83 12.08 M 109.15 20.90 C 111.44 26.15 113.64 31.45 115.88 36.72 C 119.02 35.38 122.16 34.05 125.30 32.72 C 124.89 31.79 124.48 30.87 124.07 29.94 C 122.09 30.78 120.11 31.62 118.13 32.45 C 117.57 31.21 117.02 29.98 116.46 28.74 C 118.26 27.96 120.06 27.18 121.85 26.39 C 121.48 25.72 120.75 24.38 120.38 23.71 C 118.71 24.46 117.05 25.20 115.39 25.93 C 114.84 24.72 114.30 23.50 113.75 22.28 C 115.63 21.47 117.52 20.67 119.40 19.87 C 118.99 18.93 118.58 17.99 118.18 17.06 C 115.18 18.37 112.17 19.64 109.15 20.90 M 190.34 32.81 C 191.55 33.36 192.77 33.91 193.98 34.47 C 194.92 33.44 195.86 32.41 196.80 31.38 C 198.67 32.25 200.55 33.11 202.42 33.98 C 202.28 35.33 202.14 36.69 202.01 38.04 C 203.21 38.62 204.42 39.19 205.63 39.77 C 206.19 33.73 206.56 27.67 207.16 21.64 C 205.84 21.00 204.52 20.36 203.21 19.72 C 198.93 24.09 194.61 28.43 190.34 32.81 M 99.94 25.87 C 101.17 27.81 102.39 29.75 103.60 31.70 C 101.54 32.97 99.48 34.25 97.42 35.51 C 96.21 33.56 94.99 31.60 93.78 29.64 C 92.72 30.30 91.67 30.96 90.62 31.62 C 93.69 36.47 96.69 41.36 99.75 46.21 C 100.80 45.54 101.84 44.87 102.89 44.20 C 101.63 42.22 100.38 40.24 99.13 38.25 C 101.18 36.97 103.22 35.68 105.27 34.38 C 106.53 36.39 107.79 38.41 109.04 40.43 C 110.08 39.77 111.12 39.12 112.16 38.47 C 109.17 33.57 106.10 28.72 103.07 23.84 C 102.03 24.52 100.98 25.19 99.94 25.87 M 208.17 41.10 C 209.19 41.80 210.21 42.50 211.24 43.20 C 214.47 38.47 217.65 33.68 220.90 28.95 C 219.87 28.25 218.85 27.55 217.83 26.85 C 214.60 31.59 211.43 36.38 208.17 41.10 M 146.51 33.80 C 114.57 37.83 85.96 60.12 73.81 89.86 C 64.94 110.97 64.26 135.38 71.93 156.96 C 78.49 175.69 91.27 192.17 107.77 203.19 C 123.36 213.71 142.26 219.22 161.06 218.70 C 181.57 218.31 201.83 210.68 217.55 197.51 C 232.07 185.49 242.78 168.93 247.76 150.74 C 253.73 129.17 251.67 105.45 241.87 85.31 C 232.82 66.42 217.16 50.79 198.22 41.84 C 182.25 34.18 164.04 31.45 146.51 33.80 M 228.18 33.86 C 224.49 38.25 220.74 42.59 217.02 46.95 C 219.61 49.11 222.18 51.28 224.74 53.47 C 225.23 52.89 226.23 51.74 226.73 51.16 C 225.09 49.78 223.46 48.40 221.82 47.02 C 224.90 43.42 227.99 39.84 231.05 36.23 C 230.09 35.44 229.13 34.65 228.18 33.86 M 86.33 34.73 C 83.05 37.82 79.74 40.87 76.41 43.91 C 76.95 44.46 78.02 45.56 78.56 46.11 C 79.74 45.01 80.92 43.90 82.10 42.80 C 85.32 46.27 88.57 49.71 91.80 53.17 C 92.69 52.31 93.58 51.45 94.47 50.59 C 91.23 47.17 88.01 43.72 84.83 40.23 C 86.04 39.14 87.26 38.04 88.47 36.94 C 87.76 36.20 87.04 35.47 86.33 34.73 M 239.52 43.61 C 236.11 48.46 232.77 53.37 229.32 58.19 C 230.25 59.28 231.18 60.37 232.11 61.46 C 236.00 59.62 239.90 57.79 243.77 55.89 C 241.27 59.37 238.81 62.88 236.31 66.36 C 237.20 67.42 238.09 68.48 238.98 69.55 C 244.32 66.97 249.70 64.46 255.07 61.93 C 254.25 60.97 253.44 60.01 252.63 59.05 C 248.70 61.14 244.77 63.23 240.90 65.43 C 243.51 61.81 246.12 58.19 248.80 54.62 C 247.94 53.58 247.08 52.54 246.22 51.51 C 242.14 53.46 238.01 55.33 233.96 57.35 C 236.69 53.84 239.38 50.30 242.12 46.79 C 241.25 45.73 240.39 44.67 239.52 43.61 M 72.61 48.83 C 71.87 49.83 71.13 50.82 70.40 51.82 C 73.57 54.25 77.10 56.26 79.96 59.08 C 82.33 61.28 78.84 65.71 76.15 63.92 C 72.70 62.05 69.74 59.44 66.57 57.16 C 65.79 58.14 65.00 59.12 64.22 60.10 C 67.87 62.58 71.15 65.70 75.19 67.57 C 81.08 69.95 87.16 60.94 82.55 56.46 C 79.59 53.49 75.92 51.38 72.61 48.83 M 61.19 68.22 C 57.74 69.73 55.78 74.16 57.37 77.66 C 59.27 81.90 64.29 84.74 68.90 83.69 C 73.07 82.68 75.55 77.41 73.53 73.58 C 71.36 69.33 65.84 66.44 61.19 68.22 M 241.66 73.03 C 242.19 74.22 242.73 75.41 243.26 76.61 C 244.68 76.45 246.10 76.29 247.52 76.12 C 248.44 77.96 249.35 79.79 250.27 81.62 C 249.27 82.60 248.28 83.58 247.29 84.56 C 247.88 85.75 248.48 86.93 249.08 88.12 C 253.32 83.73 257.57 79.36 261.81 74.98 C 261.15 73.69 260.50 72.41 259.85 71.12 C 253.78 71.74 247.73 72.50 241.66 73.03 M 49.33 92.92 C 49.83 95.71 53.38 97.42 55.86 96.02 C 57.90 94.72 59.38 92.74 61.38 91.38 C 62.85 90.67 64.05 92.65 63.47 93.91 C 63.04 95.88 61.56 97.36 60.44 98.96 C 61.62 99.27 62.80 99.58 63.98 99.89 C 65.38 97.20 67.11 94.32 66.59 91.15 C 66.18 87.93 61.72 86.09 59.23 88.23 C 57.35 89.66 55.77 91.44 53.87 92.85 C 50.57 91.16 53.41 87.53 54.66 85.46 C 53.86 85.20 52.27 84.68 51.48 84.42 C 50.27 87.07 48.65 89.89 49.33 92.92 M 251.03 93.57 C 251.33 94.71 251.64 95.85 251.95 96.99 C 257.94 94.49 264.07 97.07 270.02 98.31 C 269.69 97.03 269.37 95.76 269.05 94.48 C 266.31 94.00 263.57 93.54 260.83 93.12 C 263.07 91.46 265.28 89.77 267.48 88.05 C 267.10 86.68 266.73 85.31 266.36 83.94 C 261.73 87.86 257.45 92.88 251.03 93.57 M 252.37 154.53 C 252.13 155.37 251.64 157.05 251.40 157.89 C 253.58 158.58 255.75 159.29 257.93 159.99 C 257.22 162.15 256.51 164.31 255.80 166.47 C 253.60 165.76 251.41 165.03 249.22 164.32 C 248.84 165.41 248.46 166.50 248.09 167.59 C 253.51 169.41 258.97 171.14 264.38 173.01 C 264.69 172.18 265.32 170.54 265.63 169.71 C 263.37 168.98 261.12 168.24 258.87 167.51 C 259.56 165.34 260.25 163.17 260.95 161.01 C 263.18 161.74 265.42 162.48 267.67 163.21 C 267.96 162.39 268.53 160.75 268.82 159.93 C 263.34 158.14 257.86 156.31 252.37 154.53 M 55.08 167.19 C 52.63 165.08 52.20 161.99 52.47 158.94 C 51.40 159.36 50.32 159.79 49.24 160.21 C 49.72 163.39 50.05 167.05 52.73 169.23 C 54.95 171.26 59.14 169.79 59.67 166.84 C 60.25 164.69 60.39 162.42 61.21 160.34 C 64.65 159.12 64.57 164.56 64.90 166.70 C 65.68 166.33 67.25 165.59 68.04 165.22 C 67.12 161.69 65.95 156.03 61.22 156.31 C 55.81 157.08 57.85 163.89 55.08 167.19 M 55.66 178.36 C 57.32 181.35 58.99 184.34 60.68 187.31 C 61.35 186.92 62.69 186.13 63.36 185.74 C 62.30 183.85 61.25 181.96 60.20 180.07 C 61.43 179.40 62.67 178.73 63.90 178.06 C 64.84 179.72 65.77 181.39 66.71 183.05 C 67.60 182.51 68.49 181.98 69.38 181.44 C 68.47 179.82 67.54 178.21 66.63 176.59 C 67.81 175.89 68.99 175.20 70.18 174.50 C 71.18 176.29 72.18 178.08 73.18 179.88 C 74.10 179.37 75.02 178.87 75.94 178.37 C 74.34 175.51 72.74 172.65 71.15 169.79 C 66.00 172.68 60.83 175.52 55.66 178.36 M 239.51 181.62 C 240.34 182.19 241.17 182.77 242.01 183.35 C 242.92 181.96 243.82 180.56 244.73 179.17 C 248.64 181.75 252.60 184.25 256.52 186.82 C 257.25 185.81 257.97 184.80 258.71 183.79 C 254.70 181.19 250.68 178.63 246.67 176.06 C 247.56 174.71 248.46 173.37 249.36 172.03 C 248.73 171.59 247.47 170.70 246.85 170.26 C 244.39 174.04 241.96 177.83 239.51 181.62 M 64.17 192.65 C 64.74 193.36 65.87 194.78 66.43 195.49 C 68.41 194.05 70.41 192.62 72.47 191.29 C 73.00 194.60 71.45 197.61 70.21 200.56 C 71.10 201.68 71.99 202.79 72.88 203.91 C 73.94 201.00 74.95 198.06 75.75 195.07 C 78.69 196.36 82.63 195.50 83.46 192.03 C 83.39 188.06 80.01 185.31 77.96 182.23 C 73.37 185.71 68.75 189.15 64.17 192.65 M 238.52 184.68 C 237.69 185.58 236.88 186.49 236.06 187.41 C 239.26 190.62 243.55 192.95 245.72 197.05 C 245.46 199.03 243.28 201.45 241.17 200.25 C 237.62 198.17 234.87 195.03 231.72 192.43 C 230.87 193.34 230.02 194.26 229.18 195.18 C 232.56 197.95 235.54 201.28 239.32 203.54 C 244.92 206.64 251.97 198.10 247.79 193.19 C 245.10 189.95 241.59 187.53 238.52 184.68 M 85.95 192.01 C 83.62 197.61 81.23 203.19 78.86 208.78 C 79.89 209.71 80.93 210.64 81.97 211.58 C 87.25 208.60 92.56 205.68 97.88 202.78 C 96.93 201.89 95.98 201.01 95.03 200.13 C 91.01 202.58 86.96 204.97 82.98 207.48 C 84.97 203.25 86.93 199.01 88.95 194.79 C 87.95 193.86 86.95 192.93 85.95 192.01 M 222.28 200.36 C 217.52 202.27 216.36 208.62 219.33 212.56 C 221.66 217.09 228.32 218.99 232.03 214.98 C 238.31 209.10 230.10 196.86 222.28 200.36 M 99.68 204.01 C 96.29 208.75 92.96 213.53 89.56 218.26 C 92.34 220.22 95.12 222.17 97.90 224.14 C 98.37 223.53 99.31 222.31 99.78 221.69 C 97.98 220.42 96.18 219.15 94.39 217.88 C 95.20 216.74 96.02 215.59 96.84 214.45 C 98.34 215.56 99.85 216.67 101.36 217.78 C 101.98 216.93 102.60 216.09 103.23 215.25 C 101.66 214.15 100.09 213.06 98.53 211.96 C 99.33 210.86 100.13 209.76 100.94 208.66 C 102.57 209.83 104.21 211.00 105.85 212.18 C 106.32 211.56 107.27 210.34 107.74 209.73 C 105.05 207.82 102.36 205.92 99.68 204.01 M 204.05 213.16 C 202.27 215.65 203.96 219.67 207.00 220.06 C 209.77 220.48 212.75 220.22 215.17 221.91 C 213.27 224.43 210.34 225.30 207.29 225.23 C 207.85 226.32 208.42 227.41 208.98 228.51 C 211.96 227.63 215.39 226.94 217.32 224.26 C 219.06 222.09 217.87 218.75 215.63 217.46 C 212.88 216.44 209.78 217.14 207.08 215.98 C 206.75 212.63 210.97 212.40 213.29 211.81 C 212.76 210.81 212.24 209.81 211.72 208.82 C 208.96 209.78 205.74 210.54 204.05 213.16 M 108.55 218.96 C 109.54 221.52 111.45 223.58 112.65 226.04 C 110.46 229.67 106.80 225.30 105.07 223.45 C 104.57 224.57 104.07 225.70 103.57 226.84 C 106.07 228.59 108.68 230.81 111.93 230.73 C 114.74 230.73 116.93 227.67 116.35 224.99 C 115.28 222.50 113.36 220.49 112.31 217.98 C 114.15 214.76 117.60 218.54 119.37 219.93 C 119.87 218.92 120.37 217.91 120.88 216.91 C 118.47 215.36 116.01 213.35 112.98 213.47 C 110.24 213.43 107.99 216.30 108.55 218.96 M 136.75 221.76 C 136.66 222.51 136.48 224.03 136.40 224.79 C 138.01 224.98 139.64 225.17 141.26 225.36 C 140.66 230.03 140.13 234.70 139.53 239.37 C 140.46 239.49 142.31 239.72 143.23 239.84 C 143.79 235.15 144.38 230.46 144.91 225.77 C 146.63 225.98 148.36 226.20 150.08 226.41 C 150.02 225.67 149.88 224.18 149.81 223.44 C 145.49 222.61 141.09 222.37 136.75 221.76 M 172.50 223.25 C 173.57 228.89 174.59 234.55 175.76 240.18 C 179.09 239.49 182.42 238.85 185.76 238.22 C 185.61 237.48 185.29 235.99 185.13 235.25 C 183.01 235.66 180.89 236.07 178.77 236.49 C 178.57 235.49 178.18 233.48 177.98 232.48 C 179.85 232.10 181.73 231.74 183.60 231.37 C 183.46 230.64 183.18 229.16 183.04 228.43 C 181.19 228.78 179.33 229.14 177.48 229.50 C 177.20 228.19 176.93 226.89 176.66 225.59 C 178.69 225.19 180.72 224.80 182.75 224.41 C 182.54 223.42 182.34 222.43 182.14 221.45 C 178.93 222.06 175.71 222.66 172.50 223.25 M 153.62 224.06 C 153.60 229.80 153.61 235.53 153.61 241.27 C 154.49 241.26 156.27 241.25 157.16 241.24 C 157.15 238.89 157.15 236.55 157.14 234.20 C 159.47 234.20 161.80 234.21 164.13 234.23 C 164.13 236.56 164.12 238.90 164.11 241.24 C 164.98 241.25 166.73 241.27 167.60 241.28 C 167.60 235.54 167.61 229.81 167.59 224.08 C 166.43 224.09 165.27 224.12 164.12 224.14 C 164.12 226.39 164.12 228.65 164.13 230.90 C 161.80 230.91 159.48 230.93 157.16 230.94 C 157.16 228.68 157.16 226.42 157.16 224.16 C 156.27 224.14 154.51 224.09 153.62 224.06 Z"/>
    <path fill="#f2be1d" opacity="1.00" d=" M 129.62 16.38 C 131.26 16.26 133.99 15.17 134.65 17.39 C 135.80 19.91 132.67 20.85 130.99 21.70 C 130.53 19.93 130.07 18.15 129.62 16.38 Z"/>
    <path fill="#f2be1d" opacity="1.00" d=" M 184.58 15.69 C 186.02 16.62 189.09 17.12 188.26 19.43 C 187.57 21.86 184.84 20.99 183.00 20.86 C 183.50 19.13 184.04 17.41 184.58 15.69 Z"/>
    <path fill="#f2be1d" opacity="1.00" d=" M 198.69 29.15 C 200.36 27.31 202.02 25.46 203.65 23.59 C 203.37 26.05 203.08 28.51 202.79 30.98 C 201.42 30.37 200.06 29.76 198.69 29.15 Z"/>
    <path fill="#f2be1d" opacity="1.00" d=" M 147.52 37.70 C 166.59 35.17 186.45 39.10 203.05 48.83 C 219.95 58.62 233.44 74.16 240.74 92.28 C 247.11 107.95 248.88 125.45 245.79 142.08 C 242.58 159.76 233.83 176.40 221.05 189.04 C 208.15 201.99 191.10 210.75 173.05 213.62 C 155.22 216.52 136.50 213.81 120.31 205.77 C 102.34 197.00 87.59 181.91 79.13 163.80 C 70.71 145.96 68.50 125.28 72.91 106.05 C 76.85 88.38 86.41 72.05 99.82 59.90 C 112.96 47.86 129.85 39.98 147.52 37.70 M 121.69 69.69 C 100.08 83.26 87.77 110.25 92.38 135.44 C 92.62 136.85 93.40 138.58 95.10 138.49 C 107.75 138.80 120.43 138.32 133.08 138.68 C 134.94 138.43 134.38 140.89 134.57 141.98 C 134.43 148.78 134.87 155.61 134.19 162.39 C 127.69 160.13 124.47 153.65 119.80 149.15 C 112.06 148.58 104.14 148.44 96.41 149.36 C 98.99 156.31 102.47 163.01 107.35 168.63 C 116.96 179.98 130.81 187.09 145.17 190.35 C 148.89 191.12 152.70 192.06 156.53 191.64 C 156.95 170.46 156.58 149.24 156.70 128.04 C 156.69 122.97 156.89 117.89 156.41 112.84 C 142.72 112.87 129.04 112.86 115.36 112.84 C 115.65 109.50 116.51 106.18 118.42 103.37 C 122.50 97.05 127.85 91.54 133.97 87.18 C 134.31 92.36 133.72 97.58 134.31 102.74 C 134.54 102.98 135.01 103.47 135.24 103.71 C 141.94 104.29 148.87 104.52 155.53 103.57 C 156.17 88.60 155.55 73.57 155.82 58.57 C 143.53 57.72 131.72 63.03 121.69 69.69 M 160.25 63.04 C 160.65 105.80 160.65 148.57 161.11 191.32 C 166.50 192.55 171.77 190.21 176.95 189.02 C 178.98 188.32 182.24 187.85 182.15 185.05 C 182.58 169.96 181.66 154.82 182.60 139.75 C 189.20 151.76 194.70 164.35 201.29 176.37 C 205.89 172.95 209.08 168.09 212.81 163.83 C 213.91 162.15 216.22 160.32 215.00 158.12 C 212.00 151.56 208.31 145.34 205.28 138.79 C 211.22 138.54 217.17 138.65 223.12 138.66 C 226.35 127.78 225.77 115.96 222.62 105.12 C 218.43 90.90 208.42 79.02 196.56 70.43 C 186.25 63.09 173.79 57.97 160.97 58.46 C 159.78 59.63 160.48 61.55 160.25 63.04 Z"/>
    <path fill="#f2be1d" opacity="1.00" d=" M 62.40 71.33 C 66.27 70.36 72.34 73.99 70.56 78.45 C 68.53 82.11 63.47 80.15 61.34 77.60 C 59.38 75.85 59.87 72.26 62.40 71.33 Z"/>
    <path fill="#f2be1d" opacity="1.00" d=" M 250.39 75.56 C 252.86 75.18 255.32 74.80 257.79 74.40 C 255.99 76.10 254.21 77.81 252.44 79.53 C 251.75 78.21 251.07 76.88 250.39 75.56 Z"/>
    <path fill="#f2be1d" opacity="1.00" d=" M 181.70 87.08 C 191.86 92.07 198.56 102.05 201.65 112.70 C 195.00 112.59 188.34 113.00 181.71 112.39 C 181.64 103.95 181.65 95.51 181.70 87.08 Z"/>
    <path fill="#f2be1d" opacity="1.00" d=" M 73.85 189.93 C 75.22 188.91 76.60 187.89 77.98 186.87 C 78.76 188.03 79.55 189.19 80.33 190.35 C 79.24 191.21 78.20 192.98 76.56 192.37 C 75.59 191.63 74.73 190.76 73.85 189.93 Z"/>
    <path fill="#f2be1d" opacity="1.00" d=" M 223.38 203.43 C 226.95 202.08 230.04 206.04 230.78 209.15 C 231.73 212.40 227.48 215.24 224.84 213.12 C 221.65 211.31 219.19 205.52 223.38 203.43 Z"/>
    <path fill="#f2be1d" opacity="1.00" d=" M 0.00 256.44 C 106.67 256.43 213.33 256.46 320.00 256.42 L 320.00 305.08 C 213.33 305.13 106.67 305.09 0.00 305.10 L 0.00 256.44 M 164.31 270.74 C 164.31 277.26 164.33 283.78 164.29 290.30 C 167.83 290.31 171.38 290.30 174.92 290.30 C 174.90 289.43 174.86 287.70 174.84 286.84 C 172.62 286.84 170.40 286.84 168.18 286.85 C 168.19 281.49 168.19 276.12 168.19 270.76 C 166.90 270.75 165.60 270.75 164.31 270.74 M 280.05 270.77 C 279.95 275.40 280.53 280.12 279.62 284.70 C 278.99 287.60 274.25 287.38 273.69 284.51 C 272.95 279.97 273.50 275.33 273.38 270.75 C 272.45 270.75 270.59 270.75 269.66 270.75 C 269.83 275.80 269.11 280.93 270.15 285.91 C 271.53 291.86 281.38 291.86 283.07 286.13 C 284.28 281.11 283.47 275.86 283.69 270.74 C 282.47 270.75 281.26 270.76 280.05 270.77 M 302.29 270.78 C 302.31 277.19 302.28 283.60 302.32 290.01 C 303.57 289.95 304.82 289.90 306.07 289.85 C 306.07 287.27 306.07 284.70 306.07 282.12 C 308.46 282.12 310.87 282.11 313.27 282.11 C 313.27 284.76 313.28 287.41 313.31 290.07 C 314.20 290.07 315.99 290.07 316.88 290.07 C 316.93 283.60 316.95 277.13 316.87 270.67 C 315.66 270.71 314.46 270.74 313.27 270.79 C 313.27 273.37 313.28 275.96 313.28 278.55 C 310.84 278.54 308.40 278.53 305.96 278.51 C 305.95 275.90 305.96 273.30 305.97 270.69 C 304.74 270.72 303.52 270.75 302.29 270.78 M 136.36 271.23 C 136.36 277.61 136.38 283.98 136.34 290.36 C 139.83 290.19 143.78 291.00 146.84 288.86 C 151.22 285.54 151.61 278.62 148.89 274.15 C 145.96 270.25 140.56 271.45 136.36 271.23 M 181.34 271.34 C 176.09 274.53 175.37 282.48 178.58 287.36 C 181.04 291.27 187.23 291.76 190.34 288.37 C 193.73 284.69 193.90 278.73 191.73 274.39 C 189.90 270.67 184.90 269.35 181.34 271.34 M 199.25 271.22 C 194.00 274.03 193.20 281.47 195.63 286.42 C 197.59 290.62 203.54 292.02 207.13 289.10 C 211.28 285.69 211.73 279.19 209.46 274.59 C 207.71 270.87 202.87 269.33 199.25 271.22 M 213.07 270.76 C 213.09 277.27 213.10 283.78 213.06 290.30 C 214.34 290.30 215.63 290.30 216.91 290.30 C 216.89 287.17 216.87 284.04 216.85 280.91 C 218.85 284.05 220.86 287.19 222.88 290.32 C 224.53 290.31 226.17 290.30 227.82 290.30 C 225.45 286.92 223.12 283.50 220.79 280.09 C 222.94 276.98 225.10 273.86 227.26 270.76 C 225.73 270.75 224.20 270.73 222.68 270.72 C 220.70 273.75 218.77 276.81 216.84 279.88 C 216.87 276.84 216.89 273.80 216.91 270.76 C 215.62 270.75 214.35 270.76 213.07 270.76 M 239.58 271.66 C 237.27 273.16 236.80 276.53 238.07 278.84 C 239.87 281.66 243.89 282.01 245.49 285.00 C 244.01 288.56 239.83 286.71 237.38 285.37 C 237.42 286.77 237.45 288.18 237.48 289.60 C 240.42 290.12 243.67 291.00 246.47 289.46 C 249.40 287.94 249.99 283.61 247.92 281.15 C 245.64 279.19 242.91 277.82 240.55 275.95 C 242.47 273.19 245.63 273.66 248.43 274.67 C 248.39 273.70 248.30 271.76 248.25 270.79 C 245.37 270.64 242.13 269.88 239.58 271.66 M 255.38 271.44 C 250.42 274.46 249.55 281.79 252.36 286.56 C 254.57 290.49 260.28 291.57 263.87 288.91 C 268.25 285.49 268.76 278.57 265.98 274.01 C 263.88 270.44 258.88 269.43 255.38 271.44 M 285.91 270.77 C 285.91 271.62 285.92 273.32 285.92 274.17 C 287.56 274.17 289.20 274.18 290.85 274.18 C 290.84 279.48 290.84 284.77 290.85 290.07 C 292.09 290.06 293.32 290.06 294.56 290.06 C 294.59 284.76 294.58 279.45 294.59 274.15 C 296.21 274.16 297.83 274.18 299.45 274.20 C 299.46 273.34 299.47 271.62 299.47 270.75 C 294.95 270.75 290.43 270.75 285.91 270.77 M 3.22 272.20 C 3.23 278.24 3.25 284.29 3.21 290.34 C 6.59 290.34 9.98 290.34 13.36 290.34 C 13.36 289.28 13.36 288.21 13.36 287.15 C 11.20 287.15 9.04 287.15 6.88 287.16 C 6.88 282.18 6.87 277.20 6.89 272.22 C 5.67 272.21 4.45 272.20 3.22 272.20 M 20.26 272.40 C 14.89 274.61 13.85 281.95 16.26 286.70 C 18.14 290.66 23.77 291.88 27.22 289.25 C 31.05 286.27 31.50 280.49 29.72 276.26 C 28.23 272.70 23.83 270.89 20.26 272.40 M 37.23 272.34 C 31.67 274.47 30.61 282.05 33.14 286.83 C 35.12 290.72 40.72 291.88 44.10 289.17 C 48.00 286.05 48.45 280.00 46.28 275.76 C 44.68 272.52 40.57 271.04 37.23 272.34 M 49.67 272.19 C 49.64 278.24 49.65 284.29 49.66 290.35 C 50.59 290.35 52.45 290.35 53.38 290.35 C 53.37 287.46 53.36 284.58 53.38 281.69 C 55.28 284.57 57.15 287.46 59.05 290.34 C 60.63 290.34 62.21 290.34 63.79 290.34 C 61.53 287.20 59.31 284.03 57.06 280.87 C 59.11 278.00 61.16 275.12 63.24 272.27 C 61.79 272.22 60.35 272.17 58.91 272.12 C 57.01 274.93 55.18 277.79 53.38 280.66 C 53.37 277.83 53.37 275.01 53.37 272.19 C 52.44 272.19 50.59 272.19 49.67 272.19 M 78.54 272.18 C 76.41 278.23 74.34 284.30 72.19 290.33 C 73.19 290.34 75.21 290.35 76.22 290.35 C 76.65 288.96 77.09 287.56 77.53 286.18 C 79.59 286.19 81.65 286.20 83.71 286.22 C 84.14 287.59 84.56 288.96 84.99 290.33 C 86.35 290.33 87.70 290.32 89.06 290.33 C 86.95 284.31 84.92 278.27 82.86 272.24 C 81.42 272.22 79.98 272.20 78.54 272.18 M 90.24 271.88 C 90.21 278.03 90.26 284.17 90.19 290.32 C 91.04 290.33 92.74 290.35 93.59 290.36 C 93.58 287.82 93.58 285.28 93.57 282.74 C 95.79 282.74 98.01 282.75 100.22 282.75 C 100.21 285.28 100.21 287.80 100.19 290.33 C 101.04 290.34 102.73 290.35 103.57 290.36 C 103.55 284.21 103.57 278.05 103.55 271.90 C 102.45 271.89 101.34 271.89 100.23 271.89 C 100.22 274.36 100.21 276.84 100.21 279.33 C 98.00 279.33 95.78 279.33 93.57 279.34 C 93.57 276.86 93.57 274.38 93.57 271.91 C 92.46 271.89 91.35 271.89 90.24 271.88 M 106.84 271.89 C 106.82 278.04 106.83 284.19 106.83 290.34 C 110.44 290.34 114.05 290.34 117.66 290.34 C 117.64 289.53 117.59 287.91 117.56 287.10 C 115.29 287.11 113.02 287.13 110.76 287.15 C 110.75 285.65 110.74 284.16 110.73 282.68 C 112.73 282.68 114.73 282.69 116.72 282.69 C 116.73 281.61 116.75 280.54 116.76 279.47 C 114.76 279.47 112.76 279.48 110.76 279.48 C 110.74 278.06 110.72 276.64 110.70 275.22 C 112.87 275.21 115.04 275.19 117.21 275.19 C 117.20 274.36 117.19 272.72 117.19 271.89 C 113.74 271.89 110.29 271.89 106.84 271.89 M 124.81 272.15 C 122.87 278.20 121.07 284.30 119.13 290.35 C 120.04 290.34 121.86 290.33 122.77 290.32 C 123.13 288.94 123.49 287.58 123.86 286.22 C 125.65 286.19 127.45 286.17 129.26 286.15 C 129.69 287.56 130.13 288.97 130.56 290.39 C 131.45 290.37 133.21 290.33 134.09 290.31 C 132.22 284.29 130.44 278.25 128.61 272.23 C 127.34 272.20 126.07 272.17 124.81 272.15 M 153.98 281.46 C 153.97 282.07 153.93 283.27 153.92 283.88 C 155.98 283.89 158.04 283.90 160.10 283.91 C 160.10 283.29 160.09 282.06 160.09 281.45 C 158.05 281.45 156.02 281.45 153.98 281.46 Z"/>
    <path fill="#f2be1d" opacity="1.00" d=" M 183.36 274.41 C 186.94 272.77 189.61 276.83 189.36 280.02 C 189.95 283.47 187.41 288.35 183.32 286.68 C 179.42 284.12 179.43 276.94 183.36 274.41 Z"/>
    <path fill="#f2be1d" opacity="1.00" d=" M 201.25 274.31 C 206.22 272.78 207.75 279.32 206.75 282.92 C 206.63 286.44 201.73 288.56 199.55 285.50 C 197.35 282.21 197.41 276.34 201.25 274.31 Z"/>
    <path fill="#f2be1d" opacity="1.00" d=" M 257.38 274.51 C 259.53 273.30 262.44 274.45 263.16 276.82 C 264.14 279.76 264.18 283.58 261.82 285.89 C 259.90 287.55 256.66 286.78 255.62 284.47 C 254.06 281.33 254.25 276.63 257.38 274.51 Z"/>
    <path fill="#f2be1d" opacity="1.00" d=" M 21.44 275.59 C 28.71 273.24 29.33 288.24 22.05 287.23 C 17.54 285.54 17.47 277.92 21.44 275.59 Z"/>
    <path fill="#f2be1d" opacity="1.00" d=" M 38.39 275.53 C 45.48 273.49 46.04 287.92 39.07 287.24 C 34.35 285.85 34.19 277.69 38.39 275.53 Z"/>
    <path fill="#f2be1d" opacity="1.00" d=" M 139.83 274.34 C 142.04 274.72 144.85 274.70 146.04 277.00 C 147.35 279.57 147.23 283.06 145.42 285.37 C 144.11 287.06 141.70 286.74 139.83 287.23 C 139.80 282.93 139.80 278.63 139.83 274.34 Z"/>
    <path fill="#f2be1d" opacity="1.00" d=" M 78.27 283.19 C 79.07 280.75 79.87 278.30 80.65 275.85 C 81.35 278.31 82.07 280.76 82.82 283.20 C 81.30 283.20 79.79 283.20 78.27 283.19 Z"/>
    <path fill="#f2be1d" opacity="1.00" d=" M 126.68 275.84 C 127.27 278.30 127.91 280.76 128.56 283.21 C 127.22 283.20 125.87 283.20 124.53 283.20 C 125.25 280.74 125.96 278.29 126.68 275.84 Z"/>
  </g>
</svg>
