<?xml version="1.0" encoding="utf-8"?>
<!-- Generator: Adobe Illustrator 26.0.3, SVG Export Plug-In . SVG Version: 6.00 Build 0)  -->
<svg version="1.0" id="Layer_1" xmlns="http://www.w3.org/2000/svg" xmlns:xlink="http://www.w3.org/1999/xlink" x="0px" y="0px"
	 viewBox="0 0 632 453.2" style="enable-background:new 0 0 632 453.2;" xml:space="preserve">
<style type="text/css">
	.st0{fill:#15233B;}
	.st1{fill:#FFFFFF;}
	.st2{fill:#F9AE00;}
	.st3{fill:#0079C1;}
	.st4{fill:#009879;stroke:#FFFFFF;stroke-linecap:round;stroke-linejoin:round;}
</style>
<path class="st0" d="M218.6,216.6c-0.5-2.8-2.8-7.2-9.3-7.2c-4.8,0-8,3.1-8,6.5c0,2.8,1.8,5.1,5.5,5.8l7.1,1.3
	c9.3,1.8,14.2,7.9,14.2,15.1c0,7.9-6.6,15.8-18.4,15.8c-13.5,0-19.5-8.7-20.3-16l9.2-2.5c0.4,5,3.9,9.6,11.1,9.6
	c5.3,0,8.3-2.6,8.3-6.3c0-3-2.2-5.2-6.2-6l-7.1-1.4c-8.1-1.7-13.4-6.9-13.4-14.6c0-9.1,8.1-16,17.8-16c12.4,0,17.1,7.5,18.3,13.3
	L218.6,216.6z"/>
<path class="st0" d="M245.2,217.3h7.1v8.5h-7.1v14.8c0,3.1,1.4,4.1,4.2,4.1c1,0,2-0.1,3-0.3v7.9c-1.7,0.6-3.6,0.9-5.4,0.9
	c-6.9,0-11.2-4.1-11.2-11v-16.5h-6.5v-8.5h1.8c3.8,0,5.5-2.5,5.5-5.6v-5h8.6V217.3z"/>
<path class="st0" d="M273.5,246c5,0,8.7-4.1,8.7-10.6s-3.7-10.3-8.7-10.3c-5,0-8.9,3.8-8.9,10.3S268.3,246,273.5,246L273.5,246z
	 M282.3,248.5c-1.5,3.4-5.2,5.8-9.9,5.8c-10.4,0-17.3-8.1-17.3-18.9c0-10.4,6.8-18.6,17.1-18.6c6.3,0,9.3,3.4,10.2,5.4v-4.4h9.3v29
	c0,3.2,0.2,5.6,0.3,6.4h-9.1c-0.2-1.5-0.3-2.9-0.3-4.4L282.3,248.5z"/>
<path class="st0" d="M321.9,234.5c0-5.5-3.7-8.9-8.3-8.9c-4.6,0-8.5,3.5-8.5,8.9c0,5.5,3.5,9,8.5,9
	C318.5,243.5,321.9,239.9,321.9,234.5z M304,252.9c0.6,3.9,3.7,6.7,8.3,6.7c6,0,9.4-3,9.4-9.9v-2.6c-1.4,2.3-4.8,4.5-9.9,4.5
	c-9.4,0-16.5-7.3-16.5-17.2c0-9.4,6.8-17.3,16.5-17.3c5.6,0,8.9,2.4,10.1,4.8v-4.2h9.2v31.7c0,9.7-5.2,18.6-18.6,18.6
	c-9.7,0-16.2-6-17.2-12.8L304,252.9z"/>
<path class="st0" d="M360.5,231.5c-0.1-3.5-2.5-7-7.9-7c-4.1-0.1-7.6,2.9-7.9,7H360.5z M369.4,243.1c-1.8,6.1-7.4,11.2-16.1,11.2
	c-9.7,0-18.3-7-18.3-19c0-11.3,8.4-18.7,17.4-18.7c10.9,0,17.5,7,17.5,18.4c0,1.4-0.1,2.8-0.1,3h-25.3c0.3,4.7,4.3,8.2,8.9,8.1
	c4.5,0,6.9-2.2,8.1-5.4L369.4,243.1z"/>
<path class="st0" d="M383,235.6c0,6.4,4.2,10,9.1,10c3.8,0.1,7.2-2.3,8.1-6l8.4,2.8c-1.6,5.9-7.1,12-16.5,12
	c-10.1,0.2-18.5-7.8-18.7-18c0-0.3,0-0.5,0-0.8c0-11,8-18.8,18.4-18.8c9.6,0,15.1,6,16.6,12l-8.6,2.8c-0.8-3.6-4.1-6.2-7.9-6
	C387.1,225.6,382.9,229.1,383,235.6"/>
<path class="st0" d="M439.1,235.1c0-6.7-4.3-10.1-9-10.1s-9,3.4-9,10.1c0,6.7,4.3,10.1,9,10.1S439.1,241.8,439.1,235.1z
	 M448.7,235.1c0,10.9-8,18.8-18.6,18.8s-18.6-7.9-18.6-18.8s8-18.8,18.6-18.8S448.7,224.1,448.7,235.1z"/>
<path class="st0" d="M470.2,245.5c5,0,8.7-4.1,8.7-10.6s-3.7-10.3-8.7-10.3s-8.9,3.8-8.9,10.3S465,245.5,470.2,245.5L470.2,245.5z
	 M479,248c-1.5,3.4-5.2,5.9-9.9,5.9c-10.4,0-17.3-8.2-17.3-18.9c0-10.4,6.8-18.6,17-18.6c6.3,0,9.3,3.4,10.2,5.4v-4.4h9.3v29
	c0,3.2,0.2,5.6,0.3,6.4h-9.1c-0.2-1.5-0.4-2.9-0.4-4.4L479,248z"/>
<path class="st0" d="M501.5,235.1c0,6.4,4.2,10,9.1,10c3.8,0.1,7.2-2.3,8.1-6l8.4,2.8c-1.6,5.9-7.1,12-16.5,12
	c-10.1,0.2-18.5-7.9-18.7-18c0-0.3,0-0.5,0-0.8c0-11,8.1-18.8,18.4-18.8c9.7,0,15.1,6,16.6,12l-8.6,2.9c-0.8-3.6-4.1-6.1-7.9-6
	C505.5,225.1,501.4,228.6,501.5,235.1"/>
<path class="st0" d="M540.2,252.8h-9.6v-52.2h9.6v19.7c2.3-2.7,6.2-3.9,9.6-3.9c9,0,13.2,6.3,13.2,14.1v22.3h-9.6v-20.7
	c0-4-2-7.1-6.6-7.1c-4,0-6.4,3-6.6,6.9V252.8z"/>
<path class="st1" d="M125.5,248.2c-11.9,0-21.6-9.6-21.6-21.6c0-11.9,9.6-21.6,21.6-21.6c11.9,0,21.6,9.6,21.6,21.6c0,0,0,0,0,0l0,0
	C147.1,238.5,137.4,248.2,125.5,248.2C125.5,248.2,125.5,248.2,125.5,248.2L125.5,248.2z M125.5,170c-31.3-0.1-56.7,25.2-56.7,56.5
	s25.2,56.7,56.5,56.7c31.3,0.1,56.7-25.2,56.7-56.5c0,0,0-0.1,0-0.1C182,195.4,156.7,170.1,125.5,170L125.5,170z"/>
<path class="st2" d="M78.3,202.8c0,0,13.4-29.1,47-29.1c25.9,0,45.4,16.6,45.4,40.3c0,18.9-15.7,37-37,37c-1.4,0-2.8-0.1-4.1-0.2
	c0,0,21-1.4,21-24.3c0-22.6-17.6-40.1-39.7-40.1C98,186.3,85.9,192.4,78.3,202.8z"/>
<path class="st3" d="M169.6,197.3c5.6,8.6,8.6,18.7,8.7,29c0,30.6-23.4,51.2-45,51.2c-22.7,0-37.9-18.5-37.9-38.1
	c0-7.8,2.4-15.5,6.9-21.9c-0.9,2.9-1.3,5.9-1.4,8.9c0,19.9,17.1,27.7,31.8,27.7c24.8,0,40.5-20.7,40.5-40.9
	C173.3,207.6,172,202.2,169.6,197.3z"/>
<path class="st4" d="M144.5,210.1c0,0-8.7-21.3-34-21.3c-24.7,0-37.9,21.7-37.9,37.5c0,27.7,22.1,53,52,53c2.2,0,4.3-0.2,4.3-0.2
	c-8.8-0.5-17-4.2-23.3-10.3c-11.5-11.5-12.8-23.6-12.8-29.6c0-18.2,13.8-37.6,32.6-37.6C138.8,201.6,144.5,210.1,144.5,210.1z"/>
</svg>
