<svg height="158.113883" viewBox="0 0 200 50" width="632.455532" xmlns="http://www.w3.org/2000/svg" xmlns:xlink="http://www.w3.org/1999/xlink"><clipPath id="a"><path d="m0 0h858.898v612.283h-858.898z"/></clipPath><g clip-path="url(#a)" transform="matrix(1.25 0 0 -1.25 -46.062622 705.51225)"><path d="m0 0c-.242.196-.538.333-.888.414-.351.08-.739.121-1.164.121-.207 0-.443-.011-.707-.035-.265-.023-.523-.049-.776-.077-.253-.029-.489-.06-.708-.095-.218-.034-.385-.064-.499-.086-.138-.035-.196-.121-.173-.259l.155-.914c.012-.126.081-.189.207-.189.046 0 .149.014.31.043.161.028.351.057.57.086.218.028.442.058.672.086.231.028.431.043.604.043.333 0 .601-.037.802-.112s.353-.187.457-.336c.103-.15.172-.331.207-.543.034-.213.052-.463.052-.751v-.517l-1.311-.069c-.46-.023-.897-.092-1.311-.207s-.776-.288-1.086-.518c-.311-.229-.555-.525-.733-.887-.179-.363-.268-.803-.268-1.32 0-.85.219-1.483.656-1.896.437-.414 1-.621 1.69-.621.517 0 .983.084 1.397.25.414.167.787.377 1.121.63l.172-.519c.023-.056.046-.103.069-.137.023-.035.075-.052.155-.052h.862c.15 0 .225.063.225.189v6.313c0 .482-.066.882-.199 1.198-.132.316-.319.572-.56.767m-.879-6.622c-.219-.161-.507-.316-.863-.465-.356-.15-.684-.224-.983-.224-.368 0-.658.114-.871.344-.212.231-.319.587-.319 1.07 0 .92.495 1.414 1.484 1.483l1.552.103zm4.574 16.088c.414 0 .811.051 1.191.155.378.103.712.261 1 .474.287.213.514.483.681.811.167.327.25.721.25 1.181 0 .276-.032.526-.094.75-.064.224-.174.434-.328.629-.155.196-.359.383-.612.561s-.57.359-.95.543l-.896.431c-.483.23-.802.451-.957.664s-.233.434-.233.664c0 .299.118.529.354.69.235.161.531.241.888.241.207 0 .414-.014.62-.043.207-.028.4-.06.578-.095.178-.034.337-.066.474-.094.139-.029.236-.044.294-.044.092 0 .149.015.172.044.023.028.046.077.07.146l.223.931c.024.127-.029.207-.155.242-.265.057-.587.12-.965.189-.38.069-.765.104-1.156.104-.931 0-1.673-.219-2.225-.655-.552-.437-.827-1.041-.827-1.811 0-.518.132-.966.396-1.345.264-.38.742-.736 1.431-1.069l.966-.466c.483-.23.808-.451.975-.664.166-.213.25-.474.25-.785 0-.31-.133-.549-.397-.716-.265-.166-.598-.249-1-.249-.23 0-.466.017-.707.051-.242.035-.472.075-.69.121-.219.046-.411.092-.578.138s-.284.075-.353.086c-.092.012-.156-.052-.19-.189l-.242-.932c-.034-.126.012-.218.139-.276.103-.034.244-.077.422-.129s.385-.098.621-.138c.235-.04.486-.074.75-.103s.535-.043.81-.043m53.749.172h1.225c.149 0 .224.063.224.19v6.863c.413.127.825.21 1.233.25.408.041.733.061.974.061.172 0 .264.063.276.189l.172 1.087c.011.069.011.123 0 .164-.011.04-.051.071-.12.095-.058.023-.116.034-.173.034h-.172c-.253 0-.575-.058-.966-.172-.391-.115-.851-.305-1.379-.57l-.139.449c-.022.069-.046.117-.069.146-.022.029-.08.043-.172.043h-.914c-.15 0-.225-.063-.225-.189v-8.45c0-.127.075-.19.225-.19m-41.936-13.941c.034.087.052.314.052.682 0 .644-.063 1.225-.19 1.742-.126.517-.321.954-.587 1.311-.264.356-.599.629-1.008.819-.408.189-.893.284-1.457.284-.53 0-1.017-.089-1.466-.267-.448-.178-.836-.457-1.164-.836-.328-.38-.586-.863-.776-1.45-.19-.586-.284-1.292-.284-2.12 0-1.553.33-2.69.991-3.415s1.596-1.086 2.802-1.086c.472 0 .961.046 1.467.138.505.092 1 .236 1.482.431.127.058.172.144.138.259l-.275.914c-.024.08-.067.125-.13.138-.063.011-.123.006-.181-.018-.334-.126-.699-.235-1.096-.328-.395-.092-.761-.137-1.094-.137-.345 0-.656.049-.931.146-.277.098-.515.256-.716.474-.202.219-.363.506-.483.863-.121.356-.187.799-.198 1.327h4.829c.148 0 .241.043.275.129m-5.104 1.148c.114 1.563.695 2.345 1.742 2.345.322 0 .592-.063.809-.19.219-.126.395-.296.527-.508.132-.213.226-.463.284-.751.058-.287.092-.586.103-.896zm-2.951 3.518h-2.414v2.051c0 .139-.075.202-.224.191l-1.225-.174c-.149-.011-.224-.08-.224-.206v-1.862h-.897c-.149 0-.224-.064-.224-.191v-.948c0-.127.075-.189.224-.189h.897v-5.226c0-.92.173-1.557.518-1.913.344-.357.89-.535 1.638-.535.149 0 .313.009.491.026.179.017.357.04.535.069.178.028.348.063.509.103s.298.083.414.129c.115.046.161.126.137.242l-.206.811c-.035.114-.098.172-.19.172-.069 0-.235-.032-.5-.095-.265-.064-.54-.095-.827-.095-.3 0-.515.11-.648.327-.132.219-.198.592-.198 1.122v4.863h2.414c.15 0 .224.062.224.189v.948c0 .127-.074.191-.224.191m-22.178.069c-.058.023-.115.034-.173.034h-.172c-.253 0-.575-.058-.966-.172-.391-.116-.851-.305-1.38-.57l-.137.448c-.024.07-.047.118-.069.148-.024.028-.081.043-.173.043h-.914c-.149 0-.224-.064-.224-.191v-8.45c0-.126.075-.189.224-.189h1.224c.15 0 .225.063.225.189v6.864c.413.127.824.21 1.233.25.408.04.733.061.974.061.173 0 .264.063.276.189l.172 1.086c.012.07.012.124 0 .165-.011.04-.051.071-.12.095m-6.653 21.519h-8.554c-.127 0-.19-.075-.19-.224v-1.035c0-.149.063-.224.19-.224h3.449v-10.64c0-.127.074-.19.224-.19h1.259c.149 0 .224.063.224.19v10.64h3.398c.126 0 .189.075.189.224v1.035c0 .149-.063.224-.189.224m53.465-4.811h.897v-5.226c0-.919.173-1.557.517-1.914.345-.356.892-.534 1.639-.534.15 0 .313.008.491.026.178.017.356.04.535.069.178.028.347.063.508.103.162.04.3.083.414.129.116.046.161.126.139.242l-.208.81c-.034.115-.097.173-.189.173-.069 0-.236-.032-.5-.095-.265-.064-.54-.095-.828-.095-.298 0-.514.109-.647.327-.132.219-.198.593-.198 1.122v4.863h2.414c.15 0 .225.063.225.189v.949c0 .126-.075.189-.225.189h-2.414v2.053c0 .137-.075.201-.223.19l-1.225-.173c-.15-.012-.225-.081-.225-.207v-1.863h-.897c-.148 0-.223-.063-.223-.189v-.949c0-.126.075-.189.223-.189m-53.552-19.036h-1.345c-.115 0-.172-.058-.172-.173v-4.811c-.173-.058-.397-.109-.673-.156-.276-.045-.615-.068-1.017-.068-.678 0-1.248.103-1.708.31-.459.207-.833.515-1.121.923-.287.408-.491.916-.612 1.525-.12.609-.181 1.317-.181 2.122 0 .736.066 1.394.199 1.974.132.581.339 1.076.62 1.484.282.407.641.721 1.078.939.437.219.96.328 1.57.328.437 0 .836-.032 1.198-.094.362-.064.727-.148 1.095-.251.115-.034.19.023.224.172l.328 1.017c.035.128-.029.219-.19.277-.264.092-.635.18-1.112.267-.477.086-.951.129-1.423.129-1.724 0-3.058-.543-4.001-1.63-.942-1.086-1.413-2.767-1.413-5.043 0-2.036.459-3.542 1.379-4.518.92-.978 2.236-1.466 3.949-1.466.345 0 .69.017 1.035.052.345.034.661.077.948.129.288.051.543.106.768.163.224.058.388.109.491.156.069.022.13.058.181.103.052.046.078.133.078.259v5.708c0 .115-.058.173-.173.173m7.831 11.362c.517 0 .983.083 1.397.25.413.166.787.376 1.121.629l.172-.517c.023-.058.046-.104.069-.138.023-.035.075-.052.155-.052h.863c.149 0 .224.063.224.19v6.312c0 .482-.066.882-.199 1.198-.132.316-.319.572-.56.767-.241.196-.537.334-.888.414-.351.081-.739.121-1.164.121-.207 0-.443-.012-.707-.034-.265-.024-.523-.049-.776-.078s-.489-.061-.707-.095c-.219-.034-.386-.063-.5-.086-.139-.035-.196-.121-.173-.259l.156-.914c.011-.126.08-.19.206-.19.046 0 .15.015.311.044.161.028.35.057.569.086.218.028.443.057.672.086.23.029.432.043.604.043.334 0 .601-.037.802-.112s.353-.187.457-.336c.103-.15.172-.331.207-.543.034-.213.051-.463.051-.751v-.517l-1.31-.069c-.46-.023-.897-.092-1.311-.207s-.776-.287-1.086-.517c-.311-.23-.555-.526-.733-.888-.179-.363-.267-.802-.267-1.32 0-.85.218-1.483.655-1.897s1-.62 1.69-.62m.811 4.225 1.551.103v-2.311c-.218-.161-.505-.316-.862-.465-.356-.15-.684-.224-.983-.224-.368 0-.658.114-.871.344s-.319.587-.319 1.07c0 .919.495 1.414 1.484 1.483m5.918-17.994c.035.087.052.314.052.682 0 .644-.063 1.225-.19 1.742-.126.517-.322.954-.586 1.311-.264.356-.601.629-1.009.819-.408.189-.894.284-1.457.284-.529 0-1.018-.089-1.466-.267-.449-.178-.837-.457-1.164-.836-.328-.38-.586-.863-.776-1.45-.189-.586-.284-1.292-.284-2.12 0-1.553.33-2.69.991-3.415s1.595-1.086 2.803-1.086c.471 0 .959.046 1.465.138s1 .236 1.483.431c.127.058.173.144.138.259l-.276.914c-.023.08-.066.125-.129.138-.063.011-.124.006-.181-.018-.333-.126-.699-.235-1.095-.328-.397-.092-.762-.137-1.095-.137-.345 0-.656.049-.932.146-.275.098-.514.256-.715.474-.201.219-.362.506-.483.863-.121.356-.187.799-.198 1.327h4.828c.15 0 .242.043.276.129m-5.104 1.148c.115 1.563.695 2.345 1.741 2.345.322 0 .592-.063.811-.19.218-.126.394-.296.526-.508.132-.213.227-.463.285-.751.057-.287.091-.586.103-.896zm8.237 20.381c.426 0 .756-.115.992-.345s.354-.69.354-1.38v-5.673c0-.127.074-.19.224-.19h1.224c.15 0 .224.063.224.19v6.225c0 .472-.06.871-.181 1.199-.12.327-.29.595-.509.802-.218.206-.477.356-.776.448-.298.092-.626.138-.983.138-.482 0-.945-.078-1.388-.233s-.859-.342-1.25-.56l-.138.431c-.023.057-.049.103-.077.138-.029.034-.084.051-.164.051h-.914c-.15 0-.225-.063-.225-.189v-8.45c0-.127.075-.19.225-.19h1.224c.149 0 .224.063.224.19v6.812c.253.149.552.284.897.404.345.121.684.182 1.017.182m-13.449-.224c.173 0 .264.063.276.189l.172 1.087c.012.069.012.123 0 .164-.011.04-.051.071-.12.095-.058.023-.115.034-.172.034h-.173c-.253 0-.575-.058-.966-.172-.391-.115-.851-.305-1.379-.57l-.138.449c-.023.069-.046.117-.069.146s-.081.043-.172.043h-.915c-.149 0-.224-.063-.224-.189v-8.45c0-.127.075-.19.224-.19h1.225c.149 0 .224.063.224.19v6.863c.414.127.825.21 1.233.25.408.041.733.061.974.061m97.345-21.305c.035.087.052.314.052.682 0 .644-.063 1.225-.189 1.742-.127.517-.322.954-.586 1.311-.265.356-.601.629-1.01.819-.408.189-.893.284-1.457.284-.528 0-1.017-.089-1.465-.267-.449-.178-.837-.457-1.165-.836-.328-.38-.586-.863-.776-1.45-.189-.586-.284-1.292-.284-2.12 0-1.553.331-2.69.991-3.415.661-.725 1.596-1.086 2.803-1.086.471 0 .96.046 1.466.138.505.092 1 .236 1.483.431.126.058.172.144.137.259l-.275.914c-.023.08-.066.125-.13.138-.063.011-.123.006-.181-.018-.334-.126-.699-.235-1.095-.328-.396-.092-.762-.137-1.095-.137-.345 0-.656.049-.931.146-.276.098-.515.256-.716.474-.2.219-.362.506-.483.863-.12.356-.187.799-.198 1.327h4.829c.149 0 .241.043.275.129m-5.104 1.148c.115 1.563.696 2.345 1.742 2.345.322 0 .592-.063.81-.19.218-.126.394-.296.527-.508.131-.213.227-.463.284-.751.057-.287.092-.586.104-.896zm12.033-1.483c-.155.195-.359.382-.612.56s-.568.359-.948.543l-.897.431c-.483.23-.802.451-.957.665-.155.212-.233.433-.233.663 0 .299.118.529.354.69s.532.241.888.241c.206 0 .414-.015.62-.043.208-.028.401-.06.579-.094.178-.035.335-.067.474-.095.138-.029.236-.043.293-.043.092 0 .149.014.173.043.022.028.045.077.068.146l.224.931c.023.127-.028.207-.155.242-.264.057-.586.121-.965.189-.38.069-.766.104-1.156.104-.931 0-1.672-.219-2.225-.655-.551-.437-.828-1.041-.828-1.811 0-.517.133-.965.397-1.345.265-.379.742-.736 1.432-1.069l.966-.466c.482-.23.807-.451.974-.664.167-.212.249-.474.249-.784 0-.311-.131-.55-.395-.717-.266-.166-.599-.249-1.001-.249-.23 0-.466.017-.707.052-.242.034-.472.074-.69.12-.219.047-.411.092-.578.139-.167.045-.284.074-.353.086-.092.011-.155-.052-.189-.19l-.242-.932c-.035-.126.011-.218.137-.275.105-.034.245-.078.423-.13s.385-.097.621-.138c.236-.04.486-.074.751-.103.264-.029.534-.043.809-.043.414 0 .811.052 1.191.155.379.103.712.261 1 .474.287.213.514.483.681.811.166.328.25.721.25 1.182 0 .275-.031.525-.095.749-.063.225-.172.435-.328.63m-16.423 4.587c-.219.206-.48.356-.785.448s-.635.138-.991.138c-.449 0-.889-.069-1.32-.207s-.83-.304-1.198-.5v3.828c0 .127-.075.19-.224.19h-1.225c-.15 0-.225-.063-.225-.19v-11.934c0-.126.075-.189.225-.189h1.225c.149 0 .224.063.224.189v6.813c.252.148.557.284.913.405.357.12.702.181 1.035.181.426 0 .761-.116 1.009-.345.247-.23.37-.69.37-1.38v-5.674c0-.126.075-.189.225-.189h1.225c.148 0 .223.063.223.189v6.226c0 .471-.062.871-.189 1.199-.127.327-.3.594-.517.802m-58.322 18.691c-.495 0-.929-.089-1.302-.268-.374-.178-.699-.353-.974-.525l-.139.431c-.022.057-.048.103-.077.138-.029.034-.084.051-.164.051h-.914c-.15 0-.225-.063-.225-.189v-12.451c0-.126.075-.19.225-.19h1.225c.149 0 .224.064.224.19v4.001c.62-.242 1.166-.362 1.638-.362 1.184 0 2.118.402 2.802 1.207.684.804 1.026 2.023 1.026 3.656 0 1.414-.284 2.486-.854 3.216-.569.73-1.399 1.095-2.491 1.095m1.069-6.985c-.344-.528-.868-.793-1.569-.793-.288 0-.579.046-.871.138-.294.092-.544.196-.75.311v5.346c.252.149.517.287.793.414.275.126.609.189 1 .189.678 0 1.167-.259 1.465-.776.3-.517.449-1.368.449-2.552 0-.989-.172-1.748-.517-2.277m38.28 6.985c-.553 0-1.055-.092-1.51-.276-.453-.184-.845-.468-1.172-.853-.328-.386-.581-.883-.759-1.492-.178-.61-.267-1.346-.267-2.208 0-1.529.304-2.635.915-3.319.608-.685 1.511-1.026 2.707-1.026.552 0 1.054.092 1.509.275.454.184.845.469 1.173.854.326.385.579.882.758 1.492.178.609.267 1.345.267 2.207 0 1.529-.304 2.636-.914 3.32-.609.684-1.512 1.026-2.707 1.026m1.44-7.01c-.282-.523-.779-.785-1.492-.785-.334 0-.621.057-.862.173-.242.115-.44.307-.596.577-.154.27-.266.618-.335 1.044-.07.425-.104.948-.104 1.569 0 .977.138 1.73.414 2.259s.77.793 1.483.793c.344 0 .638-.057.88-.172.241-.115.44-.308.595-.578.154-.27.266-.618.336-1.043.069-.426.103-.949.103-1.57 0-.988-.141-1.744-.422-2.267m55.024-11.293c-.011.04-.051.071-.12.095-.058.023-.115.034-.173.034h-.172c-.253 0-.575-.058-.966-.172-.39-.116-.851-.305-1.379-.57l-.139.448c-.022.07-.045.118-.069.148-.022.028-.08.043-.172.043h-.914c-.15 0-.224-.064-.224-.191v-8.45c0-.126.074-.189.224-.189h1.225c.149 0 .224.063.224.189v6.864c.414.127.825.21 1.233.25s.732.061.974.061c.172 0 .264.063.276.189l.172 1.086c.012.07.012.124 0 .165m-6.305-4.64c.034.087.051.314.051.682 0 .644-.064 1.225-.19 1.742-.127.517-.322.954-.586 1.311-.264.356-.601.629-1.009.819-.409.189-.894.284-1.458.284-.528 0-1.017-.089-1.465-.267-.449-.178-.837-.457-1.165-.836-.326-.38-.586-.863-.775-1.45-.19-.586-.285-1.292-.285-2.12 0-1.553.331-2.69.992-3.415.66-.725 1.595-1.086 2.803-1.086.47 0 .959.046 1.465.138s1 .236 1.483.431c.126.058.173.144.139.259l-.277.914c-.023.08-.066.125-.129.138-.064.011-.124.006-.181-.018-.333-.126-.698-.235-1.095-.328-.397-.092-.762-.137-1.096-.137-.345 0-.655.049-.931.146-.275.098-.514.256-.716.474-.2.219-.361.506-.483.863-.12.356-.186.799-.197 1.327h4.828c.15 0 .241.043.277.129m-5.105 1.148c.115 1.563.695 2.345 1.741 2.345.322 0 .592-.063.811-.19.219-.126.393-.296.526-.508.131-.213.227-.463.285-.751.056-.287.091-.586.103-.896zm-2.951 3.518h-2.414v2.051c0 .139-.075.202-.225.191l-1.223-.174c-.15-.011-.225-.08-.225-.206v-1.862h-.897c-.15 0-.223-.064-.223-.191v-.948c0-.127.073-.189.223-.189h.897v-5.226c0-.92.172-1.557.517-1.913.345-.357.892-.535 1.639-.535.148 0 .313.009.491.026s.356.04.534.069c.179.028.348.063.509.103s.3.083.414.129c.115.046.161.126.139.242l-.208.811c-.034.114-.097.172-.189.172-.069 0-.236-.032-.5-.095-.265-.064-.541-.095-.828-.095-.299 0-.515.11-.647.327-.132.219-.198.592-.198 1.122v4.863h2.414c.15 0 .225.062.225.189v.948c0 .127-.075.191-.225.191m-30.984-7.45c-.022.057-.066.098-.129.12-.064.023-.124.023-.182 0-.47-.172-.965-.258-1.482-.258-.346 0-.655.058-.932.172-.276.115-.508.305-.699.569-.189.265-.333.607-.43 1.027-.098.419-.147.939-.147 1.56 0 .931.178 1.664.536 2.198.356.535.878.803 1.568.803.345 0 .627-.026.845-.078.219-.051.408-.101.569-.146.103-.023.172.039.208.189l.223.983c.035.138-.023.225-.172.259-.173.058-.414.109-.724.155-.311.045-.616.069-.914.069-.552 0-1.064-.095-1.535-.284-.471-.19-.883-.483-1.233-.88-.351-.397-.626-.9-.828-1.509-.201-.61-.302-1.328-.302-2.156 0-1.494.317-2.592.948-3.293.633-.702 1.553-1.052 2.76-1.052.344 0 .719.035 1.121.103.403.069.748.167 1.034.294.127.057.173.144.139.258zm-34.652 16.915v6.863c.412.127.824.21 1.232.25.409.041.733.061.974.061.173 0 .265.063.276.189l.172 1.087c.012.069.012.123 0 .164-.011.04-.051.071-.12.095-.058.023-.115.034-.172.034h-.173c-.252 0-.574-.058-.966-.172-.391-.115-.85-.305-1.379-.57l-.138.449c-.023.069-.047.117-.069.146-.023.029-.081.043-.173.043h-.914c-.149 0-.224-.063-.224-.189v-8.45c0-.127.075-.19.224-.19h1.225c.15 0 .225.063.225.19m-7.237 8.812c-.552 0-1.055-.092-1.509-.276s-.845-.468-1.173-.853c-.328-.386-.581-.883-.759-1.492-.178-.61-.266-1.346-.266-2.208 0-1.529.304-2.635.914-3.319.609-.685 1.512-1.026 2.707-1.026.552 0 1.055.092 1.509.275.454.184.845.469 1.173.854.327.385.579.882.759 1.492.178.609.266 1.345.266 2.207 0 1.529-.304 2.636-.914 3.32-.609.684-1.512 1.026-2.707 1.026m1.44-7.01c-.282-.523-.779-.785-1.492-.785-.334 0-.62.057-.862.173-.242.115-.44.307-.595.577s-.267.618-.336 1.044c-.069.425-.103.948-.103 1.569 0 .977.137 1.73.414 2.259.275.529.77.793 1.482.793.345 0 .638-.057.88-.172.241-.115.44-.308.595-.578s.267-.618.336-1.043c.069-.426.103-.949.103-1.57 0-.988-.14-1.744-.422-2.267m-.634-11.198c-.056.023-.114.034-.172.034h-.172c-.253 0-.575-.058-.965-.172-.392-.116-.851-.305-1.381-.57l-.137.448c-.024.07-.046.118-.069.148-.024.028-.081.043-.172.043h-.914c-.15 0-.225-.064-.225-.191v-8.45c0-.126.075-.189.225-.189h1.223c.15 0 .225.063.225.189v6.864c.414.127.824.21 1.232.25.409.04.734.061.976.061.172 0 .264.063.275.189l.173 1.086c.011.07.011.124 0 .165-.012.04-.052.071-.122.095m15.401 3.414h-1.725c-.127 0-.213-.063-.258-.19l-2.398-7.122-2.345 7.122c-.047.127-.133.19-.259.19h-1.828c-.149 0-.23-.063-.241-.19l-1.001-11.934c0-.126.07-.189.208-.189h1.207c.149 0 .224.063.224.189l.707 10.141 2.431-7.226c.035-.115.121-.172.259-.172h1.035c.15 0 .242.057.276.172l2.5 7.26.759-10.175c0-.126.075-.189.225-.189h1.241c.138 0 .207.063.207.189l-.983 11.934c-.012.127-.092.19-.241.19m17.325-3.897c-.217.206-.476.356-.775.448-.3.092-.628.138-.984.138-.483 0-.945-.078-1.388-.233-.442-.155-.859-.342-1.25-.561l-.138.431c-.023.058-.049.105-.077.139-.029.034-.084.052-.164.052h-.914c-.15 0-.225-.064-.225-.191v-8.45c0-.126.075-.189.225-.189h1.224c.15 0 .225.063.225.189v6.813c.252.148.551.284.896.405.345.12.684.181 1.017.181.425 0 .756-.116.992-.345.236-.23.354-.69.354-1.38v-5.674c0-.126.074-.189.224-.189h1.224c.15 0 .225.063.225.189v6.226c0 .471-.061.871-.181 1.199-.122.327-.291.594-.51.802m-7 21.933c-.208.057-.461.112-.76.164-.298.052-.615.077-.948.077-.851 0-1.486-.258-1.905-.776-.42-.517-.63-1.322-.63-2.414v-.466h-.897c-.15 0-.224-.063-.224-.189v-.949c0-.126.074-.189.224-.189h.897v-7.312c0-.127.075-.19.224-.19h1.224c.15 0 .225.063.225.19v7.312h1.965c.15 0 .225.063.225.189v.949c0 .126-.075.189-.225.189h-1.965v.88c0 .54.083.917.249 1.13.167.212.435.319.802.319.116 0 .239-.009.371-.026.133-.017.259-.041.38-.069.12-.029.227-.052.319-.069.091-.018.155-.026.189-.026.093 0 .155.057.19.172l.207.863c.011.057.009.106-.008.146-.018.04-.061.072-.129.095m-1.947-21.882c-.242.196-.538.333-.888.414-.352.08-.74.121-1.165.121-.207 0-.442-.011-.707-.035-.265-.023-.524-.049-.777-.077-.252-.029-.488-.06-.706-.095-.219-.034-.386-.064-.5-.086-.139-.035-.196-.121-.173-.259l.156-.914c.011-.126.08-.189.206-.189.047 0 .15.014.311.043.161.028.35.057.569.086.218.028.442.058.673.086.23.028.431.043.603.043.333 0 .601-.037.802-.112s.354-.187.457-.336c.103-.15.172-.331.207-.543.034-.213.051-.463.051-.751v-.517l-1.311-.069c-.459-.023-.896-.092-1.309-.207-.414-.115-.777-.288-1.087-.518-.311-.229-.554-.525-.734-.887-.178-.363-.266-.803-.266-1.32 0-.85.218-1.483.655-1.896.437-.414 1.001-.621 1.69-.621.517 0 .983.084 1.397.25.413.167.787.377 1.121.63l.172-.519c.023-.056.047-.103.069-.137.023-.035.075-.052.156-.052h.862c.149 0 .224.063.224.189v6.313c0 .482-.067.882-.198 1.198-.133.316-.32.572-.56.767m-.881-6.622c-.218-.161-.505-.316-.861-.465-.358-.15-.684-.224-.984-.224-.367 0-.657.114-.871.344-.213.231-.318.587-.318 1.07 0 .92.494 1.414 1.483 1.483l1.551.103zm-85.086-4.724-2.057-.001c-2.955 0-5.349 2.395-5.349 5.349v25.511c0 4.091-3.316 7.407-7.407 7.407s-7.407-3.316-7.407-7.407v-25.511c0-2.954-2.395-5.349-5.349-5.349s-5.349 2.395-5.349 5.349v25.511c0 4.091-3.317 7.407-7.407 7.407s-7.407-3.316-7.407-7.407v-25.511c0-2.954-2.395-5.349-5.349-5.349l-2.057.001c-.227 0-.412-.185-.412-.412v-4.114c0-.227.185-.412.412-.412l2.057-.001c5.682 0 10.287 4.605 10.287 10.287v25.511.001c0 1.363 1.105 2.469 2.469 2.469s2.469-1.106 2.469-2.469v-25.512c0-5.682 4.605-10.287 10.287-10.287 5.681 0 10.287 4.605 10.287 10.287v25.511.001c0 1.363 1.105 2.469 2.469 2.469 1.363 0 2.469-1.106 2.469-2.469v-25.512c0-5.682 4.605-10.287 10.287-10.287l2.057.001c.226 0 .412.185.412.412v4.114c0 .227-.186.412-.412.412m-14.813 46.084c-5.341 0-10.039-2.75-12.756-6.912-2.717 4.162-7.415 6.912-12.756 6.912-8.408 0-15.225-6.816-15.225-15.225v-27.568c0-.227.185-.412.412-.412h2.055.002c1.364 0 2.469 1.106 2.469 2.469v25.511c0 5.682 4.606 10.288 10.287 10.288s10.287-4.606 10.287-10.288v-25.51-.001c0-1.363 1.105-2.469 2.469-2.469s2.469 1.106 2.469 2.469v.001 25.51c0 5.682 4.605 10.288 10.287 10.288 5.681 0 10.287-4.606 10.287-10.288v-25.509-.002c0-1.363 1.105-2.469 2.469-2.469h.002 2.055c.226 0 .412.185.412.412v27.568c0 8.409-6.817 15.225-15.225 15.225" fill="#231f20" transform="matrix(.77580507 0 0 .77580507 112.09198 537.20593)"/></g></svg>