<svg id="Layer_1" xmlns="http://www.w3.org/2000/svg" viewBox="0 0 180 21.9"><style>.st0{fill:#434e54}.st1{fill:#e9418b}</style><path class="st0" d="M14.9.6v3.6H9.5v17.4H5.4V4.2H0V.6zM97.3 17c1 .9 2.8 1.6 4.3 1.6 1.1 0 1.9-.5 1.9-1.2 0-2.2-7.1-1.4-7.1-6.1 0-2.8 2.7-4.5 5.6-4.5 1.9 0 4 .7 4.9 1.5l-1.4 2.9c-.8-.5-2.2-1.1-3.3-1.1-1.1 0-2 .4-2 1.2 0 1.9 7.1 1.1 7.1 6.2 0 2.8-2.5 4.5-5.8 4.5-2 0-4.1-.7-5.9-2l1.7-3zM110 .6h4V18h8.2v3.6H110z"/><path class="st1" d="M175.8.6l-9.8 21h4.2l9.8-21z"/><path class="st0" d="M128.8 21.6h-3.9V7h3.9v14.6zM126.9 0c1.3 0 2.4 1 2.4 2.4 0 1.3-1.1 2.4-2.4 2.4-1.3 0-2.4-1-2.4-2.4s1-2.4 2.4-2.4m-74 21.6V7h3.8v1.2c1.1-1 2.5-1.5 3.9-1.5 2 0 3.8.9 4.9 2.3 1.2-1.2 3-2.3 5.2-2.3 3.1 0 6.6 2 6.6 7.2v7.7h-3.9v-7.9c0-2.3-1.2-3.4-2.9-3.4s-3 1.2-3.5 1.9c.1.5.1 1 .1 1.6v7.7h-3.9v-7.9c0-2.6-1.4-3.4-2.9-3.4-1.7 0-2.9 1.1-3.4 1.8v9.5h-4v.1zm-7.1-9.5c-.8-1.1-2.1-1.8-3.6-1.8-2.3 0-3.8 1.9-3.8 4 0 2.3 1.7 4 3.8 4 1.5 0 2.8-.7 3.5-1.8l.1-4.4zm3.9 9.5H46v-1.2c-1.2 1-2.6 1.5-4.1 1.5-3.8 0-7.4-2.9-7.4-7.6 0-4.3 3.2-7.6 7.2-7.6 1.7 0 3.1.5 4.3 1.5V7h3.8l-.1 14.6zm82.3 0V7h3.8v1.2c1.1-.9 2.5-1.5 4.1-1.5 2.6 0 6.6 1.6 6.6 7.3v7.6h-3.9v-7.7c0-2.5-1.3-3.5-3.1-3.5-1.7 0-3 1.1-3.5 1.8v9.5h-4v-.1zM25.5 6.7c-1.6 0-2.9.5-4 1.4V.6h-3.9v21h3.9v-9.5c.5-.8 1.9-1.8 3.5-1.8 1.8 0 3.1 1 3.1 3.5v7.7H32V14c.1-5.7-3.9-7.3-6.5-7.3m58.1 5.9c.4-1.7 1.7-2.8 3.2-2.8 1.7 0 2.9 1.3 3 2.8h-6.2zm10.2 1.6c0-4.1-2.8-7.5-6.9-7.5-4.3 0-7.1 3.5-7.1 7.6 0 4.6 3.3 7.6 7.6 7.6 2.3 0 4.6-.9 6-2.6L91.1 17c-.7.8-2 1.7-3.7 1.7-2 0-3.6-1.3-3.9-3.3h10.2c.1-.5.1-.8.1-1.2M163.9 7H159l-5.6 6.2V.6h-3.9v21h3.9v-6.7l5.6 6.7h4.9l-6.7-7.6z"/></svg>