<?xml version="1.0" encoding="utf-8"?>
<!-- Generator: Adobe Illustrator 19.0.0, SVG Export Plug-In . SVG Version: 6.00 Build 0)  -->
<svg version="1.1" id="layer" xmlns="http://www.w3.org/2000/svg" xmlns:xlink="http://www.w3.org/1999/xlink" x="0px" y="0px"
	 viewBox="255.1 297.9 394 198.8" style="enable-background:new 255.1 297.9 394 198.8;" xml:space="preserve">
<style type="text/css">
	.st0{fill:#00A6E6;}
	.st1{fill:#1E234F;}
	.st2{fill:#8F83BD;}
	.st3{fill:#80CFF4;}
	.st4{fill:#943F90;}
</style>
<g id="TPE-Logo" transform="translate(153.000000, 0.000000)">
	<polygon id="Fill-1" class="st0" points="184.3,496.2 171.6,477.5 158.9,496.2 146.4,496.2 165.3,468.2 146.8,440.8 159.5,440.8 
		171.6,458.7 183.7,440.8 196.5,440.8 177.9,468 197.1,496.2 	"/>
	<g id="Group-35" transform="translate(0.000000, 0.049470)">
		<path id="Fill-2" class="st0" d="M224.6,466c5.6,0,9.1-2.6,9.1-7.7c0-5.1-3.4-7.7-9.1-7.7h-8.9V466H224.6L224.6,466z M224.9,440.8
			c12.7,0,19.8,7.6,19.8,17.5c0,10-7,17.5-19.8,17.5h-9.2v20.3h-11v-55.4L224.9,440.8L224.9,440.8z"/>
		<path id="Fill-4" class="st0" d="M263,466h8.9c5.7,0,9.1-2.6,9.1-7.7c0-5.1-3.4-7.7-9.1-7.7H263C263,450.7,263,466,263,466z
			 M281.8,496.1l-13.3-20.3H263v20.3h-11v-55.4h20.2c12.7,0,19.8,7.6,19.8,17.5c0,7.8-4.3,14.2-12.3,16.4l14.6,21.3L281.8,496.1
			L281.8,496.1z"/>
		<polygon id="Fill-6" class="st0" points="311.3,486.4 311.3,473.2 327.3,473.2 330.8,463.5 311.3,463.5 311.3,450.5 333.2,450.5 
			336.7,440.8 300.1,440.8 300.1,496.1 333.8,496.1 337.3,486.4 		"/>
		<polygon id="Fill-8" class="st0" points="115.4,486.4 115.4,473.2 131.4,473.2 134.9,463.5 115.4,463.5 115.4,450.5 137.2,450.5 
			140.7,440.8 104.1,440.8 104.1,496.1 137.8,496.1 141.4,486.4 		"/>
		<path id="Fill-10" class="st0" d="M409.6,462.1l-2.2-0.8c-5.1-2-6.9-3.3-6.9-6.3c0-3.2,3.3-5.1,6.8-5.1c3.9,0,7.5,1.6,8.5,4.4
			h10.6c-0.5-1.3-1.4-4-3.2-6.4c-3.3-4.4-8.8-7.7-16-7.7c-9,0-17.8,5.8-17.8,14.8c0,8.7,6.4,13.3,15.2,16.2l2.2,0.7
			c6.4,2.2,9,4.6,9,8.6c0,4.8-4.7,6.6-8.5,6.6c-4.9,0-9.7-3.3-11.1-7.4l0,0l0,0h-10.4c0.3,1.4,0.7,2.8,1.1,4l0.5,1.1
			c3.3,7.2,10.9,11.9,19.9,11.9c7.6,0,19.6-4.9,19.6-16.2C427,472.7,422.4,466.6,409.6,462.1"/>
		<path id="Fill-12" class="st0" d="M364.8,462.1l-2.2-0.8c-5.1-2-6.9-3.3-6.9-6.3c0-3.2,3.3-5.1,6.8-5.1c3.9,0,7.5,1.6,8.5,4.4
			h10.6c-0.5-1.3-1.4-4-3.2-6.4c-3.3-4.4-8.8-7.7-16-7.7c-9,0-17.8,5.8-17.8,14.8c0,8.7,6.4,13.3,15.2,16.2l2.2,0.7
			c6.4,2.2,9,4.6,9,8.6c0,4.8-4.7,6.6-8.5,6.6c-4.9,0-9.7-3.3-11.1-7.4l0,0l0,0h-10.4c0.3,1.4,0.7,2.8,1.1,4l0.5,1.1
			c3.3,7.2,10.9,11.9,19.9,11.9c7.6,0,19.6-4.9,19.6-16.2C382.2,472.7,377.6,466.6,364.8,462.1"/>
		<path id="Fill-14" class="st1" d="M139.1,413.2h5.1c3.2,0,5.2-1.5,5.2-4.4c0-3-2-4.4-5.2-4.4h-5.1V413.2z M149.8,430.4l-7.6-11.6
			h-3.1v11.6h-6.2v-31.5h11.5c7.3,0,11.2,4.3,11.2,10c0,4.5-2.4,8.1-7,9.4l8.3,12.1H149.8z"/>
		<path id="Fill-16" class="st1" d="M261.4,413.2c3.2,0,5.2-1.5,5.2-4.4c0-3-2-4.4-5.2-4.4h-5.1v8.7L261.4,413.2L261.4,413.2z
			 M261.6,398.9c7.3,0,11.2,4.3,11.2,10s-4,10-11.2,10h-5.3v11.6h-6.2v-31.5L261.6,398.9L261.6,398.9z"/>
		<polygon id="Fill-18" class="st1" points="364.2,430.4 370.6,430.4 370.6,398.9 364.2,398.9 		"/>
		<g>
			<path id="Fill-20" class="st1" d="M235.3,411.1l-1.2-0.5c-3-1.1-3.9-1.9-3.9-3.6c0-1.8,1.8-3,3.9-3c2.2,0,4.3,0.9,4.9,2.5h6
				c-0.3-1.1-0.8-2.1-1.3-3l0,0l-0.1-0.1c-1.8-2.8-5.1-5-9.6-5c-5.1,0-10.2,3.3-10.2,8.5c0,5,3.7,7.6,8.7,9.3l1.3,0.3
				c3.7,1.2,5.1,2.6,5.1,4.9c0,2.8-2.7,3.7-4.9,3.7c-2.8,0-5.5-1.9-6.4-4.2h-5.8c0.3,2.7,1.6,4.3,2,4.9l0,0c2.2,3,5.9,4.8,10.2,4.8
				c4.3,0,11.2-2.8,11.2-9.3C245.3,417.1,242.6,413.6,235.3,411.1"/>
		</g>
		<polygon id="Fill-21" class="st1" points="412.2,424.9 412.2,417.3 421,417.3 423,411.8 412.2,411.8 412.2,404.4 424.5,404.4 
			426.6,398.9 405.7,398.9 405.7,430.4 425,430.4 427,424.9 		"/>
		<polygon id="Fill-22" class="st1" points="283.7,424.9 283.7,417.3 292.6,417.3 294.6,411.8 283.7,411.8 283.7,404.4 296.1,404.4 
			298,398.9 277.2,398.9 277.2,430.4 296.5,430.4 298.6,424.9 		"/>
		<polygon id="Fill-23" class="st1" points="127.9,398.9 104.1,398.9 102.1,404.5 111.7,404.5 111.7,430.4 118.3,430.4 118.3,404.5 
			125.9,404.5 		"/>
		<polygon id="Fill-24" class="st1" points="211.4,398.9 211.4,415.5 193.4,398.5 193.4,430.4 199.7,430.4 199.7,413.8 217.7,430.8 
			217.7,398.9 		"/>
		<polygon id="Fill-25" class="st1" points="322,398.9 322,415.5 304,398.5 304,430.4 310.3,430.4 310.3,413.8 328.3,430.8 
			328.3,398.9 		"/>
		<polygon id="Fill-26" class="st1" points="352.2,398.9 352.2,415.5 334.2,398.5 334.2,430.4 340.6,430.4 340.6,413.8 358.6,430.8 
			358.6,398.9 		"/>
		<polygon id="Fill-27" class="st1" points="394.3,398.9 394.3,415.5 376.3,398.5 376.3,430.4 382.6,430.4 382.6,413.8 400.6,430.8 
			400.6,398.9 		"/>
		<polygon id="Fill-28" class="st0" points="478.2,358.5 491.7,390.2 470.6,385.5 		"/>
		<polygon id="Fill-29" class="st2" points="458.8,323.9 496.1,300.2 478.4,350.5 		"/>
		<g>
			<path id="Fill-30" class="st0" d="M427,297.9c0.2,0.7,49.8,54.4,49.8,54.4L427,337.5V297.9L427,297.9z"/>
		</g>
		<polygon id="Fill-31" class="st3" points="475.7,354.3 427,344.2 374.7,382.3 		"/>
		<polygon id="Fill-32" class="st1" points="475.7,354.3 374.7,382.3 427,382.3 		"/>
		<polygon id="Fill-33" class="st4" points="476,357 435.2,385.9 447.9,436.6 		"/>
		<g>
			<path id="Fill-34" class="st1" d="M172.3,417.8l2.7-7.2l2.7,7.2H172.3z M182.9,430.4h6.9l-14.7-32.3l-14.7,32.3h6.9l3-7.3h9.8
				L182.9,430.4z"/>
		</g>
	</g>
</g>
</svg>
